M48
; DRILL file {KiCad 5.1.9-73d0e3b20d~88~ubuntu20.04.1} date Thu Mar 11 22:15:49 2021
; FORMAT={-:-/ absolute / inch / decimal}
; #@! TF.CreationDate,2021-03-11T22:15:49-06:00
; #@! TF.GenerationSoftware,Kicad,Pcbnew,5.1.9-73d0e3b20d~88~ubuntu20.04.1
; #@! TF.FileFunction,Plated,1,2,PTH
FMAT,2
INCH
T1C0.0157
T2C0.0197
T3C0.0295
T4C0.0300
T5C0.0315
T6C0.0394
T7C0.0433
T8C0.0492
T9C0.0827
%
G90
G05
T1
X7.1362Y-4.1447
X7.2937Y-3.751
X7.3421Y-4.2994
X7.3724Y-4.3809
X7.4012Y-4.2128
X7.5693Y-3.7904
X7.5693Y-3.9872
X7.6557Y-4.2969
X7.8449Y-3.7904
X7.8449Y-3.9872
X7.9236Y-4.3022
X7.9236Y-4.499
X8.0417Y-3.7904
X8.0811Y-4.3022
X8.0811Y-4.499
X8.3961Y-4.3022
X8.3961Y-4.499
X8.5535Y-4.3022
X8.5535Y-4.499
X8.711Y-4.3022
X8.711Y-4.499
X9.1138Y-4.9451
X9.1295Y-3.2915
X9.1925Y-4.1734
X9.35Y-3.8191
X9.4681Y-4.2128
X9.5469Y-4.6065
X9.8224Y-4.764
X9.9799Y-3.8978
X10.0587Y-4.5671
X10.2142Y-4.1852
X10.3736Y-4.2915
X10.8067Y-4.9411
T2
X8.337Y-3.7904
X8.7398Y-3.3467
T3
X9.478Y-4.4081
X9.478Y-4.4581
X9.478Y-4.5081
T4
X8.823Y-4.3055
X8.823Y-4.4055
X9.123Y-4.3055
X9.123Y-4.4055
T5
X7.2752Y-3.449
X7.2752Y-3.5868
X7.6457Y-4.0947
X7.7457Y-4.0947
X9.1246Y-4.5173
X9.1246Y-4.6173
X9.2407Y-4.3028
X9.2407Y-4.4028
X9.4114Y-3.3191
X9.5114Y-3.3191
X9.6177Y-4.2404
X9.6177Y-4.3404
X9.728Y-3.9175
X9.728Y-4.0175
X10.2083Y-3.9136
X10.2083Y-4.0136
T6
X7.0075Y-3.449
X7.0075Y-3.549
X8.726Y-3.6222
X8.726Y-3.8191
X8.726Y-4.0159
X9.226Y-3.6222
X9.226Y-3.8191
X9.226Y-4.0159
X10.6413Y-4.4018
X10.6413Y-4.5018
T7
X9.4081Y-4.6882
X9.4081Y-4.7882
X9.4081Y-4.8882
T8
X8.476Y-3.3545
T9
X7.0469Y-3.9136
X7.0469Y-4.1498
X10.7752Y-3.3821
X10.7752Y-3.6183
T0
M30
