%TF.GenerationSoftware,KiCad,Pcbnew,5.1.9-73d0e3b20d~88~ubuntu20.04.1*%
%TF.CreationDate,2021-03-11T22:15:51-06:00*%
%TF.ProjectId,iso,69736f2e-6b69-4636-9164-5f7063625858,rev?*%
%TF.SameCoordinates,Original*%
%TF.FileFunction,Soldermask,Bot*%
%TF.FilePolarity,Negative*%
%FSLAX46Y46*%
G04 Gerber Fmt 4.6, Leading zero omitted, Abs format (unit mm)*
G04 Created by KiCad (PCBNEW 5.1.9-73d0e3b20d~88~ubuntu20.04.1) date 2021-03-11 22:15:51*
%MOMM*%
%LPD*%
G01*
G04 APERTURE LIST*
%ADD10C,3.200000*%
%ADD11C,2.000000*%
%ADD12O,1.600000X1.600000*%
%ADD13C,1.600000*%
%ADD14O,2.000000X1.905000*%
%ADD15R,2.000000X1.905000*%
%ADD16O,3.500000X3.500000*%
%ADD17R,1.500000X1.050000*%
%ADD18O,1.500000X1.050000*%
%ADD19C,1.524000*%
%ADD20O,1.700000X1.700000*%
%ADD21R,1.700000X1.700000*%
%ADD22C,3.100000*%
%ADD23R,1.600000X1.600000*%
G04 APERTURE END LIST*
D10*
%TO.C,REF\u002A\u002A*%
X271890000Y-104605000D03*
%TD*%
%TO.C,REF\u002A\u002A*%
X180890000Y-122605000D03*
%TD*%
D11*
%TO.C,T1*%
X234340000Y-102005000D03*
X234340000Y-97005000D03*
X234340000Y-92005000D03*
X221640000Y-102005000D03*
X221640000Y-92005000D03*
X221640000Y-97005000D03*
%TD*%
D12*
%TO.C,R12*%
X247090000Y-102045000D03*
D13*
X247090000Y-99505000D03*
%TD*%
D12*
%TO.C,R11*%
X239050000Y-84305000D03*
D13*
X241590000Y-84305000D03*
%TD*%
D14*
%TO.C,U5*%
X238965000Y-124160000D03*
X238965000Y-121620000D03*
D15*
X238965000Y-119080000D03*
D16*
X255625000Y-121620000D03*
%TD*%
D17*
%TO.C,U3*%
X240740000Y-114505000D03*
D18*
X240740000Y-111965000D03*
X240740000Y-113235000D03*
%TD*%
D19*
%TO.C,U2*%
X224105000Y-111900000D03*
X224105000Y-109360000D03*
X231725000Y-109360000D03*
X231725000Y-111900000D03*
%TD*%
D13*
%TO.C,R18*%
X259290000Y-99405000D03*
D12*
X259290000Y-101945000D03*
%TD*%
%TO.C,R15*%
X244290000Y-110245000D03*
D13*
X244290000Y-107705000D03*
%TD*%
D12*
%TO.C,R14*%
X234715000Y-109290000D03*
D13*
X234715000Y-111830000D03*
%TD*%
D12*
%TO.C,R13*%
X231765000Y-114740000D03*
D13*
X231765000Y-117280000D03*
%TD*%
D12*
%TO.C,R3*%
X194200000Y-104005000D03*
D13*
X196740000Y-104005000D03*
%TD*%
D20*
%TO.C,J4*%
X270290000Y-114345000D03*
D21*
X270290000Y-111805000D03*
%TD*%
D22*
%TO.C,J3*%
X273690000Y-91905000D03*
G36*
G01*
X272389999Y-84355000D02*
X274990001Y-84355000D01*
G75*
G02*
X275240000Y-84604999I0J-249999D01*
G01*
X275240000Y-87205001D01*
G75*
G02*
X274990001Y-87455000I-249999J0D01*
G01*
X272389999Y-87455000D01*
G75*
G02*
X272140000Y-87205001I0J249999D01*
G01*
X272140000Y-84604999D01*
G75*
G02*
X272389999Y-84355000I249999J0D01*
G01*
G37*
%TD*%
D20*
%TO.C,J2*%
X177990000Y-90145000D03*
D21*
X177990000Y-87605000D03*
%TD*%
D22*
%TO.C,J1*%
X178990000Y-105405000D03*
G36*
G01*
X177689999Y-97855000D02*
X180290001Y-97855000D01*
G75*
G02*
X180540000Y-98104999I0J-249999D01*
G01*
X180540000Y-100705001D01*
G75*
G02*
X180290001Y-100955000I-249999J0D01*
G01*
X177689999Y-100955000D01*
G75*
G02*
X177440000Y-100705001I0J249999D01*
G01*
X177440000Y-98104999D01*
G75*
G02*
X177689999Y-97855000I249999J0D01*
G01*
G37*
%TD*%
D13*
%TO.C,C2*%
X184790000Y-87605000D03*
D23*
X184790000Y-91105000D03*
%TD*%
M02*
