%TF.GenerationSoftware,KiCad,Pcbnew,5.1.9-73d0e3b20d~88~ubuntu20.04.1*%
%TF.CreationDate,2021-03-11T22:23:18-06:00*%
%TF.ProjectId,pfc,7066632e-6b69-4636-9164-5f7063625858,rev?*%
%TF.SameCoordinates,Original*%
%TF.FileFunction,Soldermask,Bot*%
%TF.FilePolarity,Negative*%
%FSLAX46Y46*%
G04 Gerber Fmt 4.6, Leading zero omitted, Abs format (unit mm)*
G04 Created by KiCad (PCBNEW 5.1.9-73d0e3b20d~88~ubuntu20.04.1) date 2021-03-11 22:23:18*
%MOMM*%
%LPD*%
G01*
G04 APERTURE LIST*
%ADD10C,4.000000*%
%ADD11R,5.999480X5.999480*%
%ADD12C,5.999480*%
%ADD13R,5.000000X3.100000*%
%ADD14O,1.400000X1.400000*%
%ADD15C,1.400000*%
%ADD16O,1.600000X1.600000*%
%ADD17C,1.600000*%
%ADD18O,2.000000X1.905000*%
%ADD19R,2.000000X1.905000*%
%ADD20O,3.500000X3.500000*%
%ADD21O,2.400000X2.400000*%
%ADD22C,2.400000*%
%ADD23O,1.700000X1.700000*%
%ADD24R,1.700000X1.700000*%
%ADD25O,2.000000X2.000000*%
%ADD26R,2.000000X2.000000*%
%ADD27R,1.600000X1.600000*%
%ADD28R,2.400000X2.400000*%
%ADD29C,1.250000*%
%ADD30C,3.500000*%
%ADD31C,2.000000*%
G04 APERTURE END LIST*
D10*
%TO.C,REF\u002A\u002A*%
X195000000Y-136250000D03*
%TD*%
%TO.C,REF\u002A\u002A*%
X104000000Y-54250000D03*
%TD*%
D11*
%TO.C,J4*%
X105000000Y-122250000D03*
D12*
X105000000Y-110450000D03*
%TD*%
D13*
%TO.C,L5*%
X105000000Y-91700000D03*
X105000000Y-102800000D03*
%TD*%
%TO.C,L4*%
X123000000Y-102700000D03*
X123000000Y-113800000D03*
%TD*%
%TO.C,C26*%
G36*
G01*
X107650001Y-115350000D02*
X106349999Y-115350000D01*
G75*
G02*
X106100000Y-115100001I0J249999D01*
G01*
X106100000Y-114274999D01*
G75*
G02*
X106349999Y-114025000I249999J0D01*
G01*
X107650001Y-114025000D01*
G75*
G02*
X107900000Y-114274999I0J-249999D01*
G01*
X107900000Y-115100001D01*
G75*
G02*
X107650001Y-115350000I-249999J0D01*
G01*
G37*
G36*
G01*
X107650001Y-118475000D02*
X106349999Y-118475000D01*
G75*
G02*
X106100000Y-118225001I0J249999D01*
G01*
X106100000Y-117399999D01*
G75*
G02*
X106349999Y-117150000I249999J0D01*
G01*
X107650001Y-117150000D01*
G75*
G02*
X107900000Y-117399999I0J-249999D01*
G01*
X107900000Y-118225001D01*
G75*
G02*
X107650001Y-118475000I-249999J0D01*
G01*
G37*
%TD*%
%TO.C,C25*%
G36*
G01*
X110650001Y-115350000D02*
X109349999Y-115350000D01*
G75*
G02*
X109100000Y-115100001I0J249999D01*
G01*
X109100000Y-114274999D01*
G75*
G02*
X109349999Y-114025000I249999J0D01*
G01*
X110650001Y-114025000D01*
G75*
G02*
X110900000Y-114274999I0J-249999D01*
G01*
X110900000Y-115100001D01*
G75*
G02*
X110650001Y-115350000I-249999J0D01*
G01*
G37*
G36*
G01*
X110650001Y-118475000D02*
X109349999Y-118475000D01*
G75*
G02*
X109100000Y-118225001I0J249999D01*
G01*
X109100000Y-117399999D01*
G75*
G02*
X109349999Y-117150000I249999J0D01*
G01*
X110650001Y-117150000D01*
G75*
G02*
X110900000Y-117399999I0J-249999D01*
G01*
X110900000Y-118225001D01*
G75*
G02*
X110650001Y-118475000I-249999J0D01*
G01*
G37*
%TD*%
%TO.C,C24*%
G36*
G01*
X112349999Y-76150000D02*
X113650001Y-76150000D01*
G75*
G02*
X113900000Y-76399999I0J-249999D01*
G01*
X113900000Y-77225001D01*
G75*
G02*
X113650001Y-77475000I-249999J0D01*
G01*
X112349999Y-77475000D01*
G75*
G02*
X112100000Y-77225001I0J249999D01*
G01*
X112100000Y-76399999D01*
G75*
G02*
X112349999Y-76150000I249999J0D01*
G01*
G37*
G36*
G01*
X112349999Y-73025000D02*
X113650001Y-73025000D01*
G75*
G02*
X113900000Y-73274999I0J-249999D01*
G01*
X113900000Y-74100001D01*
G75*
G02*
X113650001Y-74350000I-249999J0D01*
G01*
X112349999Y-74350000D01*
G75*
G02*
X112100000Y-74100001I0J249999D01*
G01*
X112100000Y-73274999D01*
G75*
G02*
X112349999Y-73025000I249999J0D01*
G01*
G37*
%TD*%
%TO.C,C23*%
G36*
G01*
X109349999Y-76150000D02*
X110650001Y-76150000D01*
G75*
G02*
X110900000Y-76399999I0J-249999D01*
G01*
X110900000Y-77225001D01*
G75*
G02*
X110650001Y-77475000I-249999J0D01*
G01*
X109349999Y-77475000D01*
G75*
G02*
X109100000Y-77225001I0J249999D01*
G01*
X109100000Y-76399999D01*
G75*
G02*
X109349999Y-76150000I249999J0D01*
G01*
G37*
G36*
G01*
X109349999Y-73025000D02*
X110650001Y-73025000D01*
G75*
G02*
X110900000Y-73274999I0J-249999D01*
G01*
X110900000Y-74100001D01*
G75*
G02*
X110650001Y-74350000I-249999J0D01*
G01*
X109349999Y-74350000D01*
G75*
G02*
X109100000Y-74100001I0J249999D01*
G01*
X109100000Y-73274999D01*
G75*
G02*
X109349999Y-73025000I249999J0D01*
G01*
G37*
%TD*%
D14*
%TO.C,R4*%
X177960000Y-122000000D03*
D15*
X180500000Y-122000000D03*
%TD*%
D14*
%TO.C,R3*%
X162940000Y-129960000D03*
D15*
X162940000Y-127420000D03*
%TD*%
D11*
%TO.C,J2*%
X182474000Y-55414000D03*
D12*
X194274000Y-55414000D03*
%TD*%
D16*
%TO.C,Rout2*%
X165000000Y-87291000D03*
D17*
X165000000Y-97451000D03*
%TD*%
D16*
%TO.C,Rout1*%
X156160000Y-106000000D03*
D17*
X146000000Y-106000000D03*
%TD*%
D18*
%TO.C,Q1*%
X142000000Y-100080000D03*
X142000000Y-97540000D03*
D19*
X142000000Y-95000000D03*
D20*
X158660000Y-97540000D03*
%TD*%
D16*
%TO.C,Risf2*%
X149460000Y-127000000D03*
D17*
X152000000Y-127000000D03*
%TD*%
D16*
%TO.C,Risf1*%
X143460000Y-127000000D03*
D17*
X146000000Y-127000000D03*
%TD*%
D21*
%TO.C,R8*%
X155100000Y-61700000D03*
D22*
X180500000Y-61700000D03*
%TD*%
D21*
%TO.C,R7*%
X155100000Y-69250000D03*
D22*
X180500000Y-69250000D03*
%TD*%
D16*
%TO.C,R6*%
X188480000Y-130670000D03*
D17*
X185940000Y-130670000D03*
%TD*%
D16*
%TO.C,R5*%
X177960000Y-125920000D03*
D17*
X180500000Y-125920000D03*
%TD*%
D16*
%TO.C,R2*%
X174940000Y-122130000D03*
D17*
X174940000Y-124670000D03*
%TD*%
D21*
%TO.C,R1*%
X105180000Y-135500000D03*
D22*
X125500000Y-135500000D03*
%TD*%
D23*
%TO.C,J3*%
X197540000Y-130750000D03*
D24*
X195000000Y-130750000D03*
%TD*%
D25*
%TO.C,D2*%
X142000000Y-84330000D03*
D26*
X142000000Y-79250000D03*
D20*
X158660000Y-81790000D03*
%TD*%
D17*
%TO.C,C22*%
X188440000Y-136170000D03*
D27*
X185940000Y-136170000D03*
%TD*%
D17*
%TO.C,C14*%
X159000000Y-134000000D03*
D27*
X159000000Y-137500000D03*
%TD*%
D17*
%TO.C,C13*%
X143000000Y-134000000D03*
D27*
X143000000Y-137500000D03*
%TD*%
D22*
%TO.C,C10*%
X194500000Y-120250000D03*
D28*
X187000000Y-120250000D03*
%TD*%
D22*
%TO.C,C9*%
X194500000Y-86250000D03*
D28*
X187000000Y-86250000D03*
%TD*%
D22*
%TO.C,C7*%
X194500000Y-69250000D03*
D28*
X187000000Y-69250000D03*
%TD*%
D22*
%TO.C,C5*%
X194500000Y-103250000D03*
D28*
X187000000Y-103250000D03*
%TD*%
D17*
%TO.C,C4*%
X157750000Y-122500000D03*
D27*
X159750000Y-122500000D03*
%TD*%
D11*
%TO.C,J1*%
X105000000Y-69250000D03*
D12*
X105000000Y-81050000D03*
%TD*%
D29*
%TO.C,L1*%
X116620000Y-69270000D03*
X116620000Y-89590000D03*
X119160000Y-69270000D03*
X121700000Y-69270000D03*
X124240000Y-69270000D03*
X129320000Y-69270000D03*
X131860000Y-69270000D03*
X134400000Y-69270000D03*
X136940000Y-69270000D03*
X120430000Y-89590000D03*
X124240000Y-89590000D03*
X129320000Y-89590000D03*
X133130000Y-89590000D03*
X136940000Y-89590000D03*
%TD*%
D30*
%TO.C,D1*%
X129500000Y-117000000D03*
D31*
X113500000Y-129500000D03*
X113500000Y-122000000D03*
X113500000Y-114500000D03*
X113500000Y-104500000D03*
%TD*%
M02*
