%TF.GenerationSoftware,KiCad,Pcbnew,5.1.9-73d0e3b20d~88~ubuntu20.04.1*%
%TF.CreationDate,2021-03-11T22:23:18-06:00*%
%TF.ProjectId,pfc,7066632e-6b69-4636-9164-5f7063625858,rev?*%
%TF.SameCoordinates,Original*%
%TF.FileFunction,Copper,L1,Top*%
%TF.FilePolarity,Positive*%
%FSLAX46Y46*%
G04 Gerber Fmt 4.6, Leading zero omitted, Abs format (unit mm)*
G04 Created by KiCad (PCBNEW 5.1.9-73d0e3b20d~88~ubuntu20.04.1) date 2021-03-11 22:23:18*
%MOMM*%
%LPD*%
G01*
G04 APERTURE LIST*
%TA.AperFunction,WasherPad*%
%ADD10C,4.000000*%
%TD*%
%TA.AperFunction,ComponentPad*%
%ADD11R,5.999480X5.999480*%
%TD*%
%TA.AperFunction,ComponentPad*%
%ADD12C,5.999480*%
%TD*%
%TA.AperFunction,ComponentPad*%
%ADD13O,1.400000X1.400000*%
%TD*%
%TA.AperFunction,ComponentPad*%
%ADD14C,1.400000*%
%TD*%
%TA.AperFunction,ComponentPad*%
%ADD15O,1.600000X1.600000*%
%TD*%
%TA.AperFunction,ComponentPad*%
%ADD16C,1.600000*%
%TD*%
%TA.AperFunction,ComponentPad*%
%ADD17O,2.000000X1.905000*%
%TD*%
%TA.AperFunction,ComponentPad*%
%ADD18R,2.000000X1.905000*%
%TD*%
%TA.AperFunction,ComponentPad*%
%ADD19O,2.400000X2.400000*%
%TD*%
%TA.AperFunction,ComponentPad*%
%ADD20C,2.400000*%
%TD*%
%TA.AperFunction,SMDPad,CuDef*%
%ADD21R,1.600000X5.700000*%
%TD*%
%TA.AperFunction,ComponentPad*%
%ADD22O,1.700000X1.700000*%
%TD*%
%TA.AperFunction,ComponentPad*%
%ADD23R,1.700000X1.700000*%
%TD*%
%TA.AperFunction,SMDPad,CuDef*%
%ADD24R,1.100000X1.100000*%
%TD*%
%TA.AperFunction,SMDPad,CuDef*%
%ADD25R,1.000000X0.700000*%
%TD*%
%TA.AperFunction,ComponentPad*%
%ADD26O,2.000000X2.000000*%
%TD*%
%TA.AperFunction,ComponentPad*%
%ADD27R,2.000000X2.000000*%
%TD*%
%TA.AperFunction,ComponentPad*%
%ADD28R,1.600000X1.600000*%
%TD*%
%TA.AperFunction,ComponentPad*%
%ADD29R,2.400000X2.400000*%
%TD*%
%TA.AperFunction,ComponentPad*%
%ADD30C,1.250000*%
%TD*%
%TA.AperFunction,ComponentPad*%
%ADD31C,2.000000*%
%TD*%
%TA.AperFunction,ViaPad*%
%ADD32C,0.800000*%
%TD*%
%TA.AperFunction,ViaPad*%
%ADD33C,2.000000*%
%TD*%
%TA.AperFunction,ViaPad*%
%ADD34C,3.000000*%
%TD*%
%TA.AperFunction,Conductor*%
%ADD35C,1.000000*%
%TD*%
%TA.AperFunction,Conductor*%
%ADD36C,3.000000*%
%TD*%
%TA.AperFunction,Conductor*%
%ADD37C,1.500000*%
%TD*%
%TA.AperFunction,Conductor*%
%ADD38C,0.500000*%
%TD*%
%TA.AperFunction,Conductor*%
%ADD39C,0.100000*%
%TD*%
G04 APERTURE END LIST*
D10*
%TO.P,REF\u002A\u002A,*%
%TO.N,*%
X195000000Y-136250000D03*
%TD*%
%TO.P,REF\u002A\u002A,*%
%TO.N,*%
X104000000Y-54250000D03*
%TD*%
D11*
%TO.P,J4,1*%
%TO.N,v120p*%
X105000000Y-122250000D03*
D12*
%TO.P,J4,2*%
%TO.N,v120n*%
X105000000Y-110450000D03*
%TD*%
%TO.P,R10,2*%
%TO.N,Net-(D3-Pad1)*%
%TA.AperFunction,SMDPad,CuDef*%
G36*
G01*
X157837500Y-117200001D02*
X157362500Y-117200001D01*
G75*
G02*
X157125000Y-116962501I0J237500D01*
G01*
X157125000Y-116462501D01*
G75*
G02*
X157362500Y-116225001I237500J0D01*
G01*
X157837500Y-116225001D01*
G75*
G02*
X158075000Y-116462501I0J-237500D01*
G01*
X158075000Y-116962501D01*
G75*
G02*
X157837500Y-117200001I-237500J0D01*
G01*
G37*
%TD.AperFunction*%
%TO.P,R10,1*%
%TO.N,Net-(R10-Pad1)*%
%TA.AperFunction,SMDPad,CuDef*%
G36*
G01*
X157837500Y-119025001D02*
X157362500Y-119025001D01*
G75*
G02*
X157125000Y-118787501I0J237500D01*
G01*
X157125000Y-118287501D01*
G75*
G02*
X157362500Y-118050001I237500J0D01*
G01*
X157837500Y-118050001D01*
G75*
G02*
X158075000Y-118287501I0J-237500D01*
G01*
X158075000Y-118787501D01*
G75*
G02*
X157837500Y-119025001I-237500J0D01*
G01*
G37*
%TD.AperFunction*%
%TD*%
%TO.P,R9,2*%
%TO.N,Net-(R10-Pad1)*%
%TA.AperFunction,SMDPad,CuDef*%
G36*
G01*
X155562500Y-118075000D02*
X156037500Y-118075000D01*
G75*
G02*
X156275000Y-118312500I0J-237500D01*
G01*
X156275000Y-118812500D01*
G75*
G02*
X156037500Y-119050000I-237500J0D01*
G01*
X155562500Y-119050000D01*
G75*
G02*
X155325000Y-118812500I0J237500D01*
G01*
X155325000Y-118312500D01*
G75*
G02*
X155562500Y-118075000I237500J0D01*
G01*
G37*
%TD.AperFunction*%
%TO.P,R9,1*%
%TO.N,Net-(D3-Pad2)*%
%TA.AperFunction,SMDPad,CuDef*%
G36*
G01*
X155562500Y-116250000D02*
X156037500Y-116250000D01*
G75*
G02*
X156275000Y-116487500I0J-237500D01*
G01*
X156275000Y-116987500D01*
G75*
G02*
X156037500Y-117225000I-237500J0D01*
G01*
X155562500Y-117225000D01*
G75*
G02*
X155325000Y-116987500I0J237500D01*
G01*
X155325000Y-116487500D01*
G75*
G02*
X155562500Y-116250000I237500J0D01*
G01*
G37*
%TD.AperFunction*%
%TD*%
D13*
%TO.P,R4,2*%
%TO.N,Net-(R2-Pad2)*%
X177960000Y-122000000D03*
D14*
%TO.P,R4,1*%
%TO.N,Net-(C21-Pad1)*%
X180500000Y-122000000D03*
%TD*%
D13*
%TO.P,R3,2*%
%TO.N,Net-(C19-Pad1)*%
X162940000Y-129960000D03*
D14*
%TO.P,R3,1*%
%TO.N,Net-(C15-Pad2)*%
X162940000Y-127420000D03*
%TD*%
D11*
%TO.P,J2,1*%
%TO.N,vpfc*%
X182474000Y-55414000D03*
D12*
%TO.P,J2,2*%
%TO.N,gnd*%
X194274000Y-55414000D03*
%TD*%
D15*
%TO.P,Rout2,2*%
%TO.N,Net-(C6-Pad2)*%
X165000000Y-87291000D03*
D16*
%TO.P,Rout2,1*%
%TO.N,Net-(C3-Pad1)*%
X165000000Y-97451000D03*
%TD*%
D15*
%TO.P,Rout1,2*%
%TO.N,Net-(C3-Pad2)*%
X156160000Y-106000000D03*
D16*
%TO.P,Rout1,1*%
%TO.N,gnd*%
X146000000Y-106000000D03*
%TD*%
%TO.P,U1,1*%
%TO.N,Net-(C15-Pad2)*%
%TA.AperFunction,SMDPad,CuDef*%
G36*
G01*
X170938000Y-137814000D02*
X170938000Y-138114000D01*
G75*
G02*
X170788000Y-138264000I-150000J0D01*
G01*
X169338000Y-138264000D01*
G75*
G02*
X169188000Y-138114000I0J150000D01*
G01*
X169188000Y-137814000D01*
G75*
G02*
X169338000Y-137664000I150000J0D01*
G01*
X170788000Y-137664000D01*
G75*
G02*
X170938000Y-137814000I0J-150000D01*
G01*
G37*
%TD.AperFunction*%
%TO.P,U1,2*%
%TA.AperFunction,SMDPad,CuDef*%
G36*
G01*
X170938000Y-136544000D02*
X170938000Y-136844000D01*
G75*
G02*
X170788000Y-136994000I-150000J0D01*
G01*
X169338000Y-136994000D01*
G75*
G02*
X169188000Y-136844000I0J150000D01*
G01*
X169188000Y-136544000D01*
G75*
G02*
X169338000Y-136394000I150000J0D01*
G01*
X170788000Y-136394000D01*
G75*
G02*
X170938000Y-136544000I0J-150000D01*
G01*
G37*
%TD.AperFunction*%
%TO.P,U1,3*%
%TA.AperFunction,SMDPad,CuDef*%
G36*
G01*
X170938000Y-135274000D02*
X170938000Y-135574000D01*
G75*
G02*
X170788000Y-135724000I-150000J0D01*
G01*
X169338000Y-135724000D01*
G75*
G02*
X169188000Y-135574000I0J150000D01*
G01*
X169188000Y-135274000D01*
G75*
G02*
X169338000Y-135124000I150000J0D01*
G01*
X170788000Y-135124000D01*
G75*
G02*
X170938000Y-135274000I0J-150000D01*
G01*
G37*
%TD.AperFunction*%
%TO.P,U1,4*%
%TA.AperFunction,SMDPad,CuDef*%
G36*
G01*
X170938000Y-134004000D02*
X170938000Y-134304000D01*
G75*
G02*
X170788000Y-134454000I-150000J0D01*
G01*
X169338000Y-134454000D01*
G75*
G02*
X169188000Y-134304000I0J150000D01*
G01*
X169188000Y-134004000D01*
G75*
G02*
X169338000Y-133854000I150000J0D01*
G01*
X170788000Y-133854000D01*
G75*
G02*
X170938000Y-134004000I0J-150000D01*
G01*
G37*
%TD.AperFunction*%
%TO.P,U1,5*%
%TO.N,Net-(C15-Pad1)*%
%TA.AperFunction,SMDPad,CuDef*%
G36*
G01*
X165788000Y-134004000D02*
X165788000Y-134304000D01*
G75*
G02*
X165638000Y-134454000I-150000J0D01*
G01*
X164188000Y-134454000D01*
G75*
G02*
X164038000Y-134304000I0J150000D01*
G01*
X164038000Y-134004000D01*
G75*
G02*
X164188000Y-133854000I150000J0D01*
G01*
X165638000Y-133854000D01*
G75*
G02*
X165788000Y-134004000I0J-150000D01*
G01*
G37*
%TD.AperFunction*%
%TO.P,U1,6*%
%TO.N,Net-(C19-Pad1)*%
%TA.AperFunction,SMDPad,CuDef*%
G36*
G01*
X165788000Y-135274000D02*
X165788000Y-135574000D01*
G75*
G02*
X165638000Y-135724000I-150000J0D01*
G01*
X164188000Y-135724000D01*
G75*
G02*
X164038000Y-135574000I0J150000D01*
G01*
X164038000Y-135274000D01*
G75*
G02*
X164188000Y-135124000I150000J0D01*
G01*
X165638000Y-135124000D01*
G75*
G02*
X165788000Y-135274000I0J-150000D01*
G01*
G37*
%TD.AperFunction*%
%TO.P,U1,7*%
%TO.N,Net-(C14-Pad1)*%
%TA.AperFunction,SMDPad,CuDef*%
G36*
G01*
X165788000Y-137814000D02*
X165788000Y-138114000D01*
G75*
G02*
X165638000Y-138264000I-150000J0D01*
G01*
X164188000Y-138264000D01*
G75*
G02*
X164038000Y-138114000I0J150000D01*
G01*
X164038000Y-137814000D01*
G75*
G02*
X164188000Y-137664000I150000J0D01*
G01*
X165638000Y-137664000D01*
G75*
G02*
X165788000Y-137814000I0J-150000D01*
G01*
G37*
%TD.AperFunction*%
%TD*%
D17*
%TO.P,Q1,3*%
%TO.N,gnd*%
X142000000Y-100080000D03*
%TO.P,Q1,2*%
%TO.N,Net-(C3-Pad1)*%
X142000000Y-97540000D03*
D18*
%TO.P,Q1,1*%
%TO.N,Net-(D3-Pad2)*%
X142000000Y-95000000D03*
%TD*%
%TO.P,U2,8*%
%TO.N,vcc*%
%TA.AperFunction,SMDPad,CuDef*%
G36*
G01*
X164706800Y-115614400D02*
X164706800Y-115914400D01*
G75*
G02*
X164556800Y-116064400I-150000J0D01*
G01*
X162906800Y-116064400D01*
G75*
G02*
X162756800Y-115914400I0J150000D01*
G01*
X162756800Y-115614400D01*
G75*
G02*
X162906800Y-115464400I150000J0D01*
G01*
X164556800Y-115464400D01*
G75*
G02*
X164706800Y-115614400I0J-150000D01*
G01*
G37*
%TD.AperFunction*%
%TO.P,U2,7*%
%TO.N,out*%
%TA.AperFunction,SMDPad,CuDef*%
G36*
G01*
X164706800Y-114344400D02*
X164706800Y-114644400D01*
G75*
G02*
X164556800Y-114794400I-150000J0D01*
G01*
X162906800Y-114794400D01*
G75*
G02*
X162756800Y-114644400I0J150000D01*
G01*
X162756800Y-114344400D01*
G75*
G02*
X162906800Y-114194400I150000J0D01*
G01*
X164556800Y-114194400D01*
G75*
G02*
X164706800Y-114344400I0J-150000D01*
G01*
G37*
%TD.AperFunction*%
%TO.P,U2,6*%
%TO.N,gnd*%
%TA.AperFunction,SMDPad,CuDef*%
G36*
G01*
X164706800Y-113074400D02*
X164706800Y-113374400D01*
G75*
G02*
X164556800Y-113524400I-150000J0D01*
G01*
X162906800Y-113524400D01*
G75*
G02*
X162756800Y-113374400I0J150000D01*
G01*
X162756800Y-113074400D01*
G75*
G02*
X162906800Y-112924400I150000J0D01*
G01*
X164556800Y-112924400D01*
G75*
G02*
X164706800Y-113074400I0J-150000D01*
G01*
G37*
%TD.AperFunction*%
%TO.P,U2,5*%
%TO.N,is*%
%TA.AperFunction,SMDPad,CuDef*%
G36*
G01*
X164706800Y-111804400D02*
X164706800Y-112104400D01*
G75*
G02*
X164556800Y-112254400I-150000J0D01*
G01*
X162906800Y-112254400D01*
G75*
G02*
X162756800Y-112104400I0J150000D01*
G01*
X162756800Y-111804400D01*
G75*
G02*
X162906800Y-111654400I150000J0D01*
G01*
X164556800Y-111654400D01*
G75*
G02*
X164706800Y-111804400I0J-150000D01*
G01*
G37*
%TD.AperFunction*%
%TO.P,U2,4*%
%TO.N,ovp*%
%TA.AperFunction,SMDPad,CuDef*%
G36*
G01*
X169656800Y-111804400D02*
X169656800Y-112104400D01*
G75*
G02*
X169506800Y-112254400I-150000J0D01*
G01*
X167856800Y-112254400D01*
G75*
G02*
X167706800Y-112104400I0J150000D01*
G01*
X167706800Y-111804400D01*
G75*
G02*
X167856800Y-111654400I150000J0D01*
G01*
X169506800Y-111654400D01*
G75*
G02*
X169656800Y-111804400I0J-150000D01*
G01*
G37*
%TD.AperFunction*%
%TO.P,U2,3*%
%TO.N,Net-(Rt1-Pad2)*%
%TA.AperFunction,SMDPad,CuDef*%
G36*
G01*
X169656800Y-113074400D02*
X169656800Y-113374400D01*
G75*
G02*
X169506800Y-113524400I-150000J0D01*
G01*
X167856800Y-113524400D01*
G75*
G02*
X167706800Y-113374400I0J150000D01*
G01*
X167706800Y-113074400D01*
G75*
G02*
X167856800Y-112924400I150000J0D01*
G01*
X169506800Y-112924400D01*
G75*
G02*
X169656800Y-113074400I0J-150000D01*
G01*
G37*
%TD.AperFunction*%
%TO.P,U2,2*%
%TO.N,Net-(Ceo1-Pad1)*%
%TA.AperFunction,SMDPad,CuDef*%
G36*
G01*
X169656800Y-114344400D02*
X169656800Y-114644400D01*
G75*
G02*
X169506800Y-114794400I-150000J0D01*
G01*
X167856800Y-114794400D01*
G75*
G02*
X167706800Y-114644400I0J150000D01*
G01*
X167706800Y-114344400D01*
G75*
G02*
X167856800Y-114194400I150000J0D01*
G01*
X169506800Y-114194400D01*
G75*
G02*
X169656800Y-114344400I0J-150000D01*
G01*
G37*
%TD.AperFunction*%
%TO.P,U2,1*%
%TO.N,vs*%
%TA.AperFunction,SMDPad,CuDef*%
G36*
G01*
X169656800Y-115614400D02*
X169656800Y-115914400D01*
G75*
G02*
X169506800Y-116064400I-150000J0D01*
G01*
X167856800Y-116064400D01*
G75*
G02*
X167706800Y-115914400I0J150000D01*
G01*
X167706800Y-115614400D01*
G75*
G02*
X167856800Y-115464400I150000J0D01*
G01*
X169506800Y-115464400D01*
G75*
G02*
X169656800Y-115614400I0J-150000D01*
G01*
G37*
%TD.AperFunction*%
%TD*%
%TO.P,Rvsl2,2*%
%TO.N,gnd*%
%TA.AperFunction,SMDPad,CuDef*%
G36*
G01*
X172762500Y-108175000D02*
X173237500Y-108175000D01*
G75*
G02*
X173475000Y-108412500I0J-237500D01*
G01*
X173475000Y-108912500D01*
G75*
G02*
X173237500Y-109150000I-237500J0D01*
G01*
X172762500Y-109150000D01*
G75*
G02*
X172525000Y-108912500I0J237500D01*
G01*
X172525000Y-108412500D01*
G75*
G02*
X172762500Y-108175000I237500J0D01*
G01*
G37*
%TD.AperFunction*%
%TO.P,Rvsl2,1*%
%TO.N,vs*%
%TA.AperFunction,SMDPad,CuDef*%
G36*
G01*
X172762500Y-106350000D02*
X173237500Y-106350000D01*
G75*
G02*
X173475000Y-106587500I0J-237500D01*
G01*
X173475000Y-107087500D01*
G75*
G02*
X173237500Y-107325000I-237500J0D01*
G01*
X172762500Y-107325000D01*
G75*
G02*
X172525000Y-107087500I0J237500D01*
G01*
X172525000Y-106587500D01*
G75*
G02*
X172762500Y-106350000I237500J0D01*
G01*
G37*
%TD.AperFunction*%
%TD*%
%TO.P,Rvsl1,2*%
%TO.N,gnd*%
%TA.AperFunction,SMDPad,CuDef*%
G36*
G01*
X169762500Y-108175000D02*
X170237500Y-108175000D01*
G75*
G02*
X170475000Y-108412500I0J-237500D01*
G01*
X170475000Y-108912500D01*
G75*
G02*
X170237500Y-109150000I-237500J0D01*
G01*
X169762500Y-109150000D01*
G75*
G02*
X169525000Y-108912500I0J237500D01*
G01*
X169525000Y-108412500D01*
G75*
G02*
X169762500Y-108175000I237500J0D01*
G01*
G37*
%TD.AperFunction*%
%TO.P,Rvsl1,1*%
%TO.N,vs*%
%TA.AperFunction,SMDPad,CuDef*%
G36*
G01*
X169762500Y-106350000D02*
X170237500Y-106350000D01*
G75*
G02*
X170475000Y-106587500I0J-237500D01*
G01*
X170475000Y-107087500D01*
G75*
G02*
X170237500Y-107325000I-237500J0D01*
G01*
X169762500Y-107325000D01*
G75*
G02*
X169525000Y-107087500I0J237500D01*
G01*
X169525000Y-106587500D01*
G75*
G02*
X169762500Y-106350000I237500J0D01*
G01*
G37*
%TD.AperFunction*%
%TD*%
%TO.P,Rvsh2,2*%
%TO.N,vs*%
%TA.AperFunction,SMDPad,CuDef*%
G36*
G01*
X169375000Y-104400000D02*
X170625000Y-104400000D01*
G75*
G02*
X170875000Y-104650000I0J-250000D01*
G01*
X170875000Y-105450000D01*
G75*
G02*
X170625000Y-105700000I-250000J0D01*
G01*
X169375000Y-105700000D01*
G75*
G02*
X169125000Y-105450000I0J250000D01*
G01*
X169125000Y-104650000D01*
G75*
G02*
X169375000Y-104400000I250000J0D01*
G01*
G37*
%TD.AperFunction*%
%TO.P,Rvsh2,1*%
%TO.N,Net-(Rvsh1-Pad2)*%
%TA.AperFunction,SMDPad,CuDef*%
G36*
G01*
X169375000Y-101300000D02*
X170625000Y-101300000D01*
G75*
G02*
X170875000Y-101550000I0J-250000D01*
G01*
X170875000Y-102350000D01*
G75*
G02*
X170625000Y-102600000I-250000J0D01*
G01*
X169375000Y-102600000D01*
G75*
G02*
X169125000Y-102350000I0J250000D01*
G01*
X169125000Y-101550000D01*
G75*
G02*
X169375000Y-101300000I250000J0D01*
G01*
G37*
%TD.AperFunction*%
%TD*%
%TO.P,Rvsh1,2*%
%TO.N,Net-(Rvsh1-Pad2)*%
%TA.AperFunction,SMDPad,CuDef*%
G36*
G01*
X169375000Y-98900000D02*
X170625000Y-98900000D01*
G75*
G02*
X170875000Y-99150000I0J-250000D01*
G01*
X170875000Y-99950000D01*
G75*
G02*
X170625000Y-100200000I-250000J0D01*
G01*
X169375000Y-100200000D01*
G75*
G02*
X169125000Y-99950000I0J250000D01*
G01*
X169125000Y-99150000D01*
G75*
G02*
X169375000Y-98900000I250000J0D01*
G01*
G37*
%TD.AperFunction*%
%TO.P,Rvsh1,1*%
%TO.N,vpfc*%
%TA.AperFunction,SMDPad,CuDef*%
G36*
G01*
X169375000Y-95800000D02*
X170625000Y-95800000D01*
G75*
G02*
X170875000Y-96050000I0J-250000D01*
G01*
X170875000Y-96850000D01*
G75*
G02*
X170625000Y-97100000I-250000J0D01*
G01*
X169375000Y-97100000D01*
G75*
G02*
X169125000Y-96850000I0J250000D01*
G01*
X169125000Y-96050000D01*
G75*
G02*
X169375000Y-95800000I250000J0D01*
G01*
G37*
%TD.AperFunction*%
%TD*%
%TO.P,Rt1,2*%
%TO.N,Net-(Rt1-Pad2)*%
%TA.AperFunction,SMDPad,CuDef*%
G36*
G01*
X172416000Y-113012500D02*
X172416000Y-113487500D01*
G75*
G02*
X172178500Y-113725000I-237500J0D01*
G01*
X171678500Y-113725000D01*
G75*
G02*
X171441000Y-113487500I0J237500D01*
G01*
X171441000Y-113012500D01*
G75*
G02*
X171678500Y-112775000I237500J0D01*
G01*
X172178500Y-112775000D01*
G75*
G02*
X172416000Y-113012500I0J-237500D01*
G01*
G37*
%TD.AperFunction*%
%TO.P,Rt1,1*%
%TO.N,gnd*%
%TA.AperFunction,SMDPad,CuDef*%
G36*
G01*
X174241000Y-113012500D02*
X174241000Y-113487500D01*
G75*
G02*
X174003500Y-113725000I-237500J0D01*
G01*
X173503500Y-113725000D01*
G75*
G02*
X173266000Y-113487500I0J237500D01*
G01*
X173266000Y-113012500D01*
G75*
G02*
X173503500Y-112775000I237500J0D01*
G01*
X174003500Y-112775000D01*
G75*
G02*
X174241000Y-113012500I0J-237500D01*
G01*
G37*
%TD.AperFunction*%
%TD*%
%TO.P,Rovpl1,2*%
%TO.N,gnd*%
%TA.AperFunction,SMDPad,CuDef*%
G36*
G01*
X178762500Y-108175000D02*
X179237500Y-108175000D01*
G75*
G02*
X179475000Y-108412500I0J-237500D01*
G01*
X179475000Y-108912500D01*
G75*
G02*
X179237500Y-109150000I-237500J0D01*
G01*
X178762500Y-109150000D01*
G75*
G02*
X178525000Y-108912500I0J237500D01*
G01*
X178525000Y-108412500D01*
G75*
G02*
X178762500Y-108175000I237500J0D01*
G01*
G37*
%TD.AperFunction*%
%TO.P,Rovpl1,1*%
%TO.N,ovp*%
%TA.AperFunction,SMDPad,CuDef*%
G36*
G01*
X178762500Y-106350000D02*
X179237500Y-106350000D01*
G75*
G02*
X179475000Y-106587500I0J-237500D01*
G01*
X179475000Y-107087500D01*
G75*
G02*
X179237500Y-107325000I-237500J0D01*
G01*
X178762500Y-107325000D01*
G75*
G02*
X178525000Y-107087500I0J237500D01*
G01*
X178525000Y-106587500D01*
G75*
G02*
X178762500Y-106350000I237500J0D01*
G01*
G37*
%TD.AperFunction*%
%TD*%
%TO.P,Rovph2,2*%
%TO.N,ovp*%
%TA.AperFunction,SMDPad,CuDef*%
G36*
G01*
X175375000Y-104400000D02*
X176625000Y-104400000D01*
G75*
G02*
X176875000Y-104650000I0J-250000D01*
G01*
X176875000Y-105450000D01*
G75*
G02*
X176625000Y-105700000I-250000J0D01*
G01*
X175375000Y-105700000D01*
G75*
G02*
X175125000Y-105450000I0J250000D01*
G01*
X175125000Y-104650000D01*
G75*
G02*
X175375000Y-104400000I250000J0D01*
G01*
G37*
%TD.AperFunction*%
%TO.P,Rovph2,1*%
%TO.N,Net-(Rovph1-Pad2)*%
%TA.AperFunction,SMDPad,CuDef*%
G36*
G01*
X175375000Y-101300000D02*
X176625000Y-101300000D01*
G75*
G02*
X176875000Y-101550000I0J-250000D01*
G01*
X176875000Y-102350000D01*
G75*
G02*
X176625000Y-102600000I-250000J0D01*
G01*
X175375000Y-102600000D01*
G75*
G02*
X175125000Y-102350000I0J250000D01*
G01*
X175125000Y-101550000D01*
G75*
G02*
X175375000Y-101300000I250000J0D01*
G01*
G37*
%TD.AperFunction*%
%TD*%
%TO.P,Rovph1,2*%
%TO.N,Net-(Rovph1-Pad2)*%
%TA.AperFunction,SMDPad,CuDef*%
G36*
G01*
X175375000Y-98900000D02*
X176625000Y-98900000D01*
G75*
G02*
X176875000Y-99150000I0J-250000D01*
G01*
X176875000Y-99950000D01*
G75*
G02*
X176625000Y-100200000I-250000J0D01*
G01*
X175375000Y-100200000D01*
G75*
G02*
X175125000Y-99950000I0J250000D01*
G01*
X175125000Y-99150000D01*
G75*
G02*
X175375000Y-98900000I250000J0D01*
G01*
G37*
%TD.AperFunction*%
%TO.P,Rovph1,1*%
%TO.N,vpfc*%
%TA.AperFunction,SMDPad,CuDef*%
G36*
G01*
X175375000Y-95800000D02*
X176625000Y-95800000D01*
G75*
G02*
X176875000Y-96050000I0J-250000D01*
G01*
X176875000Y-96850000D01*
G75*
G02*
X176625000Y-97100000I-250000J0D01*
G01*
X175375000Y-97100000D01*
G75*
G02*
X175125000Y-96850000I0J250000D01*
G01*
X175125000Y-96050000D01*
G75*
G02*
X175375000Y-95800000I250000J0D01*
G01*
G37*
%TD.AperFunction*%
%TD*%
%TO.P,R11,2*%
%TO.N,out*%
%TA.AperFunction,SMDPad,CuDef*%
G36*
G01*
X160225000Y-114687500D02*
X160225000Y-114212500D01*
G75*
G02*
X160462500Y-113975000I237500J0D01*
G01*
X160962500Y-113975000D01*
G75*
G02*
X161200000Y-114212500I0J-237500D01*
G01*
X161200000Y-114687500D01*
G75*
G02*
X160962500Y-114925000I-237500J0D01*
G01*
X160462500Y-114925000D01*
G75*
G02*
X160225000Y-114687500I0J237500D01*
G01*
G37*
%TD.AperFunction*%
%TO.P,R11,1*%
%TO.N,Net-(D3-Pad1)*%
%TA.AperFunction,SMDPad,CuDef*%
G36*
G01*
X158400000Y-114687500D02*
X158400000Y-114212500D01*
G75*
G02*
X158637500Y-113975000I237500J0D01*
G01*
X159137500Y-113975000D01*
G75*
G02*
X159375000Y-114212500I0J-237500D01*
G01*
X159375000Y-114687500D01*
G75*
G02*
X159137500Y-114925000I-237500J0D01*
G01*
X158637500Y-114925000D01*
G75*
G02*
X158400000Y-114687500I0J237500D01*
G01*
G37*
%TD.AperFunction*%
%TD*%
D15*
%TO.P,Risf2,2*%
%TO.N,Net-(Risf1-Pad1)*%
X149460000Y-127000000D03*
D16*
%TO.P,Risf2,1*%
%TO.N,is*%
X152000000Y-127000000D03*
%TD*%
D15*
%TO.P,Risf1,2*%
%TO.N,Net-(C1-Pad2)*%
X143460000Y-127000000D03*
D16*
%TO.P,Risf1,1*%
%TO.N,Net-(Risf1-Pad1)*%
X146000000Y-127000000D03*
%TD*%
%TO.P,Ris3,2*%
%TO.N,gnd*%
%TA.AperFunction,SMDPad,CuDef*%
G36*
G01*
X148850000Y-124425001D02*
X148850000Y-121574999D01*
G75*
G02*
X149099999Y-121325000I249999J0D01*
G01*
X150000001Y-121325000D01*
G75*
G02*
X150250000Y-121574999I0J-249999D01*
G01*
X150250000Y-124425001D01*
G75*
G02*
X150000001Y-124675000I-249999J0D01*
G01*
X149099999Y-124675000D01*
G75*
G02*
X148850000Y-124425001I0J249999D01*
G01*
G37*
%TD.AperFunction*%
%TO.P,Ris3,1*%
%TO.N,Net-(C1-Pad2)*%
%TA.AperFunction,SMDPad,CuDef*%
G36*
G01*
X142750000Y-124425001D02*
X142750000Y-121574999D01*
G75*
G02*
X142999999Y-121325000I249999J0D01*
G01*
X143900001Y-121325000D01*
G75*
G02*
X144150000Y-121574999I0J-249999D01*
G01*
X144150000Y-124425001D01*
G75*
G02*
X143900001Y-124675000I-249999J0D01*
G01*
X142999999Y-124675000D01*
G75*
G02*
X142750000Y-124425001I0J249999D01*
G01*
G37*
%TD.AperFunction*%
%TD*%
%TO.P,Ris2,2*%
%TO.N,gnd*%
%TA.AperFunction,SMDPad,CuDef*%
G36*
G01*
X148850000Y-119025001D02*
X148850000Y-116174999D01*
G75*
G02*
X149099999Y-115925000I249999J0D01*
G01*
X150000001Y-115925000D01*
G75*
G02*
X150250000Y-116174999I0J-249999D01*
G01*
X150250000Y-119025001D01*
G75*
G02*
X150000001Y-119275000I-249999J0D01*
G01*
X149099999Y-119275000D01*
G75*
G02*
X148850000Y-119025001I0J249999D01*
G01*
G37*
%TD.AperFunction*%
%TO.P,Ris2,1*%
%TO.N,Net-(C1-Pad2)*%
%TA.AperFunction,SMDPad,CuDef*%
G36*
G01*
X142750000Y-119025001D02*
X142750000Y-116174999D01*
G75*
G02*
X142999999Y-115925000I249999J0D01*
G01*
X143900001Y-115925000D01*
G75*
G02*
X144150000Y-116174999I0J-249999D01*
G01*
X144150000Y-119025001D01*
G75*
G02*
X143900001Y-119275000I-249999J0D01*
G01*
X142999999Y-119275000D01*
G75*
G02*
X142750000Y-119025001I0J249999D01*
G01*
G37*
%TD.AperFunction*%
%TD*%
%TO.P,Ris1,2*%
%TO.N,gnd*%
%TA.AperFunction,SMDPad,CuDef*%
G36*
G01*
X148850000Y-113425001D02*
X148850000Y-110574999D01*
G75*
G02*
X149099999Y-110325000I249999J0D01*
G01*
X150000001Y-110325000D01*
G75*
G02*
X150250000Y-110574999I0J-249999D01*
G01*
X150250000Y-113425001D01*
G75*
G02*
X150000001Y-113675000I-249999J0D01*
G01*
X149099999Y-113675000D01*
G75*
G02*
X148850000Y-113425001I0J249999D01*
G01*
G37*
%TD.AperFunction*%
%TO.P,Ris1,1*%
%TO.N,Net-(C1-Pad2)*%
%TA.AperFunction,SMDPad,CuDef*%
G36*
G01*
X142750000Y-113425001D02*
X142750000Y-110574999D01*
G75*
G02*
X142999999Y-110325000I249999J0D01*
G01*
X143900001Y-110325000D01*
G75*
G02*
X144150000Y-110574999I0J-249999D01*
G01*
X144150000Y-113425001D01*
G75*
G02*
X143900001Y-113675000I-249999J0D01*
G01*
X142999999Y-113675000D01*
G75*
G02*
X142750000Y-113425001I0J249999D01*
G01*
G37*
%TD.AperFunction*%
%TD*%
%TO.P,Rgs1,2*%
%TO.N,Net-(D3-Pad2)*%
%TA.AperFunction,SMDPad,CuDef*%
G36*
G01*
X137237500Y-97075000D02*
X136762500Y-97075000D01*
G75*
G02*
X136525000Y-96837500I0J237500D01*
G01*
X136525000Y-96337500D01*
G75*
G02*
X136762500Y-96100000I237500J0D01*
G01*
X137237500Y-96100000D01*
G75*
G02*
X137475000Y-96337500I0J-237500D01*
G01*
X137475000Y-96837500D01*
G75*
G02*
X137237500Y-97075000I-237500J0D01*
G01*
G37*
%TD.AperFunction*%
%TO.P,Rgs1,1*%
%TO.N,gnd*%
%TA.AperFunction,SMDPad,CuDef*%
G36*
G01*
X137237500Y-98900000D02*
X136762500Y-98900000D01*
G75*
G02*
X136525000Y-98662500I0J237500D01*
G01*
X136525000Y-98162500D01*
G75*
G02*
X136762500Y-97925000I237500J0D01*
G01*
X137237500Y-97925000D01*
G75*
G02*
X137475000Y-98162500I0J-237500D01*
G01*
X137475000Y-98662500D01*
G75*
G02*
X137237500Y-98900000I-237500J0D01*
G01*
G37*
%TD.AperFunction*%
%TD*%
%TO.P,Reo1,2*%
%TO.N,Net-(Ceo2-Pad1)*%
%TA.AperFunction,SMDPad,CuDef*%
G36*
G01*
X173266000Y-117237500D02*
X173266000Y-116762500D01*
G75*
G02*
X173503500Y-116525000I237500J0D01*
G01*
X174003500Y-116525000D01*
G75*
G02*
X174241000Y-116762500I0J-237500D01*
G01*
X174241000Y-117237500D01*
G75*
G02*
X174003500Y-117475000I-237500J0D01*
G01*
X173503500Y-117475000D01*
G75*
G02*
X173266000Y-117237500I0J237500D01*
G01*
G37*
%TD.AperFunction*%
%TO.P,Reo1,1*%
%TO.N,Net-(Ceo1-Pad1)*%
%TA.AperFunction,SMDPad,CuDef*%
G36*
G01*
X171441000Y-117237500D02*
X171441000Y-116762500D01*
G75*
G02*
X171678500Y-116525000I237500J0D01*
G01*
X172178500Y-116525000D01*
G75*
G02*
X172416000Y-116762500I0J-237500D01*
G01*
X172416000Y-117237500D01*
G75*
G02*
X172178500Y-117475000I-237500J0D01*
G01*
X171678500Y-117475000D01*
G75*
G02*
X171441000Y-117237500I0J237500D01*
G01*
G37*
%TD.AperFunction*%
%TD*%
D19*
%TO.P,R8,2*%
%TO.N,gnd*%
X155100000Y-61700000D03*
D20*
%TO.P,R8,1*%
%TO.N,vpfc*%
X180500000Y-61700000D03*
%TD*%
D19*
%TO.P,R7,2*%
%TO.N,gnd*%
X155100000Y-69250000D03*
D20*
%TO.P,R7,1*%
%TO.N,vpfc*%
X180500000Y-69250000D03*
%TD*%
D15*
%TO.P,R6,2*%
%TO.N,gnd*%
X188480000Y-130670000D03*
D16*
%TO.P,R6,1*%
%TO.N,vcc*%
X185940000Y-130670000D03*
%TD*%
D15*
%TO.P,R5,2*%
%TO.N,Net-(C19-Pad1)*%
X177960000Y-125920000D03*
D16*
%TO.P,R5,1*%
%TO.N,Net-(C21-Pad1)*%
X180500000Y-125920000D03*
%TD*%
D15*
%TO.P,R2,2*%
%TO.N,Net-(R2-Pad2)*%
X174940000Y-122130000D03*
D16*
%TO.P,R2,1*%
%TO.N,Net-(C15-Pad1)*%
X174940000Y-124670000D03*
%TD*%
D19*
%TO.P,R1,2*%
%TO.N,v120p*%
X105180000Y-135500000D03*
D20*
%TO.P,R1,1*%
%TO.N,Net-(D4-Pad3)*%
X125500000Y-135500000D03*
%TD*%
D21*
%TO.P,L3,2*%
%TO.N,Net-(C15-Pad2)*%
X176150000Y-136000000D03*
%TO.P,L3,1*%
%TO.N,vcc*%
X180850000Y-136000000D03*
%TD*%
%TO.P,L2,2*%
%TO.N,Net-(C13-Pad1)*%
X148650000Y-135000000D03*
%TO.P,L2,1*%
%TO.N,Net-(C14-Pad1)*%
X153350000Y-135000000D03*
%TD*%
D22*
%TO.P,J3,2*%
%TO.N,gnd*%
X197540000Y-130750000D03*
D23*
%TO.P,J3,1*%
%TO.N,vcc*%
X195000000Y-130750000D03*
%TD*%
D24*
%TO.P,D6,2*%
%TO.N,vcc*%
X180750000Y-131570000D03*
%TO.P,D6,1*%
%TO.N,Net-(C21-Pad1)*%
X180750000Y-128770000D03*
%TD*%
%TO.P,D5,2*%
%TO.N,gnd*%
X176190000Y-128770000D03*
%TO.P,D5,1*%
%TO.N,Net-(C15-Pad2)*%
X176190000Y-131570000D03*
%TD*%
D25*
%TO.P,D4,4*%
%TO.N,v120n*%
X130025000Y-137500000D03*
%TO.P,D4,3*%
%TO.N,Net-(D4-Pad3)*%
X130025000Y-133500000D03*
%TO.P,D4,2*%
%TO.N,gnd*%
X135975000Y-133500000D03*
%TO.P,D4,1*%
%TO.N,Net-(C13-Pad1)*%
X135975000Y-137500000D03*
%TD*%
D24*
%TO.P,D3,2*%
%TO.N,Net-(D3-Pad2)*%
X153600000Y-114500000D03*
%TO.P,D3,1*%
%TO.N,Net-(D3-Pad1)*%
X156400000Y-114500000D03*
%TD*%
D26*
%TO.P,D2,2*%
%TO.N,Net-(C3-Pad1)*%
X142000000Y-84330000D03*
D27*
%TO.P,D2,1*%
%TO.N,vpfc*%
X142000000Y-79250000D03*
%TD*%
%TO.P,Cisf1,2*%
%TO.N,gnd*%
%TA.AperFunction,SMDPad,CuDef*%
G36*
G01*
X152237500Y-123175000D02*
X151762500Y-123175000D01*
G75*
G02*
X151525000Y-122937500I0J237500D01*
G01*
X151525000Y-122337500D01*
G75*
G02*
X151762500Y-122100000I237500J0D01*
G01*
X152237500Y-122100000D01*
G75*
G02*
X152475000Y-122337500I0J-237500D01*
G01*
X152475000Y-122937500D01*
G75*
G02*
X152237500Y-123175000I-237500J0D01*
G01*
G37*
%TD.AperFunction*%
%TO.P,Cisf1,1*%
%TO.N,is*%
%TA.AperFunction,SMDPad,CuDef*%
G36*
G01*
X152237500Y-124900000D02*
X151762500Y-124900000D01*
G75*
G02*
X151525000Y-124662500I0J237500D01*
G01*
X151525000Y-124062500D01*
G75*
G02*
X151762500Y-123825000I237500J0D01*
G01*
X152237500Y-123825000D01*
G75*
G02*
X152475000Y-124062500I0J-237500D01*
G01*
X152475000Y-124662500D01*
G75*
G02*
X152237500Y-124900000I-237500J0D01*
G01*
G37*
%TD.AperFunction*%
%TD*%
%TO.P,Ceo2,2*%
%TO.N,gnd*%
%TA.AperFunction,SMDPad,CuDef*%
G36*
G01*
X175578500Y-115675000D02*
X175103500Y-115675000D01*
G75*
G02*
X174866000Y-115437500I0J237500D01*
G01*
X174866000Y-114837500D01*
G75*
G02*
X175103500Y-114600000I237500J0D01*
G01*
X175578500Y-114600000D01*
G75*
G02*
X175816000Y-114837500I0J-237500D01*
G01*
X175816000Y-115437500D01*
G75*
G02*
X175578500Y-115675000I-237500J0D01*
G01*
G37*
%TD.AperFunction*%
%TO.P,Ceo2,1*%
%TO.N,Net-(Ceo2-Pad1)*%
%TA.AperFunction,SMDPad,CuDef*%
G36*
G01*
X175578500Y-117400000D02*
X175103500Y-117400000D01*
G75*
G02*
X174866000Y-117162500I0J237500D01*
G01*
X174866000Y-116562500D01*
G75*
G02*
X175103500Y-116325000I237500J0D01*
G01*
X175578500Y-116325000D01*
G75*
G02*
X175816000Y-116562500I0J-237500D01*
G01*
X175816000Y-117162500D01*
G75*
G02*
X175578500Y-117400000I-237500J0D01*
G01*
G37*
%TD.AperFunction*%
%TD*%
%TO.P,Ceo1,2*%
%TO.N,gnd*%
%TA.AperFunction,SMDPad,CuDef*%
G36*
G01*
X173166000Y-115237500D02*
X173166000Y-114762500D01*
G75*
G02*
X173403500Y-114525000I237500J0D01*
G01*
X174003500Y-114525000D01*
G75*
G02*
X174241000Y-114762500I0J-237500D01*
G01*
X174241000Y-115237500D01*
G75*
G02*
X174003500Y-115475000I-237500J0D01*
G01*
X173403500Y-115475000D01*
G75*
G02*
X173166000Y-115237500I0J237500D01*
G01*
G37*
%TD.AperFunction*%
%TO.P,Ceo1,1*%
%TO.N,Net-(Ceo1-Pad1)*%
%TA.AperFunction,SMDPad,CuDef*%
G36*
G01*
X171441000Y-115237500D02*
X171441000Y-114762500D01*
G75*
G02*
X171678500Y-114525000I237500J0D01*
G01*
X172278500Y-114525000D01*
G75*
G02*
X172516000Y-114762500I0J-237500D01*
G01*
X172516000Y-115237500D01*
G75*
G02*
X172278500Y-115475000I-237500J0D01*
G01*
X171678500Y-115475000D01*
G75*
G02*
X171441000Y-115237500I0J237500D01*
G01*
G37*
%TD.AperFunction*%
%TD*%
D16*
%TO.P,C22,2*%
%TO.N,gnd*%
X188440000Y-136170000D03*
D28*
%TO.P,C22,1*%
%TO.N,vcc*%
X185940000Y-136170000D03*
%TD*%
%TO.P,C21,2*%
%TO.N,Net-(C15-Pad2)*%
%TA.AperFunction,SMDPad,CuDef*%
G36*
G01*
X178202500Y-130995000D02*
X178677500Y-130995000D01*
G75*
G02*
X178915000Y-131232500I0J-237500D01*
G01*
X178915000Y-131832500D01*
G75*
G02*
X178677500Y-132070000I-237500J0D01*
G01*
X178202500Y-132070000D01*
G75*
G02*
X177965000Y-131832500I0J237500D01*
G01*
X177965000Y-131232500D01*
G75*
G02*
X178202500Y-130995000I237500J0D01*
G01*
G37*
%TD.AperFunction*%
%TO.P,C21,1*%
%TO.N,Net-(C21-Pad1)*%
%TA.AperFunction,SMDPad,CuDef*%
G36*
G01*
X178202500Y-129270000D02*
X178677500Y-129270000D01*
G75*
G02*
X178915000Y-129507500I0J-237500D01*
G01*
X178915000Y-130107500D01*
G75*
G02*
X178677500Y-130345000I-237500J0D01*
G01*
X178202500Y-130345000D01*
G75*
G02*
X177965000Y-130107500I0J237500D01*
G01*
X177965000Y-129507500D01*
G75*
G02*
X178202500Y-129270000I237500J0D01*
G01*
G37*
%TD.AperFunction*%
%TD*%
%TO.P,C20,2*%
%TO.N,Net-(C15-Pad2)*%
%TA.AperFunction,SMDPad,CuDef*%
G36*
G01*
X170090000Y-122820001D02*
X170090000Y-121519999D01*
G75*
G02*
X170339999Y-121270000I249999J0D01*
G01*
X171165001Y-121270000D01*
G75*
G02*
X171415000Y-121519999I0J-249999D01*
G01*
X171415000Y-122820001D01*
G75*
G02*
X171165001Y-123070000I-249999J0D01*
G01*
X170339999Y-123070000D01*
G75*
G02*
X170090000Y-122820001I0J249999D01*
G01*
G37*
%TD.AperFunction*%
%TO.P,C20,1*%
%TO.N,Net-(C19-Pad1)*%
%TA.AperFunction,SMDPad,CuDef*%
G36*
G01*
X166965000Y-122820001D02*
X166965000Y-121519999D01*
G75*
G02*
X167214999Y-121270000I249999J0D01*
G01*
X168040001Y-121270000D01*
G75*
G02*
X168290000Y-121519999I0J-249999D01*
G01*
X168290000Y-122820001D01*
G75*
G02*
X168040001Y-123070000I-249999J0D01*
G01*
X167214999Y-123070000D01*
G75*
G02*
X166965000Y-122820001I0J249999D01*
G01*
G37*
%TD.AperFunction*%
%TD*%
%TO.P,C19,2*%
%TO.N,Net-(C15-Pad2)*%
%TA.AperFunction,SMDPad,CuDef*%
G36*
G01*
X170090000Y-125320001D02*
X170090000Y-124019999D01*
G75*
G02*
X170339999Y-123770000I249999J0D01*
G01*
X171165001Y-123770000D01*
G75*
G02*
X171415000Y-124019999I0J-249999D01*
G01*
X171415000Y-125320001D01*
G75*
G02*
X171165001Y-125570000I-249999J0D01*
G01*
X170339999Y-125570000D01*
G75*
G02*
X170090000Y-125320001I0J249999D01*
G01*
G37*
%TD.AperFunction*%
%TO.P,C19,1*%
%TO.N,Net-(C19-Pad1)*%
%TA.AperFunction,SMDPad,CuDef*%
G36*
G01*
X166965000Y-125320001D02*
X166965000Y-124019999D01*
G75*
G02*
X167214999Y-123770000I249999J0D01*
G01*
X168040001Y-123770000D01*
G75*
G02*
X168290000Y-124019999I0J-249999D01*
G01*
X168290000Y-125320001D01*
G75*
G02*
X168040001Y-125570000I-249999J0D01*
G01*
X167214999Y-125570000D01*
G75*
G02*
X166965000Y-125320001I0J249999D01*
G01*
G37*
%TD.AperFunction*%
%TD*%
%TO.P,C18,2*%
%TO.N,Net-(C15-Pad2)*%
%TA.AperFunction,SMDPad,CuDef*%
G36*
G01*
X171952500Y-130995000D02*
X172427500Y-130995000D01*
G75*
G02*
X172665000Y-131232500I0J-237500D01*
G01*
X172665000Y-131832500D01*
G75*
G02*
X172427500Y-132070000I-237500J0D01*
G01*
X171952500Y-132070000D01*
G75*
G02*
X171715000Y-131832500I0J237500D01*
G01*
X171715000Y-131232500D01*
G75*
G02*
X171952500Y-130995000I237500J0D01*
G01*
G37*
%TD.AperFunction*%
%TO.P,C18,1*%
%TO.N,Net-(C15-Pad1)*%
%TA.AperFunction,SMDPad,CuDef*%
G36*
G01*
X171952500Y-129270000D02*
X172427500Y-129270000D01*
G75*
G02*
X172665000Y-129507500I0J-237500D01*
G01*
X172665000Y-130107500D01*
G75*
G02*
X172427500Y-130345000I-237500J0D01*
G01*
X171952500Y-130345000D01*
G75*
G02*
X171715000Y-130107500I0J237500D01*
G01*
X171715000Y-129507500D01*
G75*
G02*
X171952500Y-129270000I237500J0D01*
G01*
G37*
%TD.AperFunction*%
%TD*%
%TO.P,C17,2*%
%TO.N,Net-(C15-Pad2)*%
%TA.AperFunction,SMDPad,CuDef*%
G36*
G01*
X170202500Y-130995000D02*
X170677500Y-130995000D01*
G75*
G02*
X170915000Y-131232500I0J-237500D01*
G01*
X170915000Y-131832500D01*
G75*
G02*
X170677500Y-132070000I-237500J0D01*
G01*
X170202500Y-132070000D01*
G75*
G02*
X169965000Y-131832500I0J237500D01*
G01*
X169965000Y-131232500D01*
G75*
G02*
X170202500Y-130995000I237500J0D01*
G01*
G37*
%TD.AperFunction*%
%TO.P,C17,1*%
%TO.N,Net-(C15-Pad1)*%
%TA.AperFunction,SMDPad,CuDef*%
G36*
G01*
X170202500Y-129270000D02*
X170677500Y-129270000D01*
G75*
G02*
X170915000Y-129507500I0J-237500D01*
G01*
X170915000Y-130107500D01*
G75*
G02*
X170677500Y-130345000I-237500J0D01*
G01*
X170202500Y-130345000D01*
G75*
G02*
X169965000Y-130107500I0J237500D01*
G01*
X169965000Y-129507500D01*
G75*
G02*
X170202500Y-129270000I237500J0D01*
G01*
G37*
%TD.AperFunction*%
%TD*%
%TO.P,C16,2*%
%TO.N,Net-(C15-Pad2)*%
%TA.AperFunction,SMDPad,CuDef*%
G36*
G01*
X168452500Y-130995000D02*
X168927500Y-130995000D01*
G75*
G02*
X169165000Y-131232500I0J-237500D01*
G01*
X169165000Y-131832500D01*
G75*
G02*
X168927500Y-132070000I-237500J0D01*
G01*
X168452500Y-132070000D01*
G75*
G02*
X168215000Y-131832500I0J237500D01*
G01*
X168215000Y-131232500D01*
G75*
G02*
X168452500Y-130995000I237500J0D01*
G01*
G37*
%TD.AperFunction*%
%TO.P,C16,1*%
%TO.N,Net-(C15-Pad1)*%
%TA.AperFunction,SMDPad,CuDef*%
G36*
G01*
X168452500Y-129270000D02*
X168927500Y-129270000D01*
G75*
G02*
X169165000Y-129507500I0J-237500D01*
G01*
X169165000Y-130107500D01*
G75*
G02*
X168927500Y-130345000I-237500J0D01*
G01*
X168452500Y-130345000D01*
G75*
G02*
X168215000Y-130107500I0J237500D01*
G01*
X168215000Y-129507500D01*
G75*
G02*
X168452500Y-129270000I237500J0D01*
G01*
G37*
%TD.AperFunction*%
%TD*%
%TO.P,C15,2*%
%TO.N,Net-(C15-Pad2)*%
%TA.AperFunction,SMDPad,CuDef*%
G36*
G01*
X166702500Y-130995000D02*
X167177500Y-130995000D01*
G75*
G02*
X167415000Y-131232500I0J-237500D01*
G01*
X167415000Y-131832500D01*
G75*
G02*
X167177500Y-132070000I-237500J0D01*
G01*
X166702500Y-132070000D01*
G75*
G02*
X166465000Y-131832500I0J237500D01*
G01*
X166465000Y-131232500D01*
G75*
G02*
X166702500Y-130995000I237500J0D01*
G01*
G37*
%TD.AperFunction*%
%TO.P,C15,1*%
%TO.N,Net-(C15-Pad1)*%
%TA.AperFunction,SMDPad,CuDef*%
G36*
G01*
X166702500Y-129270000D02*
X167177500Y-129270000D01*
G75*
G02*
X167415000Y-129507500I0J-237500D01*
G01*
X167415000Y-130107500D01*
G75*
G02*
X167177500Y-130345000I-237500J0D01*
G01*
X166702500Y-130345000D01*
G75*
G02*
X166465000Y-130107500I0J237500D01*
G01*
X166465000Y-129507500D01*
G75*
G02*
X166702500Y-129270000I237500J0D01*
G01*
G37*
%TD.AperFunction*%
%TD*%
D16*
%TO.P,C14,2*%
%TO.N,gnd*%
X159000000Y-134000000D03*
D28*
%TO.P,C14,1*%
%TO.N,Net-(C14-Pad1)*%
X159000000Y-137500000D03*
%TD*%
D16*
%TO.P,C13,2*%
%TO.N,gnd*%
X143000000Y-134000000D03*
D28*
%TO.P,C13,1*%
%TO.N,Net-(C13-Pad1)*%
X143000000Y-137500000D03*
%TD*%
%TO.P,C12,2*%
%TO.N,gnd*%
%TA.AperFunction,SMDPad,CuDef*%
G36*
G01*
X175762500Y-108075000D02*
X176237500Y-108075000D01*
G75*
G02*
X176475000Y-108312500I0J-237500D01*
G01*
X176475000Y-108912500D01*
G75*
G02*
X176237500Y-109150000I-237500J0D01*
G01*
X175762500Y-109150000D01*
G75*
G02*
X175525000Y-108912500I0J237500D01*
G01*
X175525000Y-108312500D01*
G75*
G02*
X175762500Y-108075000I237500J0D01*
G01*
G37*
%TD.AperFunction*%
%TO.P,C12,1*%
%TO.N,ovp*%
%TA.AperFunction,SMDPad,CuDef*%
G36*
G01*
X175762500Y-106350000D02*
X176237500Y-106350000D01*
G75*
G02*
X176475000Y-106587500I0J-237500D01*
G01*
X176475000Y-107187500D01*
G75*
G02*
X176237500Y-107425000I-237500J0D01*
G01*
X175762500Y-107425000D01*
G75*
G02*
X175525000Y-107187500I0J237500D01*
G01*
X175525000Y-106587500D01*
G75*
G02*
X175762500Y-106350000I237500J0D01*
G01*
G37*
%TD.AperFunction*%
%TD*%
%TO.P,C11,2*%
%TO.N,gnd*%
%TA.AperFunction,SMDPad,CuDef*%
G36*
G01*
X178989999Y-79020000D02*
X181890001Y-79020000D01*
G75*
G02*
X182140000Y-79269999I0J-249999D01*
G01*
X182140000Y-80170001D01*
G75*
G02*
X181890001Y-80420000I-249999J0D01*
G01*
X178989999Y-80420000D01*
G75*
G02*
X178740000Y-80170001I0J249999D01*
G01*
X178740000Y-79269999D01*
G75*
G02*
X178989999Y-79020000I249999J0D01*
G01*
G37*
%TD.AperFunction*%
%TO.P,C11,1*%
%TO.N,vpfc*%
%TA.AperFunction,SMDPad,CuDef*%
G36*
G01*
X178989999Y-74920000D02*
X181890001Y-74920000D01*
G75*
G02*
X182140000Y-75169999I0J-249999D01*
G01*
X182140000Y-76070001D01*
G75*
G02*
X181890001Y-76320000I-249999J0D01*
G01*
X178989999Y-76320000D01*
G75*
G02*
X178740000Y-76070001I0J249999D01*
G01*
X178740000Y-75169999D01*
G75*
G02*
X178989999Y-74920000I249999J0D01*
G01*
G37*
%TD.AperFunction*%
%TD*%
D20*
%TO.P,C10,2*%
%TO.N,gnd*%
X194500000Y-120250000D03*
D29*
%TO.P,C10,1*%
%TO.N,vpfc*%
X187000000Y-120250000D03*
%TD*%
D20*
%TO.P,C9,2*%
%TO.N,gnd*%
X194500000Y-86250000D03*
D29*
%TO.P,C9,1*%
%TO.N,vpfc*%
X187000000Y-86250000D03*
%TD*%
%TO.P,C8,2*%
%TO.N,gnd*%
%TA.AperFunction,SMDPad,CuDef*%
G36*
G01*
X167262500Y-108075000D02*
X167737500Y-108075000D01*
G75*
G02*
X167975000Y-108312500I0J-237500D01*
G01*
X167975000Y-108912500D01*
G75*
G02*
X167737500Y-109150000I-237500J0D01*
G01*
X167262500Y-109150000D01*
G75*
G02*
X167025000Y-108912500I0J237500D01*
G01*
X167025000Y-108312500D01*
G75*
G02*
X167262500Y-108075000I237500J0D01*
G01*
G37*
%TD.AperFunction*%
%TO.P,C8,1*%
%TO.N,vs*%
%TA.AperFunction,SMDPad,CuDef*%
G36*
G01*
X167262500Y-106350000D02*
X167737500Y-106350000D01*
G75*
G02*
X167975000Y-106587500I0J-237500D01*
G01*
X167975000Y-107187500D01*
G75*
G02*
X167737500Y-107425000I-237500J0D01*
G01*
X167262500Y-107425000D01*
G75*
G02*
X167025000Y-107187500I0J237500D01*
G01*
X167025000Y-106587500D01*
G75*
G02*
X167262500Y-106350000I237500J0D01*
G01*
G37*
%TD.AperFunction*%
%TD*%
D20*
%TO.P,C7,2*%
%TO.N,gnd*%
X194500000Y-69250000D03*
D29*
%TO.P,C7,1*%
%TO.N,vpfc*%
X187000000Y-69250000D03*
%TD*%
%TO.P,C6,2*%
%TO.N,Net-(C6-Pad2)*%
%TA.AperFunction,SMDPad,CuDef*%
G36*
G01*
X164349999Y-83900000D02*
X165650001Y-83900000D01*
G75*
G02*
X165900000Y-84149999I0J-249999D01*
G01*
X165900000Y-84975001D01*
G75*
G02*
X165650001Y-85225000I-249999J0D01*
G01*
X164349999Y-85225000D01*
G75*
G02*
X164100000Y-84975001I0J249999D01*
G01*
X164100000Y-84149999D01*
G75*
G02*
X164349999Y-83900000I249999J0D01*
G01*
G37*
%TD.AperFunction*%
%TO.P,C6,1*%
%TO.N,vpfc*%
%TA.AperFunction,SMDPad,CuDef*%
G36*
G01*
X164349999Y-80775000D02*
X165650001Y-80775000D01*
G75*
G02*
X165900000Y-81024999I0J-249999D01*
G01*
X165900000Y-81850001D01*
G75*
G02*
X165650001Y-82100000I-249999J0D01*
G01*
X164349999Y-82100000D01*
G75*
G02*
X164100000Y-81850001I0J249999D01*
G01*
X164100000Y-81024999D01*
G75*
G02*
X164349999Y-80775000I249999J0D01*
G01*
G37*
%TD.AperFunction*%
%TD*%
D20*
%TO.P,C5,2*%
%TO.N,gnd*%
X194500000Y-103250000D03*
D29*
%TO.P,C5,1*%
%TO.N,vpfc*%
X187000000Y-103250000D03*
%TD*%
D16*
%TO.P,C4,2*%
%TO.N,gnd*%
X157750000Y-122500000D03*
D28*
%TO.P,C4,1*%
%TO.N,vcc*%
X159750000Y-122500000D03*
%TD*%
%TO.P,C3,2*%
%TO.N,Net-(C3-Pad2)*%
%TA.AperFunction,SMDPad,CuDef*%
G36*
G01*
X159600000Y-105349999D02*
X159600000Y-106650001D01*
G75*
G02*
X159350001Y-106900000I-249999J0D01*
G01*
X158524999Y-106900000D01*
G75*
G02*
X158275000Y-106650001I0J249999D01*
G01*
X158275000Y-105349999D01*
G75*
G02*
X158524999Y-105100000I249999J0D01*
G01*
X159350001Y-105100000D01*
G75*
G02*
X159600000Y-105349999I0J-249999D01*
G01*
G37*
%TD.AperFunction*%
%TO.P,C3,1*%
%TO.N,Net-(C3-Pad1)*%
%TA.AperFunction,SMDPad,CuDef*%
G36*
G01*
X162725000Y-105349999D02*
X162725000Y-106650001D01*
G75*
G02*
X162475001Y-106900000I-249999J0D01*
G01*
X161649999Y-106900000D01*
G75*
G02*
X161400000Y-106650001I0J249999D01*
G01*
X161400000Y-105349999D01*
G75*
G02*
X161649999Y-105100000I249999J0D01*
G01*
X162475001Y-105100000D01*
G75*
G02*
X162725000Y-105349999I0J-249999D01*
G01*
G37*
%TD.AperFunction*%
%TD*%
%TO.P,C2,2*%
%TO.N,Net-(C1-Pad2)*%
%TA.AperFunction,SMDPad,CuDef*%
G36*
G01*
X126549999Y-98350000D02*
X129450001Y-98350000D01*
G75*
G02*
X129700000Y-98599999I0J-249999D01*
G01*
X129700000Y-99500001D01*
G75*
G02*
X129450001Y-99750000I-249999J0D01*
G01*
X126549999Y-99750000D01*
G75*
G02*
X126300000Y-99500001I0J249999D01*
G01*
X126300000Y-98599999D01*
G75*
G02*
X126549999Y-98350000I249999J0D01*
G01*
G37*
%TD.AperFunction*%
%TO.P,C2,1*%
%TO.N,Net-(C1-Pad1)*%
%TA.AperFunction,SMDPad,CuDef*%
G36*
G01*
X126549999Y-94250000D02*
X129450001Y-94250000D01*
G75*
G02*
X129700000Y-94499999I0J-249999D01*
G01*
X129700000Y-95400001D01*
G75*
G02*
X129450001Y-95650000I-249999J0D01*
G01*
X126549999Y-95650000D01*
G75*
G02*
X126300000Y-95400001I0J249999D01*
G01*
X126300000Y-94499999D01*
G75*
G02*
X126549999Y-94250000I249999J0D01*
G01*
G37*
%TD.AperFunction*%
%TD*%
%TO.P,C1,2*%
%TO.N,Net-(C1-Pad2)*%
%TA.AperFunction,SMDPad,CuDef*%
G36*
G01*
X121049999Y-98350000D02*
X123950001Y-98350000D01*
G75*
G02*
X124200000Y-98599999I0J-249999D01*
G01*
X124200000Y-99500001D01*
G75*
G02*
X123950001Y-99750000I-249999J0D01*
G01*
X121049999Y-99750000D01*
G75*
G02*
X120800000Y-99500001I0J249999D01*
G01*
X120800000Y-98599999D01*
G75*
G02*
X121049999Y-98350000I249999J0D01*
G01*
G37*
%TD.AperFunction*%
%TO.P,C1,1*%
%TO.N,Net-(C1-Pad1)*%
%TA.AperFunction,SMDPad,CuDef*%
G36*
G01*
X121049999Y-94250000D02*
X123950001Y-94250000D01*
G75*
G02*
X124200000Y-94499999I0J-249999D01*
G01*
X124200000Y-95400001D01*
G75*
G02*
X123950001Y-95650000I-249999J0D01*
G01*
X121049999Y-95650000D01*
G75*
G02*
X120800000Y-95400001I0J249999D01*
G01*
X120800000Y-94499999D01*
G75*
G02*
X121049999Y-94250000I249999J0D01*
G01*
G37*
%TD.AperFunction*%
%TD*%
D11*
%TO.P,J1,1*%
%TO.N,Net-(C23-Pad1)*%
X105000000Y-69250000D03*
D12*
%TO.P,J1,2*%
%TO.N,Net-(C23-Pad2)*%
X105000000Y-81050000D03*
%TD*%
D30*
%TO.P,L1,*%
%TO.N,*%
X116620000Y-69270000D03*
%TO.P,L1,2*%
%TO.N,Net-(C1-Pad1)*%
X116620000Y-89590000D03*
%TO.P,L1,*%
%TO.N,*%
X119160000Y-69270000D03*
X121700000Y-69270000D03*
X124240000Y-69270000D03*
X129320000Y-69270000D03*
X131860000Y-69270000D03*
X134400000Y-69270000D03*
X136940000Y-69270000D03*
%TO.P,L1,2*%
%TO.N,Net-(C1-Pad1)*%
X120430000Y-89590000D03*
X124240000Y-89590000D03*
%TO.P,L1,1*%
%TO.N,Net-(C3-Pad1)*%
X129320000Y-89590000D03*
X133130000Y-89590000D03*
X136940000Y-89590000D03*
%TD*%
D31*
%TO.P,D1,4*%
%TO.N,Net-(C1-Pad2)*%
X113500000Y-129500000D03*
%TO.P,D1,3*%
%TO.N,v120p*%
X113500000Y-122000000D03*
%TO.P,D1,2*%
%TO.N,v120n*%
X113500000Y-114500000D03*
%TO.P,D1,1*%
%TO.N,Net-(C1-Pad1)*%
X113500000Y-104500000D03*
%TD*%
D32*
%TO.N,*%
X186000000Y-139250000D03*
D33*
%TO.N,Net-(C1-Pad2)*%
X134000000Y-123000000D03*
D32*
%TO.N,gnd*%
X156500000Y-112000000D03*
X151750000Y-112000000D03*
D34*
X154500000Y-121250000D03*
D32*
X175000000Y-80000000D03*
X175000000Y-75000000D03*
X180000000Y-85000000D03*
X180000000Y-90000000D03*
X175000000Y-90000000D03*
X170000000Y-90000000D03*
X160000000Y-90000000D03*
X170000000Y-80000000D03*
X171000000Y-76000000D03*
X145000000Y-75000000D03*
X140000000Y-75000000D03*
X135000000Y-80000000D03*
X135000000Y-85000000D03*
X130000000Y-85000000D03*
X125000000Y-85000000D03*
X120000000Y-85000000D03*
X115000000Y-85000000D03*
X110000000Y-101250000D03*
X110000000Y-105000000D03*
X115000000Y-110000000D03*
X125000000Y-110000000D03*
X125000000Y-120000000D03*
X125000000Y-125000000D03*
X120000000Y-125000000D03*
X180000000Y-115000000D03*
X166000000Y-103000000D03*
X149000000Y-101000000D03*
X136000000Y-107000000D03*
X133000000Y-102000000D03*
X134000000Y-95000000D03*
X156000000Y-90000000D03*
X183000000Y-94000000D03*
X181000000Y-102000000D03*
X183000000Y-112000000D03*
X131000000Y-105000000D03*
X139000000Y-105000000D03*
X174250000Y-134000000D03*
X168250000Y-110252600D03*
X161671400Y-110100200D03*
D33*
X105000000Y-97250000D03*
X121000000Y-108250000D03*
X118000000Y-135250000D03*
D32*
X150000000Y-120250000D03*
X150000000Y-105250000D03*
X103000000Y-63250000D03*
X108000000Y-63250000D03*
X111000000Y-63250000D03*
X114000000Y-63250000D03*
X114000000Y-67250000D03*
X187000000Y-126250000D03*
X196000000Y-126250000D03*
X194500000Y-111750000D03*
X194500000Y-97750000D03*
X194500000Y-76750000D03*
X152040000Y-87240000D03*
X159690000Y-87210000D03*
X154590000Y-96710000D03*
X152170000Y-75130000D03*
X160590000Y-66200000D03*
X166220000Y-64230000D03*
X173900000Y-64380000D03*
X111490000Y-137910000D03*
X117640000Y-138490000D03*
%TO.N,Net-(D3-Pad2)*%
X153600000Y-108850000D03*
%TO.N,Net-(C19-Pad1)*%
X166726000Y-135424000D03*
D33*
%TO.N,Net-(C23-Pad1)*%
X111000000Y-91250000D03*
%TD*%
D35*
%TO.N,v120n*%
X132525001Y-134999999D02*
X130025000Y-137500000D01*
X126152001Y-122599999D02*
X132525001Y-128972999D01*
X121599999Y-122599999D02*
X126152001Y-122599999D01*
X132525001Y-128972999D02*
X132525001Y-134999999D01*
X113500000Y-114500000D02*
X121599999Y-122599999D01*
D36*
X109050000Y-114500000D02*
X105000000Y-110450000D01*
X113500000Y-114500000D02*
X109050000Y-114500000D01*
D35*
%TO.N,v120p*%
X105000000Y-135320000D02*
X105180000Y-135500000D01*
X105000000Y-122000000D02*
X105000000Y-135320000D01*
D36*
X105250000Y-122000000D02*
X105000000Y-122250000D01*
X113500000Y-122000000D02*
X105250000Y-122000000D01*
%TO.N,Net-(C1-Pad2)*%
X133200001Y-112700001D02*
X124000000Y-103500000D01*
D37*
X122500000Y-102000000D02*
X124000000Y-103500000D01*
X122500000Y-99225000D02*
X122500000Y-102000000D01*
X124000000Y-103225000D02*
X124000000Y-103500000D01*
X128000000Y-99225000D02*
X124000000Y-103225000D01*
D35*
X143512500Y-126947500D02*
X143460000Y-127000000D01*
X143512500Y-123000000D02*
X143512500Y-126947500D01*
D36*
X143512500Y-123000000D02*
X134000000Y-123000000D01*
X134000000Y-113500000D02*
X133200001Y-112700001D01*
X135500000Y-112000000D02*
X134000000Y-113500000D01*
X143512500Y-112000000D02*
X135500000Y-112000000D01*
X134150000Y-117600000D02*
X134000000Y-117750000D01*
X143512500Y-117600000D02*
X134150000Y-117600000D01*
X134000000Y-117750000D02*
X134000000Y-113500000D01*
X134000000Y-123000000D02*
X134000000Y-117750000D01*
X134000000Y-123000000D02*
X134000000Y-123000000D01*
%TO.N,Net-(C1-Pad1)*%
X113500000Y-97778790D02*
X116503790Y-94775000D01*
X113500000Y-104500000D02*
X113500000Y-97778790D01*
X116503790Y-89706210D02*
X116620000Y-89590000D01*
X116503790Y-94775000D02*
X116503790Y-89706210D01*
D37*
X128000000Y-94775000D02*
X116503790Y-94775000D01*
D36*
X116620000Y-89590000D02*
X124240000Y-89590000D01*
D35*
X120430000Y-92705000D02*
X122500000Y-94775000D01*
X120430000Y-89590000D02*
X120430000Y-92705000D01*
X124240000Y-91015000D02*
X128000000Y-94775000D01*
X124240000Y-89590000D02*
X124240000Y-91015000D01*
D37*
%TO.N,Net-(C3-Pad2)*%
X158275000Y-106000000D02*
X156160000Y-106000000D01*
D36*
%TO.N,Net-(C3-Pad1)*%
X142000000Y-84330000D02*
X145450000Y-84330000D01*
X142000000Y-84530000D02*
X136940000Y-89590000D01*
X142000000Y-84330000D02*
X142000000Y-84530000D01*
D35*
X161987500Y-100867500D02*
X161987500Y-106000000D01*
X164960000Y-97540000D02*
X165000000Y-97500000D01*
D36*
X129320000Y-89590000D02*
X136940000Y-89590000D01*
D37*
X142000000Y-97540000D02*
X146000000Y-97540000D01*
X162660001Y-95619999D02*
X159690003Y-92650001D01*
X161987500Y-100132502D02*
X162660001Y-99460001D01*
X159690003Y-92650001D02*
X151220001Y-92650001D01*
X161987500Y-100867500D02*
X161987500Y-100132502D01*
X162971002Y-97451000D02*
X162660001Y-97139999D01*
X165000000Y-97451000D02*
X162971002Y-97451000D01*
X162660001Y-97139999D02*
X162660001Y-95619999D01*
X162660001Y-99460001D02*
X162660001Y-97139999D01*
D36*
X146000000Y-91647498D02*
X146000000Y-97540000D01*
X145450000Y-91097498D02*
X146000000Y-91647498D01*
X145450000Y-84330000D02*
X145450000Y-91097498D01*
D37*
X147002503Y-92650001D02*
X146000000Y-91647498D01*
X151220001Y-92650001D02*
X147002503Y-92650001D01*
%TO.N,gnd*%
X142000000Y-100080000D02*
X142080000Y-100080000D01*
D38*
X173841000Y-115125000D02*
X173716000Y-115000000D01*
X175341000Y-115125000D02*
X173841000Y-115125000D01*
X173716000Y-113250000D02*
X173716000Y-115000000D01*
X179000000Y-108625000D02*
X176000000Y-108625000D01*
D36*
X194500000Y-69250000D02*
X194500000Y-76750000D01*
X194500000Y-55870000D02*
X194620000Y-55750000D01*
X194500000Y-69250000D02*
X194500000Y-55870000D01*
D37*
X149862500Y-122625000D02*
X149487500Y-123000000D01*
D38*
X157730000Y-113230000D02*
X156500000Y-112000000D01*
X156500000Y-112000000D02*
X156500000Y-112000000D01*
X151750000Y-112000000D02*
X149487500Y-112000000D01*
X167500000Y-108625000D02*
X173000000Y-108625000D01*
D36*
X149487500Y-109487500D02*
X146000000Y-106000000D01*
X149487500Y-112000000D02*
X149487500Y-109487500D01*
X149750000Y-120250000D02*
X149487500Y-119987500D01*
X152500000Y-120250000D02*
X150000000Y-120250000D01*
X149487500Y-119987500D02*
X149487500Y-112000000D01*
X149487500Y-123000000D02*
X149487500Y-119987500D01*
D35*
X152000000Y-120750000D02*
X152500000Y-120250000D01*
X152000000Y-122625000D02*
X152000000Y-120750000D01*
X176190000Y-128770000D02*
X174250000Y-130710000D01*
X174250000Y-130710000D02*
X174250000Y-134000000D01*
X174250000Y-134000000D02*
X174250000Y-134000000D01*
D38*
X160742800Y-113224400D02*
X160737200Y-113230000D01*
X163731800Y-113224400D02*
X160742800Y-113224400D01*
X160737200Y-113230000D02*
X157730000Y-113230000D01*
X161475000Y-113230000D02*
X160737200Y-113230000D01*
D36*
X153500000Y-120250000D02*
X154500000Y-121250000D01*
X152500000Y-120250000D02*
X153500000Y-120250000D01*
D37*
X142000000Y-102000000D02*
X142000000Y-100540010D01*
X146000000Y-106000000D02*
X142000000Y-102000000D01*
D36*
X150000000Y-120250000D02*
X149750000Y-120250000D01*
X194500000Y-111750000D02*
X194500000Y-120250000D01*
X194500000Y-97750000D02*
X194500000Y-111750000D01*
X194500000Y-76750000D02*
X194500000Y-97750000D01*
%TO.N,vpfc*%
X171200000Y-69250000D02*
X187000000Y-69250000D01*
X187000000Y-69250000D02*
X187000000Y-120250000D01*
D35*
X170000000Y-96512500D02*
X176000000Y-96512500D01*
X180262500Y-96512500D02*
X176000000Y-96512500D01*
X187000000Y-103250000D02*
X180262500Y-96512500D01*
D36*
X180500000Y-69250000D02*
X180500000Y-61700000D01*
D35*
X180500000Y-75385000D02*
X180440000Y-75445000D01*
X180500000Y-69250000D02*
X180500000Y-75385000D01*
D36*
X180500000Y-57388000D02*
X182474000Y-55414000D01*
X180500000Y-61700000D02*
X180500000Y-57388000D01*
X187000000Y-59940000D02*
X182474000Y-55414000D01*
X187000000Y-69250000D02*
X187000000Y-59940000D01*
X164169998Y-69250000D02*
X171200000Y-69250000D01*
X142000000Y-79250000D02*
X154169998Y-79250000D01*
D37*
X164527500Y-81437500D02*
X158254999Y-75164999D01*
X165000000Y-81437500D02*
X164527500Y-81437500D01*
D36*
X158254999Y-75164999D02*
X164169998Y-69250000D01*
X154169998Y-79250000D02*
X158254999Y-75164999D01*
D35*
%TO.N,Net-(C6-Pad2)*%
X165000000Y-87291000D02*
X165000000Y-84562500D01*
D38*
%TO.N,vs*%
X167500000Y-106875000D02*
X173000000Y-106875000D01*
D35*
X170000000Y-106875000D02*
X170000000Y-104987500D01*
D38*
X167706800Y-115764400D02*
X166853000Y-114910600D01*
X168681800Y-115764400D02*
X167706800Y-115764400D01*
X166853000Y-114910600D02*
X166853000Y-111548000D01*
X166853000Y-111548000D02*
X165786200Y-110481200D01*
X165786200Y-110481200D02*
X165786200Y-107433200D01*
X166331900Y-106887500D02*
X167500000Y-106887500D01*
X165786200Y-107433200D02*
X166331900Y-106887500D01*
%TO.N,ovp*%
X176000000Y-106875000D02*
X179000000Y-106875000D01*
D35*
X176000000Y-106875000D02*
X176000000Y-104987500D01*
D38*
X174500000Y-107500000D02*
X175125000Y-106875000D01*
X174500000Y-109750000D02*
X174500000Y-107500000D01*
X173560000Y-110690000D02*
X174500000Y-109750000D01*
X175125000Y-106875000D02*
X176000000Y-106875000D01*
X169946200Y-110690000D02*
X173560000Y-110690000D01*
X168681800Y-111954400D02*
X169946200Y-110690000D01*
%TO.N,Net-(Ceo1-Pad1)*%
X171966000Y-117000000D02*
X171966000Y-115000000D01*
X171472900Y-114494400D02*
X171978500Y-115000000D01*
X168681800Y-114494400D02*
X171472900Y-114494400D01*
%TO.N,Net-(Ceo2-Pad1)*%
X173841000Y-116875000D02*
X173716000Y-117000000D01*
X175341000Y-116875000D02*
X173841000Y-116875000D01*
%TO.N,is*%
X160410002Y-127000000D02*
X151500000Y-127000000D01*
X166000000Y-121410002D02*
X160410002Y-127000000D01*
D35*
X152000000Y-124375000D02*
X152000000Y-127000000D01*
D38*
X164706800Y-111954400D02*
X166000000Y-113247600D01*
X166000000Y-113247600D02*
X166000000Y-121410002D01*
X163731800Y-111954400D02*
X164706800Y-111954400D01*
%TO.N,Net-(D3-Pad2)*%
X153600000Y-108850000D02*
X153600000Y-108850000D01*
D37*
X138625000Y-95000000D02*
X142000000Y-95000000D01*
X137000000Y-96625000D02*
X138625000Y-95000000D01*
D35*
X153600000Y-114500000D02*
X153600000Y-108850000D01*
X155800000Y-116737500D02*
X154287500Y-116737500D01*
X153600000Y-116050000D02*
X153600000Y-114500000D01*
X154287500Y-116737500D02*
X153600000Y-116050000D01*
D38*
%TO.N,out*%
X160756900Y-114494400D02*
X160712500Y-114450000D01*
X163731800Y-114494400D02*
X160756900Y-114494400D01*
D35*
%TO.N,Net-(Risf1-Pad1)*%
X146000000Y-127000000D02*
X149460000Y-127000000D01*
%TO.N,Net-(Rovph1-Pad2)*%
X176000000Y-99487500D02*
X176000000Y-102012500D01*
D38*
%TO.N,Net-(Rt1-Pad2)*%
X168687400Y-113230000D02*
X168681800Y-113224400D01*
X171966000Y-113250000D02*
X171946000Y-113230000D01*
X168707400Y-113250000D02*
X168681800Y-113224400D01*
X171928500Y-113250000D02*
X168707400Y-113250000D01*
D35*
%TO.N,Net-(Rvsh1-Pad2)*%
X170000000Y-99487500D02*
X170000000Y-102012500D01*
%TO.N,Net-(D3-Pad1)*%
X157600000Y-115700000D02*
X156400000Y-114500000D01*
X157600000Y-116712501D02*
X157600000Y-115700000D01*
X158850000Y-114450000D02*
X157600000Y-115700000D01*
X158887500Y-114450000D02*
X158850000Y-114450000D01*
%TO.N,Net-(C13-Pad1)*%
X146150000Y-137500000D02*
X148650000Y-135000000D01*
X143000000Y-137500000D02*
X146150000Y-137500000D01*
X143000000Y-137500000D02*
X135975000Y-137500000D01*
%TO.N,Net-(C14-Pad1)*%
X159405000Y-137905000D02*
X159000000Y-137500000D01*
X155850000Y-137500000D02*
X153350000Y-135000000D01*
X159000000Y-137500000D02*
X155850000Y-137500000D01*
D38*
X159464000Y-137964000D02*
X159000000Y-137500000D01*
X164913000Y-137964000D02*
X159464000Y-137964000D01*
%TO.N,Net-(C15-Pad2)*%
X166940000Y-131545000D02*
X172190000Y-131545000D01*
X176150000Y-131610000D02*
X176190000Y-131570000D01*
X176150000Y-136000000D02*
X176150000Y-131610000D01*
X176215000Y-131545000D02*
X176190000Y-131570000D01*
X178440000Y-131545000D02*
X176215000Y-131545000D01*
D35*
X170677500Y-122432500D02*
X170665000Y-122420000D01*
X170677500Y-124670000D02*
X170677500Y-122170000D01*
D38*
X161689999Y-134215001D02*
X164109998Y-136635000D01*
X161689999Y-128670001D02*
X161689999Y-134215001D01*
X162940000Y-127420000D02*
X161689999Y-128670001D01*
X161689999Y-133060003D02*
X161689999Y-134215001D01*
X170080002Y-124670000D02*
X161689999Y-133060003D01*
X170677500Y-124670000D02*
X170080002Y-124670000D01*
X170063000Y-131909500D02*
X170440000Y-131532500D01*
X170063000Y-134154000D02*
X170063000Y-131909500D01*
X170063000Y-134154000D02*
X170063000Y-137964000D01*
X175456000Y-136694000D02*
X176150000Y-136000000D01*
X170063000Y-136694000D02*
X175456000Y-136694000D01*
X175574000Y-135424000D02*
X176150000Y-136000000D01*
X170063000Y-135424000D02*
X175574000Y-135424000D01*
X170004000Y-136635000D02*
X170063000Y-136694000D01*
X164109998Y-136635000D02*
X170004000Y-136635000D01*
%TO.N,Net-(C15-Pad1)*%
X164800000Y-131935000D02*
X166940000Y-129795000D01*
X164800000Y-134095000D02*
X164800000Y-131935000D01*
X166940000Y-129795000D02*
X172190000Y-129795000D01*
X174940000Y-127045000D02*
X172190000Y-129795000D01*
X174940000Y-124670000D02*
X174940000Y-127045000D01*
%TO.N,Net-(C19-Pad1)*%
X164855000Y-135420000D02*
X164800000Y-135365000D01*
D35*
X167702500Y-122432500D02*
X167690000Y-122420000D01*
X167702500Y-124670000D02*
X167702500Y-122170000D01*
D38*
X167702500Y-125197500D02*
X167702500Y-124670000D01*
X162940000Y-129960000D02*
X167702500Y-125197500D01*
X166726000Y-135424000D02*
X164913000Y-135424000D01*
%TO.N,Net-(C21-Pad1)*%
X179725000Y-129795000D02*
X180750000Y-128770000D01*
X178440000Y-129795000D02*
X179725000Y-129795000D01*
X180750000Y-125980000D02*
X180690000Y-125920000D01*
D35*
X180500000Y-122000000D02*
X180500000Y-125920000D01*
D38*
X180750000Y-126170000D02*
X180500000Y-125920000D01*
X180750000Y-128770000D02*
X180750000Y-126170000D01*
D35*
%TO.N,Net-(D4-Pad3)*%
X127500000Y-133500000D02*
X125500000Y-135500000D01*
X130025000Y-133500000D02*
X127500000Y-133500000D01*
D38*
%TO.N,Net-(R2-Pad2)*%
X174980000Y-122170000D02*
X174940000Y-122130000D01*
D35*
X175070000Y-122000000D02*
X174940000Y-122130000D01*
X177960000Y-122000000D02*
X175070000Y-122000000D01*
%TO.N,vcc*%
X180750000Y-135900000D02*
X180850000Y-136000000D01*
D38*
X180850000Y-131670000D02*
X180750000Y-131570000D01*
X180850000Y-136000000D02*
X180850000Y-131670000D01*
D35*
X181020000Y-136170000D02*
X180850000Y-136000000D01*
X185940000Y-136170000D02*
X181020000Y-136170000D01*
X185940000Y-136170000D02*
X185940000Y-130670000D01*
X185940000Y-136170000D02*
X185940000Y-136440000D01*
X191360000Y-130750000D02*
X195000000Y-130750000D01*
X185940000Y-136170000D02*
X191360000Y-130750000D01*
D38*
X163731800Y-115764400D02*
X161773000Y-115764400D01*
X159750000Y-117787400D02*
X159750000Y-122500000D01*
X161773000Y-115764400D02*
X159750000Y-117787400D01*
D35*
%TO.N,Net-(R10-Pad1)*%
X157575001Y-118562500D02*
X157600000Y-118537501D01*
X155800000Y-118562500D02*
X157575001Y-118562500D01*
D36*
%TO.N,Net-(C23-Pad1)*%
X105000000Y-69250000D02*
X106000000Y-69250000D01*
X106000000Y-69250000D02*
X113000000Y-76250000D01*
X113000000Y-76250000D02*
X113000000Y-81250000D01*
X111000000Y-83250000D02*
X111000000Y-91250000D01*
X113000000Y-81250000D02*
X111000000Y-83250000D01*
%TD*%
D35*
%TO.N,gnd*%
X193312613Y-132853238D02*
X193573198Y-132992524D01*
X193656960Y-133017933D01*
X193342128Y-133148340D01*
X192768880Y-133531372D01*
X192281372Y-134018880D01*
X191898340Y-134592128D01*
X191634503Y-135229088D01*
X191500000Y-135905280D01*
X191500000Y-136594720D01*
X191634503Y-137270912D01*
X191898340Y-137907872D01*
X192281372Y-138481120D01*
X192768880Y-138968628D01*
X193152568Y-139225000D01*
X187900000Y-139225000D01*
X187900000Y-139062866D01*
X187826984Y-138695791D01*
X187683758Y-138350013D01*
X187591378Y-138211756D01*
X187805792Y-138035792D01*
X187993238Y-137807387D01*
X188132524Y-137546802D01*
X188218295Y-137264051D01*
X188247257Y-136970000D01*
X188247257Y-136691169D01*
X192188427Y-132750000D01*
X193186816Y-132750000D01*
X193312613Y-132853238D01*
%TA.AperFunction,Conductor*%
D39*
G36*
X193312613Y-132853238D02*
G01*
X193573198Y-132992524D01*
X193656960Y-133017933D01*
X193342128Y-133148340D01*
X192768880Y-133531372D01*
X192281372Y-134018880D01*
X191898340Y-134592128D01*
X191634503Y-135229088D01*
X191500000Y-135905280D01*
X191500000Y-136594720D01*
X191634503Y-137270912D01*
X191898340Y-137907872D01*
X192281372Y-138481120D01*
X192768880Y-138968628D01*
X193152568Y-139225000D01*
X187900000Y-139225000D01*
X187900000Y-139062866D01*
X187826984Y-138695791D01*
X187683758Y-138350013D01*
X187591378Y-138211756D01*
X187805792Y-138035792D01*
X187993238Y-137807387D01*
X188132524Y-137546802D01*
X188218295Y-137264051D01*
X188247257Y-136970000D01*
X188247257Y-136691169D01*
X192188427Y-132750000D01*
X193186816Y-132750000D01*
X193312613Y-132853238D01*
G37*
%TD.AperFunction*%
D35*
X133411897Y-125956592D02*
X134000000Y-126014515D01*
X134147373Y-126000000D01*
X141384711Y-126000000D01*
X141248387Y-126329115D01*
X141160000Y-126773470D01*
X141160000Y-127226530D01*
X141248387Y-127670885D01*
X141421766Y-128089459D01*
X141673473Y-128466165D01*
X141993835Y-128786527D01*
X142370541Y-129038234D01*
X142789115Y-129211613D01*
X143233470Y-129300000D01*
X143686530Y-129300000D01*
X144130885Y-129211613D01*
X144549459Y-129038234D01*
X144730000Y-128917600D01*
X144910541Y-129038234D01*
X145329115Y-129211613D01*
X145773470Y-129300000D01*
X146226530Y-129300000D01*
X146670885Y-129211613D01*
X147089459Y-129038234D01*
X147146680Y-129000000D01*
X148313320Y-129000000D01*
X148370541Y-129038234D01*
X148789115Y-129211613D01*
X149233470Y-129300000D01*
X149686530Y-129300000D01*
X150130885Y-129211613D01*
X150549459Y-129038234D01*
X150730000Y-128917600D01*
X150910541Y-129038234D01*
X151329115Y-129211613D01*
X151773470Y-129300000D01*
X152226530Y-129300000D01*
X152670885Y-129211613D01*
X153089459Y-129038234D01*
X153466165Y-128786527D01*
X153502692Y-128750000D01*
X159939411Y-128750000D01*
X159939999Y-128755967D01*
X159940000Y-132974030D01*
X159931532Y-133060003D01*
X159939999Y-133145968D01*
X159939999Y-134129036D01*
X159931532Y-134215001D01*
X159939999Y-134300966D01*
X159939999Y-134300969D01*
X159965320Y-134558061D01*
X160065387Y-134887937D01*
X160137014Y-135021941D01*
X160227887Y-135191953D01*
X160304760Y-135285622D01*
X160094051Y-135221705D01*
X159800000Y-135192743D01*
X158200000Y-135192743D01*
X157905949Y-135221705D01*
X157623198Y-135307476D01*
X157362613Y-135446762D01*
X157297742Y-135500000D01*
X156678427Y-135500000D01*
X155657257Y-134478831D01*
X155657257Y-132150000D01*
X155628295Y-131855949D01*
X155542524Y-131573198D01*
X155403238Y-131312613D01*
X155215792Y-131084208D01*
X154987387Y-130896762D01*
X154726802Y-130757476D01*
X154444051Y-130671705D01*
X154150000Y-130642743D01*
X152550000Y-130642743D01*
X152255949Y-130671705D01*
X151973198Y-130757476D01*
X151712613Y-130896762D01*
X151484208Y-131084208D01*
X151296762Y-131312613D01*
X151157476Y-131573198D01*
X151071705Y-131855949D01*
X151042743Y-132150000D01*
X151042743Y-137850000D01*
X151071705Y-138144051D01*
X151157476Y-138426802D01*
X151296762Y-138687387D01*
X151484208Y-138915792D01*
X151712613Y-139103238D01*
X151940413Y-139225000D01*
X150059587Y-139225000D01*
X150287387Y-139103238D01*
X150515792Y-138915792D01*
X150703238Y-138687387D01*
X150842524Y-138426802D01*
X150928295Y-138144051D01*
X150957257Y-137850000D01*
X150957257Y-132150000D01*
X150928295Y-131855949D01*
X150842524Y-131573198D01*
X150703238Y-131312613D01*
X150515792Y-131084208D01*
X150287387Y-130896762D01*
X150026802Y-130757476D01*
X149744051Y-130671705D01*
X149450000Y-130642743D01*
X147850000Y-130642743D01*
X147555949Y-130671705D01*
X147273198Y-130757476D01*
X147012613Y-130896762D01*
X146784208Y-131084208D01*
X146596762Y-131312613D01*
X146457476Y-131573198D01*
X146371705Y-131855949D01*
X146342743Y-132150000D01*
X146342743Y-134478830D01*
X145321574Y-135500000D01*
X144702258Y-135500000D01*
X144637387Y-135446762D01*
X144376802Y-135307476D01*
X144094051Y-135221705D01*
X143800000Y-135192743D01*
X142200000Y-135192743D01*
X141905949Y-135221705D01*
X141623198Y-135307476D01*
X141362613Y-135446762D01*
X141297742Y-135500000D01*
X135876747Y-135500000D01*
X135582931Y-135528938D01*
X135205930Y-135643301D01*
X135115838Y-135691456D01*
X134908680Y-135754296D01*
X134988828Y-135490085D01*
X135025001Y-135122812D01*
X135025001Y-135122803D01*
X135037096Y-135000000D01*
X135025001Y-134877197D01*
X135025001Y-129095801D01*
X135037096Y-128972998D01*
X135025001Y-128850195D01*
X135025001Y-128850186D01*
X134988828Y-128482913D01*
X134845875Y-128011661D01*
X134613732Y-127577353D01*
X134479198Y-127413423D01*
X134379609Y-127292073D01*
X134379608Y-127292072D01*
X134301321Y-127196679D01*
X134205929Y-127118393D01*
X132883989Y-125796453D01*
X133411897Y-125956592D01*
%TA.AperFunction,Conductor*%
D39*
G36*
X133411897Y-125956592D02*
G01*
X134000000Y-126014515D01*
X134147373Y-126000000D01*
X141384711Y-126000000D01*
X141248387Y-126329115D01*
X141160000Y-126773470D01*
X141160000Y-127226530D01*
X141248387Y-127670885D01*
X141421766Y-128089459D01*
X141673473Y-128466165D01*
X141993835Y-128786527D01*
X142370541Y-129038234D01*
X142789115Y-129211613D01*
X143233470Y-129300000D01*
X143686530Y-129300000D01*
X144130885Y-129211613D01*
X144549459Y-129038234D01*
X144730000Y-128917600D01*
X144910541Y-129038234D01*
X145329115Y-129211613D01*
X145773470Y-129300000D01*
X146226530Y-129300000D01*
X146670885Y-129211613D01*
X147089459Y-129038234D01*
X147146680Y-129000000D01*
X148313320Y-129000000D01*
X148370541Y-129038234D01*
X148789115Y-129211613D01*
X149233470Y-129300000D01*
X149686530Y-129300000D01*
X150130885Y-129211613D01*
X150549459Y-129038234D01*
X150730000Y-128917600D01*
X150910541Y-129038234D01*
X151329115Y-129211613D01*
X151773470Y-129300000D01*
X152226530Y-129300000D01*
X152670885Y-129211613D01*
X153089459Y-129038234D01*
X153466165Y-128786527D01*
X153502692Y-128750000D01*
X159939411Y-128750000D01*
X159939999Y-128755967D01*
X159940000Y-132974030D01*
X159931532Y-133060003D01*
X159939999Y-133145968D01*
X159939999Y-134129036D01*
X159931532Y-134215001D01*
X159939999Y-134300966D01*
X159939999Y-134300969D01*
X159965320Y-134558061D01*
X160065387Y-134887937D01*
X160137014Y-135021941D01*
X160227887Y-135191953D01*
X160304760Y-135285622D01*
X160094051Y-135221705D01*
X159800000Y-135192743D01*
X158200000Y-135192743D01*
X157905949Y-135221705D01*
X157623198Y-135307476D01*
X157362613Y-135446762D01*
X157297742Y-135500000D01*
X156678427Y-135500000D01*
X155657257Y-134478831D01*
X155657257Y-132150000D01*
X155628295Y-131855949D01*
X155542524Y-131573198D01*
X155403238Y-131312613D01*
X155215792Y-131084208D01*
X154987387Y-130896762D01*
X154726802Y-130757476D01*
X154444051Y-130671705D01*
X154150000Y-130642743D01*
X152550000Y-130642743D01*
X152255949Y-130671705D01*
X151973198Y-130757476D01*
X151712613Y-130896762D01*
X151484208Y-131084208D01*
X151296762Y-131312613D01*
X151157476Y-131573198D01*
X151071705Y-131855949D01*
X151042743Y-132150000D01*
X151042743Y-137850000D01*
X151071705Y-138144051D01*
X151157476Y-138426802D01*
X151296762Y-138687387D01*
X151484208Y-138915792D01*
X151712613Y-139103238D01*
X151940413Y-139225000D01*
X150059587Y-139225000D01*
X150287387Y-139103238D01*
X150515792Y-138915792D01*
X150703238Y-138687387D01*
X150842524Y-138426802D01*
X150928295Y-138144051D01*
X150957257Y-137850000D01*
X150957257Y-132150000D01*
X150928295Y-131855949D01*
X150842524Y-131573198D01*
X150703238Y-131312613D01*
X150515792Y-131084208D01*
X150287387Y-130896762D01*
X150026802Y-130757476D01*
X149744051Y-130671705D01*
X149450000Y-130642743D01*
X147850000Y-130642743D01*
X147555949Y-130671705D01*
X147273198Y-130757476D01*
X147012613Y-130896762D01*
X146784208Y-131084208D01*
X146596762Y-131312613D01*
X146457476Y-131573198D01*
X146371705Y-131855949D01*
X146342743Y-132150000D01*
X146342743Y-134478830D01*
X145321574Y-135500000D01*
X144702258Y-135500000D01*
X144637387Y-135446762D01*
X144376802Y-135307476D01*
X144094051Y-135221705D01*
X143800000Y-135192743D01*
X142200000Y-135192743D01*
X141905949Y-135221705D01*
X141623198Y-135307476D01*
X141362613Y-135446762D01*
X141297742Y-135500000D01*
X135876747Y-135500000D01*
X135582931Y-135528938D01*
X135205930Y-135643301D01*
X135115838Y-135691456D01*
X134908680Y-135754296D01*
X134988828Y-135490085D01*
X135025001Y-135122812D01*
X135025001Y-135122803D01*
X135037096Y-135000000D01*
X135025001Y-134877197D01*
X135025001Y-129095801D01*
X135037096Y-128972998D01*
X135025001Y-128850195D01*
X135025001Y-128850186D01*
X134988828Y-128482913D01*
X134845875Y-128011661D01*
X134613732Y-127577353D01*
X134479198Y-127413423D01*
X134379609Y-127292073D01*
X134379608Y-127292072D01*
X134301321Y-127196679D01*
X134205929Y-127118393D01*
X132883989Y-125796453D01*
X133411897Y-125956592D01*
G37*
%TD.AperFunction*%
D35*
X119745390Y-124280924D02*
X119823679Y-124376319D01*
X120204353Y-124688730D01*
X120638661Y-124920873D01*
X121109913Y-125063826D01*
X121477186Y-125099999D01*
X121477195Y-125099999D01*
X121599998Y-125112094D01*
X121722801Y-125099999D01*
X125116468Y-125099999D01*
X130025001Y-130008533D01*
X130025001Y-131500000D01*
X127598242Y-131500000D01*
X127499999Y-131490324D01*
X127401756Y-131500000D01*
X127401747Y-131500000D01*
X127107931Y-131528938D01*
X126730930Y-131643301D01*
X126406749Y-131816579D01*
X126383483Y-131829015D01*
X126304237Y-131894051D01*
X126078944Y-132078944D01*
X126016313Y-132155260D01*
X125371573Y-132800000D01*
X125234073Y-132800000D01*
X124712439Y-132903760D01*
X124221070Y-133107291D01*
X123778850Y-133402773D01*
X123402773Y-133778850D01*
X123107291Y-134221070D01*
X122903760Y-134712439D01*
X122800000Y-135234073D01*
X122800000Y-135765927D01*
X122903760Y-136287561D01*
X123107291Y-136778930D01*
X123402773Y-137221150D01*
X123778850Y-137597227D01*
X124221070Y-137892709D01*
X124712439Y-138096240D01*
X125234073Y-138200000D01*
X125765927Y-138200000D01*
X126287561Y-138096240D01*
X126778930Y-137892709D01*
X127221150Y-137597227D01*
X127515323Y-137303054D01*
X127515323Y-137475450D01*
X127512905Y-137500000D01*
X127515323Y-137524550D01*
X127515323Y-137850000D01*
X127553938Y-138242069D01*
X127668301Y-138619070D01*
X127854015Y-138966517D01*
X128066147Y-139225000D01*
X101525000Y-139225000D01*
X101525000Y-127195566D01*
X101608191Y-127220802D01*
X102000260Y-127259417D01*
X102500000Y-127259417D01*
X102500001Y-133751055D01*
X102344197Y-133984232D01*
X102102975Y-134566595D01*
X101980000Y-135184828D01*
X101980000Y-135815172D01*
X102102975Y-136433405D01*
X102344197Y-137015768D01*
X102694398Y-137539881D01*
X103140119Y-137985602D01*
X103664232Y-138335803D01*
X104246595Y-138577025D01*
X104864828Y-138700000D01*
X105495172Y-138700000D01*
X106113405Y-138577025D01*
X106695768Y-138335803D01*
X107219881Y-137985602D01*
X107665602Y-137539881D01*
X108015803Y-137015768D01*
X108257025Y-136433405D01*
X108380000Y-135815172D01*
X108380000Y-135184828D01*
X108257025Y-134566595D01*
X108015803Y-133984232D01*
X107665602Y-133460119D01*
X107500000Y-133294517D01*
X107500000Y-129253772D01*
X111000000Y-129253772D01*
X111000000Y-129746228D01*
X111096074Y-130229223D01*
X111284529Y-130684194D01*
X111558124Y-131093657D01*
X111906343Y-131441876D01*
X112315806Y-131715471D01*
X112770777Y-131903926D01*
X113253772Y-132000000D01*
X113746228Y-132000000D01*
X114229223Y-131903926D01*
X114684194Y-131715471D01*
X115093657Y-131441876D01*
X115441876Y-131093657D01*
X115715471Y-130684194D01*
X115903926Y-130229223D01*
X116000000Y-129746228D01*
X116000000Y-129253772D01*
X115903926Y-128770777D01*
X115715471Y-128315806D01*
X115441876Y-127906343D01*
X115093657Y-127558124D01*
X114684194Y-127284529D01*
X114229223Y-127096074D01*
X113746228Y-127000000D01*
X113253772Y-127000000D01*
X112770777Y-127096074D01*
X112315806Y-127284529D01*
X111906343Y-127558124D01*
X111558124Y-127906343D01*
X111284529Y-128315806D01*
X111096074Y-128770777D01*
X111000000Y-129253772D01*
X107500000Y-129253772D01*
X107500000Y-127259417D01*
X107999740Y-127259417D01*
X108391809Y-127220802D01*
X108768810Y-127106439D01*
X109116257Y-126920725D01*
X109420796Y-126670796D01*
X109670725Y-126366257D01*
X109856439Y-126018810D01*
X109970802Y-125641809D01*
X109984769Y-125500000D01*
X113671944Y-125500000D01*
X114186120Y-125449358D01*
X114845873Y-125249224D01*
X115453904Y-124924225D01*
X115986849Y-124486849D01*
X116424225Y-123953904D01*
X116749224Y-123345873D01*
X116949358Y-122686120D01*
X117016935Y-122000000D01*
X116968041Y-121503575D01*
X119745390Y-124280924D01*
%TA.AperFunction,Conductor*%
D39*
G36*
X119745390Y-124280924D02*
G01*
X119823679Y-124376319D01*
X120204353Y-124688730D01*
X120638661Y-124920873D01*
X121109913Y-125063826D01*
X121477186Y-125099999D01*
X121477195Y-125099999D01*
X121599998Y-125112094D01*
X121722801Y-125099999D01*
X125116468Y-125099999D01*
X130025001Y-130008533D01*
X130025001Y-131500000D01*
X127598242Y-131500000D01*
X127499999Y-131490324D01*
X127401756Y-131500000D01*
X127401747Y-131500000D01*
X127107931Y-131528938D01*
X126730930Y-131643301D01*
X126406749Y-131816579D01*
X126383483Y-131829015D01*
X126304237Y-131894051D01*
X126078944Y-132078944D01*
X126016313Y-132155260D01*
X125371573Y-132800000D01*
X125234073Y-132800000D01*
X124712439Y-132903760D01*
X124221070Y-133107291D01*
X123778850Y-133402773D01*
X123402773Y-133778850D01*
X123107291Y-134221070D01*
X122903760Y-134712439D01*
X122800000Y-135234073D01*
X122800000Y-135765927D01*
X122903760Y-136287561D01*
X123107291Y-136778930D01*
X123402773Y-137221150D01*
X123778850Y-137597227D01*
X124221070Y-137892709D01*
X124712439Y-138096240D01*
X125234073Y-138200000D01*
X125765927Y-138200000D01*
X126287561Y-138096240D01*
X126778930Y-137892709D01*
X127221150Y-137597227D01*
X127515323Y-137303054D01*
X127515323Y-137475450D01*
X127512905Y-137500000D01*
X127515323Y-137524550D01*
X127515323Y-137850000D01*
X127553938Y-138242069D01*
X127668301Y-138619070D01*
X127854015Y-138966517D01*
X128066147Y-139225000D01*
X101525000Y-139225000D01*
X101525000Y-127195566D01*
X101608191Y-127220802D01*
X102000260Y-127259417D01*
X102500000Y-127259417D01*
X102500001Y-133751055D01*
X102344197Y-133984232D01*
X102102975Y-134566595D01*
X101980000Y-135184828D01*
X101980000Y-135815172D01*
X102102975Y-136433405D01*
X102344197Y-137015768D01*
X102694398Y-137539881D01*
X103140119Y-137985602D01*
X103664232Y-138335803D01*
X104246595Y-138577025D01*
X104864828Y-138700000D01*
X105495172Y-138700000D01*
X106113405Y-138577025D01*
X106695768Y-138335803D01*
X107219881Y-137985602D01*
X107665602Y-137539881D01*
X108015803Y-137015768D01*
X108257025Y-136433405D01*
X108380000Y-135815172D01*
X108380000Y-135184828D01*
X108257025Y-134566595D01*
X108015803Y-133984232D01*
X107665602Y-133460119D01*
X107500000Y-133294517D01*
X107500000Y-129253772D01*
X111000000Y-129253772D01*
X111000000Y-129746228D01*
X111096074Y-130229223D01*
X111284529Y-130684194D01*
X111558124Y-131093657D01*
X111906343Y-131441876D01*
X112315806Y-131715471D01*
X112770777Y-131903926D01*
X113253772Y-132000000D01*
X113746228Y-132000000D01*
X114229223Y-131903926D01*
X114684194Y-131715471D01*
X115093657Y-131441876D01*
X115441876Y-131093657D01*
X115715471Y-130684194D01*
X115903926Y-130229223D01*
X116000000Y-129746228D01*
X116000000Y-129253772D01*
X115903926Y-128770777D01*
X115715471Y-128315806D01*
X115441876Y-127906343D01*
X115093657Y-127558124D01*
X114684194Y-127284529D01*
X114229223Y-127096074D01*
X113746228Y-127000000D01*
X113253772Y-127000000D01*
X112770777Y-127096074D01*
X112315806Y-127284529D01*
X111906343Y-127558124D01*
X111558124Y-127906343D01*
X111284529Y-128315806D01*
X111096074Y-128770777D01*
X111000000Y-129253772D01*
X107500000Y-129253772D01*
X107500000Y-127259417D01*
X107999740Y-127259417D01*
X108391809Y-127220802D01*
X108768810Y-127106439D01*
X109116257Y-126920725D01*
X109420796Y-126670796D01*
X109670725Y-126366257D01*
X109856439Y-126018810D01*
X109970802Y-125641809D01*
X109984769Y-125500000D01*
X113671944Y-125500000D01*
X114186120Y-125449358D01*
X114845873Y-125249224D01*
X115453904Y-124924225D01*
X115986849Y-124486849D01*
X116424225Y-123953904D01*
X116749224Y-123345873D01*
X116949358Y-122686120D01*
X117016935Y-122000000D01*
X116968041Y-121503575D01*
X119745390Y-124280924D01*
G37*
%TD.AperFunction*%
D35*
X198475001Y-135779601D02*
X198365497Y-135229088D01*
X198101660Y-134592128D01*
X197718628Y-134018880D01*
X197231120Y-133531372D01*
X196657872Y-133148340D01*
X196343040Y-133017933D01*
X196426802Y-132992524D01*
X196687387Y-132853238D01*
X196915792Y-132665792D01*
X197103238Y-132437387D01*
X197242524Y-132176802D01*
X197328295Y-131894051D01*
X197357257Y-131600000D01*
X197357257Y-129900000D01*
X197328295Y-129605949D01*
X197242524Y-129323198D01*
X197103238Y-129062613D01*
X196915792Y-128834208D01*
X196687387Y-128646762D01*
X196426802Y-128507476D01*
X196144051Y-128421705D01*
X195850000Y-128392743D01*
X194150000Y-128392743D01*
X193855949Y-128421705D01*
X193573198Y-128507476D01*
X193312613Y-128646762D01*
X193186816Y-128750000D01*
X191458251Y-128750000D01*
X191360000Y-128740323D01*
X191261749Y-128750000D01*
X191261747Y-128750000D01*
X190967931Y-128778938D01*
X190590930Y-128893301D01*
X190243483Y-129079014D01*
X190036424Y-129248944D01*
X189938944Y-129328944D01*
X189876313Y-129405260D01*
X188203986Y-131077588D01*
X188240000Y-130896530D01*
X188240000Y-130443470D01*
X188151613Y-129999115D01*
X187978234Y-129580541D01*
X187726527Y-129203835D01*
X187406165Y-128883473D01*
X187029459Y-128631766D01*
X186610885Y-128458387D01*
X186166530Y-128370000D01*
X185713470Y-128370000D01*
X185269115Y-128458387D01*
X184850541Y-128631766D01*
X184473835Y-128883473D01*
X184153473Y-129203835D01*
X183901766Y-129580541D01*
X183728387Y-129999115D01*
X183640000Y-130443470D01*
X183640000Y-130896530D01*
X183728387Y-131340885D01*
X183901766Y-131759459D01*
X183940001Y-131816681D01*
X183940000Y-134170000D01*
X183157257Y-134170000D01*
X183157257Y-133150000D01*
X183128295Y-132855949D01*
X183042524Y-132573198D01*
X182903238Y-132312613D01*
X182800604Y-132187552D01*
X182807257Y-132120000D01*
X182807257Y-131020000D01*
X182778295Y-130725949D01*
X182692524Y-130443198D01*
X182553238Y-130182613D01*
X182542887Y-130170000D01*
X182553238Y-130157387D01*
X182692524Y-129896802D01*
X182778295Y-129614051D01*
X182807257Y-129320000D01*
X182807257Y-128220000D01*
X182778295Y-127925949D01*
X182692524Y-127643198D01*
X182553238Y-127382613D01*
X182500000Y-127317742D01*
X182500000Y-127066680D01*
X182538234Y-127009459D01*
X182711613Y-126590885D01*
X182800000Y-126146530D01*
X182800000Y-125693470D01*
X182711613Y-125249115D01*
X182538234Y-124830541D01*
X182500000Y-124773320D01*
X182500000Y-122920450D01*
X182615455Y-122641716D01*
X182700000Y-122216681D01*
X182700000Y-121783319D01*
X182615455Y-121358284D01*
X182449615Y-120957909D01*
X182208852Y-120597582D01*
X181902418Y-120291148D01*
X181542091Y-120050385D01*
X181141716Y-119884545D01*
X180716681Y-119800000D01*
X180283319Y-119800000D01*
X179858284Y-119884545D01*
X179457909Y-120050385D01*
X179230000Y-120202669D01*
X179002091Y-120050385D01*
X178601716Y-119884545D01*
X178176681Y-119800000D01*
X177743319Y-119800000D01*
X177318284Y-119884545D01*
X177039550Y-120000000D01*
X175807916Y-120000000D01*
X175610885Y-119918387D01*
X175166530Y-119830000D01*
X174713470Y-119830000D01*
X174269115Y-119918387D01*
X173850541Y-120091766D01*
X173473835Y-120343473D01*
X173153473Y-120663835D01*
X172901766Y-121040541D01*
X172870178Y-121116801D01*
X172788494Y-120847526D01*
X172626106Y-120543720D01*
X172407569Y-120277431D01*
X172141280Y-120058894D01*
X171837474Y-119896506D01*
X171507825Y-119796508D01*
X171165001Y-119762743D01*
X170339999Y-119762743D01*
X169997175Y-119796508D01*
X169667526Y-119896506D01*
X169363720Y-120058894D01*
X169190000Y-120201462D01*
X169016280Y-120058894D01*
X168712474Y-119896506D01*
X168382825Y-119796508D01*
X168040001Y-119762743D01*
X167750000Y-119762743D01*
X167750000Y-117561138D01*
X167856800Y-117571657D01*
X169506800Y-117571657D01*
X169830115Y-117539813D01*
X169959648Y-117500520D01*
X169967268Y-117577885D01*
X170066555Y-117905190D01*
X170227788Y-118206835D01*
X170444770Y-118471230D01*
X170709165Y-118688212D01*
X171010810Y-118849445D01*
X171338115Y-118948732D01*
X171678500Y-118982257D01*
X172178500Y-118982257D01*
X172518885Y-118948732D01*
X172841000Y-118851019D01*
X173163115Y-118948732D01*
X173503500Y-118982257D01*
X174003500Y-118982257D01*
X174343885Y-118948732D01*
X174671190Y-118849445D01*
X174675484Y-118847150D01*
X174763115Y-118873732D01*
X175103500Y-118907257D01*
X175578500Y-118907257D01*
X175918885Y-118873732D01*
X176246190Y-118774445D01*
X176547835Y-118613212D01*
X176812230Y-118396230D01*
X177029212Y-118131835D01*
X177190445Y-117830190D01*
X177289732Y-117502885D01*
X177323257Y-117162500D01*
X177323257Y-116562500D01*
X177289732Y-116222115D01*
X177190445Y-115894810D01*
X177029212Y-115593165D01*
X176812230Y-115328770D01*
X176547835Y-115111788D01*
X176246190Y-114950555D01*
X175918885Y-114851268D01*
X175578500Y-114817743D01*
X175103500Y-114817743D01*
X174763115Y-114851268D01*
X174435810Y-114950555D01*
X174262404Y-115043243D01*
X174023257Y-115019689D01*
X174023257Y-114762500D01*
X173989732Y-114422115D01*
X173890445Y-114094810D01*
X173838335Y-113997319D01*
X173889732Y-113827885D01*
X173923257Y-113487500D01*
X173923257Y-113012500D01*
X173889732Y-112672115D01*
X173814292Y-112423422D01*
X173903060Y-112414679D01*
X174232936Y-112314612D01*
X174536952Y-112152112D01*
X174803424Y-111933424D01*
X174858229Y-111866644D01*
X175676645Y-111048228D01*
X175743424Y-110993424D01*
X175962112Y-110726952D01*
X176124612Y-110422936D01*
X176224679Y-110093060D01*
X176250000Y-109835968D01*
X176250000Y-109835966D01*
X176258467Y-109750000D01*
X176250000Y-109664034D01*
X176250000Y-108931026D01*
X176577885Y-108898732D01*
X176905190Y-108799445D01*
X177206835Y-108638212D01*
X177222934Y-108625000D01*
X177955534Y-108625000D01*
X178094810Y-108699445D01*
X178422115Y-108798732D01*
X178762500Y-108832257D01*
X179237500Y-108832257D01*
X179577885Y-108798732D01*
X179905190Y-108699445D01*
X180206835Y-108538212D01*
X180471230Y-108321230D01*
X180688212Y-108056835D01*
X180849445Y-107755190D01*
X180948732Y-107427885D01*
X180982257Y-107087500D01*
X180982257Y-106587500D01*
X180948732Y-106247115D01*
X180849445Y-105919810D01*
X180688212Y-105618165D01*
X180471230Y-105353770D01*
X180206835Y-105136788D01*
X179905190Y-104975555D01*
X179577885Y-104876268D01*
X179237500Y-104842743D01*
X178762500Y-104842743D01*
X178422115Y-104876268D01*
X178382257Y-104888359D01*
X178382257Y-104650000D01*
X178348492Y-104307176D01*
X178248494Y-103977527D01*
X178086106Y-103673720D01*
X177943537Y-103500000D01*
X178086106Y-103326280D01*
X178248494Y-103022473D01*
X178348492Y-102692824D01*
X178382257Y-102350000D01*
X178382257Y-101550000D01*
X178348492Y-101207176D01*
X178248494Y-100877527D01*
X178180329Y-100750000D01*
X178248494Y-100622473D01*
X178348492Y-100292824D01*
X178382257Y-99950000D01*
X178382257Y-99150000D01*
X178368715Y-99012500D01*
X179226967Y-99012500D01*
X183500001Y-103285534D01*
X183500001Y-120421944D01*
X183550643Y-120936120D01*
X183750777Y-121595873D01*
X183816868Y-121719521D01*
X183828938Y-121842069D01*
X183943301Y-122219070D01*
X184129015Y-122566517D01*
X184378944Y-122871056D01*
X184683483Y-123120985D01*
X185030930Y-123306699D01*
X185407931Y-123421062D01*
X185530478Y-123433132D01*
X185654128Y-123499224D01*
X186313881Y-123699358D01*
X187000000Y-123766935D01*
X187686120Y-123699358D01*
X188345873Y-123499224D01*
X188469523Y-123433132D01*
X188592069Y-123421062D01*
X188969070Y-123306699D01*
X189316517Y-123120985D01*
X189621056Y-122871056D01*
X189870985Y-122566517D01*
X190056699Y-122219070D01*
X190171062Y-121842069D01*
X190183132Y-121719523D01*
X190249224Y-121595873D01*
X190449358Y-120936120D01*
X190500000Y-120421944D01*
X190500000Y-69421943D01*
X190516935Y-69250000D01*
X190500000Y-69078056D01*
X190500000Y-60111944D01*
X190516935Y-59940000D01*
X190449358Y-59253879D01*
X190249224Y-58594127D01*
X190152805Y-58413740D01*
X189924225Y-57986096D01*
X189486849Y-57453151D01*
X189353285Y-57343538D01*
X187483417Y-55473670D01*
X187483417Y-52414260D01*
X187444802Y-52022191D01*
X187330439Y-51645190D01*
X187266196Y-51525000D01*
X198475000Y-51525000D01*
X198475001Y-135779601D01*
%TA.AperFunction,Conductor*%
D39*
G36*
X198475001Y-135779601D02*
G01*
X198365497Y-135229088D01*
X198101660Y-134592128D01*
X197718628Y-134018880D01*
X197231120Y-133531372D01*
X196657872Y-133148340D01*
X196343040Y-133017933D01*
X196426802Y-132992524D01*
X196687387Y-132853238D01*
X196915792Y-132665792D01*
X197103238Y-132437387D01*
X197242524Y-132176802D01*
X197328295Y-131894051D01*
X197357257Y-131600000D01*
X197357257Y-129900000D01*
X197328295Y-129605949D01*
X197242524Y-129323198D01*
X197103238Y-129062613D01*
X196915792Y-128834208D01*
X196687387Y-128646762D01*
X196426802Y-128507476D01*
X196144051Y-128421705D01*
X195850000Y-128392743D01*
X194150000Y-128392743D01*
X193855949Y-128421705D01*
X193573198Y-128507476D01*
X193312613Y-128646762D01*
X193186816Y-128750000D01*
X191458251Y-128750000D01*
X191360000Y-128740323D01*
X191261749Y-128750000D01*
X191261747Y-128750000D01*
X190967931Y-128778938D01*
X190590930Y-128893301D01*
X190243483Y-129079014D01*
X190036424Y-129248944D01*
X189938944Y-129328944D01*
X189876313Y-129405260D01*
X188203986Y-131077588D01*
X188240000Y-130896530D01*
X188240000Y-130443470D01*
X188151613Y-129999115D01*
X187978234Y-129580541D01*
X187726527Y-129203835D01*
X187406165Y-128883473D01*
X187029459Y-128631766D01*
X186610885Y-128458387D01*
X186166530Y-128370000D01*
X185713470Y-128370000D01*
X185269115Y-128458387D01*
X184850541Y-128631766D01*
X184473835Y-128883473D01*
X184153473Y-129203835D01*
X183901766Y-129580541D01*
X183728387Y-129999115D01*
X183640000Y-130443470D01*
X183640000Y-130896530D01*
X183728387Y-131340885D01*
X183901766Y-131759459D01*
X183940001Y-131816681D01*
X183940000Y-134170000D01*
X183157257Y-134170000D01*
X183157257Y-133150000D01*
X183128295Y-132855949D01*
X183042524Y-132573198D01*
X182903238Y-132312613D01*
X182800604Y-132187552D01*
X182807257Y-132120000D01*
X182807257Y-131020000D01*
X182778295Y-130725949D01*
X182692524Y-130443198D01*
X182553238Y-130182613D01*
X182542887Y-130170000D01*
X182553238Y-130157387D01*
X182692524Y-129896802D01*
X182778295Y-129614051D01*
X182807257Y-129320000D01*
X182807257Y-128220000D01*
X182778295Y-127925949D01*
X182692524Y-127643198D01*
X182553238Y-127382613D01*
X182500000Y-127317742D01*
X182500000Y-127066680D01*
X182538234Y-127009459D01*
X182711613Y-126590885D01*
X182800000Y-126146530D01*
X182800000Y-125693470D01*
X182711613Y-125249115D01*
X182538234Y-124830541D01*
X182500000Y-124773320D01*
X182500000Y-122920450D01*
X182615455Y-122641716D01*
X182700000Y-122216681D01*
X182700000Y-121783319D01*
X182615455Y-121358284D01*
X182449615Y-120957909D01*
X182208852Y-120597582D01*
X181902418Y-120291148D01*
X181542091Y-120050385D01*
X181141716Y-119884545D01*
X180716681Y-119800000D01*
X180283319Y-119800000D01*
X179858284Y-119884545D01*
X179457909Y-120050385D01*
X179230000Y-120202669D01*
X179002091Y-120050385D01*
X178601716Y-119884545D01*
X178176681Y-119800000D01*
X177743319Y-119800000D01*
X177318284Y-119884545D01*
X177039550Y-120000000D01*
X175807916Y-120000000D01*
X175610885Y-119918387D01*
X175166530Y-119830000D01*
X174713470Y-119830000D01*
X174269115Y-119918387D01*
X173850541Y-120091766D01*
X173473835Y-120343473D01*
X173153473Y-120663835D01*
X172901766Y-121040541D01*
X172870178Y-121116801D01*
X172788494Y-120847526D01*
X172626106Y-120543720D01*
X172407569Y-120277431D01*
X172141280Y-120058894D01*
X171837474Y-119896506D01*
X171507825Y-119796508D01*
X171165001Y-119762743D01*
X170339999Y-119762743D01*
X169997175Y-119796508D01*
X169667526Y-119896506D01*
X169363720Y-120058894D01*
X169190000Y-120201462D01*
X169016280Y-120058894D01*
X168712474Y-119896506D01*
X168382825Y-119796508D01*
X168040001Y-119762743D01*
X167750000Y-119762743D01*
X167750000Y-117561138D01*
X167856800Y-117571657D01*
X169506800Y-117571657D01*
X169830115Y-117539813D01*
X169959648Y-117500520D01*
X169967268Y-117577885D01*
X170066555Y-117905190D01*
X170227788Y-118206835D01*
X170444770Y-118471230D01*
X170709165Y-118688212D01*
X171010810Y-118849445D01*
X171338115Y-118948732D01*
X171678500Y-118982257D01*
X172178500Y-118982257D01*
X172518885Y-118948732D01*
X172841000Y-118851019D01*
X173163115Y-118948732D01*
X173503500Y-118982257D01*
X174003500Y-118982257D01*
X174343885Y-118948732D01*
X174671190Y-118849445D01*
X174675484Y-118847150D01*
X174763115Y-118873732D01*
X175103500Y-118907257D01*
X175578500Y-118907257D01*
X175918885Y-118873732D01*
X176246190Y-118774445D01*
X176547835Y-118613212D01*
X176812230Y-118396230D01*
X177029212Y-118131835D01*
X177190445Y-117830190D01*
X177289732Y-117502885D01*
X177323257Y-117162500D01*
X177323257Y-116562500D01*
X177289732Y-116222115D01*
X177190445Y-115894810D01*
X177029212Y-115593165D01*
X176812230Y-115328770D01*
X176547835Y-115111788D01*
X176246190Y-114950555D01*
X175918885Y-114851268D01*
X175578500Y-114817743D01*
X175103500Y-114817743D01*
X174763115Y-114851268D01*
X174435810Y-114950555D01*
X174262404Y-115043243D01*
X174023257Y-115019689D01*
X174023257Y-114762500D01*
X173989732Y-114422115D01*
X173890445Y-114094810D01*
X173838335Y-113997319D01*
X173889732Y-113827885D01*
X173923257Y-113487500D01*
X173923257Y-113012500D01*
X173889732Y-112672115D01*
X173814292Y-112423422D01*
X173903060Y-112414679D01*
X174232936Y-112314612D01*
X174536952Y-112152112D01*
X174803424Y-111933424D01*
X174858229Y-111866644D01*
X175676645Y-111048228D01*
X175743424Y-110993424D01*
X175962112Y-110726952D01*
X176124612Y-110422936D01*
X176224679Y-110093060D01*
X176250000Y-109835968D01*
X176250000Y-109835966D01*
X176258467Y-109750000D01*
X176250000Y-109664034D01*
X176250000Y-108931026D01*
X176577885Y-108898732D01*
X176905190Y-108799445D01*
X177206835Y-108638212D01*
X177222934Y-108625000D01*
X177955534Y-108625000D01*
X178094810Y-108699445D01*
X178422115Y-108798732D01*
X178762500Y-108832257D01*
X179237500Y-108832257D01*
X179577885Y-108798732D01*
X179905190Y-108699445D01*
X180206835Y-108538212D01*
X180471230Y-108321230D01*
X180688212Y-108056835D01*
X180849445Y-107755190D01*
X180948732Y-107427885D01*
X180982257Y-107087500D01*
X180982257Y-106587500D01*
X180948732Y-106247115D01*
X180849445Y-105919810D01*
X180688212Y-105618165D01*
X180471230Y-105353770D01*
X180206835Y-105136788D01*
X179905190Y-104975555D01*
X179577885Y-104876268D01*
X179237500Y-104842743D01*
X178762500Y-104842743D01*
X178422115Y-104876268D01*
X178382257Y-104888359D01*
X178382257Y-104650000D01*
X178348492Y-104307176D01*
X178248494Y-103977527D01*
X178086106Y-103673720D01*
X177943537Y-103500000D01*
X178086106Y-103326280D01*
X178248494Y-103022473D01*
X178348492Y-102692824D01*
X178382257Y-102350000D01*
X178382257Y-101550000D01*
X178348492Y-101207176D01*
X178248494Y-100877527D01*
X178180329Y-100750000D01*
X178248494Y-100622473D01*
X178348492Y-100292824D01*
X178382257Y-99950000D01*
X178382257Y-99150000D01*
X178368715Y-99012500D01*
X179226967Y-99012500D01*
X183500001Y-103285534D01*
X183500001Y-120421944D01*
X183550643Y-120936120D01*
X183750777Y-121595873D01*
X183816868Y-121719521D01*
X183828938Y-121842069D01*
X183943301Y-122219070D01*
X184129015Y-122566517D01*
X184378944Y-122871056D01*
X184683483Y-123120985D01*
X185030930Y-123306699D01*
X185407931Y-123421062D01*
X185530478Y-123433132D01*
X185654128Y-123499224D01*
X186313881Y-123699358D01*
X187000000Y-123766935D01*
X187686120Y-123699358D01*
X188345873Y-123499224D01*
X188469523Y-123433132D01*
X188592069Y-123421062D01*
X188969070Y-123306699D01*
X189316517Y-123120985D01*
X189621056Y-122871056D01*
X189870985Y-122566517D01*
X190056699Y-122219070D01*
X190171062Y-121842069D01*
X190183132Y-121719523D01*
X190249224Y-121595873D01*
X190449358Y-120936120D01*
X190500000Y-120421944D01*
X190500000Y-69421943D01*
X190516935Y-69250000D01*
X190500000Y-69078056D01*
X190500000Y-60111944D01*
X190516935Y-59940000D01*
X190449358Y-59253879D01*
X190249224Y-58594127D01*
X190152805Y-58413740D01*
X189924225Y-57986096D01*
X189486849Y-57453151D01*
X189353285Y-57343538D01*
X187483417Y-55473670D01*
X187483417Y-52414260D01*
X187444802Y-52022191D01*
X187330439Y-51645190D01*
X187266196Y-51525000D01*
X198475000Y-51525000D01*
X198475001Y-135779601D01*
G37*
%TD.AperFunction*%
D35*
X176870541Y-127958234D02*
X177191340Y-128091113D01*
X176968770Y-128273770D01*
X176751788Y-128538165D01*
X176590555Y-128839810D01*
X176491268Y-129167115D01*
X176457743Y-129507500D01*
X176457743Y-129512743D01*
X175640000Y-129512743D01*
X175345949Y-129541705D01*
X175063198Y-129627476D01*
X174802613Y-129766762D01*
X174574208Y-129954208D01*
X174386762Y-130182613D01*
X174247476Y-130443198D01*
X174161705Y-130725949D01*
X174142035Y-130925655D01*
X174138732Y-130892115D01*
X174071354Y-130670000D01*
X174138732Y-130447885D01*
X174152579Y-130307294D01*
X176116650Y-128343224D01*
X176183424Y-128288424D01*
X176312116Y-128131613D01*
X176402112Y-128021953D01*
X176496938Y-127844545D01*
X176550480Y-127744376D01*
X176870541Y-127958234D01*
%TA.AperFunction,Conductor*%
D39*
G36*
X176870541Y-127958234D02*
G01*
X177191340Y-128091113D01*
X176968770Y-128273770D01*
X176751788Y-128538165D01*
X176590555Y-128839810D01*
X176491268Y-129167115D01*
X176457743Y-129507500D01*
X176457743Y-129512743D01*
X175640000Y-129512743D01*
X175345949Y-129541705D01*
X175063198Y-129627476D01*
X174802613Y-129766762D01*
X174574208Y-129954208D01*
X174386762Y-130182613D01*
X174247476Y-130443198D01*
X174161705Y-130725949D01*
X174142035Y-130925655D01*
X174138732Y-130892115D01*
X174071354Y-130670000D01*
X174138732Y-130447885D01*
X174152579Y-130307294D01*
X176116650Y-128343224D01*
X176183424Y-128288424D01*
X176312116Y-128131613D01*
X176402112Y-128021953D01*
X176496938Y-127844545D01*
X176550480Y-127744376D01*
X176870541Y-127958234D01*
G37*
%TD.AperFunction*%
D35*
X137368918Y-93120142D02*
X137122474Y-93322394D01*
X137026312Y-93401312D01*
X136955855Y-93487164D01*
X135330855Y-95112165D01*
X135120142Y-95368919D01*
X134911214Y-95759797D01*
X134782557Y-96183924D01*
X134739114Y-96625000D01*
X134782557Y-97066076D01*
X134911214Y-97490203D01*
X135120142Y-97881081D01*
X135401313Y-98223687D01*
X135743919Y-98504858D01*
X136134797Y-98713786D01*
X136558924Y-98842443D01*
X137000000Y-98885886D01*
X137441076Y-98842443D01*
X137865203Y-98713786D01*
X138256081Y-98504858D01*
X138512835Y-98294145D01*
X139239409Y-97567571D01*
X139289790Y-98079094D01*
X139447038Y-98597471D01*
X139702395Y-99075211D01*
X140046048Y-99493952D01*
X140464789Y-99837605D01*
X140942529Y-100092962D01*
X141460906Y-100250210D01*
X141864902Y-100290000D01*
X143833803Y-100290000D01*
X144046097Y-100464225D01*
X144654128Y-100789224D01*
X145313881Y-100989358D01*
X146000000Y-101056935D01*
X146686120Y-100989358D01*
X147345873Y-100789224D01*
X147953904Y-100464225D01*
X148486849Y-100026849D01*
X148924225Y-99493904D01*
X149249224Y-98885873D01*
X149449358Y-98226120D01*
X149500000Y-97711944D01*
X149500000Y-95400001D01*
X156203805Y-95400001D01*
X156135560Y-95468246D01*
X155779888Y-96000548D01*
X155534896Y-96592010D01*
X155410000Y-97219903D01*
X155410000Y-97860097D01*
X155534896Y-98487990D01*
X155779888Y-99079452D01*
X156135560Y-99611754D01*
X156588246Y-100064440D01*
X157120548Y-100420112D01*
X157712010Y-100665104D01*
X158339903Y-100790000D01*
X158980097Y-100790000D01*
X159237500Y-100738799D01*
X159237500Y-101002597D01*
X159277290Y-101406593D01*
X159434538Y-101924970D01*
X159487500Y-102024056D01*
X159487501Y-103606285D01*
X159350001Y-103592743D01*
X158524999Y-103592743D01*
X158182175Y-103626508D01*
X157852526Y-103726506D01*
X157808572Y-103750000D01*
X156637899Y-103750000D01*
X156386530Y-103700000D01*
X155933470Y-103700000D01*
X155489115Y-103788387D01*
X155070541Y-103961766D01*
X154693835Y-104213473D01*
X154373473Y-104533835D01*
X154121766Y-104910541D01*
X153948387Y-105329115D01*
X153860000Y-105773470D01*
X153860000Y-106226530D01*
X153948387Y-106670885D01*
X154040672Y-106893682D01*
X153992069Y-106878938D01*
X153600000Y-106840323D01*
X153207932Y-106878938D01*
X152830931Y-106993301D01*
X152483484Y-107179015D01*
X152178945Y-107428944D01*
X151929016Y-107733483D01*
X151743302Y-108080930D01*
X151628939Y-108457931D01*
X151600001Y-108751747D01*
X151600000Y-113562672D01*
X151571705Y-113655949D01*
X151542743Y-113950000D01*
X151542743Y-115050000D01*
X151571705Y-115344051D01*
X151600000Y-115437328D01*
X151600000Y-115951757D01*
X151590324Y-116050000D01*
X151600000Y-116148243D01*
X151600000Y-116148252D01*
X151628938Y-116442068D01*
X151743301Y-116819069D01*
X151929015Y-117166517D01*
X152178944Y-117471056D01*
X152255265Y-117533691D01*
X152803812Y-118082239D01*
X152866444Y-118158556D01*
X152942760Y-118221187D01*
X152942762Y-118221189D01*
X153170984Y-118408486D01*
X153332717Y-118494933D01*
X153518430Y-118594199D01*
X153801915Y-118680194D01*
X153828938Y-118954569D01*
X153833081Y-118968225D01*
X153851268Y-119152885D01*
X153950555Y-119480190D01*
X154111788Y-119781835D01*
X154328770Y-120046230D01*
X154593165Y-120263212D01*
X154894810Y-120424445D01*
X155222115Y-120523732D01*
X155562500Y-120557257D01*
X155648513Y-120557257D01*
X155701747Y-120562500D01*
X157476758Y-120562500D01*
X157575001Y-120572176D01*
X157673244Y-120562500D01*
X157673254Y-120562500D01*
X157967070Y-120533562D01*
X158000001Y-120523573D01*
X158000001Y-120539180D01*
X157884208Y-120634208D01*
X157696762Y-120862613D01*
X157557476Y-121123198D01*
X157471705Y-121405949D01*
X157442743Y-121700000D01*
X157442743Y-123300000D01*
X157471705Y-123594051D01*
X157557476Y-123876802D01*
X157696762Y-124137387D01*
X157884208Y-124365792D01*
X158112613Y-124553238D01*
X158373198Y-124692524D01*
X158655949Y-124778295D01*
X158950000Y-124807257D01*
X160127872Y-124807257D01*
X159685129Y-125250000D01*
X154000000Y-125250000D01*
X154000000Y-124276747D01*
X153982257Y-124096597D01*
X153982257Y-124062500D01*
X153948732Y-123722115D01*
X153849445Y-123394810D01*
X153688212Y-123093165D01*
X153471230Y-122828770D01*
X153206835Y-122611788D01*
X152905190Y-122450555D01*
X152577885Y-122351268D01*
X152237500Y-122317743D01*
X151762500Y-122317743D01*
X151422115Y-122351268D01*
X151094810Y-122450555D01*
X150793165Y-122611788D01*
X150528770Y-122828770D01*
X150311788Y-123093165D01*
X150150555Y-123394810D01*
X150051268Y-123722115D01*
X150017743Y-124062500D01*
X150017743Y-124096598D01*
X150000000Y-124276748D01*
X150000000Y-124762353D01*
X149686530Y-124700000D01*
X149233470Y-124700000D01*
X148789115Y-124788387D01*
X148370541Y-124961766D01*
X148313320Y-125000000D01*
X147146680Y-125000000D01*
X147089459Y-124961766D01*
X146670885Y-124788387D01*
X146226530Y-124700000D01*
X145998276Y-124700000D01*
X146018978Y-124674775D01*
X146297549Y-124153605D01*
X146469092Y-123588103D01*
X146527015Y-123000000D01*
X146469092Y-122411897D01*
X146297549Y-121846395D01*
X146018978Y-121325225D01*
X145644084Y-120868416D01*
X145396777Y-120665456D01*
X145361106Y-120598720D01*
X145142569Y-120332431D01*
X145103052Y-120300000D01*
X145142569Y-120267569D01*
X145361106Y-120001280D01*
X145396777Y-119934544D01*
X145644084Y-119731584D01*
X146018978Y-119274775D01*
X146297549Y-118753605D01*
X146469092Y-118188103D01*
X146527015Y-117600000D01*
X146469092Y-117011897D01*
X146297549Y-116446395D01*
X146018978Y-115925225D01*
X145644084Y-115468416D01*
X145396777Y-115265456D01*
X145361106Y-115198720D01*
X145142569Y-114932431D01*
X144981201Y-114800000D01*
X145142569Y-114667569D01*
X145361106Y-114401280D01*
X145396777Y-114334544D01*
X145644084Y-114131584D01*
X146018978Y-113674775D01*
X146297549Y-113153605D01*
X146469092Y-112588103D01*
X146527015Y-112000000D01*
X146469092Y-111411897D01*
X146297549Y-110846395D01*
X146018978Y-110325225D01*
X145644084Y-109868416D01*
X145396777Y-109665456D01*
X145361106Y-109598720D01*
X145142569Y-109332431D01*
X144876280Y-109113894D01*
X144572474Y-108951506D01*
X144242825Y-108851508D01*
X143900001Y-108817743D01*
X142999999Y-108817743D01*
X142657175Y-108851508D01*
X142327526Y-108951506D01*
X142236800Y-109000000D01*
X135647365Y-109000000D01*
X135499999Y-108985486D01*
X135352633Y-109000000D01*
X135352627Y-109000000D01*
X134975598Y-109037134D01*
X134911896Y-109043408D01*
X134800948Y-109077064D01*
X134346395Y-109214951D01*
X134093022Y-109350381D01*
X127574810Y-102832171D01*
X129149724Y-101257257D01*
X129450001Y-101257257D01*
X129792825Y-101223492D01*
X130122474Y-101123494D01*
X130426280Y-100961106D01*
X130692569Y-100742569D01*
X130911106Y-100476280D01*
X131073494Y-100172474D01*
X131173492Y-99842825D01*
X131207257Y-99500001D01*
X131207257Y-98599999D01*
X131173492Y-98257175D01*
X131073494Y-97927526D01*
X130911106Y-97623720D01*
X130692569Y-97357431D01*
X130639651Y-97314002D01*
X130705410Y-97278853D01*
X131047833Y-96997833D01*
X131328853Y-96655410D01*
X131537669Y-96264742D01*
X131666258Y-95840842D01*
X131709677Y-95400001D01*
X131709677Y-94499999D01*
X131666258Y-94059158D01*
X131537669Y-93635258D01*
X131328853Y-93244590D01*
X131201984Y-93090000D01*
X136768056Y-93090000D01*
X136940000Y-93106935D01*
X137496096Y-93052164D01*
X137368918Y-93120142D01*
%TA.AperFunction,Conductor*%
D39*
G36*
X137368918Y-93120142D02*
G01*
X137122474Y-93322394D01*
X137026312Y-93401312D01*
X136955855Y-93487164D01*
X135330855Y-95112165D01*
X135120142Y-95368919D01*
X134911214Y-95759797D01*
X134782557Y-96183924D01*
X134739114Y-96625000D01*
X134782557Y-97066076D01*
X134911214Y-97490203D01*
X135120142Y-97881081D01*
X135401313Y-98223687D01*
X135743919Y-98504858D01*
X136134797Y-98713786D01*
X136558924Y-98842443D01*
X137000000Y-98885886D01*
X137441076Y-98842443D01*
X137865203Y-98713786D01*
X138256081Y-98504858D01*
X138512835Y-98294145D01*
X139239409Y-97567571D01*
X139289790Y-98079094D01*
X139447038Y-98597471D01*
X139702395Y-99075211D01*
X140046048Y-99493952D01*
X140464789Y-99837605D01*
X140942529Y-100092962D01*
X141460906Y-100250210D01*
X141864902Y-100290000D01*
X143833803Y-100290000D01*
X144046097Y-100464225D01*
X144654128Y-100789224D01*
X145313881Y-100989358D01*
X146000000Y-101056935D01*
X146686120Y-100989358D01*
X147345873Y-100789224D01*
X147953904Y-100464225D01*
X148486849Y-100026849D01*
X148924225Y-99493904D01*
X149249224Y-98885873D01*
X149449358Y-98226120D01*
X149500000Y-97711944D01*
X149500000Y-95400001D01*
X156203805Y-95400001D01*
X156135560Y-95468246D01*
X155779888Y-96000548D01*
X155534896Y-96592010D01*
X155410000Y-97219903D01*
X155410000Y-97860097D01*
X155534896Y-98487990D01*
X155779888Y-99079452D01*
X156135560Y-99611754D01*
X156588246Y-100064440D01*
X157120548Y-100420112D01*
X157712010Y-100665104D01*
X158339903Y-100790000D01*
X158980097Y-100790000D01*
X159237500Y-100738799D01*
X159237500Y-101002597D01*
X159277290Y-101406593D01*
X159434538Y-101924970D01*
X159487500Y-102024056D01*
X159487501Y-103606285D01*
X159350001Y-103592743D01*
X158524999Y-103592743D01*
X158182175Y-103626508D01*
X157852526Y-103726506D01*
X157808572Y-103750000D01*
X156637899Y-103750000D01*
X156386530Y-103700000D01*
X155933470Y-103700000D01*
X155489115Y-103788387D01*
X155070541Y-103961766D01*
X154693835Y-104213473D01*
X154373473Y-104533835D01*
X154121766Y-104910541D01*
X153948387Y-105329115D01*
X153860000Y-105773470D01*
X153860000Y-106226530D01*
X153948387Y-106670885D01*
X154040672Y-106893682D01*
X153992069Y-106878938D01*
X153600000Y-106840323D01*
X153207932Y-106878938D01*
X152830931Y-106993301D01*
X152483484Y-107179015D01*
X152178945Y-107428944D01*
X151929016Y-107733483D01*
X151743302Y-108080930D01*
X151628939Y-108457931D01*
X151600001Y-108751747D01*
X151600000Y-113562672D01*
X151571705Y-113655949D01*
X151542743Y-113950000D01*
X151542743Y-115050000D01*
X151571705Y-115344051D01*
X151600000Y-115437328D01*
X151600000Y-115951757D01*
X151590324Y-116050000D01*
X151600000Y-116148243D01*
X151600000Y-116148252D01*
X151628938Y-116442068D01*
X151743301Y-116819069D01*
X151929015Y-117166517D01*
X152178944Y-117471056D01*
X152255265Y-117533691D01*
X152803812Y-118082239D01*
X152866444Y-118158556D01*
X152942760Y-118221187D01*
X152942762Y-118221189D01*
X153170984Y-118408486D01*
X153332717Y-118494933D01*
X153518430Y-118594199D01*
X153801915Y-118680194D01*
X153828938Y-118954569D01*
X153833081Y-118968225D01*
X153851268Y-119152885D01*
X153950555Y-119480190D01*
X154111788Y-119781835D01*
X154328770Y-120046230D01*
X154593165Y-120263212D01*
X154894810Y-120424445D01*
X155222115Y-120523732D01*
X155562500Y-120557257D01*
X155648513Y-120557257D01*
X155701747Y-120562500D01*
X157476758Y-120562500D01*
X157575001Y-120572176D01*
X157673244Y-120562500D01*
X157673254Y-120562500D01*
X157967070Y-120533562D01*
X158000001Y-120523573D01*
X158000001Y-120539180D01*
X157884208Y-120634208D01*
X157696762Y-120862613D01*
X157557476Y-121123198D01*
X157471705Y-121405949D01*
X157442743Y-121700000D01*
X157442743Y-123300000D01*
X157471705Y-123594051D01*
X157557476Y-123876802D01*
X157696762Y-124137387D01*
X157884208Y-124365792D01*
X158112613Y-124553238D01*
X158373198Y-124692524D01*
X158655949Y-124778295D01*
X158950000Y-124807257D01*
X160127872Y-124807257D01*
X159685129Y-125250000D01*
X154000000Y-125250000D01*
X154000000Y-124276747D01*
X153982257Y-124096597D01*
X153982257Y-124062500D01*
X153948732Y-123722115D01*
X153849445Y-123394810D01*
X153688212Y-123093165D01*
X153471230Y-122828770D01*
X153206835Y-122611788D01*
X152905190Y-122450555D01*
X152577885Y-122351268D01*
X152237500Y-122317743D01*
X151762500Y-122317743D01*
X151422115Y-122351268D01*
X151094810Y-122450555D01*
X150793165Y-122611788D01*
X150528770Y-122828770D01*
X150311788Y-123093165D01*
X150150555Y-123394810D01*
X150051268Y-123722115D01*
X150017743Y-124062500D01*
X150017743Y-124096598D01*
X150000000Y-124276748D01*
X150000000Y-124762353D01*
X149686530Y-124700000D01*
X149233470Y-124700000D01*
X148789115Y-124788387D01*
X148370541Y-124961766D01*
X148313320Y-125000000D01*
X147146680Y-125000000D01*
X147089459Y-124961766D01*
X146670885Y-124788387D01*
X146226530Y-124700000D01*
X145998276Y-124700000D01*
X146018978Y-124674775D01*
X146297549Y-124153605D01*
X146469092Y-123588103D01*
X146527015Y-123000000D01*
X146469092Y-122411897D01*
X146297549Y-121846395D01*
X146018978Y-121325225D01*
X145644084Y-120868416D01*
X145396777Y-120665456D01*
X145361106Y-120598720D01*
X145142569Y-120332431D01*
X145103052Y-120300000D01*
X145142569Y-120267569D01*
X145361106Y-120001280D01*
X145396777Y-119934544D01*
X145644084Y-119731584D01*
X146018978Y-119274775D01*
X146297549Y-118753605D01*
X146469092Y-118188103D01*
X146527015Y-117600000D01*
X146469092Y-117011897D01*
X146297549Y-116446395D01*
X146018978Y-115925225D01*
X145644084Y-115468416D01*
X145396777Y-115265456D01*
X145361106Y-115198720D01*
X145142569Y-114932431D01*
X144981201Y-114800000D01*
X145142569Y-114667569D01*
X145361106Y-114401280D01*
X145396777Y-114334544D01*
X145644084Y-114131584D01*
X146018978Y-113674775D01*
X146297549Y-113153605D01*
X146469092Y-112588103D01*
X146527015Y-112000000D01*
X146469092Y-111411897D01*
X146297549Y-110846395D01*
X146018978Y-110325225D01*
X145644084Y-109868416D01*
X145396777Y-109665456D01*
X145361106Y-109598720D01*
X145142569Y-109332431D01*
X144876280Y-109113894D01*
X144572474Y-108951506D01*
X144242825Y-108851508D01*
X143900001Y-108817743D01*
X142999999Y-108817743D01*
X142657175Y-108851508D01*
X142327526Y-108951506D01*
X142236800Y-109000000D01*
X135647365Y-109000000D01*
X135499999Y-108985486D01*
X135352633Y-109000000D01*
X135352627Y-109000000D01*
X134975598Y-109037134D01*
X134911896Y-109043408D01*
X134800948Y-109077064D01*
X134346395Y-109214951D01*
X134093022Y-109350381D01*
X127574810Y-102832171D01*
X129149724Y-101257257D01*
X129450001Y-101257257D01*
X129792825Y-101223492D01*
X130122474Y-101123494D01*
X130426280Y-100961106D01*
X130692569Y-100742569D01*
X130911106Y-100476280D01*
X131073494Y-100172474D01*
X131173492Y-99842825D01*
X131207257Y-99500001D01*
X131207257Y-98599999D01*
X131173492Y-98257175D01*
X131073494Y-97927526D01*
X130911106Y-97623720D01*
X130692569Y-97357431D01*
X130639651Y-97314002D01*
X130705410Y-97278853D01*
X131047833Y-96997833D01*
X131328853Y-96655410D01*
X131537669Y-96264742D01*
X131666258Y-95840842D01*
X131709677Y-95400001D01*
X131709677Y-94499999D01*
X131666258Y-94059158D01*
X131537669Y-93635258D01*
X131328853Y-93244590D01*
X131201984Y-93090000D01*
X136768056Y-93090000D01*
X136940000Y-93106935D01*
X137496096Y-93052164D01*
X137368918Y-93120142D01*
G37*
%TD.AperFunction*%
D35*
X102131583Y-84545176D02*
X102868574Y-85037618D01*
X103687474Y-85376817D01*
X104556814Y-85549740D01*
X105443186Y-85549740D01*
X106312526Y-85376817D01*
X107131426Y-85037618D01*
X107868417Y-84545176D01*
X108000000Y-84413593D01*
X108000001Y-91397373D01*
X108043409Y-91838103D01*
X108214952Y-92403605D01*
X108493523Y-92924775D01*
X108868417Y-93381584D01*
X109325226Y-93756478D01*
X109846396Y-94035049D01*
X110411898Y-94206592D01*
X111000000Y-94264515D01*
X111588103Y-94206592D01*
X112153605Y-94035049D01*
X112455201Y-93873843D01*
X111146715Y-95182328D01*
X111013152Y-95291941D01*
X110648446Y-95736337D01*
X110575776Y-95824886D01*
X110250776Y-96432918D01*
X110050642Y-97092670D01*
X109983065Y-97778790D01*
X110000001Y-97950743D01*
X110000000Y-104671943D01*
X110050642Y-105186119D01*
X110250776Y-105845872D01*
X110575775Y-106453903D01*
X111013151Y-106986849D01*
X111546096Y-107424225D01*
X112154127Y-107749224D01*
X112813880Y-107949358D01*
X113500000Y-108016935D01*
X114186119Y-107949358D01*
X114845872Y-107749224D01*
X115453903Y-107424225D01*
X115986849Y-106986849D01*
X116424225Y-106453904D01*
X116749224Y-105845873D01*
X116949358Y-105186120D01*
X117000000Y-104671944D01*
X117000000Y-99228536D01*
X118703537Y-97525000D01*
X119669911Y-97525000D01*
X119588894Y-97623720D01*
X119426506Y-97927526D01*
X119326508Y-98257175D01*
X119292743Y-98599999D01*
X119292743Y-99500001D01*
X119326508Y-99842825D01*
X119426506Y-100172474D01*
X119588894Y-100476280D01*
X119807431Y-100742569D01*
X120073720Y-100961106D01*
X120250000Y-101055330D01*
X120250000Y-101889475D01*
X120239114Y-102000000D01*
X120250000Y-102110525D01*
X120250000Y-102110528D01*
X120282556Y-102441077D01*
X120366400Y-102717469D01*
X120411214Y-102865203D01*
X120620142Y-103256081D01*
X120820321Y-103499999D01*
X120901313Y-103598688D01*
X120987164Y-103669144D01*
X121003781Y-103685761D01*
X121043408Y-104088102D01*
X121214952Y-104653605D01*
X121493523Y-105174774D01*
X121774472Y-105517111D01*
X130053857Y-113796498D01*
X129820097Y-113750000D01*
X129179903Y-113750000D01*
X128552010Y-113874896D01*
X127960548Y-114119888D01*
X127428246Y-114475560D01*
X126975560Y-114928246D01*
X126619888Y-115460548D01*
X126374896Y-116052010D01*
X126250000Y-116679903D01*
X126250000Y-117320097D01*
X126374896Y-117947990D01*
X126619888Y-118539452D01*
X126975560Y-119071754D01*
X127428246Y-119524440D01*
X127960548Y-119880112D01*
X128552010Y-120125104D01*
X129179903Y-120250000D01*
X129820097Y-120250000D01*
X130447990Y-120125104D01*
X131000001Y-119896453D01*
X131000000Y-122852626D01*
X130985485Y-123000000D01*
X131043408Y-123588103D01*
X131203547Y-124116012D01*
X128006612Y-120919077D01*
X127928321Y-120823679D01*
X127547647Y-120511268D01*
X127113339Y-120279125D01*
X126642087Y-120136172D01*
X126274814Y-120099999D01*
X126274804Y-120099999D01*
X126152001Y-120087904D01*
X126029198Y-120099999D01*
X122635533Y-120099999D01*
X117014903Y-114479370D01*
X116949358Y-113813880D01*
X116749224Y-113154127D01*
X116424225Y-112546096D01*
X115986849Y-112013151D01*
X115453904Y-111575775D01*
X114845873Y-111250776D01*
X114186120Y-111050642D01*
X113671944Y-111000000D01*
X110499747Y-111000000D01*
X109999740Y-110499993D01*
X109999740Y-109957569D01*
X109807603Y-108991630D01*
X109430712Y-108081735D01*
X108883552Y-107262851D01*
X108187149Y-106566448D01*
X107368265Y-106019288D01*
X106458370Y-105642397D01*
X105492431Y-105450260D01*
X104507569Y-105450260D01*
X103541630Y-105642397D01*
X102631735Y-106019288D01*
X101812851Y-106566448D01*
X101525000Y-106854299D01*
X101525000Y-83938593D01*
X102131583Y-84545176D01*
%TA.AperFunction,Conductor*%
D39*
G36*
X102131583Y-84545176D02*
G01*
X102868574Y-85037618D01*
X103687474Y-85376817D01*
X104556814Y-85549740D01*
X105443186Y-85549740D01*
X106312526Y-85376817D01*
X107131426Y-85037618D01*
X107868417Y-84545176D01*
X108000000Y-84413593D01*
X108000001Y-91397373D01*
X108043409Y-91838103D01*
X108214952Y-92403605D01*
X108493523Y-92924775D01*
X108868417Y-93381584D01*
X109325226Y-93756478D01*
X109846396Y-94035049D01*
X110411898Y-94206592D01*
X111000000Y-94264515D01*
X111588103Y-94206592D01*
X112153605Y-94035049D01*
X112455201Y-93873843D01*
X111146715Y-95182328D01*
X111013152Y-95291941D01*
X110648446Y-95736337D01*
X110575776Y-95824886D01*
X110250776Y-96432918D01*
X110050642Y-97092670D01*
X109983065Y-97778790D01*
X110000001Y-97950743D01*
X110000000Y-104671943D01*
X110050642Y-105186119D01*
X110250776Y-105845872D01*
X110575775Y-106453903D01*
X111013151Y-106986849D01*
X111546096Y-107424225D01*
X112154127Y-107749224D01*
X112813880Y-107949358D01*
X113500000Y-108016935D01*
X114186119Y-107949358D01*
X114845872Y-107749224D01*
X115453903Y-107424225D01*
X115986849Y-106986849D01*
X116424225Y-106453904D01*
X116749224Y-105845873D01*
X116949358Y-105186120D01*
X117000000Y-104671944D01*
X117000000Y-99228536D01*
X118703537Y-97525000D01*
X119669911Y-97525000D01*
X119588894Y-97623720D01*
X119426506Y-97927526D01*
X119326508Y-98257175D01*
X119292743Y-98599999D01*
X119292743Y-99500001D01*
X119326508Y-99842825D01*
X119426506Y-100172474D01*
X119588894Y-100476280D01*
X119807431Y-100742569D01*
X120073720Y-100961106D01*
X120250000Y-101055330D01*
X120250000Y-101889475D01*
X120239114Y-102000000D01*
X120250000Y-102110525D01*
X120250000Y-102110528D01*
X120282556Y-102441077D01*
X120366400Y-102717469D01*
X120411214Y-102865203D01*
X120620142Y-103256081D01*
X120820321Y-103499999D01*
X120901313Y-103598688D01*
X120987164Y-103669144D01*
X121003781Y-103685761D01*
X121043408Y-104088102D01*
X121214952Y-104653605D01*
X121493523Y-105174774D01*
X121774472Y-105517111D01*
X130053857Y-113796498D01*
X129820097Y-113750000D01*
X129179903Y-113750000D01*
X128552010Y-113874896D01*
X127960548Y-114119888D01*
X127428246Y-114475560D01*
X126975560Y-114928246D01*
X126619888Y-115460548D01*
X126374896Y-116052010D01*
X126250000Y-116679903D01*
X126250000Y-117320097D01*
X126374896Y-117947990D01*
X126619888Y-118539452D01*
X126975560Y-119071754D01*
X127428246Y-119524440D01*
X127960548Y-119880112D01*
X128552010Y-120125104D01*
X129179903Y-120250000D01*
X129820097Y-120250000D01*
X130447990Y-120125104D01*
X131000001Y-119896453D01*
X131000000Y-122852626D01*
X130985485Y-123000000D01*
X131043408Y-123588103D01*
X131203547Y-124116012D01*
X128006612Y-120919077D01*
X127928321Y-120823679D01*
X127547647Y-120511268D01*
X127113339Y-120279125D01*
X126642087Y-120136172D01*
X126274814Y-120099999D01*
X126274804Y-120099999D01*
X126152001Y-120087904D01*
X126029198Y-120099999D01*
X122635533Y-120099999D01*
X117014903Y-114479370D01*
X116949358Y-113813880D01*
X116749224Y-113154127D01*
X116424225Y-112546096D01*
X115986849Y-112013151D01*
X115453904Y-111575775D01*
X114845873Y-111250776D01*
X114186120Y-111050642D01*
X113671944Y-111000000D01*
X110499747Y-111000000D01*
X109999740Y-110499993D01*
X109999740Y-109957569D01*
X109807603Y-108991630D01*
X109430712Y-108081735D01*
X108883552Y-107262851D01*
X108187149Y-106566448D01*
X107368265Y-106019288D01*
X106458370Y-105642397D01*
X105492431Y-105450260D01*
X104507569Y-105450260D01*
X103541630Y-105642397D01*
X102631735Y-106019288D01*
X101812851Y-106566448D01*
X101525000Y-106854299D01*
X101525000Y-83938593D01*
X102131583Y-84545176D01*
G37*
%TD.AperFunction*%
D35*
X155933470Y-108300000D02*
X156386530Y-108300000D01*
X156637899Y-108250000D01*
X157808572Y-108250000D01*
X157852526Y-108273494D01*
X158182175Y-108373492D01*
X158524999Y-108407257D01*
X159350001Y-108407257D01*
X159692825Y-108373492D01*
X160022474Y-108273494D01*
X160059391Y-108253761D01*
X160394590Y-108528853D01*
X160785258Y-108737669D01*
X161209158Y-108866258D01*
X161649999Y-108909677D01*
X162475001Y-108909677D01*
X162915842Y-108866258D01*
X163339742Y-108737669D01*
X163730410Y-108528853D01*
X164036201Y-108277896D01*
X164036200Y-110147143D01*
X162906800Y-110147143D01*
X162583485Y-110178987D01*
X162272595Y-110273294D01*
X161986077Y-110426441D01*
X161734942Y-110632542D01*
X161528841Y-110883677D01*
X161375694Y-111170195D01*
X161281387Y-111481085D01*
X161249543Y-111804400D01*
X161249543Y-112104400D01*
X161281387Y-112427715D01*
X161303781Y-112501540D01*
X161302885Y-112501268D01*
X160962500Y-112467743D01*
X160462500Y-112467743D01*
X160122115Y-112501268D01*
X159800000Y-112598981D01*
X159477885Y-112501268D01*
X159293225Y-112483081D01*
X159279569Y-112478938D01*
X158985753Y-112450000D01*
X158948243Y-112450000D01*
X158850000Y-112440324D01*
X158751757Y-112450000D01*
X158751747Y-112450000D01*
X158457931Y-112478938D01*
X158426246Y-112488550D01*
X158297115Y-112501268D01*
X157969810Y-112600555D01*
X157788347Y-112697549D01*
X157787387Y-112696762D01*
X157526802Y-112557476D01*
X157244051Y-112471705D01*
X156950000Y-112442743D01*
X155850000Y-112442743D01*
X155600000Y-112467366D01*
X155600000Y-108751747D01*
X155571062Y-108457931D01*
X155496806Y-108213143D01*
X155933470Y-108300000D01*
%TA.AperFunction,Conductor*%
D39*
G36*
X155933470Y-108300000D02*
G01*
X156386530Y-108300000D01*
X156637899Y-108250000D01*
X157808572Y-108250000D01*
X157852526Y-108273494D01*
X158182175Y-108373492D01*
X158524999Y-108407257D01*
X159350001Y-108407257D01*
X159692825Y-108373492D01*
X160022474Y-108273494D01*
X160059391Y-108253761D01*
X160394590Y-108528853D01*
X160785258Y-108737669D01*
X161209158Y-108866258D01*
X161649999Y-108909677D01*
X162475001Y-108909677D01*
X162915842Y-108866258D01*
X163339742Y-108737669D01*
X163730410Y-108528853D01*
X164036201Y-108277896D01*
X164036200Y-110147143D01*
X162906800Y-110147143D01*
X162583485Y-110178987D01*
X162272595Y-110273294D01*
X161986077Y-110426441D01*
X161734942Y-110632542D01*
X161528841Y-110883677D01*
X161375694Y-111170195D01*
X161281387Y-111481085D01*
X161249543Y-111804400D01*
X161249543Y-112104400D01*
X161281387Y-112427715D01*
X161303781Y-112501540D01*
X161302885Y-112501268D01*
X160962500Y-112467743D01*
X160462500Y-112467743D01*
X160122115Y-112501268D01*
X159800000Y-112598981D01*
X159477885Y-112501268D01*
X159293225Y-112483081D01*
X159279569Y-112478938D01*
X158985753Y-112450000D01*
X158948243Y-112450000D01*
X158850000Y-112440324D01*
X158751757Y-112450000D01*
X158751747Y-112450000D01*
X158457931Y-112478938D01*
X158426246Y-112488550D01*
X158297115Y-112501268D01*
X157969810Y-112600555D01*
X157788347Y-112697549D01*
X157787387Y-112696762D01*
X157526802Y-112557476D01*
X157244051Y-112471705D01*
X156950000Y-112442743D01*
X155850000Y-112442743D01*
X155600000Y-112467366D01*
X155600000Y-108751747D01*
X155571062Y-108457931D01*
X155496806Y-108213143D01*
X155933470Y-108300000D01*
G37*
%TD.AperFunction*%
D35*
X169094810Y-108699445D02*
X169422115Y-108798732D01*
X169466229Y-108803077D01*
X169607931Y-108846062D01*
X170000000Y-108884677D01*
X170392068Y-108846062D01*
X170533769Y-108803077D01*
X170577885Y-108798732D01*
X170905190Y-108699445D01*
X171044466Y-108625000D01*
X171955534Y-108625000D01*
X172094810Y-108699445D01*
X172422115Y-108798732D01*
X172750000Y-108831026D01*
X172750000Y-108940000D01*
X170032166Y-108940000D01*
X169946200Y-108931533D01*
X169860234Y-108940000D01*
X169860232Y-108940000D01*
X169603140Y-108965321D01*
X169366405Y-109037134D01*
X169273263Y-109065388D01*
X168975253Y-109224678D01*
X168969248Y-109227888D01*
X168702776Y-109446576D01*
X168647975Y-109513351D01*
X168014184Y-110147143D01*
X167927016Y-110147143D01*
X167536200Y-109756327D01*
X167536200Y-108932257D01*
X167737500Y-108932257D01*
X168077885Y-108898732D01*
X168405190Y-108799445D01*
X168706835Y-108638212D01*
X168722934Y-108625000D01*
X168955534Y-108625000D01*
X169094810Y-108699445D01*
%TA.AperFunction,Conductor*%
D39*
G36*
X169094810Y-108699445D02*
G01*
X169422115Y-108798732D01*
X169466229Y-108803077D01*
X169607931Y-108846062D01*
X170000000Y-108884677D01*
X170392068Y-108846062D01*
X170533769Y-108803077D01*
X170577885Y-108798732D01*
X170905190Y-108699445D01*
X171044466Y-108625000D01*
X171955534Y-108625000D01*
X172094810Y-108699445D01*
X172422115Y-108798732D01*
X172750000Y-108831026D01*
X172750000Y-108940000D01*
X170032166Y-108940000D01*
X169946200Y-108931533D01*
X169860234Y-108940000D01*
X169860232Y-108940000D01*
X169603140Y-108965321D01*
X169366405Y-109037134D01*
X169273263Y-109065388D01*
X168975253Y-109224678D01*
X168969248Y-109227888D01*
X168702776Y-109446576D01*
X168647975Y-109513351D01*
X168014184Y-110147143D01*
X167927016Y-110147143D01*
X167536200Y-109756327D01*
X167536200Y-108932257D01*
X167737500Y-108932257D01*
X168077885Y-108898732D01*
X168405190Y-108799445D01*
X168706835Y-108638212D01*
X168722934Y-108625000D01*
X168955534Y-108625000D01*
X169094810Y-108699445D01*
G37*
%TD.AperFunction*%
D35*
X167771239Y-98440609D02*
X167751506Y-98477527D01*
X167651508Y-98807176D01*
X167617743Y-99150000D01*
X167617743Y-99950000D01*
X167651508Y-100292824D01*
X167751506Y-100622473D01*
X167819671Y-100750000D01*
X167751506Y-100877527D01*
X167651508Y-101207176D01*
X167617743Y-101550000D01*
X167617743Y-102350000D01*
X167651508Y-102692824D01*
X167751506Y-103022473D01*
X167913894Y-103326280D01*
X168056463Y-103500000D01*
X167913894Y-103673720D01*
X167751506Y-103977527D01*
X167651508Y-104307176D01*
X167617743Y-104650000D01*
X167617743Y-104842743D01*
X167262500Y-104842743D01*
X166922115Y-104876268D01*
X166594810Y-104975555D01*
X166302199Y-105131959D01*
X166245941Y-105137500D01*
X166245932Y-105137500D01*
X165988840Y-105162821D01*
X165658964Y-105262888D01*
X165354948Y-105425388D01*
X165088476Y-105644076D01*
X165033671Y-105710856D01*
X164734677Y-106009850D01*
X164734677Y-105349999D01*
X164691258Y-104909158D01*
X164562669Y-104485258D01*
X164487500Y-104344626D01*
X164487500Y-102024056D01*
X164540462Y-101924971D01*
X164697710Y-101406594D01*
X164708309Y-101298979D01*
X164957606Y-100995212D01*
X165212963Y-100517472D01*
X165294954Y-100247185D01*
X165816730Y-100143398D01*
X166326297Y-99932328D01*
X166784896Y-99625902D01*
X167174902Y-99235896D01*
X167481328Y-98777297D01*
X167671254Y-98318777D01*
X167771239Y-98440609D01*
%TA.AperFunction,Conductor*%
D39*
G36*
X167771239Y-98440609D02*
G01*
X167751506Y-98477527D01*
X167651508Y-98807176D01*
X167617743Y-99150000D01*
X167617743Y-99950000D01*
X167651508Y-100292824D01*
X167751506Y-100622473D01*
X167819671Y-100750000D01*
X167751506Y-100877527D01*
X167651508Y-101207176D01*
X167617743Y-101550000D01*
X167617743Y-102350000D01*
X167651508Y-102692824D01*
X167751506Y-103022473D01*
X167913894Y-103326280D01*
X168056463Y-103500000D01*
X167913894Y-103673720D01*
X167751506Y-103977527D01*
X167651508Y-104307176D01*
X167617743Y-104650000D01*
X167617743Y-104842743D01*
X167262500Y-104842743D01*
X166922115Y-104876268D01*
X166594810Y-104975555D01*
X166302199Y-105131959D01*
X166245941Y-105137500D01*
X166245932Y-105137500D01*
X165988840Y-105162821D01*
X165658964Y-105262888D01*
X165354948Y-105425388D01*
X165088476Y-105644076D01*
X165033671Y-105710856D01*
X164734677Y-106009850D01*
X164734677Y-105349999D01*
X164691258Y-104909158D01*
X164562669Y-104485258D01*
X164487500Y-104344626D01*
X164487500Y-102024056D01*
X164540462Y-101924971D01*
X164697710Y-101406594D01*
X164708309Y-101298979D01*
X164957606Y-100995212D01*
X165212963Y-100517472D01*
X165294954Y-100247185D01*
X165816730Y-100143398D01*
X166326297Y-99932328D01*
X166784896Y-99625902D01*
X167174902Y-99235896D01*
X167481328Y-98777297D01*
X167671254Y-98318777D01*
X167771239Y-98440609D01*
G37*
%TD.AperFunction*%
D35*
X178000001Y-73149282D02*
X177734590Y-73291147D01*
X177392167Y-73572167D01*
X177111147Y-73914590D01*
X176902331Y-74305258D01*
X176773742Y-74729158D01*
X176730323Y-75169999D01*
X176730323Y-76070001D01*
X176773742Y-76510842D01*
X176902331Y-76934742D01*
X177111147Y-77325410D01*
X177392167Y-77667833D01*
X177734590Y-77948853D01*
X178125258Y-78157669D01*
X178549158Y-78286258D01*
X178989999Y-78329677D01*
X181890001Y-78329677D01*
X182330842Y-78286258D01*
X182754742Y-78157669D01*
X183145410Y-77948853D01*
X183487833Y-77667833D01*
X183500000Y-77653007D01*
X183500001Y-96214468D01*
X182117112Y-94831579D01*
X182038820Y-94736180D01*
X181658146Y-94423769D01*
X181223838Y-94191626D01*
X180752586Y-94048673D01*
X180385313Y-94012500D01*
X180385303Y-94012500D01*
X180262500Y-94000405D01*
X180139697Y-94012500D01*
X177583601Y-94012500D01*
X177489741Y-93962331D01*
X177065841Y-93833742D01*
X176625000Y-93790323D01*
X175375000Y-93790323D01*
X174934159Y-93833742D01*
X174510259Y-93962331D01*
X174416399Y-94012500D01*
X171583601Y-94012500D01*
X171489741Y-93962331D01*
X171065841Y-93833742D01*
X170625000Y-93790323D01*
X169375000Y-93790323D01*
X168934159Y-93833742D01*
X168510259Y-93962331D01*
X168119591Y-94171147D01*
X167777167Y-94452167D01*
X167496147Y-94794591D01*
X167287331Y-95185259D01*
X167158742Y-95609159D01*
X167155085Y-95646287D01*
X166784896Y-95276098D01*
X166326297Y-94969672D01*
X165816730Y-94758602D01*
X165275776Y-94651000D01*
X165239801Y-94651000D01*
X165212963Y-94562528D01*
X165195345Y-94529566D01*
X165038380Y-94235906D01*
X164957606Y-94084788D01*
X164898281Y-94012500D01*
X164700073Y-93770983D01*
X164700068Y-93770978D01*
X164613953Y-93666047D01*
X164509022Y-93579932D01*
X161730078Y-90800990D01*
X161643955Y-90696049D01*
X161225214Y-90352396D01*
X160747474Y-90097039D01*
X160229097Y-89939791D01*
X159825101Y-89900001D01*
X159825094Y-89900001D01*
X159690003Y-89886696D01*
X159554912Y-89900001D01*
X149034552Y-89900001D01*
X148950000Y-89741816D01*
X148950000Y-84501944D01*
X148966935Y-84330000D01*
X148899358Y-83643880D01*
X148699224Y-82984127D01*
X148574081Y-82750000D01*
X153998054Y-82750000D01*
X154169998Y-82766935D01*
X154856118Y-82699358D01*
X155262458Y-82576096D01*
X155489022Y-82507368D01*
X155534896Y-82737990D01*
X155779888Y-83329452D01*
X156135560Y-83861754D01*
X156588246Y-84314440D01*
X157120548Y-84670112D01*
X157712010Y-84915104D01*
X158339903Y-85040000D01*
X158980097Y-85040000D01*
X159607990Y-84915104D01*
X160199452Y-84670112D01*
X160731754Y-84314440D01*
X161184440Y-83861754D01*
X161540112Y-83329452D01*
X161785104Y-82737990D01*
X161810621Y-82609708D01*
X162487429Y-83286516D01*
X162573548Y-83391452D01*
X162716923Y-83509117D01*
X162626508Y-83807175D01*
X162592743Y-84149999D01*
X162592743Y-84975001D01*
X162626508Y-85317825D01*
X162726506Y-85647474D01*
X162888894Y-85951280D01*
X163000000Y-86086664D01*
X163000000Y-86144319D01*
X162961766Y-86201541D01*
X162788387Y-86620115D01*
X162700000Y-87064470D01*
X162700000Y-87517530D01*
X162788387Y-87961885D01*
X162961766Y-88380459D01*
X163213473Y-88757165D01*
X163533835Y-89077527D01*
X163910541Y-89329234D01*
X164329115Y-89502613D01*
X164773470Y-89591000D01*
X165226530Y-89591000D01*
X165670885Y-89502613D01*
X166089459Y-89329234D01*
X166466165Y-89077527D01*
X166786527Y-88757165D01*
X167038234Y-88380459D01*
X167211613Y-87961885D01*
X167300000Y-87517530D01*
X167300000Y-87064470D01*
X167211613Y-86620115D01*
X167038234Y-86201541D01*
X167000000Y-86144320D01*
X167000000Y-86086664D01*
X167111106Y-85951280D01*
X167273494Y-85647474D01*
X167373492Y-85317825D01*
X167407257Y-84975001D01*
X167407257Y-84149999D01*
X167373492Y-83807175D01*
X167273494Y-83477526D01*
X167253761Y-83440609D01*
X167528853Y-83105410D01*
X167737669Y-82714742D01*
X167866258Y-82290842D01*
X167909677Y-81850001D01*
X167909677Y-81024999D01*
X167866258Y-80584158D01*
X167737669Y-80160258D01*
X167528853Y-79769590D01*
X167247833Y-79427167D01*
X166905410Y-79146147D01*
X166514742Y-78937331D01*
X166090842Y-78808742D01*
X165754724Y-78775637D01*
X162674415Y-75695329D01*
X165619745Y-72750000D01*
X178000001Y-72750000D01*
X178000001Y-73149282D01*
%TA.AperFunction,Conductor*%
D39*
G36*
X178000001Y-73149282D02*
G01*
X177734590Y-73291147D01*
X177392167Y-73572167D01*
X177111147Y-73914590D01*
X176902331Y-74305258D01*
X176773742Y-74729158D01*
X176730323Y-75169999D01*
X176730323Y-76070001D01*
X176773742Y-76510842D01*
X176902331Y-76934742D01*
X177111147Y-77325410D01*
X177392167Y-77667833D01*
X177734590Y-77948853D01*
X178125258Y-78157669D01*
X178549158Y-78286258D01*
X178989999Y-78329677D01*
X181890001Y-78329677D01*
X182330842Y-78286258D01*
X182754742Y-78157669D01*
X183145410Y-77948853D01*
X183487833Y-77667833D01*
X183500000Y-77653007D01*
X183500001Y-96214468D01*
X182117112Y-94831579D01*
X182038820Y-94736180D01*
X181658146Y-94423769D01*
X181223838Y-94191626D01*
X180752586Y-94048673D01*
X180385313Y-94012500D01*
X180385303Y-94012500D01*
X180262500Y-94000405D01*
X180139697Y-94012500D01*
X177583601Y-94012500D01*
X177489741Y-93962331D01*
X177065841Y-93833742D01*
X176625000Y-93790323D01*
X175375000Y-93790323D01*
X174934159Y-93833742D01*
X174510259Y-93962331D01*
X174416399Y-94012500D01*
X171583601Y-94012500D01*
X171489741Y-93962331D01*
X171065841Y-93833742D01*
X170625000Y-93790323D01*
X169375000Y-93790323D01*
X168934159Y-93833742D01*
X168510259Y-93962331D01*
X168119591Y-94171147D01*
X167777167Y-94452167D01*
X167496147Y-94794591D01*
X167287331Y-95185259D01*
X167158742Y-95609159D01*
X167155085Y-95646287D01*
X166784896Y-95276098D01*
X166326297Y-94969672D01*
X165816730Y-94758602D01*
X165275776Y-94651000D01*
X165239801Y-94651000D01*
X165212963Y-94562528D01*
X165195345Y-94529566D01*
X165038380Y-94235906D01*
X164957606Y-94084788D01*
X164898281Y-94012500D01*
X164700073Y-93770983D01*
X164700068Y-93770978D01*
X164613953Y-93666047D01*
X164509022Y-93579932D01*
X161730078Y-90800990D01*
X161643955Y-90696049D01*
X161225214Y-90352396D01*
X160747474Y-90097039D01*
X160229097Y-89939791D01*
X159825101Y-89900001D01*
X159825094Y-89900001D01*
X159690003Y-89886696D01*
X159554912Y-89900001D01*
X149034552Y-89900001D01*
X148950000Y-89741816D01*
X148950000Y-84501944D01*
X148966935Y-84330000D01*
X148899358Y-83643880D01*
X148699224Y-82984127D01*
X148574081Y-82750000D01*
X153998054Y-82750000D01*
X154169998Y-82766935D01*
X154856118Y-82699358D01*
X155262458Y-82576096D01*
X155489022Y-82507368D01*
X155534896Y-82737990D01*
X155779888Y-83329452D01*
X156135560Y-83861754D01*
X156588246Y-84314440D01*
X157120548Y-84670112D01*
X157712010Y-84915104D01*
X158339903Y-85040000D01*
X158980097Y-85040000D01*
X159607990Y-84915104D01*
X160199452Y-84670112D01*
X160731754Y-84314440D01*
X161184440Y-83861754D01*
X161540112Y-83329452D01*
X161785104Y-82737990D01*
X161810621Y-82609708D01*
X162487429Y-83286516D01*
X162573548Y-83391452D01*
X162716923Y-83509117D01*
X162626508Y-83807175D01*
X162592743Y-84149999D01*
X162592743Y-84975001D01*
X162626508Y-85317825D01*
X162726506Y-85647474D01*
X162888894Y-85951280D01*
X163000000Y-86086664D01*
X163000000Y-86144319D01*
X162961766Y-86201541D01*
X162788387Y-86620115D01*
X162700000Y-87064470D01*
X162700000Y-87517530D01*
X162788387Y-87961885D01*
X162961766Y-88380459D01*
X163213473Y-88757165D01*
X163533835Y-89077527D01*
X163910541Y-89329234D01*
X164329115Y-89502613D01*
X164773470Y-89591000D01*
X165226530Y-89591000D01*
X165670885Y-89502613D01*
X166089459Y-89329234D01*
X166466165Y-89077527D01*
X166786527Y-88757165D01*
X167038234Y-88380459D01*
X167211613Y-87961885D01*
X167300000Y-87517530D01*
X167300000Y-87064470D01*
X167211613Y-86620115D01*
X167038234Y-86201541D01*
X167000000Y-86144320D01*
X167000000Y-86086664D01*
X167111106Y-85951280D01*
X167273494Y-85647474D01*
X167373492Y-85317825D01*
X167407257Y-84975001D01*
X167407257Y-84149999D01*
X167373492Y-83807175D01*
X167273494Y-83477526D01*
X167253761Y-83440609D01*
X167528853Y-83105410D01*
X167737669Y-82714742D01*
X167866258Y-82290842D01*
X167909677Y-81850001D01*
X167909677Y-81024999D01*
X167866258Y-80584158D01*
X167737669Y-80160258D01*
X167528853Y-79769590D01*
X167247833Y-79427167D01*
X166905410Y-79146147D01*
X166514742Y-78937331D01*
X166090842Y-78808742D01*
X165754724Y-78775637D01*
X162674415Y-75695329D01*
X165619745Y-72750000D01*
X178000001Y-72750000D01*
X178000001Y-73149282D01*
G37*
%TD.AperFunction*%
D35*
X177617561Y-51645190D02*
X177503198Y-52022191D01*
X177464583Y-52414260D01*
X177464583Y-55642123D01*
X177250776Y-56042128D01*
X177050642Y-56701880D01*
X176983065Y-57388000D01*
X177000001Y-57559953D01*
X177000000Y-61871943D01*
X177000001Y-61871953D01*
X177000000Y-65750000D01*
X164341942Y-65750000D01*
X164169998Y-65733065D01*
X163483877Y-65800642D01*
X162824125Y-66000776D01*
X162216094Y-66325775D01*
X161683149Y-66763151D01*
X161573536Y-66896715D01*
X155901713Y-72568539D01*
X155901708Y-72568543D01*
X152720252Y-75750000D01*
X141828056Y-75750000D01*
X141313880Y-75800642D01*
X140654127Y-76000776D01*
X140046096Y-76325775D01*
X139513151Y-76763151D01*
X139075775Y-77296096D01*
X138750776Y-77904127D01*
X138550642Y-78563880D01*
X138483065Y-79250000D01*
X138550642Y-79936120D01*
X138750776Y-80595873D01*
X139075775Y-81203904D01*
X139513151Y-81736849D01*
X139577916Y-81790000D01*
X139513151Y-81843151D01*
X139075775Y-82376096D01*
X138928357Y-82651896D01*
X135490254Y-86090000D01*
X129148056Y-86090000D01*
X128633880Y-86140642D01*
X127974127Y-86340776D01*
X127366096Y-86665775D01*
X126833151Y-87103151D01*
X126780000Y-87167916D01*
X126726849Y-87103151D01*
X126193904Y-86665775D01*
X125585873Y-86340776D01*
X124926120Y-86140642D01*
X124411944Y-86090000D01*
X116791944Y-86090000D01*
X116620000Y-86073065D01*
X116448056Y-86090000D01*
X115933880Y-86140642D01*
X115274127Y-86340776D01*
X114666096Y-86665775D01*
X114133151Y-87103151D01*
X114080767Y-87166981D01*
X114016942Y-87219361D01*
X114000000Y-87240005D01*
X114000000Y-84492639D01*
X115017102Y-83475537D01*
X115131584Y-83381584D01*
X115506478Y-82924775D01*
X115785049Y-82403605D01*
X115956592Y-81838103D01*
X116000000Y-81397373D01*
X116000000Y-81397367D01*
X116014514Y-81250001D01*
X116000000Y-81102635D01*
X116000000Y-76397373D01*
X116014515Y-76250000D01*
X115956592Y-75661897D01*
X115872596Y-75385000D01*
X115785049Y-75096395D01*
X115506478Y-74575225D01*
X115131584Y-74118416D01*
X115017108Y-74024468D01*
X110053346Y-69060706D01*
X114495000Y-69060706D01*
X114495000Y-69479294D01*
X114576663Y-69889840D01*
X114736849Y-70276565D01*
X114969405Y-70624609D01*
X115265391Y-70920595D01*
X115613435Y-71153151D01*
X116000160Y-71313337D01*
X116410706Y-71395000D01*
X116829294Y-71395000D01*
X117239840Y-71313337D01*
X117626565Y-71153151D01*
X117890000Y-70977129D01*
X118153435Y-71153151D01*
X118540160Y-71313337D01*
X118950706Y-71395000D01*
X119369294Y-71395000D01*
X119779840Y-71313337D01*
X120166565Y-71153151D01*
X120430000Y-70977129D01*
X120693435Y-71153151D01*
X121080160Y-71313337D01*
X121490706Y-71395000D01*
X121909294Y-71395000D01*
X122319840Y-71313337D01*
X122706565Y-71153151D01*
X122970000Y-70977129D01*
X123233435Y-71153151D01*
X123620160Y-71313337D01*
X124030706Y-71395000D01*
X124449294Y-71395000D01*
X124859840Y-71313337D01*
X125246565Y-71153151D01*
X125594609Y-70920595D01*
X125890595Y-70624609D01*
X126123151Y-70276565D01*
X126283337Y-69889840D01*
X126365000Y-69479294D01*
X126365000Y-69060706D01*
X127195000Y-69060706D01*
X127195000Y-69479294D01*
X127276663Y-69889840D01*
X127436849Y-70276565D01*
X127669405Y-70624609D01*
X127965391Y-70920595D01*
X128313435Y-71153151D01*
X128700160Y-71313337D01*
X129110706Y-71395000D01*
X129529294Y-71395000D01*
X129939840Y-71313337D01*
X130326565Y-71153151D01*
X130590000Y-70977129D01*
X130853435Y-71153151D01*
X131240160Y-71313337D01*
X131650706Y-71395000D01*
X132069294Y-71395000D01*
X132479840Y-71313337D01*
X132866565Y-71153151D01*
X133130000Y-70977129D01*
X133393435Y-71153151D01*
X133780160Y-71313337D01*
X134190706Y-71395000D01*
X134609294Y-71395000D01*
X135019840Y-71313337D01*
X135406565Y-71153151D01*
X135670000Y-70977129D01*
X135933435Y-71153151D01*
X136320160Y-71313337D01*
X136730706Y-71395000D01*
X137149294Y-71395000D01*
X137559840Y-71313337D01*
X137946565Y-71153151D01*
X138294609Y-70920595D01*
X138590595Y-70624609D01*
X138823151Y-70276565D01*
X138983337Y-69889840D01*
X139065000Y-69479294D01*
X139065000Y-69060706D01*
X138983337Y-68650160D01*
X138823151Y-68263435D01*
X138590595Y-67915391D01*
X138294609Y-67619405D01*
X137946565Y-67386849D01*
X137559840Y-67226663D01*
X137149294Y-67145000D01*
X136730706Y-67145000D01*
X136320160Y-67226663D01*
X135933435Y-67386849D01*
X135670000Y-67562871D01*
X135406565Y-67386849D01*
X135019840Y-67226663D01*
X134609294Y-67145000D01*
X134190706Y-67145000D01*
X133780160Y-67226663D01*
X133393435Y-67386849D01*
X133130000Y-67562871D01*
X132866565Y-67386849D01*
X132479840Y-67226663D01*
X132069294Y-67145000D01*
X131650706Y-67145000D01*
X131240160Y-67226663D01*
X130853435Y-67386849D01*
X130590000Y-67562871D01*
X130326565Y-67386849D01*
X129939840Y-67226663D01*
X129529294Y-67145000D01*
X129110706Y-67145000D01*
X128700160Y-67226663D01*
X128313435Y-67386849D01*
X127965391Y-67619405D01*
X127669405Y-67915391D01*
X127436849Y-68263435D01*
X127276663Y-68650160D01*
X127195000Y-69060706D01*
X126365000Y-69060706D01*
X126283337Y-68650160D01*
X126123151Y-68263435D01*
X125890595Y-67915391D01*
X125594609Y-67619405D01*
X125246565Y-67386849D01*
X124859840Y-67226663D01*
X124449294Y-67145000D01*
X124030706Y-67145000D01*
X123620160Y-67226663D01*
X123233435Y-67386849D01*
X122970000Y-67562871D01*
X122706565Y-67386849D01*
X122319840Y-67226663D01*
X121909294Y-67145000D01*
X121490706Y-67145000D01*
X121080160Y-67226663D01*
X120693435Y-67386849D01*
X120430000Y-67562871D01*
X120166565Y-67386849D01*
X119779840Y-67226663D01*
X119369294Y-67145000D01*
X118950706Y-67145000D01*
X118540160Y-67226663D01*
X118153435Y-67386849D01*
X117890000Y-67562871D01*
X117626565Y-67386849D01*
X117239840Y-67226663D01*
X116829294Y-67145000D01*
X116410706Y-67145000D01*
X116000160Y-67226663D01*
X115613435Y-67386849D01*
X115265391Y-67619405D01*
X114969405Y-67915391D01*
X114736849Y-68263435D01*
X114576663Y-68650160D01*
X114495000Y-69060706D01*
X110053346Y-69060706D01*
X109506997Y-68514358D01*
X109506997Y-66250260D01*
X109478035Y-65956209D01*
X109392264Y-65673458D01*
X109252978Y-65412873D01*
X109065532Y-65184468D01*
X108837127Y-64997022D01*
X108576542Y-64857736D01*
X108293791Y-64771965D01*
X107999740Y-64743003D01*
X102000260Y-64743003D01*
X101706209Y-64771965D01*
X101525000Y-64826934D01*
X101525000Y-56724748D01*
X101768880Y-56968628D01*
X102342128Y-57351660D01*
X102979088Y-57615497D01*
X103655280Y-57750000D01*
X104344720Y-57750000D01*
X105020912Y-57615497D01*
X105657872Y-57351660D01*
X106231120Y-56968628D01*
X106718628Y-56481120D01*
X107101660Y-55907872D01*
X107365497Y-55270912D01*
X107500000Y-54594720D01*
X107500000Y-53905280D01*
X107365497Y-53229088D01*
X107101660Y-52592128D01*
X106718628Y-52018880D01*
X106231120Y-51531372D01*
X106221584Y-51525000D01*
X177681804Y-51525000D01*
X177617561Y-51645190D01*
%TA.AperFunction,Conductor*%
D39*
G36*
X177617561Y-51645190D02*
G01*
X177503198Y-52022191D01*
X177464583Y-52414260D01*
X177464583Y-55642123D01*
X177250776Y-56042128D01*
X177050642Y-56701880D01*
X176983065Y-57388000D01*
X177000001Y-57559953D01*
X177000000Y-61871943D01*
X177000001Y-61871953D01*
X177000000Y-65750000D01*
X164341942Y-65750000D01*
X164169998Y-65733065D01*
X163483877Y-65800642D01*
X162824125Y-66000776D01*
X162216094Y-66325775D01*
X161683149Y-66763151D01*
X161573536Y-66896715D01*
X155901713Y-72568539D01*
X155901708Y-72568543D01*
X152720252Y-75750000D01*
X141828056Y-75750000D01*
X141313880Y-75800642D01*
X140654127Y-76000776D01*
X140046096Y-76325775D01*
X139513151Y-76763151D01*
X139075775Y-77296096D01*
X138750776Y-77904127D01*
X138550642Y-78563880D01*
X138483065Y-79250000D01*
X138550642Y-79936120D01*
X138750776Y-80595873D01*
X139075775Y-81203904D01*
X139513151Y-81736849D01*
X139577916Y-81790000D01*
X139513151Y-81843151D01*
X139075775Y-82376096D01*
X138928357Y-82651896D01*
X135490254Y-86090000D01*
X129148056Y-86090000D01*
X128633880Y-86140642D01*
X127974127Y-86340776D01*
X127366096Y-86665775D01*
X126833151Y-87103151D01*
X126780000Y-87167916D01*
X126726849Y-87103151D01*
X126193904Y-86665775D01*
X125585873Y-86340776D01*
X124926120Y-86140642D01*
X124411944Y-86090000D01*
X116791944Y-86090000D01*
X116620000Y-86073065D01*
X116448056Y-86090000D01*
X115933880Y-86140642D01*
X115274127Y-86340776D01*
X114666096Y-86665775D01*
X114133151Y-87103151D01*
X114080767Y-87166981D01*
X114016942Y-87219361D01*
X114000000Y-87240005D01*
X114000000Y-84492639D01*
X115017102Y-83475537D01*
X115131584Y-83381584D01*
X115506478Y-82924775D01*
X115785049Y-82403605D01*
X115956592Y-81838103D01*
X116000000Y-81397373D01*
X116000000Y-81397367D01*
X116014514Y-81250001D01*
X116000000Y-81102635D01*
X116000000Y-76397373D01*
X116014515Y-76250000D01*
X115956592Y-75661897D01*
X115872596Y-75385000D01*
X115785049Y-75096395D01*
X115506478Y-74575225D01*
X115131584Y-74118416D01*
X115017108Y-74024468D01*
X110053346Y-69060706D01*
X114495000Y-69060706D01*
X114495000Y-69479294D01*
X114576663Y-69889840D01*
X114736849Y-70276565D01*
X114969405Y-70624609D01*
X115265391Y-70920595D01*
X115613435Y-71153151D01*
X116000160Y-71313337D01*
X116410706Y-71395000D01*
X116829294Y-71395000D01*
X117239840Y-71313337D01*
X117626565Y-71153151D01*
X117890000Y-70977129D01*
X118153435Y-71153151D01*
X118540160Y-71313337D01*
X118950706Y-71395000D01*
X119369294Y-71395000D01*
X119779840Y-71313337D01*
X120166565Y-71153151D01*
X120430000Y-70977129D01*
X120693435Y-71153151D01*
X121080160Y-71313337D01*
X121490706Y-71395000D01*
X121909294Y-71395000D01*
X122319840Y-71313337D01*
X122706565Y-71153151D01*
X122970000Y-70977129D01*
X123233435Y-71153151D01*
X123620160Y-71313337D01*
X124030706Y-71395000D01*
X124449294Y-71395000D01*
X124859840Y-71313337D01*
X125246565Y-71153151D01*
X125594609Y-70920595D01*
X125890595Y-70624609D01*
X126123151Y-70276565D01*
X126283337Y-69889840D01*
X126365000Y-69479294D01*
X126365000Y-69060706D01*
X127195000Y-69060706D01*
X127195000Y-69479294D01*
X127276663Y-69889840D01*
X127436849Y-70276565D01*
X127669405Y-70624609D01*
X127965391Y-70920595D01*
X128313435Y-71153151D01*
X128700160Y-71313337D01*
X129110706Y-71395000D01*
X129529294Y-71395000D01*
X129939840Y-71313337D01*
X130326565Y-71153151D01*
X130590000Y-70977129D01*
X130853435Y-71153151D01*
X131240160Y-71313337D01*
X131650706Y-71395000D01*
X132069294Y-71395000D01*
X132479840Y-71313337D01*
X132866565Y-71153151D01*
X133130000Y-70977129D01*
X133393435Y-71153151D01*
X133780160Y-71313337D01*
X134190706Y-71395000D01*
X134609294Y-71395000D01*
X135019840Y-71313337D01*
X135406565Y-71153151D01*
X135670000Y-70977129D01*
X135933435Y-71153151D01*
X136320160Y-71313337D01*
X136730706Y-71395000D01*
X137149294Y-71395000D01*
X137559840Y-71313337D01*
X137946565Y-71153151D01*
X138294609Y-70920595D01*
X138590595Y-70624609D01*
X138823151Y-70276565D01*
X138983337Y-69889840D01*
X139065000Y-69479294D01*
X139065000Y-69060706D01*
X138983337Y-68650160D01*
X138823151Y-68263435D01*
X138590595Y-67915391D01*
X138294609Y-67619405D01*
X137946565Y-67386849D01*
X137559840Y-67226663D01*
X137149294Y-67145000D01*
X136730706Y-67145000D01*
X136320160Y-67226663D01*
X135933435Y-67386849D01*
X135670000Y-67562871D01*
X135406565Y-67386849D01*
X135019840Y-67226663D01*
X134609294Y-67145000D01*
X134190706Y-67145000D01*
X133780160Y-67226663D01*
X133393435Y-67386849D01*
X133130000Y-67562871D01*
X132866565Y-67386849D01*
X132479840Y-67226663D01*
X132069294Y-67145000D01*
X131650706Y-67145000D01*
X131240160Y-67226663D01*
X130853435Y-67386849D01*
X130590000Y-67562871D01*
X130326565Y-67386849D01*
X129939840Y-67226663D01*
X129529294Y-67145000D01*
X129110706Y-67145000D01*
X128700160Y-67226663D01*
X128313435Y-67386849D01*
X127965391Y-67619405D01*
X127669405Y-67915391D01*
X127436849Y-68263435D01*
X127276663Y-68650160D01*
X127195000Y-69060706D01*
X126365000Y-69060706D01*
X126283337Y-68650160D01*
X126123151Y-68263435D01*
X125890595Y-67915391D01*
X125594609Y-67619405D01*
X125246565Y-67386849D01*
X124859840Y-67226663D01*
X124449294Y-67145000D01*
X124030706Y-67145000D01*
X123620160Y-67226663D01*
X123233435Y-67386849D01*
X122970000Y-67562871D01*
X122706565Y-67386849D01*
X122319840Y-67226663D01*
X121909294Y-67145000D01*
X121490706Y-67145000D01*
X121080160Y-67226663D01*
X120693435Y-67386849D01*
X120430000Y-67562871D01*
X120166565Y-67386849D01*
X119779840Y-67226663D01*
X119369294Y-67145000D01*
X118950706Y-67145000D01*
X118540160Y-67226663D01*
X118153435Y-67386849D01*
X117890000Y-67562871D01*
X117626565Y-67386849D01*
X117239840Y-67226663D01*
X116829294Y-67145000D01*
X116410706Y-67145000D01*
X116000160Y-67226663D01*
X115613435Y-67386849D01*
X115265391Y-67619405D01*
X114969405Y-67915391D01*
X114736849Y-68263435D01*
X114576663Y-68650160D01*
X114495000Y-69060706D01*
X110053346Y-69060706D01*
X109506997Y-68514358D01*
X109506997Y-66250260D01*
X109478035Y-65956209D01*
X109392264Y-65673458D01*
X109252978Y-65412873D01*
X109065532Y-65184468D01*
X108837127Y-64997022D01*
X108576542Y-64857736D01*
X108293791Y-64771965D01*
X107999740Y-64743003D01*
X102000260Y-64743003D01*
X101706209Y-64771965D01*
X101525000Y-64826934D01*
X101525000Y-56724748D01*
X101768880Y-56968628D01*
X102342128Y-57351660D01*
X102979088Y-57615497D01*
X103655280Y-57750000D01*
X104344720Y-57750000D01*
X105020912Y-57615497D01*
X105657872Y-57351660D01*
X106231120Y-56968628D01*
X106718628Y-56481120D01*
X107101660Y-55907872D01*
X107365497Y-55270912D01*
X107500000Y-54594720D01*
X107500000Y-53905280D01*
X107365497Y-53229088D01*
X107101660Y-52592128D01*
X106718628Y-52018880D01*
X106231120Y-51531372D01*
X106221584Y-51525000D01*
X177681804Y-51525000D01*
X177617561Y-51645190D01*
G37*
%TD.AperFunction*%
%TD*%
M02*
