%TF.GenerationSoftware,KiCad,Pcbnew,5.1.9-73d0e3b20d~88~ubuntu20.04.1*%
%TF.CreationDate,2021-03-11T22:23:18-06:00*%
%TF.ProjectId,pfc,7066632e-6b69-4636-9164-5f7063625858,rev?*%
%TF.SameCoordinates,Original*%
%TF.FileFunction,Legend,Bot*%
%TF.FilePolarity,Positive*%
%FSLAX46Y46*%
G04 Gerber Fmt 4.6, Leading zero omitted, Abs format (unit mm)*
G04 Created by KiCad (PCBNEW 5.1.9-73d0e3b20d~88~ubuntu20.04.1) date 2021-03-11 22:23:18*
%MOMM*%
%LPD*%
G01*
G04 APERTURE LIST*
%ADD10C,0.120000*%
%ADD11C,0.150000*%
G04 APERTURE END LIST*
D10*
%TO.C,C26*%
X107910000Y-116961252D02*
X107910000Y-115538748D01*
X106090000Y-116961252D02*
X106090000Y-115538748D01*
%TO.C,C25*%
X110910000Y-116961252D02*
X110910000Y-115538748D01*
X109090000Y-116961252D02*
X109090000Y-115538748D01*
%TO.C,C24*%
X112090000Y-74538748D02*
X112090000Y-75961252D01*
X113910000Y-74538748D02*
X113910000Y-75961252D01*
%TO.C,C23*%
X109090000Y-74538748D02*
X109090000Y-75961252D01*
X110910000Y-74538748D02*
X110910000Y-75961252D01*
%TO.C,L5*%
D11*
X103452380Y-97083333D02*
X103452380Y-96607142D01*
X102452380Y-96607142D01*
X102452380Y-97892857D02*
X102452380Y-97416666D01*
X102928571Y-97369047D01*
X102880952Y-97416666D01*
X102833333Y-97511904D01*
X102833333Y-97750000D01*
X102880952Y-97845238D01*
X102928571Y-97892857D01*
X103023809Y-97940476D01*
X103261904Y-97940476D01*
X103357142Y-97892857D01*
X103404761Y-97845238D01*
X103452380Y-97750000D01*
X103452380Y-97511904D01*
X103404761Y-97416666D01*
X103357142Y-97369047D01*
%TO.C,L4*%
X121452380Y-108083333D02*
X121452380Y-107607142D01*
X120452380Y-107607142D01*
X120785714Y-108845238D02*
X121452380Y-108845238D01*
X120404761Y-108607142D02*
X121119047Y-108369047D01*
X121119047Y-108988095D01*
%TO.C,C26*%
X107142857Y-120607142D02*
X107190476Y-120654761D01*
X107333333Y-120702380D01*
X107428571Y-120702380D01*
X107571428Y-120654761D01*
X107666666Y-120559523D01*
X107714285Y-120464285D01*
X107761904Y-120273809D01*
X107761904Y-120130952D01*
X107714285Y-119940476D01*
X107666666Y-119845238D01*
X107571428Y-119750000D01*
X107428571Y-119702380D01*
X107333333Y-119702380D01*
X107190476Y-119750000D01*
X107142857Y-119797619D01*
X106761904Y-119797619D02*
X106714285Y-119750000D01*
X106619047Y-119702380D01*
X106380952Y-119702380D01*
X106285714Y-119750000D01*
X106238095Y-119797619D01*
X106190476Y-119892857D01*
X106190476Y-119988095D01*
X106238095Y-120130952D01*
X106809523Y-120702380D01*
X106190476Y-120702380D01*
X105333333Y-119702380D02*
X105523809Y-119702380D01*
X105619047Y-119750000D01*
X105666666Y-119797619D01*
X105761904Y-119940476D01*
X105809523Y-120130952D01*
X105809523Y-120511904D01*
X105761904Y-120607142D01*
X105714285Y-120654761D01*
X105619047Y-120702380D01*
X105428571Y-120702380D01*
X105333333Y-120654761D01*
X105285714Y-120607142D01*
X105238095Y-120511904D01*
X105238095Y-120273809D01*
X105285714Y-120178571D01*
X105333333Y-120130952D01*
X105428571Y-120083333D01*
X105619047Y-120083333D01*
X105714285Y-120130952D01*
X105761904Y-120178571D01*
X105809523Y-120273809D01*
%TO.C,C25*%
X110642857Y-120607142D02*
X110690476Y-120654761D01*
X110833333Y-120702380D01*
X110928571Y-120702380D01*
X111071428Y-120654761D01*
X111166666Y-120559523D01*
X111214285Y-120464285D01*
X111261904Y-120273809D01*
X111261904Y-120130952D01*
X111214285Y-119940476D01*
X111166666Y-119845238D01*
X111071428Y-119750000D01*
X110928571Y-119702380D01*
X110833333Y-119702380D01*
X110690476Y-119750000D01*
X110642857Y-119797619D01*
X110261904Y-119797619D02*
X110214285Y-119750000D01*
X110119047Y-119702380D01*
X109880952Y-119702380D01*
X109785714Y-119750000D01*
X109738095Y-119797619D01*
X109690476Y-119892857D01*
X109690476Y-119988095D01*
X109738095Y-120130952D01*
X110309523Y-120702380D01*
X109690476Y-120702380D01*
X108785714Y-119702380D02*
X109261904Y-119702380D01*
X109309523Y-120178571D01*
X109261904Y-120130952D01*
X109166666Y-120083333D01*
X108928571Y-120083333D01*
X108833333Y-120130952D01*
X108785714Y-120178571D01*
X108738095Y-120273809D01*
X108738095Y-120511904D01*
X108785714Y-120607142D01*
X108833333Y-120654761D01*
X108928571Y-120702380D01*
X109166666Y-120702380D01*
X109261904Y-120654761D01*
X109309523Y-120607142D01*
%TO.C,C24*%
X111507142Y-74607142D02*
X111554761Y-74559523D01*
X111602380Y-74416666D01*
X111602380Y-74321428D01*
X111554761Y-74178571D01*
X111459523Y-74083333D01*
X111364285Y-74035714D01*
X111173809Y-73988095D01*
X111030952Y-73988095D01*
X110840476Y-74035714D01*
X110745238Y-74083333D01*
X110650000Y-74178571D01*
X110602380Y-74321428D01*
X110602380Y-74416666D01*
X110650000Y-74559523D01*
X110697619Y-74607142D01*
X110697619Y-74988095D02*
X110650000Y-75035714D01*
X110602380Y-75130952D01*
X110602380Y-75369047D01*
X110650000Y-75464285D01*
X110697619Y-75511904D01*
X110792857Y-75559523D01*
X110888095Y-75559523D01*
X111030952Y-75511904D01*
X111602380Y-74940476D01*
X111602380Y-75559523D01*
X110935714Y-76416666D02*
X111602380Y-76416666D01*
X110554761Y-76178571D02*
X111269047Y-75940476D01*
X111269047Y-76559523D01*
%TO.C,C23*%
X108507142Y-74607142D02*
X108554761Y-74559523D01*
X108602380Y-74416666D01*
X108602380Y-74321428D01*
X108554761Y-74178571D01*
X108459523Y-74083333D01*
X108364285Y-74035714D01*
X108173809Y-73988095D01*
X108030952Y-73988095D01*
X107840476Y-74035714D01*
X107745238Y-74083333D01*
X107650000Y-74178571D01*
X107602380Y-74321428D01*
X107602380Y-74416666D01*
X107650000Y-74559523D01*
X107697619Y-74607142D01*
X107697619Y-74988095D02*
X107650000Y-75035714D01*
X107602380Y-75130952D01*
X107602380Y-75369047D01*
X107650000Y-75464285D01*
X107697619Y-75511904D01*
X107792857Y-75559523D01*
X107888095Y-75559523D01*
X108030952Y-75511904D01*
X108602380Y-74940476D01*
X108602380Y-75559523D01*
X107602380Y-75892857D02*
X107602380Y-76511904D01*
X107983333Y-76178571D01*
X107983333Y-76321428D01*
X108030952Y-76416666D01*
X108078571Y-76464285D01*
X108173809Y-76511904D01*
X108411904Y-76511904D01*
X108507142Y-76464285D01*
X108554761Y-76416666D01*
X108602380Y-76321428D01*
X108602380Y-76035714D01*
X108554761Y-75940476D01*
X108507142Y-75892857D01*
%TD*%
M02*
