%TF.GenerationSoftware,KiCad,Pcbnew,5.1.9-73d0e3b20d~88~ubuntu20.04.1*%
%TF.CreationDate,2021-03-11T22:23:18-06:00*%
%TF.ProjectId,pfc,7066632e-6b69-4636-9164-5f7063625858,rev?*%
%TF.SameCoordinates,Original*%
%TF.FileFunction,Copper,L2,Bot*%
%TF.FilePolarity,Positive*%
%FSLAX46Y46*%
G04 Gerber Fmt 4.6, Leading zero omitted, Abs format (unit mm)*
G04 Created by KiCad (PCBNEW 5.1.9-73d0e3b20d~88~ubuntu20.04.1) date 2021-03-11 22:23:18*
%MOMM*%
%LPD*%
G01*
G04 APERTURE LIST*
%TA.AperFunction,WasherPad*%
%ADD10C,4.000000*%
%TD*%
%TA.AperFunction,ComponentPad*%
%ADD11R,5.999480X5.999480*%
%TD*%
%TA.AperFunction,ComponentPad*%
%ADD12C,5.999480*%
%TD*%
%TA.AperFunction,SMDPad,CuDef*%
%ADD13R,5.000000X3.100000*%
%TD*%
%TA.AperFunction,ComponentPad*%
%ADD14O,1.400000X1.400000*%
%TD*%
%TA.AperFunction,ComponentPad*%
%ADD15C,1.400000*%
%TD*%
%TA.AperFunction,ComponentPad*%
%ADD16O,1.600000X1.600000*%
%TD*%
%TA.AperFunction,ComponentPad*%
%ADD17C,1.600000*%
%TD*%
%TA.AperFunction,ComponentPad*%
%ADD18O,2.000000X1.905000*%
%TD*%
%TA.AperFunction,ComponentPad*%
%ADD19R,2.000000X1.905000*%
%TD*%
%TA.AperFunction,ComponentPad*%
%ADD20O,2.400000X2.400000*%
%TD*%
%TA.AperFunction,ComponentPad*%
%ADD21C,2.400000*%
%TD*%
%TA.AperFunction,ComponentPad*%
%ADD22O,1.700000X1.700000*%
%TD*%
%TA.AperFunction,ComponentPad*%
%ADD23R,1.700000X1.700000*%
%TD*%
%TA.AperFunction,ComponentPad*%
%ADD24O,2.000000X2.000000*%
%TD*%
%TA.AperFunction,ComponentPad*%
%ADD25R,2.000000X2.000000*%
%TD*%
%TA.AperFunction,ComponentPad*%
%ADD26R,1.600000X1.600000*%
%TD*%
%TA.AperFunction,ComponentPad*%
%ADD27R,2.400000X2.400000*%
%TD*%
%TA.AperFunction,ComponentPad*%
%ADD28C,1.250000*%
%TD*%
%TA.AperFunction,ComponentPad*%
%ADD29C,2.000000*%
%TD*%
%TA.AperFunction,ViaPad*%
%ADD30C,0.800000*%
%TD*%
%TA.AperFunction,ViaPad*%
%ADD31C,2.000000*%
%TD*%
%TA.AperFunction,ViaPad*%
%ADD32C,3.000000*%
%TD*%
%TA.AperFunction,Conductor*%
%ADD33C,1.500000*%
%TD*%
%TA.AperFunction,Conductor*%
%ADD34C,3.000000*%
%TD*%
%TA.AperFunction,Conductor*%
%ADD35C,0.500000*%
%TD*%
%TA.AperFunction,Conductor*%
%ADD36C,1.000000*%
%TD*%
%TA.AperFunction,Conductor*%
%ADD37C,0.100000*%
%TD*%
G04 APERTURE END LIST*
D10*
%TO.P,REF\u002A\u002A,*%
%TO.N,*%
X195000000Y-136250000D03*
%TD*%
%TO.P,REF\u002A\u002A,*%
%TO.N,*%
X104000000Y-54250000D03*
%TD*%
D11*
%TO.P,J4,1*%
%TO.N,v120p*%
X105000000Y-122250000D03*
D12*
%TO.P,J4,2*%
%TO.N,v120n*%
X105000000Y-110450000D03*
%TD*%
D13*
%TO.P,L5,2*%
%TO.N,Net-(C23-Pad2)*%
X105000000Y-91700000D03*
%TO.P,L5,1*%
%TO.N,v120n*%
X105000000Y-102800000D03*
%TD*%
%TO.P,L4,2*%
%TO.N,Net-(C23-Pad1)*%
X123000000Y-102700000D03*
%TO.P,L4,1*%
%TO.N,v120p*%
X123000000Y-113800000D03*
%TD*%
%TO.P,C26,2*%
%TO.N,v120n*%
%TA.AperFunction,SMDPad,CuDef*%
G36*
G01*
X107650001Y-115350000D02*
X106349999Y-115350000D01*
G75*
G02*
X106100000Y-115100001I0J249999D01*
G01*
X106100000Y-114274999D01*
G75*
G02*
X106349999Y-114025000I249999J0D01*
G01*
X107650001Y-114025000D01*
G75*
G02*
X107900000Y-114274999I0J-249999D01*
G01*
X107900000Y-115100001D01*
G75*
G02*
X107650001Y-115350000I-249999J0D01*
G01*
G37*
%TD.AperFunction*%
%TO.P,C26,1*%
%TO.N,v120p*%
%TA.AperFunction,SMDPad,CuDef*%
G36*
G01*
X107650001Y-118475000D02*
X106349999Y-118475000D01*
G75*
G02*
X106100000Y-118225001I0J249999D01*
G01*
X106100000Y-117399999D01*
G75*
G02*
X106349999Y-117150000I249999J0D01*
G01*
X107650001Y-117150000D01*
G75*
G02*
X107900000Y-117399999I0J-249999D01*
G01*
X107900000Y-118225001D01*
G75*
G02*
X107650001Y-118475000I-249999J0D01*
G01*
G37*
%TD.AperFunction*%
%TD*%
%TO.P,C25,2*%
%TO.N,v120n*%
%TA.AperFunction,SMDPad,CuDef*%
G36*
G01*
X110650001Y-115350000D02*
X109349999Y-115350000D01*
G75*
G02*
X109100000Y-115100001I0J249999D01*
G01*
X109100000Y-114274999D01*
G75*
G02*
X109349999Y-114025000I249999J0D01*
G01*
X110650001Y-114025000D01*
G75*
G02*
X110900000Y-114274999I0J-249999D01*
G01*
X110900000Y-115100001D01*
G75*
G02*
X110650001Y-115350000I-249999J0D01*
G01*
G37*
%TD.AperFunction*%
%TO.P,C25,1*%
%TO.N,v120p*%
%TA.AperFunction,SMDPad,CuDef*%
G36*
G01*
X110650001Y-118475000D02*
X109349999Y-118475000D01*
G75*
G02*
X109100000Y-118225001I0J249999D01*
G01*
X109100000Y-117399999D01*
G75*
G02*
X109349999Y-117150000I249999J0D01*
G01*
X110650001Y-117150000D01*
G75*
G02*
X110900000Y-117399999I0J-249999D01*
G01*
X110900000Y-118225001D01*
G75*
G02*
X110650001Y-118475000I-249999J0D01*
G01*
G37*
%TD.AperFunction*%
%TD*%
%TO.P,C24,2*%
%TO.N,Net-(C23-Pad2)*%
%TA.AperFunction,SMDPad,CuDef*%
G36*
G01*
X112349999Y-76150000D02*
X113650001Y-76150000D01*
G75*
G02*
X113900000Y-76399999I0J-249999D01*
G01*
X113900000Y-77225001D01*
G75*
G02*
X113650001Y-77475000I-249999J0D01*
G01*
X112349999Y-77475000D01*
G75*
G02*
X112100000Y-77225001I0J249999D01*
G01*
X112100000Y-76399999D01*
G75*
G02*
X112349999Y-76150000I249999J0D01*
G01*
G37*
%TD.AperFunction*%
%TO.P,C24,1*%
%TO.N,Net-(C23-Pad1)*%
%TA.AperFunction,SMDPad,CuDef*%
G36*
G01*
X112349999Y-73025000D02*
X113650001Y-73025000D01*
G75*
G02*
X113900000Y-73274999I0J-249999D01*
G01*
X113900000Y-74100001D01*
G75*
G02*
X113650001Y-74350000I-249999J0D01*
G01*
X112349999Y-74350000D01*
G75*
G02*
X112100000Y-74100001I0J249999D01*
G01*
X112100000Y-73274999D01*
G75*
G02*
X112349999Y-73025000I249999J0D01*
G01*
G37*
%TD.AperFunction*%
%TD*%
%TO.P,C23,2*%
%TO.N,Net-(C23-Pad2)*%
%TA.AperFunction,SMDPad,CuDef*%
G36*
G01*
X109349999Y-76150000D02*
X110650001Y-76150000D01*
G75*
G02*
X110900000Y-76399999I0J-249999D01*
G01*
X110900000Y-77225001D01*
G75*
G02*
X110650001Y-77475000I-249999J0D01*
G01*
X109349999Y-77475000D01*
G75*
G02*
X109100000Y-77225001I0J249999D01*
G01*
X109100000Y-76399999D01*
G75*
G02*
X109349999Y-76150000I249999J0D01*
G01*
G37*
%TD.AperFunction*%
%TO.P,C23,1*%
%TO.N,Net-(C23-Pad1)*%
%TA.AperFunction,SMDPad,CuDef*%
G36*
G01*
X109349999Y-73025000D02*
X110650001Y-73025000D01*
G75*
G02*
X110900000Y-73274999I0J-249999D01*
G01*
X110900000Y-74100001D01*
G75*
G02*
X110650001Y-74350000I-249999J0D01*
G01*
X109349999Y-74350000D01*
G75*
G02*
X109100000Y-74100001I0J249999D01*
G01*
X109100000Y-73274999D01*
G75*
G02*
X109349999Y-73025000I249999J0D01*
G01*
G37*
%TD.AperFunction*%
%TD*%
D14*
%TO.P,R4,2*%
%TO.N,Net-(R2-Pad2)*%
X177960000Y-122000000D03*
D15*
%TO.P,R4,1*%
%TO.N,Net-(C21-Pad1)*%
X180500000Y-122000000D03*
%TD*%
D14*
%TO.P,R3,2*%
%TO.N,Net-(C19-Pad1)*%
X162940000Y-129960000D03*
D15*
%TO.P,R3,1*%
%TO.N,Net-(C15-Pad2)*%
X162940000Y-127420000D03*
%TD*%
D11*
%TO.P,J2,1*%
%TO.N,vpfc*%
X182474000Y-55414000D03*
D12*
%TO.P,J2,2*%
%TO.N,gnd*%
X194274000Y-55414000D03*
%TD*%
D16*
%TO.P,Rout2,2*%
%TO.N,Net-(C6-Pad2)*%
X165000000Y-87291000D03*
D17*
%TO.P,Rout2,1*%
%TO.N,Net-(C3-Pad1)*%
X165000000Y-97451000D03*
%TD*%
D16*
%TO.P,Rout1,2*%
%TO.N,Net-(C3-Pad2)*%
X156160000Y-106000000D03*
D17*
%TO.P,Rout1,1*%
%TO.N,gnd*%
X146000000Y-106000000D03*
%TD*%
D18*
%TO.P,Q1,3*%
%TO.N,gnd*%
X142000000Y-100080000D03*
%TO.P,Q1,2*%
%TO.N,Net-(C3-Pad1)*%
X142000000Y-97540000D03*
D19*
%TO.P,Q1,1*%
%TO.N,Net-(D3-Pad2)*%
X142000000Y-95000000D03*
%TD*%
D16*
%TO.P,Risf2,2*%
%TO.N,Net-(Risf1-Pad1)*%
X149460000Y-127000000D03*
D17*
%TO.P,Risf2,1*%
%TO.N,is*%
X152000000Y-127000000D03*
%TD*%
D16*
%TO.P,Risf1,2*%
%TO.N,Net-(C1-Pad2)*%
X143460000Y-127000000D03*
D17*
%TO.P,Risf1,1*%
%TO.N,Net-(Risf1-Pad1)*%
X146000000Y-127000000D03*
%TD*%
D20*
%TO.P,R8,2*%
%TO.N,gnd*%
X155100000Y-61700000D03*
D21*
%TO.P,R8,1*%
%TO.N,vpfc*%
X180500000Y-61700000D03*
%TD*%
D20*
%TO.P,R7,2*%
%TO.N,gnd*%
X155100000Y-69250000D03*
D21*
%TO.P,R7,1*%
%TO.N,vpfc*%
X180500000Y-69250000D03*
%TD*%
D16*
%TO.P,R6,2*%
%TO.N,gnd*%
X188480000Y-130670000D03*
D17*
%TO.P,R6,1*%
%TO.N,vcc*%
X185940000Y-130670000D03*
%TD*%
D16*
%TO.P,R5,2*%
%TO.N,Net-(C19-Pad1)*%
X177960000Y-125920000D03*
D17*
%TO.P,R5,1*%
%TO.N,Net-(C21-Pad1)*%
X180500000Y-125920000D03*
%TD*%
D16*
%TO.P,R2,2*%
%TO.N,Net-(R2-Pad2)*%
X174940000Y-122130000D03*
D17*
%TO.P,R2,1*%
%TO.N,Net-(C15-Pad1)*%
X174940000Y-124670000D03*
%TD*%
D20*
%TO.P,R1,2*%
%TO.N,v120p*%
X105180000Y-135500000D03*
D21*
%TO.P,R1,1*%
%TO.N,Net-(D4-Pad3)*%
X125500000Y-135500000D03*
%TD*%
D22*
%TO.P,J3,2*%
%TO.N,gnd*%
X197540000Y-130750000D03*
D23*
%TO.P,J3,1*%
%TO.N,vcc*%
X195000000Y-130750000D03*
%TD*%
D24*
%TO.P,D2,2*%
%TO.N,Net-(C3-Pad1)*%
X142000000Y-84330000D03*
D25*
%TO.P,D2,1*%
%TO.N,vpfc*%
X142000000Y-79250000D03*
%TD*%
D17*
%TO.P,C22,2*%
%TO.N,gnd*%
X188440000Y-136170000D03*
D26*
%TO.P,C22,1*%
%TO.N,vcc*%
X185940000Y-136170000D03*
%TD*%
D17*
%TO.P,C14,2*%
%TO.N,gnd*%
X159000000Y-134000000D03*
D26*
%TO.P,C14,1*%
%TO.N,Net-(C14-Pad1)*%
X159000000Y-137500000D03*
%TD*%
D17*
%TO.P,C13,2*%
%TO.N,gnd*%
X143000000Y-134000000D03*
D26*
%TO.P,C13,1*%
%TO.N,Net-(C13-Pad1)*%
X143000000Y-137500000D03*
%TD*%
D21*
%TO.P,C10,2*%
%TO.N,gnd*%
X194500000Y-120250000D03*
D27*
%TO.P,C10,1*%
%TO.N,vpfc*%
X187000000Y-120250000D03*
%TD*%
D21*
%TO.P,C9,2*%
%TO.N,gnd*%
X194500000Y-86250000D03*
D27*
%TO.P,C9,1*%
%TO.N,vpfc*%
X187000000Y-86250000D03*
%TD*%
D21*
%TO.P,C7,2*%
%TO.N,gnd*%
X194500000Y-69250000D03*
D27*
%TO.P,C7,1*%
%TO.N,vpfc*%
X187000000Y-69250000D03*
%TD*%
D21*
%TO.P,C5,2*%
%TO.N,gnd*%
X194500000Y-103250000D03*
D27*
%TO.P,C5,1*%
%TO.N,vpfc*%
X187000000Y-103250000D03*
%TD*%
D17*
%TO.P,C4,2*%
%TO.N,gnd*%
X157750000Y-122500000D03*
D26*
%TO.P,C4,1*%
%TO.N,vcc*%
X159750000Y-122500000D03*
%TD*%
D11*
%TO.P,J1,1*%
%TO.N,Net-(C23-Pad1)*%
X105000000Y-69250000D03*
D12*
%TO.P,J1,2*%
%TO.N,Net-(C23-Pad2)*%
X105000000Y-81050000D03*
%TD*%
D28*
%TO.P,L1,*%
%TO.N,*%
X116620000Y-69270000D03*
%TO.P,L1,2*%
%TO.N,Net-(C1-Pad1)*%
X116620000Y-89590000D03*
%TO.P,L1,*%
%TO.N,*%
X119160000Y-69270000D03*
X121700000Y-69270000D03*
X124240000Y-69270000D03*
X129320000Y-69270000D03*
X131860000Y-69270000D03*
X134400000Y-69270000D03*
X136940000Y-69270000D03*
%TO.P,L1,2*%
%TO.N,Net-(C1-Pad1)*%
X120430000Y-89590000D03*
X124240000Y-89590000D03*
%TO.P,L1,1*%
%TO.N,Net-(C3-Pad1)*%
X129320000Y-89590000D03*
X133130000Y-89590000D03*
X136940000Y-89590000D03*
%TD*%
D29*
%TO.P,D1,4*%
%TO.N,Net-(C1-Pad2)*%
X113500000Y-129500000D03*
%TO.P,D1,3*%
%TO.N,v120p*%
X113500000Y-122000000D03*
%TO.P,D1,2*%
%TO.N,v120n*%
X113500000Y-114500000D03*
%TO.P,D1,1*%
%TO.N,Net-(C1-Pad1)*%
X113500000Y-104500000D03*
%TD*%
D30*
%TO.N,*%
X186000000Y-139250000D03*
D31*
%TO.N,Net-(C1-Pad2)*%
X134000000Y-123000000D03*
D30*
%TO.N,gnd*%
X156500000Y-112000000D03*
X151750000Y-112000000D03*
D32*
X154500000Y-121250000D03*
D30*
X175000000Y-80000000D03*
X175000000Y-75000000D03*
X180000000Y-85000000D03*
X180000000Y-90000000D03*
X175000000Y-90000000D03*
X170000000Y-90000000D03*
X160000000Y-90000000D03*
X170000000Y-80000000D03*
X171000000Y-76000000D03*
X145000000Y-75000000D03*
X140000000Y-75000000D03*
X135000000Y-80000000D03*
X135000000Y-85000000D03*
X130000000Y-85000000D03*
X125000000Y-85000000D03*
X120000000Y-85000000D03*
X115000000Y-85000000D03*
X110000000Y-101250000D03*
X110000000Y-105000000D03*
X115000000Y-110000000D03*
X125000000Y-110000000D03*
X125000000Y-120000000D03*
X125000000Y-125000000D03*
X120000000Y-125000000D03*
X180000000Y-115000000D03*
X166000000Y-103000000D03*
X149000000Y-101000000D03*
X136000000Y-107000000D03*
X133000000Y-102000000D03*
X134000000Y-95000000D03*
X156000000Y-90000000D03*
X183000000Y-94000000D03*
X181000000Y-102000000D03*
X183000000Y-112000000D03*
X131000000Y-105000000D03*
X139000000Y-105000000D03*
X174250000Y-134000000D03*
X168250000Y-110252600D03*
X161671400Y-110100200D03*
D31*
X105000000Y-97250000D03*
X121000000Y-108250000D03*
X118000000Y-135250000D03*
D30*
X150000000Y-120250000D03*
X150000000Y-105250000D03*
X103000000Y-63250000D03*
X108000000Y-63250000D03*
X111000000Y-63250000D03*
X114000000Y-63250000D03*
X114000000Y-67250000D03*
X187000000Y-126250000D03*
X196000000Y-126250000D03*
X194500000Y-111750000D03*
X194500000Y-97750000D03*
X194500000Y-76750000D03*
X152040000Y-87240000D03*
X159690000Y-87210000D03*
X154590000Y-96710000D03*
X152170000Y-75130000D03*
X160590000Y-66200000D03*
X166220000Y-64230000D03*
X173900000Y-64380000D03*
X111490000Y-137910000D03*
X117640000Y-138490000D03*
%TO.N,Net-(D3-Pad2)*%
X153600000Y-108850000D03*
%TO.N,Net-(C19-Pad1)*%
X166726000Y-135424000D03*
D31*
%TO.N,Net-(C23-Pad1)*%
X111000000Y-91250000D03*
%TD*%
D33*
%TO.N,v120n*%
X113312500Y-114687500D02*
X113500000Y-114500000D01*
X107000000Y-114687500D02*
X113312500Y-114687500D01*
X107000000Y-112450000D02*
X105000000Y-110450000D01*
X107000000Y-114687500D02*
X107000000Y-112450000D01*
D34*
X105000000Y-102800000D02*
X105000000Y-110450000D01*
D33*
%TO.N,v120p*%
X105000000Y-119812500D02*
X107000000Y-117812500D01*
X105000000Y-122250000D02*
X105000000Y-119812500D01*
X109312500Y-117812500D02*
X113500000Y-122000000D01*
X107000000Y-117812500D02*
X109312500Y-117812500D01*
D34*
X121700000Y-113800000D02*
X113500000Y-122000000D01*
X123000000Y-113800000D02*
X121700000Y-113800000D01*
%TO.N,Net-(C1-Pad2)*%
X127500000Y-129500000D02*
X134000000Y-123000000D01*
X113500000Y-129500000D02*
X127500000Y-129500000D01*
D35*
%TO.N,gnd*%
X156500000Y-112000000D02*
X151750000Y-112000000D01*
X151750000Y-112000000D02*
X151750000Y-112000000D01*
D36*
%TO.N,Net-(D3-Pad2)*%
X153600000Y-101100000D02*
X147500000Y-95000000D01*
X153600000Y-108850000D02*
X153600000Y-101100000D01*
X147500000Y-95000000D02*
X142000000Y-95000000D01*
D35*
%TO.N,Net-(C19-Pad1)*%
X162940000Y-131638000D02*
X166726000Y-135424000D01*
X162940000Y-129960000D02*
X162940000Y-131638000D01*
X168456000Y-135424000D02*
X177960000Y-125920000D01*
X166726000Y-135424000D02*
X168456000Y-135424000D01*
D36*
%TO.N,vcc*%
X163080000Y-119170000D02*
X159750000Y-122500000D01*
X181190000Y-119170000D02*
X163080000Y-119170000D01*
X182690000Y-120670000D02*
X181190000Y-119170000D01*
X182690000Y-127420000D02*
X182690000Y-120670000D01*
X185940000Y-130670000D02*
X182690000Y-127420000D01*
D33*
%TO.N,Net-(C23-Pad2)*%
X105762500Y-81050000D02*
X110000000Y-76812500D01*
X105000000Y-81050000D02*
X105762500Y-81050000D01*
X113000000Y-76812500D02*
X110000000Y-76812500D01*
D34*
X105000000Y-81050000D02*
X105000000Y-91700000D01*
D33*
%TO.N,Net-(C23-Pad1)*%
X109437500Y-73687500D02*
X105000000Y-69250000D01*
X110000000Y-73687500D02*
X109437500Y-73687500D01*
X110000000Y-73687500D02*
X113000000Y-73687500D01*
D34*
X111000000Y-91250000D02*
X111550000Y-91250000D01*
X122450000Y-102700000D02*
X111000000Y-91250000D01*
X123000000Y-102700000D02*
X122450000Y-102700000D01*
%TD*%
D36*
%TO.N,gnd*%
X177617561Y-51645190D02*
X177503198Y-52022191D01*
X177464583Y-52414260D01*
X177464583Y-58413740D01*
X177503198Y-58805809D01*
X177617561Y-59182810D01*
X177803275Y-59530257D01*
X177967478Y-59730339D01*
X177664197Y-60184232D01*
X177422975Y-60766595D01*
X177300000Y-61384828D01*
X177300000Y-62015172D01*
X177422975Y-62633405D01*
X177664197Y-63215768D01*
X178014398Y-63739881D01*
X178460119Y-64185602D01*
X178984232Y-64535803D01*
X179566595Y-64777025D01*
X180184828Y-64900000D01*
X180815172Y-64900000D01*
X181433405Y-64777025D01*
X182015768Y-64535803D01*
X182539881Y-64185602D01*
X182985602Y-63739881D01*
X183335803Y-63215768D01*
X183577025Y-62633405D01*
X183700000Y-62015172D01*
X183700000Y-61384828D01*
X183577025Y-60766595D01*
X183434876Y-60423417D01*
X185473740Y-60423417D01*
X185865809Y-60384802D01*
X186242810Y-60270439D01*
X186590257Y-60084725D01*
X186894796Y-59834796D01*
X187144725Y-59530257D01*
X187330439Y-59182810D01*
X187444802Y-58805809D01*
X187483417Y-58413740D01*
X187483417Y-52414260D01*
X187444802Y-52022191D01*
X187330439Y-51645190D01*
X187266196Y-51525000D01*
X198475000Y-51525000D01*
X198475001Y-135779601D01*
X198365497Y-135229088D01*
X198101660Y-134592128D01*
X197718628Y-134018880D01*
X197231120Y-133531372D01*
X196657872Y-133148340D01*
X196343040Y-133017933D01*
X196426802Y-132992524D01*
X196687387Y-132853238D01*
X196915792Y-132665792D01*
X197103238Y-132437387D01*
X197242524Y-132176802D01*
X197328295Y-131894051D01*
X197357257Y-131600000D01*
X197357257Y-129900000D01*
X197328295Y-129605949D01*
X197242524Y-129323198D01*
X197103238Y-129062613D01*
X196915792Y-128834208D01*
X196687387Y-128646762D01*
X196426802Y-128507476D01*
X196144051Y-128421705D01*
X195850000Y-128392743D01*
X194150000Y-128392743D01*
X193855949Y-128421705D01*
X193573198Y-128507476D01*
X193312613Y-128646762D01*
X193084208Y-128834208D01*
X192896762Y-129062613D01*
X192757476Y-129323198D01*
X192671705Y-129605949D01*
X192642743Y-129900000D01*
X192642743Y-131600000D01*
X192671705Y-131894051D01*
X192757476Y-132176802D01*
X192896762Y-132437387D01*
X193084208Y-132665792D01*
X193312613Y-132853238D01*
X193573198Y-132992524D01*
X193656960Y-133017933D01*
X193342128Y-133148340D01*
X192768880Y-133531372D01*
X192281372Y-134018880D01*
X191898340Y-134592128D01*
X191634503Y-135229088D01*
X191500000Y-135905280D01*
X191500000Y-136594720D01*
X191634503Y-137270912D01*
X191898340Y-137907872D01*
X192281372Y-138481120D01*
X192768880Y-138968628D01*
X193152568Y-139225000D01*
X187900000Y-139225000D01*
X187900000Y-139062866D01*
X187826984Y-138695791D01*
X187683758Y-138350013D01*
X187591378Y-138211756D01*
X187805792Y-138035792D01*
X187993238Y-137807387D01*
X188132524Y-137546802D01*
X188218295Y-137264051D01*
X188247257Y-136970000D01*
X188247257Y-135370000D01*
X188218295Y-135075949D01*
X188132524Y-134793198D01*
X187993238Y-134532613D01*
X187805792Y-134304208D01*
X187577387Y-134116762D01*
X187316802Y-133977476D01*
X187034051Y-133891705D01*
X186740000Y-133862743D01*
X185140000Y-133862743D01*
X184845949Y-133891705D01*
X184563198Y-133977476D01*
X184302613Y-134116762D01*
X184074208Y-134304208D01*
X183886762Y-134532613D01*
X183747476Y-134793198D01*
X183661705Y-135075949D01*
X183632743Y-135370000D01*
X183632743Y-136970000D01*
X183661705Y-137264051D01*
X183747476Y-137546802D01*
X183886762Y-137807387D01*
X184074208Y-138035792D01*
X184302613Y-138223238D01*
X184375072Y-138261968D01*
X184316242Y-138350013D01*
X184173016Y-138695791D01*
X184100000Y-139062866D01*
X184100000Y-139225000D01*
X160981336Y-139225000D01*
X161053238Y-139137387D01*
X161192524Y-138876802D01*
X161278295Y-138594051D01*
X161307257Y-138300000D01*
X161307257Y-136700000D01*
X161278295Y-136405949D01*
X161192524Y-136123198D01*
X161053238Y-135862613D01*
X160865792Y-135634208D01*
X160637387Y-135446762D01*
X160376802Y-135307476D01*
X160094051Y-135221705D01*
X159800000Y-135192743D01*
X158200000Y-135192743D01*
X157905949Y-135221705D01*
X157623198Y-135307476D01*
X157362613Y-135446762D01*
X157134208Y-135634208D01*
X156946762Y-135862613D01*
X156807476Y-136123198D01*
X156721705Y-136405949D01*
X156692743Y-136700000D01*
X156692743Y-138300000D01*
X156721705Y-138594051D01*
X156807476Y-138876802D01*
X156946762Y-139137387D01*
X157018664Y-139225000D01*
X144981336Y-139225000D01*
X145053238Y-139137387D01*
X145192524Y-138876802D01*
X145278295Y-138594051D01*
X145307257Y-138300000D01*
X145307257Y-136700000D01*
X145278295Y-136405949D01*
X145192524Y-136123198D01*
X145053238Y-135862613D01*
X144865792Y-135634208D01*
X144637387Y-135446762D01*
X144376802Y-135307476D01*
X144094051Y-135221705D01*
X143800000Y-135192743D01*
X142200000Y-135192743D01*
X141905949Y-135221705D01*
X141623198Y-135307476D01*
X141362613Y-135446762D01*
X141134208Y-135634208D01*
X140946762Y-135862613D01*
X140807476Y-136123198D01*
X140721705Y-136405949D01*
X140692743Y-136700000D01*
X140692743Y-138300000D01*
X140721705Y-138594051D01*
X140807476Y-138876802D01*
X140946762Y-139137387D01*
X141018664Y-139225000D01*
X101525000Y-139225000D01*
X101525000Y-135184828D01*
X101980000Y-135184828D01*
X101980000Y-135815172D01*
X102102975Y-136433405D01*
X102344197Y-137015768D01*
X102694398Y-137539881D01*
X103140119Y-137985602D01*
X103664232Y-138335803D01*
X104246595Y-138577025D01*
X104864828Y-138700000D01*
X105495172Y-138700000D01*
X106113405Y-138577025D01*
X106695768Y-138335803D01*
X107219881Y-137985602D01*
X107665602Y-137539881D01*
X108015803Y-137015768D01*
X108257025Y-136433405D01*
X108380000Y-135815172D01*
X108380000Y-135234073D01*
X122800000Y-135234073D01*
X122800000Y-135765927D01*
X122903760Y-136287561D01*
X123107291Y-136778930D01*
X123402773Y-137221150D01*
X123778850Y-137597227D01*
X124221070Y-137892709D01*
X124712439Y-138096240D01*
X125234073Y-138200000D01*
X125765927Y-138200000D01*
X126287561Y-138096240D01*
X126778930Y-137892709D01*
X127221150Y-137597227D01*
X127597227Y-137221150D01*
X127892709Y-136778930D01*
X128096240Y-136287561D01*
X128200000Y-135765927D01*
X128200000Y-135234073D01*
X128096240Y-134712439D01*
X127892709Y-134221070D01*
X127597227Y-133778850D01*
X127221150Y-133402773D01*
X126778930Y-133107291D01*
X126287561Y-132903760D01*
X125765927Y-132800000D01*
X125234073Y-132800000D01*
X124712439Y-132903760D01*
X124221070Y-133107291D01*
X123778850Y-133402773D01*
X123402773Y-133778850D01*
X123107291Y-134221070D01*
X122903760Y-134712439D01*
X122800000Y-135234073D01*
X108380000Y-135234073D01*
X108380000Y-135184828D01*
X108257025Y-134566595D01*
X108015803Y-133984232D01*
X107665602Y-133460119D01*
X107219881Y-133014398D01*
X106695768Y-132664197D01*
X106113405Y-132422975D01*
X105495172Y-132300000D01*
X104864828Y-132300000D01*
X104246595Y-132422975D01*
X103664232Y-132664197D01*
X103140119Y-133014398D01*
X102694398Y-133460119D01*
X102344197Y-133984232D01*
X102102975Y-134566595D01*
X101980000Y-135184828D01*
X101525000Y-135184828D01*
X101525000Y-129500000D01*
X110485485Y-129500000D01*
X110543408Y-130088103D01*
X110714951Y-130653605D01*
X110993522Y-131174775D01*
X111368416Y-131631584D01*
X111825225Y-132006478D01*
X112346395Y-132285049D01*
X112911897Y-132456592D01*
X113352627Y-132500000D01*
X127352627Y-132500000D01*
X127500000Y-132514515D01*
X127647373Y-132500000D01*
X128088103Y-132456592D01*
X128653605Y-132285049D01*
X129174775Y-132006478D01*
X129631584Y-131631584D01*
X129725537Y-131517102D01*
X134469170Y-126773470D01*
X141160000Y-126773470D01*
X141160000Y-127226530D01*
X141248387Y-127670885D01*
X141421766Y-128089459D01*
X141673473Y-128466165D01*
X141993835Y-128786527D01*
X142370541Y-129038234D01*
X142789115Y-129211613D01*
X143233470Y-129300000D01*
X143686530Y-129300000D01*
X144130885Y-129211613D01*
X144549459Y-129038234D01*
X144730000Y-128917600D01*
X144910541Y-129038234D01*
X145329115Y-129211613D01*
X145773470Y-129300000D01*
X146226530Y-129300000D01*
X146670885Y-129211613D01*
X147089459Y-129038234D01*
X147466165Y-128786527D01*
X147730000Y-128522692D01*
X147993835Y-128786527D01*
X148370541Y-129038234D01*
X148789115Y-129211613D01*
X149233470Y-129300000D01*
X149686530Y-129300000D01*
X150130885Y-129211613D01*
X150549459Y-129038234D01*
X150730000Y-128917600D01*
X150910541Y-129038234D01*
X151329115Y-129211613D01*
X151773470Y-129300000D01*
X152226530Y-129300000D01*
X152670885Y-129211613D01*
X153089459Y-129038234D01*
X153466165Y-128786527D01*
X153786527Y-128466165D01*
X154038234Y-128089459D01*
X154211613Y-127670885D01*
X154300000Y-127226530D01*
X154300000Y-126773470D01*
X154211613Y-126329115D01*
X154038234Y-125910541D01*
X153786527Y-125533835D01*
X153466165Y-125213473D01*
X153089459Y-124961766D01*
X152670885Y-124788387D01*
X152226530Y-124700000D01*
X151773470Y-124700000D01*
X151329115Y-124788387D01*
X150910541Y-124961766D01*
X150730000Y-125082400D01*
X150549459Y-124961766D01*
X150130885Y-124788387D01*
X149686530Y-124700000D01*
X149233470Y-124700000D01*
X148789115Y-124788387D01*
X148370541Y-124961766D01*
X147993835Y-125213473D01*
X147730000Y-125477308D01*
X147466165Y-125213473D01*
X147089459Y-124961766D01*
X146670885Y-124788387D01*
X146226530Y-124700000D01*
X145773470Y-124700000D01*
X145329115Y-124788387D01*
X144910541Y-124961766D01*
X144730000Y-125082400D01*
X144549459Y-124961766D01*
X144130885Y-124788387D01*
X143686530Y-124700000D01*
X143233470Y-124700000D01*
X142789115Y-124788387D01*
X142370541Y-124961766D01*
X141993835Y-125213473D01*
X141673473Y-125533835D01*
X141421766Y-125910541D01*
X141248387Y-126329115D01*
X141160000Y-126773470D01*
X134469170Y-126773470D01*
X136225528Y-125017113D01*
X136506477Y-124674775D01*
X136785048Y-124153606D01*
X136956592Y-123588103D01*
X137014514Y-123000001D01*
X136956592Y-122411898D01*
X136785048Y-121846395D01*
X136706799Y-121700000D01*
X157442743Y-121700000D01*
X157442743Y-123300000D01*
X157471705Y-123594051D01*
X157557476Y-123876802D01*
X157696762Y-124137387D01*
X157884208Y-124365792D01*
X158112613Y-124553238D01*
X158373198Y-124692524D01*
X158655949Y-124778295D01*
X158950000Y-124807257D01*
X160550000Y-124807257D01*
X160844051Y-124778295D01*
X161126802Y-124692524D01*
X161387387Y-124553238D01*
X161615792Y-124365792D01*
X161803238Y-124137387D01*
X161942524Y-123876802D01*
X162028295Y-123594051D01*
X162057257Y-123300000D01*
X162057257Y-123021169D01*
X163908427Y-121170000D01*
X172848142Y-121170000D01*
X172728387Y-121459115D01*
X172640000Y-121903470D01*
X172640000Y-122356530D01*
X172728387Y-122800885D01*
X172901766Y-123219459D01*
X173022400Y-123400000D01*
X172901766Y-123580541D01*
X172728387Y-123999115D01*
X172640000Y-124443470D01*
X172640000Y-124896530D01*
X172728387Y-125340885D01*
X172901766Y-125759459D01*
X173153473Y-126136165D01*
X173473835Y-126456527D01*
X173850541Y-126708234D01*
X174269115Y-126881613D01*
X174481306Y-126923820D01*
X167731127Y-133674000D01*
X167466065Y-133674000D01*
X167440131Y-133663258D01*
X164845294Y-131068421D01*
X164889615Y-131002091D01*
X165055455Y-130601716D01*
X165140000Y-130176681D01*
X165140000Y-129743319D01*
X165055455Y-129318284D01*
X164889615Y-128917909D01*
X164737331Y-128690000D01*
X164889615Y-128462091D01*
X165055455Y-128061716D01*
X165140000Y-127636681D01*
X165140000Y-127203319D01*
X165055455Y-126778284D01*
X164889615Y-126377909D01*
X164648852Y-126017582D01*
X164342418Y-125711148D01*
X163982091Y-125470385D01*
X163581716Y-125304545D01*
X163156681Y-125220000D01*
X162723319Y-125220000D01*
X162298284Y-125304545D01*
X161897909Y-125470385D01*
X161537582Y-125711148D01*
X161231148Y-126017582D01*
X160990385Y-126377909D01*
X160824545Y-126778284D01*
X160740000Y-127203319D01*
X160740000Y-127636681D01*
X160824545Y-128061716D01*
X160990385Y-128462091D01*
X161142669Y-128690000D01*
X160990385Y-128917909D01*
X160824545Y-129318284D01*
X160740000Y-129743319D01*
X160740000Y-130176681D01*
X160824545Y-130601716D01*
X160990385Y-131002091D01*
X161190000Y-131300836D01*
X161190000Y-131552035D01*
X161181533Y-131638000D01*
X161190000Y-131723965D01*
X161190000Y-131723968D01*
X161215322Y-131981060D01*
X161248689Y-132091056D01*
X161315389Y-132310936D01*
X161477888Y-132614952D01*
X161588720Y-132750000D01*
X161696577Y-132881424D01*
X161763351Y-132936224D01*
X164965258Y-136138131D01*
X165042242Y-136323987D01*
X165250174Y-136635179D01*
X165514821Y-136899826D01*
X165826013Y-137107758D01*
X166171791Y-137250984D01*
X166538866Y-137324000D01*
X166913134Y-137324000D01*
X167280209Y-137250984D01*
X167466065Y-137174000D01*
X168370035Y-137174000D01*
X168456000Y-137182467D01*
X168541965Y-137174000D01*
X168541968Y-137174000D01*
X168799060Y-137148679D01*
X169128936Y-137048612D01*
X169432952Y-136886112D01*
X169699424Y-136667424D01*
X169754229Y-136600644D01*
X178134874Y-128220000D01*
X178186530Y-128220000D01*
X178630885Y-128131613D01*
X179049459Y-127958234D01*
X179230000Y-127837600D01*
X179410541Y-127958234D01*
X179829115Y-128131613D01*
X180273470Y-128220000D01*
X180726530Y-128220000D01*
X180837984Y-128197831D01*
X181019015Y-128536517D01*
X181268944Y-128841056D01*
X181345265Y-128903691D01*
X183714961Y-131273388D01*
X183728387Y-131340885D01*
X183901766Y-131759459D01*
X184153473Y-132136165D01*
X184473835Y-132456527D01*
X184850541Y-132708234D01*
X185269115Y-132881613D01*
X185713470Y-132970000D01*
X186166530Y-132970000D01*
X186610885Y-132881613D01*
X187029459Y-132708234D01*
X187406165Y-132456527D01*
X187726527Y-132136165D01*
X187978234Y-131759459D01*
X188151613Y-131340885D01*
X188240000Y-130896530D01*
X188240000Y-130443470D01*
X188151613Y-129999115D01*
X187978234Y-129580541D01*
X187726527Y-129203835D01*
X187406165Y-128883473D01*
X187029459Y-128631766D01*
X186610885Y-128458387D01*
X186543388Y-128444961D01*
X184690000Y-126591574D01*
X184690000Y-123124468D01*
X185030930Y-123306699D01*
X185407931Y-123421062D01*
X185800000Y-123459677D01*
X188200000Y-123459677D01*
X188592069Y-123421062D01*
X188969070Y-123306699D01*
X189316517Y-123120985D01*
X189621056Y-122871056D01*
X189870985Y-122566517D01*
X190056699Y-122219070D01*
X190171062Y-121842069D01*
X190209677Y-121450000D01*
X190209677Y-119050000D01*
X190171062Y-118657931D01*
X190056699Y-118280930D01*
X189870985Y-117933483D01*
X189621056Y-117628944D01*
X189316517Y-117379015D01*
X188969070Y-117193301D01*
X188592069Y-117078938D01*
X188200000Y-117040323D01*
X185800000Y-117040323D01*
X185407931Y-117078938D01*
X185030930Y-117193301D01*
X184683483Y-117379015D01*
X184378944Y-117628944D01*
X184129015Y-117933483D01*
X183943301Y-118280930D01*
X183828938Y-118657931D01*
X183800016Y-118951589D01*
X182673691Y-117825265D01*
X182611056Y-117748944D01*
X182306517Y-117499015D01*
X181959070Y-117313301D01*
X181582069Y-117198938D01*
X181288253Y-117170000D01*
X181288243Y-117170000D01*
X181190000Y-117160324D01*
X181091757Y-117170000D01*
X163178242Y-117170000D01*
X163079999Y-117160324D01*
X162981756Y-117170000D01*
X162981747Y-117170000D01*
X162687931Y-117198938D01*
X162310930Y-117313301D01*
X161963483Y-117499015D01*
X161658944Y-117748944D01*
X161596313Y-117825260D01*
X159228831Y-120192743D01*
X158950000Y-120192743D01*
X158655949Y-120221705D01*
X158373198Y-120307476D01*
X158112613Y-120446762D01*
X157884208Y-120634208D01*
X157696762Y-120862613D01*
X157557476Y-121123198D01*
X157471705Y-121405949D01*
X157442743Y-121700000D01*
X136706799Y-121700000D01*
X136506477Y-121325226D01*
X136131583Y-120868417D01*
X135674774Y-120493523D01*
X135153605Y-120214952D01*
X134588102Y-120043408D01*
X133999999Y-119985486D01*
X133411897Y-120043408D01*
X132846394Y-120214952D01*
X132325225Y-120493523D01*
X131982887Y-120774472D01*
X126257361Y-126500000D01*
X113352627Y-126500000D01*
X112911897Y-126543408D01*
X112346395Y-126714951D01*
X111825225Y-126993522D01*
X111368416Y-127368416D01*
X110993522Y-127825225D01*
X110714951Y-128346395D01*
X110543408Y-128911897D01*
X110485485Y-129500000D01*
X101525000Y-129500000D01*
X101525000Y-127195566D01*
X101608191Y-127220802D01*
X102000260Y-127259417D01*
X107999740Y-127259417D01*
X108391809Y-127220802D01*
X108768810Y-127106439D01*
X109116257Y-126920725D01*
X109420796Y-126670796D01*
X109670725Y-126366257D01*
X109856439Y-126018810D01*
X109970802Y-125641809D01*
X110009417Y-125249740D01*
X110009417Y-122398504D01*
X110023723Y-122412811D01*
X110050642Y-122686120D01*
X110250776Y-123345872D01*
X110575776Y-123953904D01*
X111013152Y-124486848D01*
X111546096Y-124924224D01*
X112154128Y-125249224D01*
X112813880Y-125449358D01*
X113500000Y-125516935D01*
X114186120Y-125449358D01*
X114845872Y-125249224D01*
X115453904Y-124924224D01*
X115853290Y-124596456D01*
X123090071Y-117359677D01*
X125500000Y-117359677D01*
X125892069Y-117321062D01*
X126250000Y-117212484D01*
X126250000Y-117320097D01*
X126374896Y-117947990D01*
X126619888Y-118539452D01*
X126975560Y-119071754D01*
X127428246Y-119524440D01*
X127960548Y-119880112D01*
X128552010Y-120125104D01*
X129179903Y-120250000D01*
X129820097Y-120250000D01*
X130447990Y-120125104D01*
X131039452Y-119880112D01*
X131571754Y-119524440D01*
X132024440Y-119071754D01*
X132380112Y-118539452D01*
X132625104Y-117947990D01*
X132750000Y-117320097D01*
X132750000Y-116679903D01*
X132625104Y-116052010D01*
X132380112Y-115460548D01*
X132024440Y-114928246D01*
X131571754Y-114475560D01*
X131039452Y-114119888D01*
X130447990Y-113874896D01*
X129820097Y-113750000D01*
X129179903Y-113750000D01*
X128552010Y-113874896D01*
X127960548Y-114119888D01*
X127509677Y-114421150D01*
X127509677Y-112250000D01*
X127471062Y-111857931D01*
X127356699Y-111480930D01*
X127170985Y-111133483D01*
X126921056Y-110828944D01*
X126616517Y-110579015D01*
X126269070Y-110393301D01*
X125892069Y-110278938D01*
X125500000Y-110240323D01*
X120500000Y-110240323D01*
X120107931Y-110278938D01*
X119730930Y-110393301D01*
X119383483Y-110579015D01*
X119078944Y-110828944D01*
X118829015Y-111133483D01*
X118643301Y-111480930D01*
X118528938Y-111857931D01*
X118511088Y-112039164D01*
X116474404Y-114075848D01*
X116384712Y-113624932D01*
X116158566Y-113078967D01*
X115830252Y-112587611D01*
X115412389Y-112169748D01*
X114921033Y-111841434D01*
X114375068Y-111615288D01*
X113795474Y-111500000D01*
X113204526Y-111500000D01*
X112624932Y-111615288D01*
X112078967Y-111841434D01*
X111935194Y-111937500D01*
X109795537Y-111937500D01*
X109807603Y-111908370D01*
X109999740Y-110942431D01*
X109999740Y-109957569D01*
X109807603Y-108991630D01*
X109430712Y-108081735D01*
X108883552Y-107262851D01*
X108500000Y-106879299D01*
X108500000Y-106083265D01*
X108616517Y-106020985D01*
X108921056Y-105771056D01*
X109170985Y-105466517D01*
X109356699Y-105119070D01*
X109471062Y-104742069D01*
X109509677Y-104350000D01*
X109509677Y-104204526D01*
X110500000Y-104204526D01*
X110500000Y-104795474D01*
X110615288Y-105375068D01*
X110841434Y-105921033D01*
X111169748Y-106412389D01*
X111587611Y-106830252D01*
X112078967Y-107158566D01*
X112624932Y-107384712D01*
X113204526Y-107500000D01*
X113795474Y-107500000D01*
X114375068Y-107384712D01*
X114921033Y-107158566D01*
X115412389Y-106830252D01*
X115830252Y-106412389D01*
X116158566Y-105921033D01*
X116384712Y-105375068D01*
X116500000Y-104795474D01*
X116500000Y-104204526D01*
X116384712Y-103624932D01*
X116158566Y-103078967D01*
X115830252Y-102587611D01*
X115412389Y-102169748D01*
X114921033Y-101841434D01*
X114375068Y-101615288D01*
X113795474Y-101500000D01*
X113204526Y-101500000D01*
X112624932Y-101615288D01*
X112078967Y-101841434D01*
X111587611Y-102169748D01*
X111169748Y-102587611D01*
X110841434Y-103078967D01*
X110615288Y-103624932D01*
X110500000Y-104204526D01*
X109509677Y-104204526D01*
X109509677Y-101250000D01*
X109471062Y-100857931D01*
X109356699Y-100480930D01*
X109170985Y-100133483D01*
X108921056Y-99828944D01*
X108616517Y-99579015D01*
X108269070Y-99393301D01*
X107892069Y-99278938D01*
X107500000Y-99240323D01*
X102500000Y-99240323D01*
X102107931Y-99278938D01*
X101730930Y-99393301D01*
X101525000Y-99503373D01*
X101525000Y-94390303D01*
X101662613Y-94503238D01*
X101923198Y-94642524D01*
X102205949Y-94728295D01*
X102500000Y-94757257D01*
X107500000Y-94757257D01*
X107794051Y-94728295D01*
X108076802Y-94642524D01*
X108337387Y-94503238D01*
X108565792Y-94315792D01*
X108753238Y-94087387D01*
X108892524Y-93826802D01*
X108978295Y-93544051D01*
X108984851Y-93477490D01*
X118992743Y-103485384D01*
X118992743Y-104250000D01*
X119021705Y-104544051D01*
X119107476Y-104826802D01*
X119246762Y-105087387D01*
X119434208Y-105315792D01*
X119662613Y-105503238D01*
X119923198Y-105642524D01*
X120205949Y-105728295D01*
X120500000Y-105757257D01*
X125500000Y-105757257D01*
X125794051Y-105728295D01*
X126076802Y-105642524D01*
X126337387Y-105503238D01*
X126565792Y-105315792D01*
X126753238Y-105087387D01*
X126892524Y-104826802D01*
X126978295Y-104544051D01*
X127007257Y-104250000D01*
X127007257Y-101150000D01*
X126978295Y-100855949D01*
X126892524Y-100573198D01*
X126753238Y-100312613D01*
X126565792Y-100084208D01*
X126337387Y-99896762D01*
X126076802Y-99757476D01*
X125794051Y-99671705D01*
X125500000Y-99642743D01*
X123635384Y-99642743D01*
X121532641Y-97540000D01*
X139488134Y-97540000D01*
X139535486Y-98020774D01*
X139675723Y-98483072D01*
X139903455Y-98909128D01*
X140209930Y-99282570D01*
X140583372Y-99589045D01*
X141009428Y-99816777D01*
X141471726Y-99957014D01*
X141832022Y-99992500D01*
X142167978Y-99992500D01*
X142528274Y-99957014D01*
X142990572Y-99816777D01*
X143416628Y-99589045D01*
X143790070Y-99282570D01*
X144096545Y-98909128D01*
X144324277Y-98483072D01*
X144464514Y-98020774D01*
X144511866Y-97540000D01*
X144464514Y-97059226D01*
X144446548Y-97000000D01*
X146671574Y-97000000D01*
X151600001Y-101928429D01*
X151600000Y-108948252D01*
X151628938Y-109242068D01*
X151743301Y-109619069D01*
X151929015Y-109966517D01*
X152178944Y-110271056D01*
X152483483Y-110520985D01*
X152830930Y-110706699D01*
X153207931Y-110821062D01*
X153600000Y-110859677D01*
X153992068Y-110821062D01*
X154369069Y-110706699D01*
X154716517Y-110520985D01*
X155021056Y-110271056D01*
X155270985Y-109966517D01*
X155456699Y-109619070D01*
X155571062Y-109242069D01*
X155600000Y-108948253D01*
X155600000Y-108233669D01*
X155933470Y-108300000D01*
X156386530Y-108300000D01*
X156830885Y-108211613D01*
X157249459Y-108038234D01*
X157626165Y-107786527D01*
X157946527Y-107466165D01*
X158198234Y-107089459D01*
X158371613Y-106670885D01*
X158460000Y-106226530D01*
X158460000Y-105773470D01*
X158371613Y-105329115D01*
X158198234Y-104910541D01*
X157946527Y-104533835D01*
X157626165Y-104213473D01*
X157249459Y-103961766D01*
X156830885Y-103788387D01*
X156386530Y-103700000D01*
X155933470Y-103700000D01*
X155600000Y-103766331D01*
X155600000Y-102050000D01*
X183790323Y-102050000D01*
X183790323Y-104450000D01*
X183828938Y-104842069D01*
X183943301Y-105219070D01*
X184129015Y-105566517D01*
X184378944Y-105871056D01*
X184683483Y-106120985D01*
X185030930Y-106306699D01*
X185407931Y-106421062D01*
X185800000Y-106459677D01*
X188200000Y-106459677D01*
X188592069Y-106421062D01*
X188969070Y-106306699D01*
X189316517Y-106120985D01*
X189621056Y-105871056D01*
X189870985Y-105566517D01*
X190056699Y-105219070D01*
X190171062Y-104842069D01*
X190209677Y-104450000D01*
X190209677Y-102050000D01*
X190171062Y-101657931D01*
X190056699Y-101280930D01*
X189870985Y-100933483D01*
X189621056Y-100628944D01*
X189316517Y-100379015D01*
X188969070Y-100193301D01*
X188592069Y-100078938D01*
X188200000Y-100040323D01*
X185800000Y-100040323D01*
X185407931Y-100078938D01*
X185030930Y-100193301D01*
X184683483Y-100379015D01*
X184378944Y-100628944D01*
X184129015Y-100933483D01*
X183943301Y-101280930D01*
X183828938Y-101657931D01*
X183790323Y-102050000D01*
X155600000Y-102050000D01*
X155600000Y-101198243D01*
X155609676Y-101100000D01*
X155600000Y-101001757D01*
X155600000Y-101001747D01*
X155571062Y-100707931D01*
X155456699Y-100330930D01*
X155383135Y-100193301D01*
X155270986Y-99983483D01*
X155083689Y-99755261D01*
X155083682Y-99755254D01*
X155021056Y-99678944D01*
X154944745Y-99616317D01*
X152548331Y-97219903D01*
X155410000Y-97219903D01*
X155410000Y-97860097D01*
X155534896Y-98487990D01*
X155779888Y-99079452D01*
X156135560Y-99611754D01*
X156588246Y-100064440D01*
X157120548Y-100420112D01*
X157712010Y-100665104D01*
X158339903Y-100790000D01*
X158980097Y-100790000D01*
X159607990Y-100665104D01*
X160199452Y-100420112D01*
X160731754Y-100064440D01*
X161184440Y-99611754D01*
X161540112Y-99079452D01*
X161785104Y-98487990D01*
X161910000Y-97860097D01*
X161910000Y-97219903D01*
X161901113Y-97175224D01*
X162200000Y-97175224D01*
X162200000Y-97726776D01*
X162307602Y-98267730D01*
X162518672Y-98777297D01*
X162825098Y-99235896D01*
X163215104Y-99625902D01*
X163673703Y-99932328D01*
X164183270Y-100143398D01*
X164724224Y-100251000D01*
X165275776Y-100251000D01*
X165816730Y-100143398D01*
X166326297Y-99932328D01*
X166784896Y-99625902D01*
X167174902Y-99235896D01*
X167481328Y-98777297D01*
X167692398Y-98267730D01*
X167800000Y-97726776D01*
X167800000Y-97175224D01*
X167692398Y-96634270D01*
X167481328Y-96124703D01*
X167174902Y-95666104D01*
X166784896Y-95276098D01*
X166326297Y-94969672D01*
X165816730Y-94758602D01*
X165275776Y-94651000D01*
X164724224Y-94651000D01*
X164183270Y-94758602D01*
X163673703Y-94969672D01*
X163215104Y-95276098D01*
X162825098Y-95666104D01*
X162518672Y-96124703D01*
X162307602Y-96634270D01*
X162200000Y-97175224D01*
X161901113Y-97175224D01*
X161785104Y-96592010D01*
X161540112Y-96000548D01*
X161184440Y-95468246D01*
X160731754Y-95015560D01*
X160199452Y-94659888D01*
X159607990Y-94414896D01*
X158980097Y-94290000D01*
X158339903Y-94290000D01*
X157712010Y-94414896D01*
X157120548Y-94659888D01*
X156588246Y-95015560D01*
X156135560Y-95468246D01*
X155779888Y-96000548D01*
X155534896Y-96592010D01*
X155410000Y-97219903D01*
X152548331Y-97219903D01*
X148983691Y-93655265D01*
X148921056Y-93578944D01*
X148616517Y-93329015D01*
X148269070Y-93143301D01*
X147892069Y-93028938D01*
X147598253Y-93000000D01*
X147598243Y-93000000D01*
X147500000Y-92990324D01*
X147401757Y-93000000D01*
X144080804Y-93000000D01*
X144065792Y-92981708D01*
X143837387Y-92794262D01*
X143576802Y-92654976D01*
X143294051Y-92569205D01*
X143000000Y-92540243D01*
X141000000Y-92540243D01*
X140705949Y-92569205D01*
X140423198Y-92654976D01*
X140162613Y-92794262D01*
X139934208Y-92981708D01*
X139746762Y-93210113D01*
X139607476Y-93470698D01*
X139521705Y-93753449D01*
X139492743Y-94047500D01*
X139492743Y-95952500D01*
X139521705Y-96246551D01*
X139607476Y-96529302D01*
X139664101Y-96635240D01*
X139535486Y-97059226D01*
X139488134Y-97540000D01*
X121532641Y-97540000D01*
X116169445Y-92176806D01*
X116361460Y-92215000D01*
X116878540Y-92215000D01*
X117385684Y-92114122D01*
X117863404Y-91916245D01*
X118293340Y-91628970D01*
X118525000Y-91397310D01*
X118756660Y-91628970D01*
X119186596Y-91916245D01*
X119664316Y-92114122D01*
X120171460Y-92215000D01*
X120688540Y-92215000D01*
X121195684Y-92114122D01*
X121673404Y-91916245D01*
X122103340Y-91628970D01*
X122335000Y-91397310D01*
X122566660Y-91628970D01*
X122996596Y-91916245D01*
X123474316Y-92114122D01*
X123981460Y-92215000D01*
X124498540Y-92215000D01*
X125005684Y-92114122D01*
X125483404Y-91916245D01*
X125913340Y-91628970D01*
X126278970Y-91263340D01*
X126566245Y-90833404D01*
X126764122Y-90355684D01*
X126780000Y-90275861D01*
X126795878Y-90355684D01*
X126993755Y-90833404D01*
X127281030Y-91263340D01*
X127646660Y-91628970D01*
X128076596Y-91916245D01*
X128554316Y-92114122D01*
X129061460Y-92215000D01*
X129578540Y-92215000D01*
X130085684Y-92114122D01*
X130563404Y-91916245D01*
X130993340Y-91628970D01*
X131225000Y-91397310D01*
X131456660Y-91628970D01*
X131886596Y-91916245D01*
X132364316Y-92114122D01*
X132871460Y-92215000D01*
X133388540Y-92215000D01*
X133895684Y-92114122D01*
X134373404Y-91916245D01*
X134803340Y-91628970D01*
X135035000Y-91397310D01*
X135266660Y-91628970D01*
X135696596Y-91916245D01*
X136174316Y-92114122D01*
X136681460Y-92215000D01*
X137198540Y-92215000D01*
X137705684Y-92114122D01*
X138183404Y-91916245D01*
X138613340Y-91628970D01*
X138978970Y-91263340D01*
X139266245Y-90833404D01*
X139464122Y-90355684D01*
X139565000Y-89848540D01*
X139565000Y-89331460D01*
X139464122Y-88824316D01*
X139266245Y-88346596D01*
X138978970Y-87916660D01*
X138613340Y-87551030D01*
X138183404Y-87263755D01*
X137705684Y-87065878D01*
X137198540Y-86965000D01*
X136681460Y-86965000D01*
X136174316Y-87065878D01*
X135696596Y-87263755D01*
X135266660Y-87551030D01*
X135035000Y-87782690D01*
X134803340Y-87551030D01*
X134373404Y-87263755D01*
X133895684Y-87065878D01*
X133388540Y-86965000D01*
X132871460Y-86965000D01*
X132364316Y-87065878D01*
X131886596Y-87263755D01*
X131456660Y-87551030D01*
X131225000Y-87782690D01*
X130993340Y-87551030D01*
X130563404Y-87263755D01*
X130085684Y-87065878D01*
X129578540Y-86965000D01*
X129061460Y-86965000D01*
X128554316Y-87065878D01*
X128076596Y-87263755D01*
X127646660Y-87551030D01*
X127281030Y-87916660D01*
X126993755Y-88346596D01*
X126795878Y-88824316D01*
X126780000Y-88904139D01*
X126764122Y-88824316D01*
X126566245Y-88346596D01*
X126278970Y-87916660D01*
X125913340Y-87551030D01*
X125483404Y-87263755D01*
X125005684Y-87065878D01*
X124498540Y-86965000D01*
X123981460Y-86965000D01*
X123474316Y-87065878D01*
X122996596Y-87263755D01*
X122566660Y-87551030D01*
X122335000Y-87782690D01*
X122103340Y-87551030D01*
X121673404Y-87263755D01*
X121195684Y-87065878D01*
X120688540Y-86965000D01*
X120171460Y-86965000D01*
X119664316Y-87065878D01*
X119186596Y-87263755D01*
X118756660Y-87551030D01*
X118525000Y-87782690D01*
X118293340Y-87551030D01*
X117863404Y-87263755D01*
X117385684Y-87065878D01*
X116878540Y-86965000D01*
X116361460Y-86965000D01*
X115854316Y-87065878D01*
X115376596Y-87263755D01*
X114946660Y-87551030D01*
X114581030Y-87916660D01*
X114293755Y-88346596D01*
X114095878Y-88824316D01*
X113995000Y-89331460D01*
X113995000Y-89500314D01*
X113681584Y-89118416D01*
X113224775Y-88743522D01*
X112703605Y-88464951D01*
X112138103Y-88293408D01*
X111697373Y-88250000D01*
X111147373Y-88250000D01*
X111000000Y-88235485D01*
X110852627Y-88250000D01*
X110411897Y-88293408D01*
X109846395Y-88464951D01*
X109325225Y-88743522D01*
X108868416Y-89118416D01*
X108731140Y-89285687D01*
X108565792Y-89084208D01*
X108337387Y-88896762D01*
X108076802Y-88757476D01*
X108000000Y-88734179D01*
X108000000Y-84413593D01*
X108495176Y-83918417D01*
X108987618Y-83181426D01*
X109326817Y-82362526D01*
X109499740Y-81493186D01*
X109499740Y-80606814D01*
X109481146Y-80513335D01*
X110931981Y-79062500D01*
X113110528Y-79062500D01*
X113441077Y-79029944D01*
X113598279Y-78982257D01*
X113650001Y-78982257D01*
X113992825Y-78948492D01*
X114322474Y-78848494D01*
X114626280Y-78686106D01*
X114892569Y-78467569D01*
X115071122Y-78250000D01*
X138990323Y-78250000D01*
X138990323Y-80250000D01*
X139028938Y-80642069D01*
X139143301Y-81019070D01*
X139329015Y-81366517D01*
X139578944Y-81671056D01*
X139883483Y-81920985D01*
X140067836Y-82019523D01*
X139669748Y-82417611D01*
X139341434Y-82908967D01*
X139115288Y-83454932D01*
X139000000Y-84034526D01*
X139000000Y-84625474D01*
X139115288Y-85205068D01*
X139341434Y-85751033D01*
X139669748Y-86242389D01*
X140087611Y-86660252D01*
X140578967Y-86988566D01*
X141124932Y-87214712D01*
X141704526Y-87330000D01*
X142295474Y-87330000D01*
X142875068Y-87214712D01*
X143237784Y-87064470D01*
X162700000Y-87064470D01*
X162700000Y-87517530D01*
X162788387Y-87961885D01*
X162961766Y-88380459D01*
X163213473Y-88757165D01*
X163533835Y-89077527D01*
X163910541Y-89329234D01*
X164329115Y-89502613D01*
X164773470Y-89591000D01*
X165226530Y-89591000D01*
X165670885Y-89502613D01*
X166089459Y-89329234D01*
X166466165Y-89077527D01*
X166786527Y-88757165D01*
X167038234Y-88380459D01*
X167211613Y-87961885D01*
X167300000Y-87517530D01*
X167300000Y-87064470D01*
X167211613Y-86620115D01*
X167038234Y-86201541D01*
X166786527Y-85824835D01*
X166466165Y-85504473D01*
X166089459Y-85252766D01*
X165670885Y-85079387D01*
X165523146Y-85050000D01*
X183790323Y-85050000D01*
X183790323Y-87450000D01*
X183828938Y-87842069D01*
X183943301Y-88219070D01*
X184129015Y-88566517D01*
X184378944Y-88871056D01*
X184683483Y-89120985D01*
X185030930Y-89306699D01*
X185407931Y-89421062D01*
X185800000Y-89459677D01*
X188200000Y-89459677D01*
X188592069Y-89421062D01*
X188969070Y-89306699D01*
X189316517Y-89120985D01*
X189621056Y-88871056D01*
X189870985Y-88566517D01*
X190056699Y-88219070D01*
X190171062Y-87842069D01*
X190209677Y-87450000D01*
X190209677Y-85050000D01*
X190171062Y-84657931D01*
X190056699Y-84280930D01*
X189870985Y-83933483D01*
X189621056Y-83628944D01*
X189316517Y-83379015D01*
X188969070Y-83193301D01*
X188592069Y-83078938D01*
X188200000Y-83040323D01*
X185800000Y-83040323D01*
X185407931Y-83078938D01*
X185030930Y-83193301D01*
X184683483Y-83379015D01*
X184378944Y-83628944D01*
X184129015Y-83933483D01*
X183943301Y-84280930D01*
X183828938Y-84657931D01*
X183790323Y-85050000D01*
X165523146Y-85050000D01*
X165226530Y-84991000D01*
X164773470Y-84991000D01*
X164329115Y-85079387D01*
X163910541Y-85252766D01*
X163533835Y-85504473D01*
X163213473Y-85824835D01*
X162961766Y-86201541D01*
X162788387Y-86620115D01*
X162700000Y-87064470D01*
X143237784Y-87064470D01*
X143421033Y-86988566D01*
X143912389Y-86660252D01*
X144330252Y-86242389D01*
X144658566Y-85751033D01*
X144884712Y-85205068D01*
X145000000Y-84625474D01*
X145000000Y-84034526D01*
X144884712Y-83454932D01*
X144658566Y-82908967D01*
X144330252Y-82417611D01*
X143932164Y-82019523D01*
X144116517Y-81920985D01*
X144421056Y-81671056D01*
X144586138Y-81469903D01*
X155410000Y-81469903D01*
X155410000Y-82110097D01*
X155534896Y-82737990D01*
X155779888Y-83329452D01*
X156135560Y-83861754D01*
X156588246Y-84314440D01*
X157120548Y-84670112D01*
X157712010Y-84915104D01*
X158339903Y-85040000D01*
X158980097Y-85040000D01*
X159607990Y-84915104D01*
X160199452Y-84670112D01*
X160731754Y-84314440D01*
X161184440Y-83861754D01*
X161540112Y-83329452D01*
X161785104Y-82737990D01*
X161910000Y-82110097D01*
X161910000Y-81469903D01*
X161785104Y-80842010D01*
X161540112Y-80250548D01*
X161184440Y-79718246D01*
X160731754Y-79265560D01*
X160199452Y-78909888D01*
X159607990Y-78664896D01*
X158980097Y-78540000D01*
X158339903Y-78540000D01*
X157712010Y-78664896D01*
X157120548Y-78909888D01*
X156588246Y-79265560D01*
X156135560Y-79718246D01*
X155779888Y-80250548D01*
X155534896Y-80842010D01*
X155410000Y-81469903D01*
X144586138Y-81469903D01*
X144670985Y-81366517D01*
X144856699Y-81019070D01*
X144971062Y-80642069D01*
X145009677Y-80250000D01*
X145009677Y-78250000D01*
X144971062Y-77857931D01*
X144856699Y-77480930D01*
X144670985Y-77133483D01*
X144421056Y-76828944D01*
X144116517Y-76579015D01*
X143769070Y-76393301D01*
X143392069Y-76278938D01*
X143000000Y-76240323D01*
X141000000Y-76240323D01*
X140607931Y-76278938D01*
X140230930Y-76393301D01*
X139883483Y-76579015D01*
X139578944Y-76828944D01*
X139329015Y-77133483D01*
X139143301Y-77480930D01*
X139028938Y-77857931D01*
X138990323Y-78250000D01*
X115071122Y-78250000D01*
X115111106Y-78201280D01*
X115273494Y-77897474D01*
X115373492Y-77567825D01*
X115407257Y-77225001D01*
X115407257Y-76399999D01*
X115373492Y-76057175D01*
X115273494Y-75727526D01*
X115111106Y-75423720D01*
X114968538Y-75250000D01*
X115111106Y-75076280D01*
X115273494Y-74772474D01*
X115373492Y-74442825D01*
X115407257Y-74100001D01*
X115407257Y-73274999D01*
X115373492Y-72932175D01*
X115273494Y-72602526D01*
X115111106Y-72298720D01*
X114892569Y-72032431D01*
X114626280Y-71813894D01*
X114322474Y-71651506D01*
X113992825Y-71551508D01*
X113650001Y-71517743D01*
X113598279Y-71517743D01*
X113441077Y-71470056D01*
X113110528Y-71437500D01*
X110369480Y-71437500D01*
X109506997Y-70575017D01*
X109506997Y-69060706D01*
X114495000Y-69060706D01*
X114495000Y-69479294D01*
X114576663Y-69889840D01*
X114736849Y-70276565D01*
X114969405Y-70624609D01*
X115265391Y-70920595D01*
X115613435Y-71153151D01*
X116000160Y-71313337D01*
X116410706Y-71395000D01*
X116829294Y-71395000D01*
X117239840Y-71313337D01*
X117626565Y-71153151D01*
X117890000Y-70977129D01*
X118153435Y-71153151D01*
X118540160Y-71313337D01*
X118950706Y-71395000D01*
X119369294Y-71395000D01*
X119779840Y-71313337D01*
X120166565Y-71153151D01*
X120430000Y-70977129D01*
X120693435Y-71153151D01*
X121080160Y-71313337D01*
X121490706Y-71395000D01*
X121909294Y-71395000D01*
X122319840Y-71313337D01*
X122706565Y-71153151D01*
X122970000Y-70977129D01*
X123233435Y-71153151D01*
X123620160Y-71313337D01*
X124030706Y-71395000D01*
X124449294Y-71395000D01*
X124859840Y-71313337D01*
X125246565Y-71153151D01*
X125594609Y-70920595D01*
X125890595Y-70624609D01*
X126123151Y-70276565D01*
X126283337Y-69889840D01*
X126365000Y-69479294D01*
X126365000Y-69060706D01*
X127195000Y-69060706D01*
X127195000Y-69479294D01*
X127276663Y-69889840D01*
X127436849Y-70276565D01*
X127669405Y-70624609D01*
X127965391Y-70920595D01*
X128313435Y-71153151D01*
X128700160Y-71313337D01*
X129110706Y-71395000D01*
X129529294Y-71395000D01*
X129939840Y-71313337D01*
X130326565Y-71153151D01*
X130590000Y-70977129D01*
X130853435Y-71153151D01*
X131240160Y-71313337D01*
X131650706Y-71395000D01*
X132069294Y-71395000D01*
X132479840Y-71313337D01*
X132866565Y-71153151D01*
X133130000Y-70977129D01*
X133393435Y-71153151D01*
X133780160Y-71313337D01*
X134190706Y-71395000D01*
X134609294Y-71395000D01*
X135019840Y-71313337D01*
X135406565Y-71153151D01*
X135670000Y-70977129D01*
X135933435Y-71153151D01*
X136320160Y-71313337D01*
X136730706Y-71395000D01*
X137149294Y-71395000D01*
X137559840Y-71313337D01*
X137946565Y-71153151D01*
X138294609Y-70920595D01*
X138590595Y-70624609D01*
X138823151Y-70276565D01*
X138983337Y-69889840D01*
X139065000Y-69479294D01*
X139065000Y-69060706D01*
X139039962Y-68934828D01*
X177300000Y-68934828D01*
X177300000Y-69565172D01*
X177422975Y-70183405D01*
X177664197Y-70765768D01*
X178014398Y-71289881D01*
X178460119Y-71735602D01*
X178984232Y-72085803D01*
X179566595Y-72327025D01*
X180184828Y-72450000D01*
X180815172Y-72450000D01*
X181433405Y-72327025D01*
X182015768Y-72085803D01*
X182539881Y-71735602D01*
X182985602Y-71289881D01*
X183335803Y-70765768D01*
X183577025Y-70183405D01*
X183700000Y-69565172D01*
X183700000Y-68934828D01*
X183577025Y-68316595D01*
X183466599Y-68050000D01*
X183790323Y-68050000D01*
X183790323Y-70450000D01*
X183828938Y-70842069D01*
X183943301Y-71219070D01*
X184129015Y-71566517D01*
X184378944Y-71871056D01*
X184683483Y-72120985D01*
X185030930Y-72306699D01*
X185407931Y-72421062D01*
X185800000Y-72459677D01*
X188200000Y-72459677D01*
X188592069Y-72421062D01*
X188969070Y-72306699D01*
X189316517Y-72120985D01*
X189621056Y-71871056D01*
X189870985Y-71566517D01*
X190056699Y-71219070D01*
X190171062Y-70842069D01*
X190209677Y-70450000D01*
X190209677Y-68050000D01*
X190171062Y-67657931D01*
X190056699Y-67280930D01*
X189870985Y-66933483D01*
X189621056Y-66628944D01*
X189316517Y-66379015D01*
X188969070Y-66193301D01*
X188592069Y-66078938D01*
X188200000Y-66040323D01*
X185800000Y-66040323D01*
X185407931Y-66078938D01*
X185030930Y-66193301D01*
X184683483Y-66379015D01*
X184378944Y-66628944D01*
X184129015Y-66933483D01*
X183943301Y-67280930D01*
X183828938Y-67657931D01*
X183790323Y-68050000D01*
X183466599Y-68050000D01*
X183335803Y-67734232D01*
X182985602Y-67210119D01*
X182539881Y-66764398D01*
X182015768Y-66414197D01*
X181433405Y-66172975D01*
X180815172Y-66050000D01*
X180184828Y-66050000D01*
X179566595Y-66172975D01*
X178984232Y-66414197D01*
X178460119Y-66764398D01*
X178014398Y-67210119D01*
X177664197Y-67734232D01*
X177422975Y-68316595D01*
X177300000Y-68934828D01*
X139039962Y-68934828D01*
X138983337Y-68650160D01*
X138823151Y-68263435D01*
X138590595Y-67915391D01*
X138294609Y-67619405D01*
X137946565Y-67386849D01*
X137559840Y-67226663D01*
X137149294Y-67145000D01*
X136730706Y-67145000D01*
X136320160Y-67226663D01*
X135933435Y-67386849D01*
X135670000Y-67562871D01*
X135406565Y-67386849D01*
X135019840Y-67226663D01*
X134609294Y-67145000D01*
X134190706Y-67145000D01*
X133780160Y-67226663D01*
X133393435Y-67386849D01*
X133130000Y-67562871D01*
X132866565Y-67386849D01*
X132479840Y-67226663D01*
X132069294Y-67145000D01*
X131650706Y-67145000D01*
X131240160Y-67226663D01*
X130853435Y-67386849D01*
X130590000Y-67562871D01*
X130326565Y-67386849D01*
X129939840Y-67226663D01*
X129529294Y-67145000D01*
X129110706Y-67145000D01*
X128700160Y-67226663D01*
X128313435Y-67386849D01*
X127965391Y-67619405D01*
X127669405Y-67915391D01*
X127436849Y-68263435D01*
X127276663Y-68650160D01*
X127195000Y-69060706D01*
X126365000Y-69060706D01*
X126283337Y-68650160D01*
X126123151Y-68263435D01*
X125890595Y-67915391D01*
X125594609Y-67619405D01*
X125246565Y-67386849D01*
X124859840Y-67226663D01*
X124449294Y-67145000D01*
X124030706Y-67145000D01*
X123620160Y-67226663D01*
X123233435Y-67386849D01*
X122970000Y-67562871D01*
X122706565Y-67386849D01*
X122319840Y-67226663D01*
X121909294Y-67145000D01*
X121490706Y-67145000D01*
X121080160Y-67226663D01*
X120693435Y-67386849D01*
X120430000Y-67562871D01*
X120166565Y-67386849D01*
X119779840Y-67226663D01*
X119369294Y-67145000D01*
X118950706Y-67145000D01*
X118540160Y-67226663D01*
X118153435Y-67386849D01*
X117890000Y-67562871D01*
X117626565Y-67386849D01*
X117239840Y-67226663D01*
X116829294Y-67145000D01*
X116410706Y-67145000D01*
X116000160Y-67226663D01*
X115613435Y-67386849D01*
X115265391Y-67619405D01*
X114969405Y-67915391D01*
X114736849Y-68263435D01*
X114576663Y-68650160D01*
X114495000Y-69060706D01*
X109506997Y-69060706D01*
X109506997Y-66250260D01*
X109478035Y-65956209D01*
X109392264Y-65673458D01*
X109252978Y-65412873D01*
X109065532Y-65184468D01*
X108837127Y-64997022D01*
X108576542Y-64857736D01*
X108293791Y-64771965D01*
X107999740Y-64743003D01*
X102000260Y-64743003D01*
X101706209Y-64771965D01*
X101525000Y-64826934D01*
X101525000Y-56724748D01*
X101768880Y-56968628D01*
X102342128Y-57351660D01*
X102979088Y-57615497D01*
X103655280Y-57750000D01*
X104344720Y-57750000D01*
X105020912Y-57615497D01*
X105657872Y-57351660D01*
X106231120Y-56968628D01*
X106718628Y-56481120D01*
X107101660Y-55907872D01*
X107365497Y-55270912D01*
X107500000Y-54594720D01*
X107500000Y-53905280D01*
X107365497Y-53229088D01*
X107101660Y-52592128D01*
X106718628Y-52018880D01*
X106231120Y-51531372D01*
X106221584Y-51525000D01*
X177681804Y-51525000D01*
X177617561Y-51645190D01*
%TA.AperFunction,Conductor*%
D37*
G36*
X177617561Y-51645190D02*
G01*
X177503198Y-52022191D01*
X177464583Y-52414260D01*
X177464583Y-58413740D01*
X177503198Y-58805809D01*
X177617561Y-59182810D01*
X177803275Y-59530257D01*
X177967478Y-59730339D01*
X177664197Y-60184232D01*
X177422975Y-60766595D01*
X177300000Y-61384828D01*
X177300000Y-62015172D01*
X177422975Y-62633405D01*
X177664197Y-63215768D01*
X178014398Y-63739881D01*
X178460119Y-64185602D01*
X178984232Y-64535803D01*
X179566595Y-64777025D01*
X180184828Y-64900000D01*
X180815172Y-64900000D01*
X181433405Y-64777025D01*
X182015768Y-64535803D01*
X182539881Y-64185602D01*
X182985602Y-63739881D01*
X183335803Y-63215768D01*
X183577025Y-62633405D01*
X183700000Y-62015172D01*
X183700000Y-61384828D01*
X183577025Y-60766595D01*
X183434876Y-60423417D01*
X185473740Y-60423417D01*
X185865809Y-60384802D01*
X186242810Y-60270439D01*
X186590257Y-60084725D01*
X186894796Y-59834796D01*
X187144725Y-59530257D01*
X187330439Y-59182810D01*
X187444802Y-58805809D01*
X187483417Y-58413740D01*
X187483417Y-52414260D01*
X187444802Y-52022191D01*
X187330439Y-51645190D01*
X187266196Y-51525000D01*
X198475000Y-51525000D01*
X198475001Y-135779601D01*
X198365497Y-135229088D01*
X198101660Y-134592128D01*
X197718628Y-134018880D01*
X197231120Y-133531372D01*
X196657872Y-133148340D01*
X196343040Y-133017933D01*
X196426802Y-132992524D01*
X196687387Y-132853238D01*
X196915792Y-132665792D01*
X197103238Y-132437387D01*
X197242524Y-132176802D01*
X197328295Y-131894051D01*
X197357257Y-131600000D01*
X197357257Y-129900000D01*
X197328295Y-129605949D01*
X197242524Y-129323198D01*
X197103238Y-129062613D01*
X196915792Y-128834208D01*
X196687387Y-128646762D01*
X196426802Y-128507476D01*
X196144051Y-128421705D01*
X195850000Y-128392743D01*
X194150000Y-128392743D01*
X193855949Y-128421705D01*
X193573198Y-128507476D01*
X193312613Y-128646762D01*
X193084208Y-128834208D01*
X192896762Y-129062613D01*
X192757476Y-129323198D01*
X192671705Y-129605949D01*
X192642743Y-129900000D01*
X192642743Y-131600000D01*
X192671705Y-131894051D01*
X192757476Y-132176802D01*
X192896762Y-132437387D01*
X193084208Y-132665792D01*
X193312613Y-132853238D01*
X193573198Y-132992524D01*
X193656960Y-133017933D01*
X193342128Y-133148340D01*
X192768880Y-133531372D01*
X192281372Y-134018880D01*
X191898340Y-134592128D01*
X191634503Y-135229088D01*
X191500000Y-135905280D01*
X191500000Y-136594720D01*
X191634503Y-137270912D01*
X191898340Y-137907872D01*
X192281372Y-138481120D01*
X192768880Y-138968628D01*
X193152568Y-139225000D01*
X187900000Y-139225000D01*
X187900000Y-139062866D01*
X187826984Y-138695791D01*
X187683758Y-138350013D01*
X187591378Y-138211756D01*
X187805792Y-138035792D01*
X187993238Y-137807387D01*
X188132524Y-137546802D01*
X188218295Y-137264051D01*
X188247257Y-136970000D01*
X188247257Y-135370000D01*
X188218295Y-135075949D01*
X188132524Y-134793198D01*
X187993238Y-134532613D01*
X187805792Y-134304208D01*
X187577387Y-134116762D01*
X187316802Y-133977476D01*
X187034051Y-133891705D01*
X186740000Y-133862743D01*
X185140000Y-133862743D01*
X184845949Y-133891705D01*
X184563198Y-133977476D01*
X184302613Y-134116762D01*
X184074208Y-134304208D01*
X183886762Y-134532613D01*
X183747476Y-134793198D01*
X183661705Y-135075949D01*
X183632743Y-135370000D01*
X183632743Y-136970000D01*
X183661705Y-137264051D01*
X183747476Y-137546802D01*
X183886762Y-137807387D01*
X184074208Y-138035792D01*
X184302613Y-138223238D01*
X184375072Y-138261968D01*
X184316242Y-138350013D01*
X184173016Y-138695791D01*
X184100000Y-139062866D01*
X184100000Y-139225000D01*
X160981336Y-139225000D01*
X161053238Y-139137387D01*
X161192524Y-138876802D01*
X161278295Y-138594051D01*
X161307257Y-138300000D01*
X161307257Y-136700000D01*
X161278295Y-136405949D01*
X161192524Y-136123198D01*
X161053238Y-135862613D01*
X160865792Y-135634208D01*
X160637387Y-135446762D01*
X160376802Y-135307476D01*
X160094051Y-135221705D01*
X159800000Y-135192743D01*
X158200000Y-135192743D01*
X157905949Y-135221705D01*
X157623198Y-135307476D01*
X157362613Y-135446762D01*
X157134208Y-135634208D01*
X156946762Y-135862613D01*
X156807476Y-136123198D01*
X156721705Y-136405949D01*
X156692743Y-136700000D01*
X156692743Y-138300000D01*
X156721705Y-138594051D01*
X156807476Y-138876802D01*
X156946762Y-139137387D01*
X157018664Y-139225000D01*
X144981336Y-139225000D01*
X145053238Y-139137387D01*
X145192524Y-138876802D01*
X145278295Y-138594051D01*
X145307257Y-138300000D01*
X145307257Y-136700000D01*
X145278295Y-136405949D01*
X145192524Y-136123198D01*
X145053238Y-135862613D01*
X144865792Y-135634208D01*
X144637387Y-135446762D01*
X144376802Y-135307476D01*
X144094051Y-135221705D01*
X143800000Y-135192743D01*
X142200000Y-135192743D01*
X141905949Y-135221705D01*
X141623198Y-135307476D01*
X141362613Y-135446762D01*
X141134208Y-135634208D01*
X140946762Y-135862613D01*
X140807476Y-136123198D01*
X140721705Y-136405949D01*
X140692743Y-136700000D01*
X140692743Y-138300000D01*
X140721705Y-138594051D01*
X140807476Y-138876802D01*
X140946762Y-139137387D01*
X141018664Y-139225000D01*
X101525000Y-139225000D01*
X101525000Y-135184828D01*
X101980000Y-135184828D01*
X101980000Y-135815172D01*
X102102975Y-136433405D01*
X102344197Y-137015768D01*
X102694398Y-137539881D01*
X103140119Y-137985602D01*
X103664232Y-138335803D01*
X104246595Y-138577025D01*
X104864828Y-138700000D01*
X105495172Y-138700000D01*
X106113405Y-138577025D01*
X106695768Y-138335803D01*
X107219881Y-137985602D01*
X107665602Y-137539881D01*
X108015803Y-137015768D01*
X108257025Y-136433405D01*
X108380000Y-135815172D01*
X108380000Y-135234073D01*
X122800000Y-135234073D01*
X122800000Y-135765927D01*
X122903760Y-136287561D01*
X123107291Y-136778930D01*
X123402773Y-137221150D01*
X123778850Y-137597227D01*
X124221070Y-137892709D01*
X124712439Y-138096240D01*
X125234073Y-138200000D01*
X125765927Y-138200000D01*
X126287561Y-138096240D01*
X126778930Y-137892709D01*
X127221150Y-137597227D01*
X127597227Y-137221150D01*
X127892709Y-136778930D01*
X128096240Y-136287561D01*
X128200000Y-135765927D01*
X128200000Y-135234073D01*
X128096240Y-134712439D01*
X127892709Y-134221070D01*
X127597227Y-133778850D01*
X127221150Y-133402773D01*
X126778930Y-133107291D01*
X126287561Y-132903760D01*
X125765927Y-132800000D01*
X125234073Y-132800000D01*
X124712439Y-132903760D01*
X124221070Y-133107291D01*
X123778850Y-133402773D01*
X123402773Y-133778850D01*
X123107291Y-134221070D01*
X122903760Y-134712439D01*
X122800000Y-135234073D01*
X108380000Y-135234073D01*
X108380000Y-135184828D01*
X108257025Y-134566595D01*
X108015803Y-133984232D01*
X107665602Y-133460119D01*
X107219881Y-133014398D01*
X106695768Y-132664197D01*
X106113405Y-132422975D01*
X105495172Y-132300000D01*
X104864828Y-132300000D01*
X104246595Y-132422975D01*
X103664232Y-132664197D01*
X103140119Y-133014398D01*
X102694398Y-133460119D01*
X102344197Y-133984232D01*
X102102975Y-134566595D01*
X101980000Y-135184828D01*
X101525000Y-135184828D01*
X101525000Y-129500000D01*
X110485485Y-129500000D01*
X110543408Y-130088103D01*
X110714951Y-130653605D01*
X110993522Y-131174775D01*
X111368416Y-131631584D01*
X111825225Y-132006478D01*
X112346395Y-132285049D01*
X112911897Y-132456592D01*
X113352627Y-132500000D01*
X127352627Y-132500000D01*
X127500000Y-132514515D01*
X127647373Y-132500000D01*
X128088103Y-132456592D01*
X128653605Y-132285049D01*
X129174775Y-132006478D01*
X129631584Y-131631584D01*
X129725537Y-131517102D01*
X134469170Y-126773470D01*
X141160000Y-126773470D01*
X141160000Y-127226530D01*
X141248387Y-127670885D01*
X141421766Y-128089459D01*
X141673473Y-128466165D01*
X141993835Y-128786527D01*
X142370541Y-129038234D01*
X142789115Y-129211613D01*
X143233470Y-129300000D01*
X143686530Y-129300000D01*
X144130885Y-129211613D01*
X144549459Y-129038234D01*
X144730000Y-128917600D01*
X144910541Y-129038234D01*
X145329115Y-129211613D01*
X145773470Y-129300000D01*
X146226530Y-129300000D01*
X146670885Y-129211613D01*
X147089459Y-129038234D01*
X147466165Y-128786527D01*
X147730000Y-128522692D01*
X147993835Y-128786527D01*
X148370541Y-129038234D01*
X148789115Y-129211613D01*
X149233470Y-129300000D01*
X149686530Y-129300000D01*
X150130885Y-129211613D01*
X150549459Y-129038234D01*
X150730000Y-128917600D01*
X150910541Y-129038234D01*
X151329115Y-129211613D01*
X151773470Y-129300000D01*
X152226530Y-129300000D01*
X152670885Y-129211613D01*
X153089459Y-129038234D01*
X153466165Y-128786527D01*
X153786527Y-128466165D01*
X154038234Y-128089459D01*
X154211613Y-127670885D01*
X154300000Y-127226530D01*
X154300000Y-126773470D01*
X154211613Y-126329115D01*
X154038234Y-125910541D01*
X153786527Y-125533835D01*
X153466165Y-125213473D01*
X153089459Y-124961766D01*
X152670885Y-124788387D01*
X152226530Y-124700000D01*
X151773470Y-124700000D01*
X151329115Y-124788387D01*
X150910541Y-124961766D01*
X150730000Y-125082400D01*
X150549459Y-124961766D01*
X150130885Y-124788387D01*
X149686530Y-124700000D01*
X149233470Y-124700000D01*
X148789115Y-124788387D01*
X148370541Y-124961766D01*
X147993835Y-125213473D01*
X147730000Y-125477308D01*
X147466165Y-125213473D01*
X147089459Y-124961766D01*
X146670885Y-124788387D01*
X146226530Y-124700000D01*
X145773470Y-124700000D01*
X145329115Y-124788387D01*
X144910541Y-124961766D01*
X144730000Y-125082400D01*
X144549459Y-124961766D01*
X144130885Y-124788387D01*
X143686530Y-124700000D01*
X143233470Y-124700000D01*
X142789115Y-124788387D01*
X142370541Y-124961766D01*
X141993835Y-125213473D01*
X141673473Y-125533835D01*
X141421766Y-125910541D01*
X141248387Y-126329115D01*
X141160000Y-126773470D01*
X134469170Y-126773470D01*
X136225528Y-125017113D01*
X136506477Y-124674775D01*
X136785048Y-124153606D01*
X136956592Y-123588103D01*
X137014514Y-123000001D01*
X136956592Y-122411898D01*
X136785048Y-121846395D01*
X136706799Y-121700000D01*
X157442743Y-121700000D01*
X157442743Y-123300000D01*
X157471705Y-123594051D01*
X157557476Y-123876802D01*
X157696762Y-124137387D01*
X157884208Y-124365792D01*
X158112613Y-124553238D01*
X158373198Y-124692524D01*
X158655949Y-124778295D01*
X158950000Y-124807257D01*
X160550000Y-124807257D01*
X160844051Y-124778295D01*
X161126802Y-124692524D01*
X161387387Y-124553238D01*
X161615792Y-124365792D01*
X161803238Y-124137387D01*
X161942524Y-123876802D01*
X162028295Y-123594051D01*
X162057257Y-123300000D01*
X162057257Y-123021169D01*
X163908427Y-121170000D01*
X172848142Y-121170000D01*
X172728387Y-121459115D01*
X172640000Y-121903470D01*
X172640000Y-122356530D01*
X172728387Y-122800885D01*
X172901766Y-123219459D01*
X173022400Y-123400000D01*
X172901766Y-123580541D01*
X172728387Y-123999115D01*
X172640000Y-124443470D01*
X172640000Y-124896530D01*
X172728387Y-125340885D01*
X172901766Y-125759459D01*
X173153473Y-126136165D01*
X173473835Y-126456527D01*
X173850541Y-126708234D01*
X174269115Y-126881613D01*
X174481306Y-126923820D01*
X167731127Y-133674000D01*
X167466065Y-133674000D01*
X167440131Y-133663258D01*
X164845294Y-131068421D01*
X164889615Y-131002091D01*
X165055455Y-130601716D01*
X165140000Y-130176681D01*
X165140000Y-129743319D01*
X165055455Y-129318284D01*
X164889615Y-128917909D01*
X164737331Y-128690000D01*
X164889615Y-128462091D01*
X165055455Y-128061716D01*
X165140000Y-127636681D01*
X165140000Y-127203319D01*
X165055455Y-126778284D01*
X164889615Y-126377909D01*
X164648852Y-126017582D01*
X164342418Y-125711148D01*
X163982091Y-125470385D01*
X163581716Y-125304545D01*
X163156681Y-125220000D01*
X162723319Y-125220000D01*
X162298284Y-125304545D01*
X161897909Y-125470385D01*
X161537582Y-125711148D01*
X161231148Y-126017582D01*
X160990385Y-126377909D01*
X160824545Y-126778284D01*
X160740000Y-127203319D01*
X160740000Y-127636681D01*
X160824545Y-128061716D01*
X160990385Y-128462091D01*
X161142669Y-128690000D01*
X160990385Y-128917909D01*
X160824545Y-129318284D01*
X160740000Y-129743319D01*
X160740000Y-130176681D01*
X160824545Y-130601716D01*
X160990385Y-131002091D01*
X161190000Y-131300836D01*
X161190000Y-131552035D01*
X161181533Y-131638000D01*
X161190000Y-131723965D01*
X161190000Y-131723968D01*
X161215322Y-131981060D01*
X161248689Y-132091056D01*
X161315389Y-132310936D01*
X161477888Y-132614952D01*
X161588720Y-132750000D01*
X161696577Y-132881424D01*
X161763351Y-132936224D01*
X164965258Y-136138131D01*
X165042242Y-136323987D01*
X165250174Y-136635179D01*
X165514821Y-136899826D01*
X165826013Y-137107758D01*
X166171791Y-137250984D01*
X166538866Y-137324000D01*
X166913134Y-137324000D01*
X167280209Y-137250984D01*
X167466065Y-137174000D01*
X168370035Y-137174000D01*
X168456000Y-137182467D01*
X168541965Y-137174000D01*
X168541968Y-137174000D01*
X168799060Y-137148679D01*
X169128936Y-137048612D01*
X169432952Y-136886112D01*
X169699424Y-136667424D01*
X169754229Y-136600644D01*
X178134874Y-128220000D01*
X178186530Y-128220000D01*
X178630885Y-128131613D01*
X179049459Y-127958234D01*
X179230000Y-127837600D01*
X179410541Y-127958234D01*
X179829115Y-128131613D01*
X180273470Y-128220000D01*
X180726530Y-128220000D01*
X180837984Y-128197831D01*
X181019015Y-128536517D01*
X181268944Y-128841056D01*
X181345265Y-128903691D01*
X183714961Y-131273388D01*
X183728387Y-131340885D01*
X183901766Y-131759459D01*
X184153473Y-132136165D01*
X184473835Y-132456527D01*
X184850541Y-132708234D01*
X185269115Y-132881613D01*
X185713470Y-132970000D01*
X186166530Y-132970000D01*
X186610885Y-132881613D01*
X187029459Y-132708234D01*
X187406165Y-132456527D01*
X187726527Y-132136165D01*
X187978234Y-131759459D01*
X188151613Y-131340885D01*
X188240000Y-130896530D01*
X188240000Y-130443470D01*
X188151613Y-129999115D01*
X187978234Y-129580541D01*
X187726527Y-129203835D01*
X187406165Y-128883473D01*
X187029459Y-128631766D01*
X186610885Y-128458387D01*
X186543388Y-128444961D01*
X184690000Y-126591574D01*
X184690000Y-123124468D01*
X185030930Y-123306699D01*
X185407931Y-123421062D01*
X185800000Y-123459677D01*
X188200000Y-123459677D01*
X188592069Y-123421062D01*
X188969070Y-123306699D01*
X189316517Y-123120985D01*
X189621056Y-122871056D01*
X189870985Y-122566517D01*
X190056699Y-122219070D01*
X190171062Y-121842069D01*
X190209677Y-121450000D01*
X190209677Y-119050000D01*
X190171062Y-118657931D01*
X190056699Y-118280930D01*
X189870985Y-117933483D01*
X189621056Y-117628944D01*
X189316517Y-117379015D01*
X188969070Y-117193301D01*
X188592069Y-117078938D01*
X188200000Y-117040323D01*
X185800000Y-117040323D01*
X185407931Y-117078938D01*
X185030930Y-117193301D01*
X184683483Y-117379015D01*
X184378944Y-117628944D01*
X184129015Y-117933483D01*
X183943301Y-118280930D01*
X183828938Y-118657931D01*
X183800016Y-118951589D01*
X182673691Y-117825265D01*
X182611056Y-117748944D01*
X182306517Y-117499015D01*
X181959070Y-117313301D01*
X181582069Y-117198938D01*
X181288253Y-117170000D01*
X181288243Y-117170000D01*
X181190000Y-117160324D01*
X181091757Y-117170000D01*
X163178242Y-117170000D01*
X163079999Y-117160324D01*
X162981756Y-117170000D01*
X162981747Y-117170000D01*
X162687931Y-117198938D01*
X162310930Y-117313301D01*
X161963483Y-117499015D01*
X161658944Y-117748944D01*
X161596313Y-117825260D01*
X159228831Y-120192743D01*
X158950000Y-120192743D01*
X158655949Y-120221705D01*
X158373198Y-120307476D01*
X158112613Y-120446762D01*
X157884208Y-120634208D01*
X157696762Y-120862613D01*
X157557476Y-121123198D01*
X157471705Y-121405949D01*
X157442743Y-121700000D01*
X136706799Y-121700000D01*
X136506477Y-121325226D01*
X136131583Y-120868417D01*
X135674774Y-120493523D01*
X135153605Y-120214952D01*
X134588102Y-120043408D01*
X133999999Y-119985486D01*
X133411897Y-120043408D01*
X132846394Y-120214952D01*
X132325225Y-120493523D01*
X131982887Y-120774472D01*
X126257361Y-126500000D01*
X113352627Y-126500000D01*
X112911897Y-126543408D01*
X112346395Y-126714951D01*
X111825225Y-126993522D01*
X111368416Y-127368416D01*
X110993522Y-127825225D01*
X110714951Y-128346395D01*
X110543408Y-128911897D01*
X110485485Y-129500000D01*
X101525000Y-129500000D01*
X101525000Y-127195566D01*
X101608191Y-127220802D01*
X102000260Y-127259417D01*
X107999740Y-127259417D01*
X108391809Y-127220802D01*
X108768810Y-127106439D01*
X109116257Y-126920725D01*
X109420796Y-126670796D01*
X109670725Y-126366257D01*
X109856439Y-126018810D01*
X109970802Y-125641809D01*
X110009417Y-125249740D01*
X110009417Y-122398504D01*
X110023723Y-122412811D01*
X110050642Y-122686120D01*
X110250776Y-123345872D01*
X110575776Y-123953904D01*
X111013152Y-124486848D01*
X111546096Y-124924224D01*
X112154128Y-125249224D01*
X112813880Y-125449358D01*
X113500000Y-125516935D01*
X114186120Y-125449358D01*
X114845872Y-125249224D01*
X115453904Y-124924224D01*
X115853290Y-124596456D01*
X123090071Y-117359677D01*
X125500000Y-117359677D01*
X125892069Y-117321062D01*
X126250000Y-117212484D01*
X126250000Y-117320097D01*
X126374896Y-117947990D01*
X126619888Y-118539452D01*
X126975560Y-119071754D01*
X127428246Y-119524440D01*
X127960548Y-119880112D01*
X128552010Y-120125104D01*
X129179903Y-120250000D01*
X129820097Y-120250000D01*
X130447990Y-120125104D01*
X131039452Y-119880112D01*
X131571754Y-119524440D01*
X132024440Y-119071754D01*
X132380112Y-118539452D01*
X132625104Y-117947990D01*
X132750000Y-117320097D01*
X132750000Y-116679903D01*
X132625104Y-116052010D01*
X132380112Y-115460548D01*
X132024440Y-114928246D01*
X131571754Y-114475560D01*
X131039452Y-114119888D01*
X130447990Y-113874896D01*
X129820097Y-113750000D01*
X129179903Y-113750000D01*
X128552010Y-113874896D01*
X127960548Y-114119888D01*
X127509677Y-114421150D01*
X127509677Y-112250000D01*
X127471062Y-111857931D01*
X127356699Y-111480930D01*
X127170985Y-111133483D01*
X126921056Y-110828944D01*
X126616517Y-110579015D01*
X126269070Y-110393301D01*
X125892069Y-110278938D01*
X125500000Y-110240323D01*
X120500000Y-110240323D01*
X120107931Y-110278938D01*
X119730930Y-110393301D01*
X119383483Y-110579015D01*
X119078944Y-110828944D01*
X118829015Y-111133483D01*
X118643301Y-111480930D01*
X118528938Y-111857931D01*
X118511088Y-112039164D01*
X116474404Y-114075848D01*
X116384712Y-113624932D01*
X116158566Y-113078967D01*
X115830252Y-112587611D01*
X115412389Y-112169748D01*
X114921033Y-111841434D01*
X114375068Y-111615288D01*
X113795474Y-111500000D01*
X113204526Y-111500000D01*
X112624932Y-111615288D01*
X112078967Y-111841434D01*
X111935194Y-111937500D01*
X109795537Y-111937500D01*
X109807603Y-111908370D01*
X109999740Y-110942431D01*
X109999740Y-109957569D01*
X109807603Y-108991630D01*
X109430712Y-108081735D01*
X108883552Y-107262851D01*
X108500000Y-106879299D01*
X108500000Y-106083265D01*
X108616517Y-106020985D01*
X108921056Y-105771056D01*
X109170985Y-105466517D01*
X109356699Y-105119070D01*
X109471062Y-104742069D01*
X109509677Y-104350000D01*
X109509677Y-104204526D01*
X110500000Y-104204526D01*
X110500000Y-104795474D01*
X110615288Y-105375068D01*
X110841434Y-105921033D01*
X111169748Y-106412389D01*
X111587611Y-106830252D01*
X112078967Y-107158566D01*
X112624932Y-107384712D01*
X113204526Y-107500000D01*
X113795474Y-107500000D01*
X114375068Y-107384712D01*
X114921033Y-107158566D01*
X115412389Y-106830252D01*
X115830252Y-106412389D01*
X116158566Y-105921033D01*
X116384712Y-105375068D01*
X116500000Y-104795474D01*
X116500000Y-104204526D01*
X116384712Y-103624932D01*
X116158566Y-103078967D01*
X115830252Y-102587611D01*
X115412389Y-102169748D01*
X114921033Y-101841434D01*
X114375068Y-101615288D01*
X113795474Y-101500000D01*
X113204526Y-101500000D01*
X112624932Y-101615288D01*
X112078967Y-101841434D01*
X111587611Y-102169748D01*
X111169748Y-102587611D01*
X110841434Y-103078967D01*
X110615288Y-103624932D01*
X110500000Y-104204526D01*
X109509677Y-104204526D01*
X109509677Y-101250000D01*
X109471062Y-100857931D01*
X109356699Y-100480930D01*
X109170985Y-100133483D01*
X108921056Y-99828944D01*
X108616517Y-99579015D01*
X108269070Y-99393301D01*
X107892069Y-99278938D01*
X107500000Y-99240323D01*
X102500000Y-99240323D01*
X102107931Y-99278938D01*
X101730930Y-99393301D01*
X101525000Y-99503373D01*
X101525000Y-94390303D01*
X101662613Y-94503238D01*
X101923198Y-94642524D01*
X102205949Y-94728295D01*
X102500000Y-94757257D01*
X107500000Y-94757257D01*
X107794051Y-94728295D01*
X108076802Y-94642524D01*
X108337387Y-94503238D01*
X108565792Y-94315792D01*
X108753238Y-94087387D01*
X108892524Y-93826802D01*
X108978295Y-93544051D01*
X108984851Y-93477490D01*
X118992743Y-103485384D01*
X118992743Y-104250000D01*
X119021705Y-104544051D01*
X119107476Y-104826802D01*
X119246762Y-105087387D01*
X119434208Y-105315792D01*
X119662613Y-105503238D01*
X119923198Y-105642524D01*
X120205949Y-105728295D01*
X120500000Y-105757257D01*
X125500000Y-105757257D01*
X125794051Y-105728295D01*
X126076802Y-105642524D01*
X126337387Y-105503238D01*
X126565792Y-105315792D01*
X126753238Y-105087387D01*
X126892524Y-104826802D01*
X126978295Y-104544051D01*
X127007257Y-104250000D01*
X127007257Y-101150000D01*
X126978295Y-100855949D01*
X126892524Y-100573198D01*
X126753238Y-100312613D01*
X126565792Y-100084208D01*
X126337387Y-99896762D01*
X126076802Y-99757476D01*
X125794051Y-99671705D01*
X125500000Y-99642743D01*
X123635384Y-99642743D01*
X121532641Y-97540000D01*
X139488134Y-97540000D01*
X139535486Y-98020774D01*
X139675723Y-98483072D01*
X139903455Y-98909128D01*
X140209930Y-99282570D01*
X140583372Y-99589045D01*
X141009428Y-99816777D01*
X141471726Y-99957014D01*
X141832022Y-99992500D01*
X142167978Y-99992500D01*
X142528274Y-99957014D01*
X142990572Y-99816777D01*
X143416628Y-99589045D01*
X143790070Y-99282570D01*
X144096545Y-98909128D01*
X144324277Y-98483072D01*
X144464514Y-98020774D01*
X144511866Y-97540000D01*
X144464514Y-97059226D01*
X144446548Y-97000000D01*
X146671574Y-97000000D01*
X151600001Y-101928429D01*
X151600000Y-108948252D01*
X151628938Y-109242068D01*
X151743301Y-109619069D01*
X151929015Y-109966517D01*
X152178944Y-110271056D01*
X152483483Y-110520985D01*
X152830930Y-110706699D01*
X153207931Y-110821062D01*
X153600000Y-110859677D01*
X153992068Y-110821062D01*
X154369069Y-110706699D01*
X154716517Y-110520985D01*
X155021056Y-110271056D01*
X155270985Y-109966517D01*
X155456699Y-109619070D01*
X155571062Y-109242069D01*
X155600000Y-108948253D01*
X155600000Y-108233669D01*
X155933470Y-108300000D01*
X156386530Y-108300000D01*
X156830885Y-108211613D01*
X157249459Y-108038234D01*
X157626165Y-107786527D01*
X157946527Y-107466165D01*
X158198234Y-107089459D01*
X158371613Y-106670885D01*
X158460000Y-106226530D01*
X158460000Y-105773470D01*
X158371613Y-105329115D01*
X158198234Y-104910541D01*
X157946527Y-104533835D01*
X157626165Y-104213473D01*
X157249459Y-103961766D01*
X156830885Y-103788387D01*
X156386530Y-103700000D01*
X155933470Y-103700000D01*
X155600000Y-103766331D01*
X155600000Y-102050000D01*
X183790323Y-102050000D01*
X183790323Y-104450000D01*
X183828938Y-104842069D01*
X183943301Y-105219070D01*
X184129015Y-105566517D01*
X184378944Y-105871056D01*
X184683483Y-106120985D01*
X185030930Y-106306699D01*
X185407931Y-106421062D01*
X185800000Y-106459677D01*
X188200000Y-106459677D01*
X188592069Y-106421062D01*
X188969070Y-106306699D01*
X189316517Y-106120985D01*
X189621056Y-105871056D01*
X189870985Y-105566517D01*
X190056699Y-105219070D01*
X190171062Y-104842069D01*
X190209677Y-104450000D01*
X190209677Y-102050000D01*
X190171062Y-101657931D01*
X190056699Y-101280930D01*
X189870985Y-100933483D01*
X189621056Y-100628944D01*
X189316517Y-100379015D01*
X188969070Y-100193301D01*
X188592069Y-100078938D01*
X188200000Y-100040323D01*
X185800000Y-100040323D01*
X185407931Y-100078938D01*
X185030930Y-100193301D01*
X184683483Y-100379015D01*
X184378944Y-100628944D01*
X184129015Y-100933483D01*
X183943301Y-101280930D01*
X183828938Y-101657931D01*
X183790323Y-102050000D01*
X155600000Y-102050000D01*
X155600000Y-101198243D01*
X155609676Y-101100000D01*
X155600000Y-101001757D01*
X155600000Y-101001747D01*
X155571062Y-100707931D01*
X155456699Y-100330930D01*
X155383135Y-100193301D01*
X155270986Y-99983483D01*
X155083689Y-99755261D01*
X155083682Y-99755254D01*
X155021056Y-99678944D01*
X154944745Y-99616317D01*
X152548331Y-97219903D01*
X155410000Y-97219903D01*
X155410000Y-97860097D01*
X155534896Y-98487990D01*
X155779888Y-99079452D01*
X156135560Y-99611754D01*
X156588246Y-100064440D01*
X157120548Y-100420112D01*
X157712010Y-100665104D01*
X158339903Y-100790000D01*
X158980097Y-100790000D01*
X159607990Y-100665104D01*
X160199452Y-100420112D01*
X160731754Y-100064440D01*
X161184440Y-99611754D01*
X161540112Y-99079452D01*
X161785104Y-98487990D01*
X161910000Y-97860097D01*
X161910000Y-97219903D01*
X161901113Y-97175224D01*
X162200000Y-97175224D01*
X162200000Y-97726776D01*
X162307602Y-98267730D01*
X162518672Y-98777297D01*
X162825098Y-99235896D01*
X163215104Y-99625902D01*
X163673703Y-99932328D01*
X164183270Y-100143398D01*
X164724224Y-100251000D01*
X165275776Y-100251000D01*
X165816730Y-100143398D01*
X166326297Y-99932328D01*
X166784896Y-99625902D01*
X167174902Y-99235896D01*
X167481328Y-98777297D01*
X167692398Y-98267730D01*
X167800000Y-97726776D01*
X167800000Y-97175224D01*
X167692398Y-96634270D01*
X167481328Y-96124703D01*
X167174902Y-95666104D01*
X166784896Y-95276098D01*
X166326297Y-94969672D01*
X165816730Y-94758602D01*
X165275776Y-94651000D01*
X164724224Y-94651000D01*
X164183270Y-94758602D01*
X163673703Y-94969672D01*
X163215104Y-95276098D01*
X162825098Y-95666104D01*
X162518672Y-96124703D01*
X162307602Y-96634270D01*
X162200000Y-97175224D01*
X161901113Y-97175224D01*
X161785104Y-96592010D01*
X161540112Y-96000548D01*
X161184440Y-95468246D01*
X160731754Y-95015560D01*
X160199452Y-94659888D01*
X159607990Y-94414896D01*
X158980097Y-94290000D01*
X158339903Y-94290000D01*
X157712010Y-94414896D01*
X157120548Y-94659888D01*
X156588246Y-95015560D01*
X156135560Y-95468246D01*
X155779888Y-96000548D01*
X155534896Y-96592010D01*
X155410000Y-97219903D01*
X152548331Y-97219903D01*
X148983691Y-93655265D01*
X148921056Y-93578944D01*
X148616517Y-93329015D01*
X148269070Y-93143301D01*
X147892069Y-93028938D01*
X147598253Y-93000000D01*
X147598243Y-93000000D01*
X147500000Y-92990324D01*
X147401757Y-93000000D01*
X144080804Y-93000000D01*
X144065792Y-92981708D01*
X143837387Y-92794262D01*
X143576802Y-92654976D01*
X143294051Y-92569205D01*
X143000000Y-92540243D01*
X141000000Y-92540243D01*
X140705949Y-92569205D01*
X140423198Y-92654976D01*
X140162613Y-92794262D01*
X139934208Y-92981708D01*
X139746762Y-93210113D01*
X139607476Y-93470698D01*
X139521705Y-93753449D01*
X139492743Y-94047500D01*
X139492743Y-95952500D01*
X139521705Y-96246551D01*
X139607476Y-96529302D01*
X139664101Y-96635240D01*
X139535486Y-97059226D01*
X139488134Y-97540000D01*
X121532641Y-97540000D01*
X116169445Y-92176806D01*
X116361460Y-92215000D01*
X116878540Y-92215000D01*
X117385684Y-92114122D01*
X117863404Y-91916245D01*
X118293340Y-91628970D01*
X118525000Y-91397310D01*
X118756660Y-91628970D01*
X119186596Y-91916245D01*
X119664316Y-92114122D01*
X120171460Y-92215000D01*
X120688540Y-92215000D01*
X121195684Y-92114122D01*
X121673404Y-91916245D01*
X122103340Y-91628970D01*
X122335000Y-91397310D01*
X122566660Y-91628970D01*
X122996596Y-91916245D01*
X123474316Y-92114122D01*
X123981460Y-92215000D01*
X124498540Y-92215000D01*
X125005684Y-92114122D01*
X125483404Y-91916245D01*
X125913340Y-91628970D01*
X126278970Y-91263340D01*
X126566245Y-90833404D01*
X126764122Y-90355684D01*
X126780000Y-90275861D01*
X126795878Y-90355684D01*
X126993755Y-90833404D01*
X127281030Y-91263340D01*
X127646660Y-91628970D01*
X128076596Y-91916245D01*
X128554316Y-92114122D01*
X129061460Y-92215000D01*
X129578540Y-92215000D01*
X130085684Y-92114122D01*
X130563404Y-91916245D01*
X130993340Y-91628970D01*
X131225000Y-91397310D01*
X131456660Y-91628970D01*
X131886596Y-91916245D01*
X132364316Y-92114122D01*
X132871460Y-92215000D01*
X133388540Y-92215000D01*
X133895684Y-92114122D01*
X134373404Y-91916245D01*
X134803340Y-91628970D01*
X135035000Y-91397310D01*
X135266660Y-91628970D01*
X135696596Y-91916245D01*
X136174316Y-92114122D01*
X136681460Y-92215000D01*
X137198540Y-92215000D01*
X137705684Y-92114122D01*
X138183404Y-91916245D01*
X138613340Y-91628970D01*
X138978970Y-91263340D01*
X139266245Y-90833404D01*
X139464122Y-90355684D01*
X139565000Y-89848540D01*
X139565000Y-89331460D01*
X139464122Y-88824316D01*
X139266245Y-88346596D01*
X138978970Y-87916660D01*
X138613340Y-87551030D01*
X138183404Y-87263755D01*
X137705684Y-87065878D01*
X137198540Y-86965000D01*
X136681460Y-86965000D01*
X136174316Y-87065878D01*
X135696596Y-87263755D01*
X135266660Y-87551030D01*
X135035000Y-87782690D01*
X134803340Y-87551030D01*
X134373404Y-87263755D01*
X133895684Y-87065878D01*
X133388540Y-86965000D01*
X132871460Y-86965000D01*
X132364316Y-87065878D01*
X131886596Y-87263755D01*
X131456660Y-87551030D01*
X131225000Y-87782690D01*
X130993340Y-87551030D01*
X130563404Y-87263755D01*
X130085684Y-87065878D01*
X129578540Y-86965000D01*
X129061460Y-86965000D01*
X128554316Y-87065878D01*
X128076596Y-87263755D01*
X127646660Y-87551030D01*
X127281030Y-87916660D01*
X126993755Y-88346596D01*
X126795878Y-88824316D01*
X126780000Y-88904139D01*
X126764122Y-88824316D01*
X126566245Y-88346596D01*
X126278970Y-87916660D01*
X125913340Y-87551030D01*
X125483404Y-87263755D01*
X125005684Y-87065878D01*
X124498540Y-86965000D01*
X123981460Y-86965000D01*
X123474316Y-87065878D01*
X122996596Y-87263755D01*
X122566660Y-87551030D01*
X122335000Y-87782690D01*
X122103340Y-87551030D01*
X121673404Y-87263755D01*
X121195684Y-87065878D01*
X120688540Y-86965000D01*
X120171460Y-86965000D01*
X119664316Y-87065878D01*
X119186596Y-87263755D01*
X118756660Y-87551030D01*
X118525000Y-87782690D01*
X118293340Y-87551030D01*
X117863404Y-87263755D01*
X117385684Y-87065878D01*
X116878540Y-86965000D01*
X116361460Y-86965000D01*
X115854316Y-87065878D01*
X115376596Y-87263755D01*
X114946660Y-87551030D01*
X114581030Y-87916660D01*
X114293755Y-88346596D01*
X114095878Y-88824316D01*
X113995000Y-89331460D01*
X113995000Y-89500314D01*
X113681584Y-89118416D01*
X113224775Y-88743522D01*
X112703605Y-88464951D01*
X112138103Y-88293408D01*
X111697373Y-88250000D01*
X111147373Y-88250000D01*
X111000000Y-88235485D01*
X110852627Y-88250000D01*
X110411897Y-88293408D01*
X109846395Y-88464951D01*
X109325225Y-88743522D01*
X108868416Y-89118416D01*
X108731140Y-89285687D01*
X108565792Y-89084208D01*
X108337387Y-88896762D01*
X108076802Y-88757476D01*
X108000000Y-88734179D01*
X108000000Y-84413593D01*
X108495176Y-83918417D01*
X108987618Y-83181426D01*
X109326817Y-82362526D01*
X109499740Y-81493186D01*
X109499740Y-80606814D01*
X109481146Y-80513335D01*
X110931981Y-79062500D01*
X113110528Y-79062500D01*
X113441077Y-79029944D01*
X113598279Y-78982257D01*
X113650001Y-78982257D01*
X113992825Y-78948492D01*
X114322474Y-78848494D01*
X114626280Y-78686106D01*
X114892569Y-78467569D01*
X115071122Y-78250000D01*
X138990323Y-78250000D01*
X138990323Y-80250000D01*
X139028938Y-80642069D01*
X139143301Y-81019070D01*
X139329015Y-81366517D01*
X139578944Y-81671056D01*
X139883483Y-81920985D01*
X140067836Y-82019523D01*
X139669748Y-82417611D01*
X139341434Y-82908967D01*
X139115288Y-83454932D01*
X139000000Y-84034526D01*
X139000000Y-84625474D01*
X139115288Y-85205068D01*
X139341434Y-85751033D01*
X139669748Y-86242389D01*
X140087611Y-86660252D01*
X140578967Y-86988566D01*
X141124932Y-87214712D01*
X141704526Y-87330000D01*
X142295474Y-87330000D01*
X142875068Y-87214712D01*
X143237784Y-87064470D01*
X162700000Y-87064470D01*
X162700000Y-87517530D01*
X162788387Y-87961885D01*
X162961766Y-88380459D01*
X163213473Y-88757165D01*
X163533835Y-89077527D01*
X163910541Y-89329234D01*
X164329115Y-89502613D01*
X164773470Y-89591000D01*
X165226530Y-89591000D01*
X165670885Y-89502613D01*
X166089459Y-89329234D01*
X166466165Y-89077527D01*
X166786527Y-88757165D01*
X167038234Y-88380459D01*
X167211613Y-87961885D01*
X167300000Y-87517530D01*
X167300000Y-87064470D01*
X167211613Y-86620115D01*
X167038234Y-86201541D01*
X166786527Y-85824835D01*
X166466165Y-85504473D01*
X166089459Y-85252766D01*
X165670885Y-85079387D01*
X165523146Y-85050000D01*
X183790323Y-85050000D01*
X183790323Y-87450000D01*
X183828938Y-87842069D01*
X183943301Y-88219070D01*
X184129015Y-88566517D01*
X184378944Y-88871056D01*
X184683483Y-89120985D01*
X185030930Y-89306699D01*
X185407931Y-89421062D01*
X185800000Y-89459677D01*
X188200000Y-89459677D01*
X188592069Y-89421062D01*
X188969070Y-89306699D01*
X189316517Y-89120985D01*
X189621056Y-88871056D01*
X189870985Y-88566517D01*
X190056699Y-88219070D01*
X190171062Y-87842069D01*
X190209677Y-87450000D01*
X190209677Y-85050000D01*
X190171062Y-84657931D01*
X190056699Y-84280930D01*
X189870985Y-83933483D01*
X189621056Y-83628944D01*
X189316517Y-83379015D01*
X188969070Y-83193301D01*
X188592069Y-83078938D01*
X188200000Y-83040323D01*
X185800000Y-83040323D01*
X185407931Y-83078938D01*
X185030930Y-83193301D01*
X184683483Y-83379015D01*
X184378944Y-83628944D01*
X184129015Y-83933483D01*
X183943301Y-84280930D01*
X183828938Y-84657931D01*
X183790323Y-85050000D01*
X165523146Y-85050000D01*
X165226530Y-84991000D01*
X164773470Y-84991000D01*
X164329115Y-85079387D01*
X163910541Y-85252766D01*
X163533835Y-85504473D01*
X163213473Y-85824835D01*
X162961766Y-86201541D01*
X162788387Y-86620115D01*
X162700000Y-87064470D01*
X143237784Y-87064470D01*
X143421033Y-86988566D01*
X143912389Y-86660252D01*
X144330252Y-86242389D01*
X144658566Y-85751033D01*
X144884712Y-85205068D01*
X145000000Y-84625474D01*
X145000000Y-84034526D01*
X144884712Y-83454932D01*
X144658566Y-82908967D01*
X144330252Y-82417611D01*
X143932164Y-82019523D01*
X144116517Y-81920985D01*
X144421056Y-81671056D01*
X144586138Y-81469903D01*
X155410000Y-81469903D01*
X155410000Y-82110097D01*
X155534896Y-82737990D01*
X155779888Y-83329452D01*
X156135560Y-83861754D01*
X156588246Y-84314440D01*
X157120548Y-84670112D01*
X157712010Y-84915104D01*
X158339903Y-85040000D01*
X158980097Y-85040000D01*
X159607990Y-84915104D01*
X160199452Y-84670112D01*
X160731754Y-84314440D01*
X161184440Y-83861754D01*
X161540112Y-83329452D01*
X161785104Y-82737990D01*
X161910000Y-82110097D01*
X161910000Y-81469903D01*
X161785104Y-80842010D01*
X161540112Y-80250548D01*
X161184440Y-79718246D01*
X160731754Y-79265560D01*
X160199452Y-78909888D01*
X159607990Y-78664896D01*
X158980097Y-78540000D01*
X158339903Y-78540000D01*
X157712010Y-78664896D01*
X157120548Y-78909888D01*
X156588246Y-79265560D01*
X156135560Y-79718246D01*
X155779888Y-80250548D01*
X155534896Y-80842010D01*
X155410000Y-81469903D01*
X144586138Y-81469903D01*
X144670985Y-81366517D01*
X144856699Y-81019070D01*
X144971062Y-80642069D01*
X145009677Y-80250000D01*
X145009677Y-78250000D01*
X144971062Y-77857931D01*
X144856699Y-77480930D01*
X144670985Y-77133483D01*
X144421056Y-76828944D01*
X144116517Y-76579015D01*
X143769070Y-76393301D01*
X143392069Y-76278938D01*
X143000000Y-76240323D01*
X141000000Y-76240323D01*
X140607931Y-76278938D01*
X140230930Y-76393301D01*
X139883483Y-76579015D01*
X139578944Y-76828944D01*
X139329015Y-77133483D01*
X139143301Y-77480930D01*
X139028938Y-77857931D01*
X138990323Y-78250000D01*
X115071122Y-78250000D01*
X115111106Y-78201280D01*
X115273494Y-77897474D01*
X115373492Y-77567825D01*
X115407257Y-77225001D01*
X115407257Y-76399999D01*
X115373492Y-76057175D01*
X115273494Y-75727526D01*
X115111106Y-75423720D01*
X114968538Y-75250000D01*
X115111106Y-75076280D01*
X115273494Y-74772474D01*
X115373492Y-74442825D01*
X115407257Y-74100001D01*
X115407257Y-73274999D01*
X115373492Y-72932175D01*
X115273494Y-72602526D01*
X115111106Y-72298720D01*
X114892569Y-72032431D01*
X114626280Y-71813894D01*
X114322474Y-71651506D01*
X113992825Y-71551508D01*
X113650001Y-71517743D01*
X113598279Y-71517743D01*
X113441077Y-71470056D01*
X113110528Y-71437500D01*
X110369480Y-71437500D01*
X109506997Y-70575017D01*
X109506997Y-69060706D01*
X114495000Y-69060706D01*
X114495000Y-69479294D01*
X114576663Y-69889840D01*
X114736849Y-70276565D01*
X114969405Y-70624609D01*
X115265391Y-70920595D01*
X115613435Y-71153151D01*
X116000160Y-71313337D01*
X116410706Y-71395000D01*
X116829294Y-71395000D01*
X117239840Y-71313337D01*
X117626565Y-71153151D01*
X117890000Y-70977129D01*
X118153435Y-71153151D01*
X118540160Y-71313337D01*
X118950706Y-71395000D01*
X119369294Y-71395000D01*
X119779840Y-71313337D01*
X120166565Y-71153151D01*
X120430000Y-70977129D01*
X120693435Y-71153151D01*
X121080160Y-71313337D01*
X121490706Y-71395000D01*
X121909294Y-71395000D01*
X122319840Y-71313337D01*
X122706565Y-71153151D01*
X122970000Y-70977129D01*
X123233435Y-71153151D01*
X123620160Y-71313337D01*
X124030706Y-71395000D01*
X124449294Y-71395000D01*
X124859840Y-71313337D01*
X125246565Y-71153151D01*
X125594609Y-70920595D01*
X125890595Y-70624609D01*
X126123151Y-70276565D01*
X126283337Y-69889840D01*
X126365000Y-69479294D01*
X126365000Y-69060706D01*
X127195000Y-69060706D01*
X127195000Y-69479294D01*
X127276663Y-69889840D01*
X127436849Y-70276565D01*
X127669405Y-70624609D01*
X127965391Y-70920595D01*
X128313435Y-71153151D01*
X128700160Y-71313337D01*
X129110706Y-71395000D01*
X129529294Y-71395000D01*
X129939840Y-71313337D01*
X130326565Y-71153151D01*
X130590000Y-70977129D01*
X130853435Y-71153151D01*
X131240160Y-71313337D01*
X131650706Y-71395000D01*
X132069294Y-71395000D01*
X132479840Y-71313337D01*
X132866565Y-71153151D01*
X133130000Y-70977129D01*
X133393435Y-71153151D01*
X133780160Y-71313337D01*
X134190706Y-71395000D01*
X134609294Y-71395000D01*
X135019840Y-71313337D01*
X135406565Y-71153151D01*
X135670000Y-70977129D01*
X135933435Y-71153151D01*
X136320160Y-71313337D01*
X136730706Y-71395000D01*
X137149294Y-71395000D01*
X137559840Y-71313337D01*
X137946565Y-71153151D01*
X138294609Y-70920595D01*
X138590595Y-70624609D01*
X138823151Y-70276565D01*
X138983337Y-69889840D01*
X139065000Y-69479294D01*
X139065000Y-69060706D01*
X139039962Y-68934828D01*
X177300000Y-68934828D01*
X177300000Y-69565172D01*
X177422975Y-70183405D01*
X177664197Y-70765768D01*
X178014398Y-71289881D01*
X178460119Y-71735602D01*
X178984232Y-72085803D01*
X179566595Y-72327025D01*
X180184828Y-72450000D01*
X180815172Y-72450000D01*
X181433405Y-72327025D01*
X182015768Y-72085803D01*
X182539881Y-71735602D01*
X182985602Y-71289881D01*
X183335803Y-70765768D01*
X183577025Y-70183405D01*
X183700000Y-69565172D01*
X183700000Y-68934828D01*
X183577025Y-68316595D01*
X183466599Y-68050000D01*
X183790323Y-68050000D01*
X183790323Y-70450000D01*
X183828938Y-70842069D01*
X183943301Y-71219070D01*
X184129015Y-71566517D01*
X184378944Y-71871056D01*
X184683483Y-72120985D01*
X185030930Y-72306699D01*
X185407931Y-72421062D01*
X185800000Y-72459677D01*
X188200000Y-72459677D01*
X188592069Y-72421062D01*
X188969070Y-72306699D01*
X189316517Y-72120985D01*
X189621056Y-71871056D01*
X189870985Y-71566517D01*
X190056699Y-71219070D01*
X190171062Y-70842069D01*
X190209677Y-70450000D01*
X190209677Y-68050000D01*
X190171062Y-67657931D01*
X190056699Y-67280930D01*
X189870985Y-66933483D01*
X189621056Y-66628944D01*
X189316517Y-66379015D01*
X188969070Y-66193301D01*
X188592069Y-66078938D01*
X188200000Y-66040323D01*
X185800000Y-66040323D01*
X185407931Y-66078938D01*
X185030930Y-66193301D01*
X184683483Y-66379015D01*
X184378944Y-66628944D01*
X184129015Y-66933483D01*
X183943301Y-67280930D01*
X183828938Y-67657931D01*
X183790323Y-68050000D01*
X183466599Y-68050000D01*
X183335803Y-67734232D01*
X182985602Y-67210119D01*
X182539881Y-66764398D01*
X182015768Y-66414197D01*
X181433405Y-66172975D01*
X180815172Y-66050000D01*
X180184828Y-66050000D01*
X179566595Y-66172975D01*
X178984232Y-66414197D01*
X178460119Y-66764398D01*
X178014398Y-67210119D01*
X177664197Y-67734232D01*
X177422975Y-68316595D01*
X177300000Y-68934828D01*
X139039962Y-68934828D01*
X138983337Y-68650160D01*
X138823151Y-68263435D01*
X138590595Y-67915391D01*
X138294609Y-67619405D01*
X137946565Y-67386849D01*
X137559840Y-67226663D01*
X137149294Y-67145000D01*
X136730706Y-67145000D01*
X136320160Y-67226663D01*
X135933435Y-67386849D01*
X135670000Y-67562871D01*
X135406565Y-67386849D01*
X135019840Y-67226663D01*
X134609294Y-67145000D01*
X134190706Y-67145000D01*
X133780160Y-67226663D01*
X133393435Y-67386849D01*
X133130000Y-67562871D01*
X132866565Y-67386849D01*
X132479840Y-67226663D01*
X132069294Y-67145000D01*
X131650706Y-67145000D01*
X131240160Y-67226663D01*
X130853435Y-67386849D01*
X130590000Y-67562871D01*
X130326565Y-67386849D01*
X129939840Y-67226663D01*
X129529294Y-67145000D01*
X129110706Y-67145000D01*
X128700160Y-67226663D01*
X128313435Y-67386849D01*
X127965391Y-67619405D01*
X127669405Y-67915391D01*
X127436849Y-68263435D01*
X127276663Y-68650160D01*
X127195000Y-69060706D01*
X126365000Y-69060706D01*
X126283337Y-68650160D01*
X126123151Y-68263435D01*
X125890595Y-67915391D01*
X125594609Y-67619405D01*
X125246565Y-67386849D01*
X124859840Y-67226663D01*
X124449294Y-67145000D01*
X124030706Y-67145000D01*
X123620160Y-67226663D01*
X123233435Y-67386849D01*
X122970000Y-67562871D01*
X122706565Y-67386849D01*
X122319840Y-67226663D01*
X121909294Y-67145000D01*
X121490706Y-67145000D01*
X121080160Y-67226663D01*
X120693435Y-67386849D01*
X120430000Y-67562871D01*
X120166565Y-67386849D01*
X119779840Y-67226663D01*
X119369294Y-67145000D01*
X118950706Y-67145000D01*
X118540160Y-67226663D01*
X118153435Y-67386849D01*
X117890000Y-67562871D01*
X117626565Y-67386849D01*
X117239840Y-67226663D01*
X116829294Y-67145000D01*
X116410706Y-67145000D01*
X116000160Y-67226663D01*
X115613435Y-67386849D01*
X115265391Y-67619405D01*
X114969405Y-67915391D01*
X114736849Y-68263435D01*
X114576663Y-68650160D01*
X114495000Y-69060706D01*
X109506997Y-69060706D01*
X109506997Y-66250260D01*
X109478035Y-65956209D01*
X109392264Y-65673458D01*
X109252978Y-65412873D01*
X109065532Y-65184468D01*
X108837127Y-64997022D01*
X108576542Y-64857736D01*
X108293791Y-64771965D01*
X107999740Y-64743003D01*
X102000260Y-64743003D01*
X101706209Y-64771965D01*
X101525000Y-64826934D01*
X101525000Y-56724748D01*
X101768880Y-56968628D01*
X102342128Y-57351660D01*
X102979088Y-57615497D01*
X103655280Y-57750000D01*
X104344720Y-57750000D01*
X105020912Y-57615497D01*
X105657872Y-57351660D01*
X106231120Y-56968628D01*
X106718628Y-56481120D01*
X107101660Y-55907872D01*
X107365497Y-55270912D01*
X107500000Y-54594720D01*
X107500000Y-53905280D01*
X107365497Y-53229088D01*
X107101660Y-52592128D01*
X106718628Y-52018880D01*
X106231120Y-51531372D01*
X106221584Y-51525000D01*
X177681804Y-51525000D01*
X177617561Y-51645190D01*
G37*
%TD.AperFunction*%
%TD*%
M02*
