%TF.GenerationSoftware,KiCad,Pcbnew,5.1.9-73d0e3b20d~88~ubuntu20.04.1*%
%TF.CreationDate,2021-03-11T22:23:18-06:00*%
%TF.ProjectId,pfc,7066632e-6b69-4636-9164-5f7063625858,rev?*%
%TF.SameCoordinates,Original*%
%TF.FileFunction,Soldermask,Top*%
%TF.FilePolarity,Negative*%
%FSLAX46Y46*%
G04 Gerber Fmt 4.6, Leading zero omitted, Abs format (unit mm)*
G04 Created by KiCad (PCBNEW 5.1.9-73d0e3b20d~88~ubuntu20.04.1) date 2021-03-11 22:23:18*
%MOMM*%
%LPD*%
G01*
G04 APERTURE LIST*
%ADD10C,4.000000*%
%ADD11R,5.999480X5.999480*%
%ADD12C,5.999480*%
%ADD13O,1.400000X1.400000*%
%ADD14C,1.400000*%
%ADD15O,1.600000X1.600000*%
%ADD16C,1.600000*%
%ADD17O,2.000000X1.905000*%
%ADD18R,2.000000X1.905000*%
%ADD19O,3.500000X3.500000*%
%ADD20O,2.400000X2.400000*%
%ADD21C,2.400000*%
%ADD22R,1.600000X5.700000*%
%ADD23O,1.700000X1.700000*%
%ADD24R,1.700000X1.700000*%
%ADD25R,1.100000X1.100000*%
%ADD26R,1.000000X0.700000*%
%ADD27O,2.000000X2.000000*%
%ADD28R,2.000000X2.000000*%
%ADD29R,1.600000X1.600000*%
%ADD30R,2.400000X2.400000*%
%ADD31C,1.250000*%
%ADD32C,3.500000*%
%ADD33C,2.000000*%
G04 APERTURE END LIST*
D10*
%TO.C,REF\u002A\u002A*%
X195000000Y-136250000D03*
%TD*%
%TO.C,REF\u002A\u002A*%
X104000000Y-54250000D03*
%TD*%
D11*
%TO.C,J4*%
X105000000Y-122250000D03*
D12*
X105000000Y-110450000D03*
%TD*%
%TO.C,R10*%
G36*
G01*
X157837500Y-117200001D02*
X157362500Y-117200001D01*
G75*
G02*
X157125000Y-116962501I0J237500D01*
G01*
X157125000Y-116462501D01*
G75*
G02*
X157362500Y-116225001I237500J0D01*
G01*
X157837500Y-116225001D01*
G75*
G02*
X158075000Y-116462501I0J-237500D01*
G01*
X158075000Y-116962501D01*
G75*
G02*
X157837500Y-117200001I-237500J0D01*
G01*
G37*
G36*
G01*
X157837500Y-119025001D02*
X157362500Y-119025001D01*
G75*
G02*
X157125000Y-118787501I0J237500D01*
G01*
X157125000Y-118287501D01*
G75*
G02*
X157362500Y-118050001I237500J0D01*
G01*
X157837500Y-118050001D01*
G75*
G02*
X158075000Y-118287501I0J-237500D01*
G01*
X158075000Y-118787501D01*
G75*
G02*
X157837500Y-119025001I-237500J0D01*
G01*
G37*
%TD*%
%TO.C,R9*%
G36*
G01*
X155562500Y-118075000D02*
X156037500Y-118075000D01*
G75*
G02*
X156275000Y-118312500I0J-237500D01*
G01*
X156275000Y-118812500D01*
G75*
G02*
X156037500Y-119050000I-237500J0D01*
G01*
X155562500Y-119050000D01*
G75*
G02*
X155325000Y-118812500I0J237500D01*
G01*
X155325000Y-118312500D01*
G75*
G02*
X155562500Y-118075000I237500J0D01*
G01*
G37*
G36*
G01*
X155562500Y-116250000D02*
X156037500Y-116250000D01*
G75*
G02*
X156275000Y-116487500I0J-237500D01*
G01*
X156275000Y-116987500D01*
G75*
G02*
X156037500Y-117225000I-237500J0D01*
G01*
X155562500Y-117225000D01*
G75*
G02*
X155325000Y-116987500I0J237500D01*
G01*
X155325000Y-116487500D01*
G75*
G02*
X155562500Y-116250000I237500J0D01*
G01*
G37*
%TD*%
D13*
%TO.C,R4*%
X177960000Y-122000000D03*
D14*
X180500000Y-122000000D03*
%TD*%
D13*
%TO.C,R3*%
X162940000Y-129960000D03*
D14*
X162940000Y-127420000D03*
%TD*%
D11*
%TO.C,J2*%
X182474000Y-55414000D03*
D12*
X194274000Y-55414000D03*
%TD*%
D15*
%TO.C,Rout2*%
X165000000Y-87291000D03*
D16*
X165000000Y-97451000D03*
%TD*%
D15*
%TO.C,Rout1*%
X156160000Y-106000000D03*
D16*
X146000000Y-106000000D03*
%TD*%
%TO.C,U1*%
G36*
G01*
X170938000Y-137814000D02*
X170938000Y-138114000D01*
G75*
G02*
X170788000Y-138264000I-150000J0D01*
G01*
X169338000Y-138264000D01*
G75*
G02*
X169188000Y-138114000I0J150000D01*
G01*
X169188000Y-137814000D01*
G75*
G02*
X169338000Y-137664000I150000J0D01*
G01*
X170788000Y-137664000D01*
G75*
G02*
X170938000Y-137814000I0J-150000D01*
G01*
G37*
G36*
G01*
X170938000Y-136544000D02*
X170938000Y-136844000D01*
G75*
G02*
X170788000Y-136994000I-150000J0D01*
G01*
X169338000Y-136994000D01*
G75*
G02*
X169188000Y-136844000I0J150000D01*
G01*
X169188000Y-136544000D01*
G75*
G02*
X169338000Y-136394000I150000J0D01*
G01*
X170788000Y-136394000D01*
G75*
G02*
X170938000Y-136544000I0J-150000D01*
G01*
G37*
G36*
G01*
X170938000Y-135274000D02*
X170938000Y-135574000D01*
G75*
G02*
X170788000Y-135724000I-150000J0D01*
G01*
X169338000Y-135724000D01*
G75*
G02*
X169188000Y-135574000I0J150000D01*
G01*
X169188000Y-135274000D01*
G75*
G02*
X169338000Y-135124000I150000J0D01*
G01*
X170788000Y-135124000D01*
G75*
G02*
X170938000Y-135274000I0J-150000D01*
G01*
G37*
G36*
G01*
X170938000Y-134004000D02*
X170938000Y-134304000D01*
G75*
G02*
X170788000Y-134454000I-150000J0D01*
G01*
X169338000Y-134454000D01*
G75*
G02*
X169188000Y-134304000I0J150000D01*
G01*
X169188000Y-134004000D01*
G75*
G02*
X169338000Y-133854000I150000J0D01*
G01*
X170788000Y-133854000D01*
G75*
G02*
X170938000Y-134004000I0J-150000D01*
G01*
G37*
G36*
G01*
X165788000Y-134004000D02*
X165788000Y-134304000D01*
G75*
G02*
X165638000Y-134454000I-150000J0D01*
G01*
X164188000Y-134454000D01*
G75*
G02*
X164038000Y-134304000I0J150000D01*
G01*
X164038000Y-134004000D01*
G75*
G02*
X164188000Y-133854000I150000J0D01*
G01*
X165638000Y-133854000D01*
G75*
G02*
X165788000Y-134004000I0J-150000D01*
G01*
G37*
G36*
G01*
X165788000Y-135274000D02*
X165788000Y-135574000D01*
G75*
G02*
X165638000Y-135724000I-150000J0D01*
G01*
X164188000Y-135724000D01*
G75*
G02*
X164038000Y-135574000I0J150000D01*
G01*
X164038000Y-135274000D01*
G75*
G02*
X164188000Y-135124000I150000J0D01*
G01*
X165638000Y-135124000D01*
G75*
G02*
X165788000Y-135274000I0J-150000D01*
G01*
G37*
G36*
G01*
X165788000Y-137814000D02*
X165788000Y-138114000D01*
G75*
G02*
X165638000Y-138264000I-150000J0D01*
G01*
X164188000Y-138264000D01*
G75*
G02*
X164038000Y-138114000I0J150000D01*
G01*
X164038000Y-137814000D01*
G75*
G02*
X164188000Y-137664000I150000J0D01*
G01*
X165638000Y-137664000D01*
G75*
G02*
X165788000Y-137814000I0J-150000D01*
G01*
G37*
%TD*%
D17*
%TO.C,Q1*%
X142000000Y-100080000D03*
X142000000Y-97540000D03*
D18*
X142000000Y-95000000D03*
D19*
X158660000Y-97540000D03*
%TD*%
%TO.C,U2*%
G36*
G01*
X164706800Y-115614400D02*
X164706800Y-115914400D01*
G75*
G02*
X164556800Y-116064400I-150000J0D01*
G01*
X162906800Y-116064400D01*
G75*
G02*
X162756800Y-115914400I0J150000D01*
G01*
X162756800Y-115614400D01*
G75*
G02*
X162906800Y-115464400I150000J0D01*
G01*
X164556800Y-115464400D01*
G75*
G02*
X164706800Y-115614400I0J-150000D01*
G01*
G37*
G36*
G01*
X164706800Y-114344400D02*
X164706800Y-114644400D01*
G75*
G02*
X164556800Y-114794400I-150000J0D01*
G01*
X162906800Y-114794400D01*
G75*
G02*
X162756800Y-114644400I0J150000D01*
G01*
X162756800Y-114344400D01*
G75*
G02*
X162906800Y-114194400I150000J0D01*
G01*
X164556800Y-114194400D01*
G75*
G02*
X164706800Y-114344400I0J-150000D01*
G01*
G37*
G36*
G01*
X164706800Y-113074400D02*
X164706800Y-113374400D01*
G75*
G02*
X164556800Y-113524400I-150000J0D01*
G01*
X162906800Y-113524400D01*
G75*
G02*
X162756800Y-113374400I0J150000D01*
G01*
X162756800Y-113074400D01*
G75*
G02*
X162906800Y-112924400I150000J0D01*
G01*
X164556800Y-112924400D01*
G75*
G02*
X164706800Y-113074400I0J-150000D01*
G01*
G37*
G36*
G01*
X164706800Y-111804400D02*
X164706800Y-112104400D01*
G75*
G02*
X164556800Y-112254400I-150000J0D01*
G01*
X162906800Y-112254400D01*
G75*
G02*
X162756800Y-112104400I0J150000D01*
G01*
X162756800Y-111804400D01*
G75*
G02*
X162906800Y-111654400I150000J0D01*
G01*
X164556800Y-111654400D01*
G75*
G02*
X164706800Y-111804400I0J-150000D01*
G01*
G37*
G36*
G01*
X169656800Y-111804400D02*
X169656800Y-112104400D01*
G75*
G02*
X169506800Y-112254400I-150000J0D01*
G01*
X167856800Y-112254400D01*
G75*
G02*
X167706800Y-112104400I0J150000D01*
G01*
X167706800Y-111804400D01*
G75*
G02*
X167856800Y-111654400I150000J0D01*
G01*
X169506800Y-111654400D01*
G75*
G02*
X169656800Y-111804400I0J-150000D01*
G01*
G37*
G36*
G01*
X169656800Y-113074400D02*
X169656800Y-113374400D01*
G75*
G02*
X169506800Y-113524400I-150000J0D01*
G01*
X167856800Y-113524400D01*
G75*
G02*
X167706800Y-113374400I0J150000D01*
G01*
X167706800Y-113074400D01*
G75*
G02*
X167856800Y-112924400I150000J0D01*
G01*
X169506800Y-112924400D01*
G75*
G02*
X169656800Y-113074400I0J-150000D01*
G01*
G37*
G36*
G01*
X169656800Y-114344400D02*
X169656800Y-114644400D01*
G75*
G02*
X169506800Y-114794400I-150000J0D01*
G01*
X167856800Y-114794400D01*
G75*
G02*
X167706800Y-114644400I0J150000D01*
G01*
X167706800Y-114344400D01*
G75*
G02*
X167856800Y-114194400I150000J0D01*
G01*
X169506800Y-114194400D01*
G75*
G02*
X169656800Y-114344400I0J-150000D01*
G01*
G37*
G36*
G01*
X169656800Y-115614400D02*
X169656800Y-115914400D01*
G75*
G02*
X169506800Y-116064400I-150000J0D01*
G01*
X167856800Y-116064400D01*
G75*
G02*
X167706800Y-115914400I0J150000D01*
G01*
X167706800Y-115614400D01*
G75*
G02*
X167856800Y-115464400I150000J0D01*
G01*
X169506800Y-115464400D01*
G75*
G02*
X169656800Y-115614400I0J-150000D01*
G01*
G37*
%TD*%
%TO.C,Rvsl2*%
G36*
G01*
X172762500Y-108175000D02*
X173237500Y-108175000D01*
G75*
G02*
X173475000Y-108412500I0J-237500D01*
G01*
X173475000Y-108912500D01*
G75*
G02*
X173237500Y-109150000I-237500J0D01*
G01*
X172762500Y-109150000D01*
G75*
G02*
X172525000Y-108912500I0J237500D01*
G01*
X172525000Y-108412500D01*
G75*
G02*
X172762500Y-108175000I237500J0D01*
G01*
G37*
G36*
G01*
X172762500Y-106350000D02*
X173237500Y-106350000D01*
G75*
G02*
X173475000Y-106587500I0J-237500D01*
G01*
X173475000Y-107087500D01*
G75*
G02*
X173237500Y-107325000I-237500J0D01*
G01*
X172762500Y-107325000D01*
G75*
G02*
X172525000Y-107087500I0J237500D01*
G01*
X172525000Y-106587500D01*
G75*
G02*
X172762500Y-106350000I237500J0D01*
G01*
G37*
%TD*%
%TO.C,Rvsl1*%
G36*
G01*
X169762500Y-108175000D02*
X170237500Y-108175000D01*
G75*
G02*
X170475000Y-108412500I0J-237500D01*
G01*
X170475000Y-108912500D01*
G75*
G02*
X170237500Y-109150000I-237500J0D01*
G01*
X169762500Y-109150000D01*
G75*
G02*
X169525000Y-108912500I0J237500D01*
G01*
X169525000Y-108412500D01*
G75*
G02*
X169762500Y-108175000I237500J0D01*
G01*
G37*
G36*
G01*
X169762500Y-106350000D02*
X170237500Y-106350000D01*
G75*
G02*
X170475000Y-106587500I0J-237500D01*
G01*
X170475000Y-107087500D01*
G75*
G02*
X170237500Y-107325000I-237500J0D01*
G01*
X169762500Y-107325000D01*
G75*
G02*
X169525000Y-107087500I0J237500D01*
G01*
X169525000Y-106587500D01*
G75*
G02*
X169762500Y-106350000I237500J0D01*
G01*
G37*
%TD*%
%TO.C,Rvsh2*%
G36*
G01*
X169375000Y-104400000D02*
X170625000Y-104400000D01*
G75*
G02*
X170875000Y-104650000I0J-250000D01*
G01*
X170875000Y-105450000D01*
G75*
G02*
X170625000Y-105700000I-250000J0D01*
G01*
X169375000Y-105700000D01*
G75*
G02*
X169125000Y-105450000I0J250000D01*
G01*
X169125000Y-104650000D01*
G75*
G02*
X169375000Y-104400000I250000J0D01*
G01*
G37*
G36*
G01*
X169375000Y-101300000D02*
X170625000Y-101300000D01*
G75*
G02*
X170875000Y-101550000I0J-250000D01*
G01*
X170875000Y-102350000D01*
G75*
G02*
X170625000Y-102600000I-250000J0D01*
G01*
X169375000Y-102600000D01*
G75*
G02*
X169125000Y-102350000I0J250000D01*
G01*
X169125000Y-101550000D01*
G75*
G02*
X169375000Y-101300000I250000J0D01*
G01*
G37*
%TD*%
%TO.C,Rvsh1*%
G36*
G01*
X169375000Y-98900000D02*
X170625000Y-98900000D01*
G75*
G02*
X170875000Y-99150000I0J-250000D01*
G01*
X170875000Y-99950000D01*
G75*
G02*
X170625000Y-100200000I-250000J0D01*
G01*
X169375000Y-100200000D01*
G75*
G02*
X169125000Y-99950000I0J250000D01*
G01*
X169125000Y-99150000D01*
G75*
G02*
X169375000Y-98900000I250000J0D01*
G01*
G37*
G36*
G01*
X169375000Y-95800000D02*
X170625000Y-95800000D01*
G75*
G02*
X170875000Y-96050000I0J-250000D01*
G01*
X170875000Y-96850000D01*
G75*
G02*
X170625000Y-97100000I-250000J0D01*
G01*
X169375000Y-97100000D01*
G75*
G02*
X169125000Y-96850000I0J250000D01*
G01*
X169125000Y-96050000D01*
G75*
G02*
X169375000Y-95800000I250000J0D01*
G01*
G37*
%TD*%
%TO.C,Rt1*%
G36*
G01*
X172416000Y-113012500D02*
X172416000Y-113487500D01*
G75*
G02*
X172178500Y-113725000I-237500J0D01*
G01*
X171678500Y-113725000D01*
G75*
G02*
X171441000Y-113487500I0J237500D01*
G01*
X171441000Y-113012500D01*
G75*
G02*
X171678500Y-112775000I237500J0D01*
G01*
X172178500Y-112775000D01*
G75*
G02*
X172416000Y-113012500I0J-237500D01*
G01*
G37*
G36*
G01*
X174241000Y-113012500D02*
X174241000Y-113487500D01*
G75*
G02*
X174003500Y-113725000I-237500J0D01*
G01*
X173503500Y-113725000D01*
G75*
G02*
X173266000Y-113487500I0J237500D01*
G01*
X173266000Y-113012500D01*
G75*
G02*
X173503500Y-112775000I237500J0D01*
G01*
X174003500Y-112775000D01*
G75*
G02*
X174241000Y-113012500I0J-237500D01*
G01*
G37*
%TD*%
%TO.C,Rovpl1*%
G36*
G01*
X178762500Y-108175000D02*
X179237500Y-108175000D01*
G75*
G02*
X179475000Y-108412500I0J-237500D01*
G01*
X179475000Y-108912500D01*
G75*
G02*
X179237500Y-109150000I-237500J0D01*
G01*
X178762500Y-109150000D01*
G75*
G02*
X178525000Y-108912500I0J237500D01*
G01*
X178525000Y-108412500D01*
G75*
G02*
X178762500Y-108175000I237500J0D01*
G01*
G37*
G36*
G01*
X178762500Y-106350000D02*
X179237500Y-106350000D01*
G75*
G02*
X179475000Y-106587500I0J-237500D01*
G01*
X179475000Y-107087500D01*
G75*
G02*
X179237500Y-107325000I-237500J0D01*
G01*
X178762500Y-107325000D01*
G75*
G02*
X178525000Y-107087500I0J237500D01*
G01*
X178525000Y-106587500D01*
G75*
G02*
X178762500Y-106350000I237500J0D01*
G01*
G37*
%TD*%
%TO.C,Rovph2*%
G36*
G01*
X175375000Y-104400000D02*
X176625000Y-104400000D01*
G75*
G02*
X176875000Y-104650000I0J-250000D01*
G01*
X176875000Y-105450000D01*
G75*
G02*
X176625000Y-105700000I-250000J0D01*
G01*
X175375000Y-105700000D01*
G75*
G02*
X175125000Y-105450000I0J250000D01*
G01*
X175125000Y-104650000D01*
G75*
G02*
X175375000Y-104400000I250000J0D01*
G01*
G37*
G36*
G01*
X175375000Y-101300000D02*
X176625000Y-101300000D01*
G75*
G02*
X176875000Y-101550000I0J-250000D01*
G01*
X176875000Y-102350000D01*
G75*
G02*
X176625000Y-102600000I-250000J0D01*
G01*
X175375000Y-102600000D01*
G75*
G02*
X175125000Y-102350000I0J250000D01*
G01*
X175125000Y-101550000D01*
G75*
G02*
X175375000Y-101300000I250000J0D01*
G01*
G37*
%TD*%
%TO.C,Rovph1*%
G36*
G01*
X175375000Y-98900000D02*
X176625000Y-98900000D01*
G75*
G02*
X176875000Y-99150000I0J-250000D01*
G01*
X176875000Y-99950000D01*
G75*
G02*
X176625000Y-100200000I-250000J0D01*
G01*
X175375000Y-100200000D01*
G75*
G02*
X175125000Y-99950000I0J250000D01*
G01*
X175125000Y-99150000D01*
G75*
G02*
X175375000Y-98900000I250000J0D01*
G01*
G37*
G36*
G01*
X175375000Y-95800000D02*
X176625000Y-95800000D01*
G75*
G02*
X176875000Y-96050000I0J-250000D01*
G01*
X176875000Y-96850000D01*
G75*
G02*
X176625000Y-97100000I-250000J0D01*
G01*
X175375000Y-97100000D01*
G75*
G02*
X175125000Y-96850000I0J250000D01*
G01*
X175125000Y-96050000D01*
G75*
G02*
X175375000Y-95800000I250000J0D01*
G01*
G37*
%TD*%
%TO.C,R11*%
G36*
G01*
X160225000Y-114687500D02*
X160225000Y-114212500D01*
G75*
G02*
X160462500Y-113975000I237500J0D01*
G01*
X160962500Y-113975000D01*
G75*
G02*
X161200000Y-114212500I0J-237500D01*
G01*
X161200000Y-114687500D01*
G75*
G02*
X160962500Y-114925000I-237500J0D01*
G01*
X160462500Y-114925000D01*
G75*
G02*
X160225000Y-114687500I0J237500D01*
G01*
G37*
G36*
G01*
X158400000Y-114687500D02*
X158400000Y-114212500D01*
G75*
G02*
X158637500Y-113975000I237500J0D01*
G01*
X159137500Y-113975000D01*
G75*
G02*
X159375000Y-114212500I0J-237500D01*
G01*
X159375000Y-114687500D01*
G75*
G02*
X159137500Y-114925000I-237500J0D01*
G01*
X158637500Y-114925000D01*
G75*
G02*
X158400000Y-114687500I0J237500D01*
G01*
G37*
%TD*%
D15*
%TO.C,Risf2*%
X149460000Y-127000000D03*
D16*
X152000000Y-127000000D03*
%TD*%
D15*
%TO.C,Risf1*%
X143460000Y-127000000D03*
D16*
X146000000Y-127000000D03*
%TD*%
%TO.C,Ris3*%
G36*
G01*
X148850000Y-124425001D02*
X148850000Y-121574999D01*
G75*
G02*
X149099999Y-121325000I249999J0D01*
G01*
X150000001Y-121325000D01*
G75*
G02*
X150250000Y-121574999I0J-249999D01*
G01*
X150250000Y-124425001D01*
G75*
G02*
X150000001Y-124675000I-249999J0D01*
G01*
X149099999Y-124675000D01*
G75*
G02*
X148850000Y-124425001I0J249999D01*
G01*
G37*
G36*
G01*
X142750000Y-124425001D02*
X142750000Y-121574999D01*
G75*
G02*
X142999999Y-121325000I249999J0D01*
G01*
X143900001Y-121325000D01*
G75*
G02*
X144150000Y-121574999I0J-249999D01*
G01*
X144150000Y-124425001D01*
G75*
G02*
X143900001Y-124675000I-249999J0D01*
G01*
X142999999Y-124675000D01*
G75*
G02*
X142750000Y-124425001I0J249999D01*
G01*
G37*
%TD*%
%TO.C,Ris2*%
G36*
G01*
X148850000Y-119025001D02*
X148850000Y-116174999D01*
G75*
G02*
X149099999Y-115925000I249999J0D01*
G01*
X150000001Y-115925000D01*
G75*
G02*
X150250000Y-116174999I0J-249999D01*
G01*
X150250000Y-119025001D01*
G75*
G02*
X150000001Y-119275000I-249999J0D01*
G01*
X149099999Y-119275000D01*
G75*
G02*
X148850000Y-119025001I0J249999D01*
G01*
G37*
G36*
G01*
X142750000Y-119025001D02*
X142750000Y-116174999D01*
G75*
G02*
X142999999Y-115925000I249999J0D01*
G01*
X143900001Y-115925000D01*
G75*
G02*
X144150000Y-116174999I0J-249999D01*
G01*
X144150000Y-119025001D01*
G75*
G02*
X143900001Y-119275000I-249999J0D01*
G01*
X142999999Y-119275000D01*
G75*
G02*
X142750000Y-119025001I0J249999D01*
G01*
G37*
%TD*%
%TO.C,Ris1*%
G36*
G01*
X148850000Y-113425001D02*
X148850000Y-110574999D01*
G75*
G02*
X149099999Y-110325000I249999J0D01*
G01*
X150000001Y-110325000D01*
G75*
G02*
X150250000Y-110574999I0J-249999D01*
G01*
X150250000Y-113425001D01*
G75*
G02*
X150000001Y-113675000I-249999J0D01*
G01*
X149099999Y-113675000D01*
G75*
G02*
X148850000Y-113425001I0J249999D01*
G01*
G37*
G36*
G01*
X142750000Y-113425001D02*
X142750000Y-110574999D01*
G75*
G02*
X142999999Y-110325000I249999J0D01*
G01*
X143900001Y-110325000D01*
G75*
G02*
X144150000Y-110574999I0J-249999D01*
G01*
X144150000Y-113425001D01*
G75*
G02*
X143900001Y-113675000I-249999J0D01*
G01*
X142999999Y-113675000D01*
G75*
G02*
X142750000Y-113425001I0J249999D01*
G01*
G37*
%TD*%
%TO.C,Rgs1*%
G36*
G01*
X137237500Y-97075000D02*
X136762500Y-97075000D01*
G75*
G02*
X136525000Y-96837500I0J237500D01*
G01*
X136525000Y-96337500D01*
G75*
G02*
X136762500Y-96100000I237500J0D01*
G01*
X137237500Y-96100000D01*
G75*
G02*
X137475000Y-96337500I0J-237500D01*
G01*
X137475000Y-96837500D01*
G75*
G02*
X137237500Y-97075000I-237500J0D01*
G01*
G37*
G36*
G01*
X137237500Y-98900000D02*
X136762500Y-98900000D01*
G75*
G02*
X136525000Y-98662500I0J237500D01*
G01*
X136525000Y-98162500D01*
G75*
G02*
X136762500Y-97925000I237500J0D01*
G01*
X137237500Y-97925000D01*
G75*
G02*
X137475000Y-98162500I0J-237500D01*
G01*
X137475000Y-98662500D01*
G75*
G02*
X137237500Y-98900000I-237500J0D01*
G01*
G37*
%TD*%
%TO.C,Reo1*%
G36*
G01*
X173266000Y-117237500D02*
X173266000Y-116762500D01*
G75*
G02*
X173503500Y-116525000I237500J0D01*
G01*
X174003500Y-116525000D01*
G75*
G02*
X174241000Y-116762500I0J-237500D01*
G01*
X174241000Y-117237500D01*
G75*
G02*
X174003500Y-117475000I-237500J0D01*
G01*
X173503500Y-117475000D01*
G75*
G02*
X173266000Y-117237500I0J237500D01*
G01*
G37*
G36*
G01*
X171441000Y-117237500D02*
X171441000Y-116762500D01*
G75*
G02*
X171678500Y-116525000I237500J0D01*
G01*
X172178500Y-116525000D01*
G75*
G02*
X172416000Y-116762500I0J-237500D01*
G01*
X172416000Y-117237500D01*
G75*
G02*
X172178500Y-117475000I-237500J0D01*
G01*
X171678500Y-117475000D01*
G75*
G02*
X171441000Y-117237500I0J237500D01*
G01*
G37*
%TD*%
D20*
%TO.C,R8*%
X155100000Y-61700000D03*
D21*
X180500000Y-61700000D03*
%TD*%
D20*
%TO.C,R7*%
X155100000Y-69250000D03*
D21*
X180500000Y-69250000D03*
%TD*%
D15*
%TO.C,R6*%
X188480000Y-130670000D03*
D16*
X185940000Y-130670000D03*
%TD*%
D15*
%TO.C,R5*%
X177960000Y-125920000D03*
D16*
X180500000Y-125920000D03*
%TD*%
D15*
%TO.C,R2*%
X174940000Y-122130000D03*
D16*
X174940000Y-124670000D03*
%TD*%
D20*
%TO.C,R1*%
X105180000Y-135500000D03*
D21*
X125500000Y-135500000D03*
%TD*%
D22*
%TO.C,L3*%
X176150000Y-136000000D03*
X180850000Y-136000000D03*
%TD*%
%TO.C,L2*%
X148650000Y-135000000D03*
X153350000Y-135000000D03*
%TD*%
D23*
%TO.C,J3*%
X197540000Y-130750000D03*
D24*
X195000000Y-130750000D03*
%TD*%
D25*
%TO.C,D6*%
X180750000Y-131570000D03*
X180750000Y-128770000D03*
%TD*%
%TO.C,D5*%
X176190000Y-128770000D03*
X176190000Y-131570000D03*
%TD*%
D26*
%TO.C,D4*%
X130025000Y-137500000D03*
X130025000Y-133500000D03*
X135975000Y-133500000D03*
X135975000Y-137500000D03*
%TD*%
D25*
%TO.C,D3*%
X153600000Y-114500000D03*
X156400000Y-114500000D03*
%TD*%
D27*
%TO.C,D2*%
X142000000Y-84330000D03*
D28*
X142000000Y-79250000D03*
D19*
X158660000Y-81790000D03*
%TD*%
%TO.C,Cisf1*%
G36*
G01*
X152237500Y-123175000D02*
X151762500Y-123175000D01*
G75*
G02*
X151525000Y-122937500I0J237500D01*
G01*
X151525000Y-122337500D01*
G75*
G02*
X151762500Y-122100000I237500J0D01*
G01*
X152237500Y-122100000D01*
G75*
G02*
X152475000Y-122337500I0J-237500D01*
G01*
X152475000Y-122937500D01*
G75*
G02*
X152237500Y-123175000I-237500J0D01*
G01*
G37*
G36*
G01*
X152237500Y-124900000D02*
X151762500Y-124900000D01*
G75*
G02*
X151525000Y-124662500I0J237500D01*
G01*
X151525000Y-124062500D01*
G75*
G02*
X151762500Y-123825000I237500J0D01*
G01*
X152237500Y-123825000D01*
G75*
G02*
X152475000Y-124062500I0J-237500D01*
G01*
X152475000Y-124662500D01*
G75*
G02*
X152237500Y-124900000I-237500J0D01*
G01*
G37*
%TD*%
%TO.C,Ceo2*%
G36*
G01*
X175578500Y-115675000D02*
X175103500Y-115675000D01*
G75*
G02*
X174866000Y-115437500I0J237500D01*
G01*
X174866000Y-114837500D01*
G75*
G02*
X175103500Y-114600000I237500J0D01*
G01*
X175578500Y-114600000D01*
G75*
G02*
X175816000Y-114837500I0J-237500D01*
G01*
X175816000Y-115437500D01*
G75*
G02*
X175578500Y-115675000I-237500J0D01*
G01*
G37*
G36*
G01*
X175578500Y-117400000D02*
X175103500Y-117400000D01*
G75*
G02*
X174866000Y-117162500I0J237500D01*
G01*
X174866000Y-116562500D01*
G75*
G02*
X175103500Y-116325000I237500J0D01*
G01*
X175578500Y-116325000D01*
G75*
G02*
X175816000Y-116562500I0J-237500D01*
G01*
X175816000Y-117162500D01*
G75*
G02*
X175578500Y-117400000I-237500J0D01*
G01*
G37*
%TD*%
%TO.C,Ceo1*%
G36*
G01*
X173166000Y-115237500D02*
X173166000Y-114762500D01*
G75*
G02*
X173403500Y-114525000I237500J0D01*
G01*
X174003500Y-114525000D01*
G75*
G02*
X174241000Y-114762500I0J-237500D01*
G01*
X174241000Y-115237500D01*
G75*
G02*
X174003500Y-115475000I-237500J0D01*
G01*
X173403500Y-115475000D01*
G75*
G02*
X173166000Y-115237500I0J237500D01*
G01*
G37*
G36*
G01*
X171441000Y-115237500D02*
X171441000Y-114762500D01*
G75*
G02*
X171678500Y-114525000I237500J0D01*
G01*
X172278500Y-114525000D01*
G75*
G02*
X172516000Y-114762500I0J-237500D01*
G01*
X172516000Y-115237500D01*
G75*
G02*
X172278500Y-115475000I-237500J0D01*
G01*
X171678500Y-115475000D01*
G75*
G02*
X171441000Y-115237500I0J237500D01*
G01*
G37*
%TD*%
D16*
%TO.C,C22*%
X188440000Y-136170000D03*
D29*
X185940000Y-136170000D03*
%TD*%
%TO.C,C21*%
G36*
G01*
X178202500Y-130995000D02*
X178677500Y-130995000D01*
G75*
G02*
X178915000Y-131232500I0J-237500D01*
G01*
X178915000Y-131832500D01*
G75*
G02*
X178677500Y-132070000I-237500J0D01*
G01*
X178202500Y-132070000D01*
G75*
G02*
X177965000Y-131832500I0J237500D01*
G01*
X177965000Y-131232500D01*
G75*
G02*
X178202500Y-130995000I237500J0D01*
G01*
G37*
G36*
G01*
X178202500Y-129270000D02*
X178677500Y-129270000D01*
G75*
G02*
X178915000Y-129507500I0J-237500D01*
G01*
X178915000Y-130107500D01*
G75*
G02*
X178677500Y-130345000I-237500J0D01*
G01*
X178202500Y-130345000D01*
G75*
G02*
X177965000Y-130107500I0J237500D01*
G01*
X177965000Y-129507500D01*
G75*
G02*
X178202500Y-129270000I237500J0D01*
G01*
G37*
%TD*%
%TO.C,C20*%
G36*
G01*
X170090000Y-122820001D02*
X170090000Y-121519999D01*
G75*
G02*
X170339999Y-121270000I249999J0D01*
G01*
X171165001Y-121270000D01*
G75*
G02*
X171415000Y-121519999I0J-249999D01*
G01*
X171415000Y-122820001D01*
G75*
G02*
X171165001Y-123070000I-249999J0D01*
G01*
X170339999Y-123070000D01*
G75*
G02*
X170090000Y-122820001I0J249999D01*
G01*
G37*
G36*
G01*
X166965000Y-122820001D02*
X166965000Y-121519999D01*
G75*
G02*
X167214999Y-121270000I249999J0D01*
G01*
X168040001Y-121270000D01*
G75*
G02*
X168290000Y-121519999I0J-249999D01*
G01*
X168290000Y-122820001D01*
G75*
G02*
X168040001Y-123070000I-249999J0D01*
G01*
X167214999Y-123070000D01*
G75*
G02*
X166965000Y-122820001I0J249999D01*
G01*
G37*
%TD*%
%TO.C,C19*%
G36*
G01*
X170090000Y-125320001D02*
X170090000Y-124019999D01*
G75*
G02*
X170339999Y-123770000I249999J0D01*
G01*
X171165001Y-123770000D01*
G75*
G02*
X171415000Y-124019999I0J-249999D01*
G01*
X171415000Y-125320001D01*
G75*
G02*
X171165001Y-125570000I-249999J0D01*
G01*
X170339999Y-125570000D01*
G75*
G02*
X170090000Y-125320001I0J249999D01*
G01*
G37*
G36*
G01*
X166965000Y-125320001D02*
X166965000Y-124019999D01*
G75*
G02*
X167214999Y-123770000I249999J0D01*
G01*
X168040001Y-123770000D01*
G75*
G02*
X168290000Y-124019999I0J-249999D01*
G01*
X168290000Y-125320001D01*
G75*
G02*
X168040001Y-125570000I-249999J0D01*
G01*
X167214999Y-125570000D01*
G75*
G02*
X166965000Y-125320001I0J249999D01*
G01*
G37*
%TD*%
%TO.C,C18*%
G36*
G01*
X171952500Y-130995000D02*
X172427500Y-130995000D01*
G75*
G02*
X172665000Y-131232500I0J-237500D01*
G01*
X172665000Y-131832500D01*
G75*
G02*
X172427500Y-132070000I-237500J0D01*
G01*
X171952500Y-132070000D01*
G75*
G02*
X171715000Y-131832500I0J237500D01*
G01*
X171715000Y-131232500D01*
G75*
G02*
X171952500Y-130995000I237500J0D01*
G01*
G37*
G36*
G01*
X171952500Y-129270000D02*
X172427500Y-129270000D01*
G75*
G02*
X172665000Y-129507500I0J-237500D01*
G01*
X172665000Y-130107500D01*
G75*
G02*
X172427500Y-130345000I-237500J0D01*
G01*
X171952500Y-130345000D01*
G75*
G02*
X171715000Y-130107500I0J237500D01*
G01*
X171715000Y-129507500D01*
G75*
G02*
X171952500Y-129270000I237500J0D01*
G01*
G37*
%TD*%
%TO.C,C17*%
G36*
G01*
X170202500Y-130995000D02*
X170677500Y-130995000D01*
G75*
G02*
X170915000Y-131232500I0J-237500D01*
G01*
X170915000Y-131832500D01*
G75*
G02*
X170677500Y-132070000I-237500J0D01*
G01*
X170202500Y-132070000D01*
G75*
G02*
X169965000Y-131832500I0J237500D01*
G01*
X169965000Y-131232500D01*
G75*
G02*
X170202500Y-130995000I237500J0D01*
G01*
G37*
G36*
G01*
X170202500Y-129270000D02*
X170677500Y-129270000D01*
G75*
G02*
X170915000Y-129507500I0J-237500D01*
G01*
X170915000Y-130107500D01*
G75*
G02*
X170677500Y-130345000I-237500J0D01*
G01*
X170202500Y-130345000D01*
G75*
G02*
X169965000Y-130107500I0J237500D01*
G01*
X169965000Y-129507500D01*
G75*
G02*
X170202500Y-129270000I237500J0D01*
G01*
G37*
%TD*%
%TO.C,C16*%
G36*
G01*
X168452500Y-130995000D02*
X168927500Y-130995000D01*
G75*
G02*
X169165000Y-131232500I0J-237500D01*
G01*
X169165000Y-131832500D01*
G75*
G02*
X168927500Y-132070000I-237500J0D01*
G01*
X168452500Y-132070000D01*
G75*
G02*
X168215000Y-131832500I0J237500D01*
G01*
X168215000Y-131232500D01*
G75*
G02*
X168452500Y-130995000I237500J0D01*
G01*
G37*
G36*
G01*
X168452500Y-129270000D02*
X168927500Y-129270000D01*
G75*
G02*
X169165000Y-129507500I0J-237500D01*
G01*
X169165000Y-130107500D01*
G75*
G02*
X168927500Y-130345000I-237500J0D01*
G01*
X168452500Y-130345000D01*
G75*
G02*
X168215000Y-130107500I0J237500D01*
G01*
X168215000Y-129507500D01*
G75*
G02*
X168452500Y-129270000I237500J0D01*
G01*
G37*
%TD*%
%TO.C,C15*%
G36*
G01*
X166702500Y-130995000D02*
X167177500Y-130995000D01*
G75*
G02*
X167415000Y-131232500I0J-237500D01*
G01*
X167415000Y-131832500D01*
G75*
G02*
X167177500Y-132070000I-237500J0D01*
G01*
X166702500Y-132070000D01*
G75*
G02*
X166465000Y-131832500I0J237500D01*
G01*
X166465000Y-131232500D01*
G75*
G02*
X166702500Y-130995000I237500J0D01*
G01*
G37*
G36*
G01*
X166702500Y-129270000D02*
X167177500Y-129270000D01*
G75*
G02*
X167415000Y-129507500I0J-237500D01*
G01*
X167415000Y-130107500D01*
G75*
G02*
X167177500Y-130345000I-237500J0D01*
G01*
X166702500Y-130345000D01*
G75*
G02*
X166465000Y-130107500I0J237500D01*
G01*
X166465000Y-129507500D01*
G75*
G02*
X166702500Y-129270000I237500J0D01*
G01*
G37*
%TD*%
D16*
%TO.C,C14*%
X159000000Y-134000000D03*
D29*
X159000000Y-137500000D03*
%TD*%
D16*
%TO.C,C13*%
X143000000Y-134000000D03*
D29*
X143000000Y-137500000D03*
%TD*%
%TO.C,C12*%
G36*
G01*
X175762500Y-108075000D02*
X176237500Y-108075000D01*
G75*
G02*
X176475000Y-108312500I0J-237500D01*
G01*
X176475000Y-108912500D01*
G75*
G02*
X176237500Y-109150000I-237500J0D01*
G01*
X175762500Y-109150000D01*
G75*
G02*
X175525000Y-108912500I0J237500D01*
G01*
X175525000Y-108312500D01*
G75*
G02*
X175762500Y-108075000I237500J0D01*
G01*
G37*
G36*
G01*
X175762500Y-106350000D02*
X176237500Y-106350000D01*
G75*
G02*
X176475000Y-106587500I0J-237500D01*
G01*
X176475000Y-107187500D01*
G75*
G02*
X176237500Y-107425000I-237500J0D01*
G01*
X175762500Y-107425000D01*
G75*
G02*
X175525000Y-107187500I0J237500D01*
G01*
X175525000Y-106587500D01*
G75*
G02*
X175762500Y-106350000I237500J0D01*
G01*
G37*
%TD*%
%TO.C,C11*%
G36*
G01*
X178989999Y-79020000D02*
X181890001Y-79020000D01*
G75*
G02*
X182140000Y-79269999I0J-249999D01*
G01*
X182140000Y-80170001D01*
G75*
G02*
X181890001Y-80420000I-249999J0D01*
G01*
X178989999Y-80420000D01*
G75*
G02*
X178740000Y-80170001I0J249999D01*
G01*
X178740000Y-79269999D01*
G75*
G02*
X178989999Y-79020000I249999J0D01*
G01*
G37*
G36*
G01*
X178989999Y-74920000D02*
X181890001Y-74920000D01*
G75*
G02*
X182140000Y-75169999I0J-249999D01*
G01*
X182140000Y-76070001D01*
G75*
G02*
X181890001Y-76320000I-249999J0D01*
G01*
X178989999Y-76320000D01*
G75*
G02*
X178740000Y-76070001I0J249999D01*
G01*
X178740000Y-75169999D01*
G75*
G02*
X178989999Y-74920000I249999J0D01*
G01*
G37*
%TD*%
D21*
%TO.C,C10*%
X194500000Y-120250000D03*
D30*
X187000000Y-120250000D03*
%TD*%
D21*
%TO.C,C9*%
X194500000Y-86250000D03*
D30*
X187000000Y-86250000D03*
%TD*%
%TO.C,C8*%
G36*
G01*
X167262500Y-108075000D02*
X167737500Y-108075000D01*
G75*
G02*
X167975000Y-108312500I0J-237500D01*
G01*
X167975000Y-108912500D01*
G75*
G02*
X167737500Y-109150000I-237500J0D01*
G01*
X167262500Y-109150000D01*
G75*
G02*
X167025000Y-108912500I0J237500D01*
G01*
X167025000Y-108312500D01*
G75*
G02*
X167262500Y-108075000I237500J0D01*
G01*
G37*
G36*
G01*
X167262500Y-106350000D02*
X167737500Y-106350000D01*
G75*
G02*
X167975000Y-106587500I0J-237500D01*
G01*
X167975000Y-107187500D01*
G75*
G02*
X167737500Y-107425000I-237500J0D01*
G01*
X167262500Y-107425000D01*
G75*
G02*
X167025000Y-107187500I0J237500D01*
G01*
X167025000Y-106587500D01*
G75*
G02*
X167262500Y-106350000I237500J0D01*
G01*
G37*
%TD*%
D21*
%TO.C,C7*%
X194500000Y-69250000D03*
D30*
X187000000Y-69250000D03*
%TD*%
%TO.C,C6*%
G36*
G01*
X164349999Y-83900000D02*
X165650001Y-83900000D01*
G75*
G02*
X165900000Y-84149999I0J-249999D01*
G01*
X165900000Y-84975001D01*
G75*
G02*
X165650001Y-85225000I-249999J0D01*
G01*
X164349999Y-85225000D01*
G75*
G02*
X164100000Y-84975001I0J249999D01*
G01*
X164100000Y-84149999D01*
G75*
G02*
X164349999Y-83900000I249999J0D01*
G01*
G37*
G36*
G01*
X164349999Y-80775000D02*
X165650001Y-80775000D01*
G75*
G02*
X165900000Y-81024999I0J-249999D01*
G01*
X165900000Y-81850001D01*
G75*
G02*
X165650001Y-82100000I-249999J0D01*
G01*
X164349999Y-82100000D01*
G75*
G02*
X164100000Y-81850001I0J249999D01*
G01*
X164100000Y-81024999D01*
G75*
G02*
X164349999Y-80775000I249999J0D01*
G01*
G37*
%TD*%
D21*
%TO.C,C5*%
X194500000Y-103250000D03*
D30*
X187000000Y-103250000D03*
%TD*%
D16*
%TO.C,C4*%
X157750000Y-122500000D03*
D29*
X159750000Y-122500000D03*
%TD*%
%TO.C,C3*%
G36*
G01*
X159600000Y-105349999D02*
X159600000Y-106650001D01*
G75*
G02*
X159350001Y-106900000I-249999J0D01*
G01*
X158524999Y-106900000D01*
G75*
G02*
X158275000Y-106650001I0J249999D01*
G01*
X158275000Y-105349999D01*
G75*
G02*
X158524999Y-105100000I249999J0D01*
G01*
X159350001Y-105100000D01*
G75*
G02*
X159600000Y-105349999I0J-249999D01*
G01*
G37*
G36*
G01*
X162725000Y-105349999D02*
X162725000Y-106650001D01*
G75*
G02*
X162475001Y-106900000I-249999J0D01*
G01*
X161649999Y-106900000D01*
G75*
G02*
X161400000Y-106650001I0J249999D01*
G01*
X161400000Y-105349999D01*
G75*
G02*
X161649999Y-105100000I249999J0D01*
G01*
X162475001Y-105100000D01*
G75*
G02*
X162725000Y-105349999I0J-249999D01*
G01*
G37*
%TD*%
%TO.C,C2*%
G36*
G01*
X126549999Y-98350000D02*
X129450001Y-98350000D01*
G75*
G02*
X129700000Y-98599999I0J-249999D01*
G01*
X129700000Y-99500001D01*
G75*
G02*
X129450001Y-99750000I-249999J0D01*
G01*
X126549999Y-99750000D01*
G75*
G02*
X126300000Y-99500001I0J249999D01*
G01*
X126300000Y-98599999D01*
G75*
G02*
X126549999Y-98350000I249999J0D01*
G01*
G37*
G36*
G01*
X126549999Y-94250000D02*
X129450001Y-94250000D01*
G75*
G02*
X129700000Y-94499999I0J-249999D01*
G01*
X129700000Y-95400001D01*
G75*
G02*
X129450001Y-95650000I-249999J0D01*
G01*
X126549999Y-95650000D01*
G75*
G02*
X126300000Y-95400001I0J249999D01*
G01*
X126300000Y-94499999D01*
G75*
G02*
X126549999Y-94250000I249999J0D01*
G01*
G37*
%TD*%
%TO.C,C1*%
G36*
G01*
X121049999Y-98350000D02*
X123950001Y-98350000D01*
G75*
G02*
X124200000Y-98599999I0J-249999D01*
G01*
X124200000Y-99500001D01*
G75*
G02*
X123950001Y-99750000I-249999J0D01*
G01*
X121049999Y-99750000D01*
G75*
G02*
X120800000Y-99500001I0J249999D01*
G01*
X120800000Y-98599999D01*
G75*
G02*
X121049999Y-98350000I249999J0D01*
G01*
G37*
G36*
G01*
X121049999Y-94250000D02*
X123950001Y-94250000D01*
G75*
G02*
X124200000Y-94499999I0J-249999D01*
G01*
X124200000Y-95400001D01*
G75*
G02*
X123950001Y-95650000I-249999J0D01*
G01*
X121049999Y-95650000D01*
G75*
G02*
X120800000Y-95400001I0J249999D01*
G01*
X120800000Y-94499999D01*
G75*
G02*
X121049999Y-94250000I249999J0D01*
G01*
G37*
%TD*%
D11*
%TO.C,J1*%
X105000000Y-69250000D03*
D12*
X105000000Y-81050000D03*
%TD*%
D31*
%TO.C,L1*%
X116620000Y-69270000D03*
X116620000Y-89590000D03*
X119160000Y-69270000D03*
X121700000Y-69270000D03*
X124240000Y-69270000D03*
X129320000Y-69270000D03*
X131860000Y-69270000D03*
X134400000Y-69270000D03*
X136940000Y-69270000D03*
X120430000Y-89590000D03*
X124240000Y-89590000D03*
X129320000Y-89590000D03*
X133130000Y-89590000D03*
X136940000Y-89590000D03*
%TD*%
D32*
%TO.C,D1*%
X129500000Y-117000000D03*
D33*
X113500000Y-129500000D03*
X113500000Y-122000000D03*
X113500000Y-114500000D03*
X113500000Y-104500000D03*
%TD*%
M02*
