M48
; DRILL file {KiCad 5.1.9-73d0e3b20d~88~ubuntu20.04.1} date Thu Mar 11 22:23:25 2021
; FORMAT={-:-/ absolute / inch / decimal}
; #@! TF.CreationDate,2021-03-11T22:23:25-06:00
; #@! TF.GenerationSoftware,Kicad,Pcbnew,5.1.9-73d0e3b20d~88~ubuntu20.04.1
; #@! TF.FileFunction,Plated,1,2,PTH
FMAT,2
INCH
T1C0.0157
T2C0.0276
T3C0.0295
T4C0.0315
T5C0.0394
T6C0.0433
T7C0.0472
T8C0.0492
T9C0.0591
T10C0.0984
%
G90
G05
T1
X4.0551Y-2.4902
X4.252Y-2.4902
X4.3307Y-3.9862
X4.3307Y-4.1339
X4.3701Y-2.4902
X4.3894Y-5.4295
X4.4882Y-2.4902
X4.4882Y-2.6476
X4.5276Y-3.3465
X4.5276Y-4.3307
X4.6315Y-5.4524
X4.7244Y-3.3465
X4.7244Y-4.9213
X4.9213Y-3.3465
X4.9213Y-4.3307
X4.9213Y-4.7244
X4.9213Y-4.9213
X5.1181Y-3.3465
X5.1575Y-4.1339
X5.2362Y-4.0157
X5.2756Y-3.7402
X5.315Y-3.1496
X5.315Y-3.3465
X5.3543Y-4.2126
X5.4724Y-4.1339
X5.5118Y-2.9528
X5.7087Y-2.9528
X5.8661Y-3.9764
X5.9055Y-4.1437
X5.9055Y-4.7343
X5.9744Y-4.4094
X5.9858Y-3.4346
X5.9909Y-2.9579
X6.0472Y-4.2854
X6.0862Y-3.8075
X6.1417Y-3.5433
X6.1614Y-4.4094
X6.287Y-3.4335
X6.2992Y-3.5433
X6.3224Y-2.6063
X6.365Y-4.3347
X6.5354Y-4.0551
X6.5441Y-2.5287
X6.564Y-5.3317
X6.624Y-4.3407
X6.6929Y-3.1496
X6.6929Y-3.5433
X6.7323Y-2.9921
X6.8465Y-2.5346
X6.8602Y-5.2756
X6.8898Y-2.9528
X6.8898Y-3.1496
X6.8898Y-3.5433
X7.0866Y-3.3465
X7.0866Y-3.5433
X7.0866Y-4.5276
X7.126Y-4.0157
X7.2047Y-3.7008
X7.2047Y-4.4094
X7.3228Y-5.4823
X7.3622Y-4.9705
X7.6575Y-3.0217
X7.6575Y-3.8484
X7.6575Y-4.3996
X7.7165Y-4.9705
T2
X6.415Y-5.0165
X6.415Y-5.1165
X7.0063Y-4.8031
X7.1063Y-4.8031
T3
X4.5913Y-2.7272
X4.5913Y-3.5272
X4.6913Y-2.7272
X4.7413Y-3.5272
X4.7913Y-2.7272
X4.8913Y-2.7272
X4.8913Y-3.5272
X5.0913Y-2.7272
X5.0913Y-3.5272
X5.1913Y-2.7272
X5.2413Y-3.5272
X5.2913Y-2.7272
X5.3913Y-2.7272
X5.3913Y-3.5272
T4
X5.6299Y-5.2756
X5.6299Y-5.4134
X5.648Y-5.0
X5.748Y-4.1732
X5.748Y-5.0
X5.8843Y-5.0
X5.9843Y-5.0
X6.148Y-4.1732
X6.2106Y-4.8228
X6.2598Y-5.2756
X6.2598Y-5.4134
X6.2894Y-4.8228
X6.4961Y-3.4367
X6.4961Y-3.8367
X6.8874Y-4.8083
X6.8874Y-4.9083
X7.0063Y-4.9575
X7.1063Y-4.9575
X7.3205Y-5.1445
X7.3205Y-5.361
X7.4189Y-5.361
X7.4205Y-5.1445
T5
X7.6772Y-5.1476
X7.7772Y-5.1476
T6
X5.5906Y-3.1201
X5.5906Y-3.3201
X5.5906Y-3.7402
X5.5906Y-3.8402
X5.5906Y-3.9402
T7
X4.1409Y-5.3346
X4.9409Y-5.3346
X6.0827Y-4.7736
X6.1063Y-2.4291
X6.1063Y-2.7264
X7.1063Y-2.4291
X7.1063Y-2.7264
X7.3622Y-2.7264
X7.3622Y-3.3957
X7.3622Y-4.065
X7.3622Y-4.7343
X7.6575Y-2.7264
X7.6575Y-3.3957
X7.6575Y-4.065
X7.6575Y-4.7343
T8
X4.4685Y-4.1142
X4.4685Y-4.5079
X4.4685Y-4.8031
X4.4685Y-5.0984
T9
X4.1339Y-3.8287
X4.3701Y-3.5925
X4.6457Y-5.3248
X4.7638Y-4.2618
X5.2756Y-4.8425
T10
X4.1339Y-2.7264
X4.1339Y-3.1909
X4.1339Y-4.3484
X4.1339Y-4.813
X7.184Y-2.1817
X7.6486Y-2.1817
T0
M30
