%TF.GenerationSoftware,KiCad,Pcbnew,5.1.9-73d0e3b20d~88~ubuntu20.04.1*%
%TF.CreationDate,2021-03-11T22:20:10-06:00*%
%TF.ProjectId,brd,6272642e-6b69-4636-9164-5f7063625858,rev?*%
%TF.SameCoordinates,Original*%
%TF.FileFunction,Legend,Top*%
%TF.FilePolarity,Positive*%
%FSLAX46Y46*%
G04 Gerber Fmt 4.6, Leading zero omitted, Abs format (unit mm)*
G04 Created by KiCad (PCBNEW 5.1.9-73d0e3b20d~88~ubuntu20.04.1) date 2021-03-11 22:20:10*
%MOMM*%
%LPD*%
G01*
G04 APERTURE LIST*
%ADD10C,0.300000*%
%ADD11C,0.120000*%
%ADD12C,0.200000*%
%ADD13C,0.150000*%
%ADD14C,0.254000*%
G04 APERTURE END LIST*
D10*
X40621428Y-54678571D02*
X41121428Y-56178571D01*
X41621428Y-54678571D01*
X42121428Y-54678571D02*
X42121428Y-55892857D01*
X42192857Y-56035714D01*
X42264285Y-56107142D01*
X42407142Y-56178571D01*
X42692857Y-56178571D01*
X42835714Y-56107142D01*
X42907142Y-56035714D01*
X42978571Y-55892857D01*
X42978571Y-54678571D01*
X43692857Y-56178571D02*
X43692857Y-54678571D01*
X44264285Y-54678571D01*
X44407142Y-54750000D01*
X44478571Y-54821428D01*
X44550000Y-54964285D01*
X44550000Y-55178571D01*
X44478571Y-55321428D01*
X44407142Y-55392857D01*
X44264285Y-55464285D01*
X43692857Y-55464285D01*
X45192857Y-56178571D02*
X45192857Y-54678571D01*
X45692857Y-54678571D02*
X46550000Y-54678571D01*
X46121428Y-56178571D02*
X46121428Y-54678571D01*
X47050000Y-55392857D02*
X47550000Y-55392857D01*
X47764285Y-56178571D02*
X47050000Y-56178571D01*
X47050000Y-54678571D01*
X47764285Y-54678571D01*
X49264285Y-56178571D02*
X48764285Y-55464285D01*
X48407142Y-56178571D02*
X48407142Y-54678571D01*
X48978571Y-54678571D01*
X49121428Y-54750000D01*
X49192857Y-54821428D01*
X49264285Y-54964285D01*
X49264285Y-55178571D01*
X49192857Y-55321428D01*
X49121428Y-55392857D01*
X48978571Y-55464285D01*
X48407142Y-55464285D01*
X51049999Y-56178571D02*
X51049999Y-54678571D01*
X51407142Y-54678571D01*
X51621428Y-54750000D01*
X51764285Y-54892857D01*
X51835714Y-55035714D01*
X51907142Y-55321428D01*
X51907142Y-55535714D01*
X51835714Y-55821428D01*
X51764285Y-55964285D01*
X51621428Y-56107142D01*
X51407142Y-56178571D01*
X51049999Y-56178571D01*
X53407142Y-56035714D02*
X53335714Y-56107142D01*
X53121428Y-56178571D01*
X52978571Y-56178571D01*
X52764285Y-56107142D01*
X52621428Y-55964285D01*
X52549999Y-55821428D01*
X52478571Y-55535714D01*
X52478571Y-55321428D01*
X52549999Y-55035714D01*
X52621428Y-54892857D01*
X52764285Y-54750000D01*
X52978571Y-54678571D01*
X53121428Y-54678571D01*
X53335714Y-54750000D01*
X53407142Y-54821428D01*
X55192857Y-56178571D02*
X55192857Y-54678571D01*
X55764285Y-54678571D01*
X55907142Y-54750000D01*
X55978571Y-54821428D01*
X56049999Y-54964285D01*
X56049999Y-55178571D01*
X55978571Y-55321428D01*
X55907142Y-55392857D01*
X55764285Y-55464285D01*
X55192857Y-55464285D01*
X56978571Y-54678571D02*
X57264285Y-54678571D01*
X57407142Y-54750000D01*
X57549999Y-54892857D01*
X57621428Y-55178571D01*
X57621428Y-55678571D01*
X57549999Y-55964285D01*
X57407142Y-56107142D01*
X57264285Y-56178571D01*
X56978571Y-56178571D01*
X56835714Y-56107142D01*
X56692857Y-55964285D01*
X56621428Y-55678571D01*
X56621428Y-55178571D01*
X56692857Y-54892857D01*
X56835714Y-54750000D01*
X56978571Y-54678571D01*
X58121428Y-54678571D02*
X58478571Y-56178571D01*
X58764285Y-55107142D01*
X59049999Y-56178571D01*
X59407142Y-54678571D01*
X59978571Y-55392857D02*
X60478571Y-55392857D01*
X60692857Y-56178571D02*
X59978571Y-56178571D01*
X59978571Y-54678571D01*
X60692857Y-54678571D01*
X62192857Y-56178571D02*
X61692857Y-55464285D01*
X61335714Y-56178571D02*
X61335714Y-54678571D01*
X61907142Y-54678571D01*
X62049999Y-54750000D01*
X62121428Y-54821428D01*
X62192857Y-54964285D01*
X62192857Y-55178571D01*
X62121428Y-55321428D01*
X62049999Y-55392857D01*
X61907142Y-55464285D01*
X61335714Y-55464285D01*
X63907142Y-56107142D02*
X64121428Y-56178571D01*
X64478571Y-56178571D01*
X64621428Y-56107142D01*
X64692857Y-56035714D01*
X64764285Y-55892857D01*
X64764285Y-55750000D01*
X64692857Y-55607142D01*
X64621428Y-55535714D01*
X64478571Y-55464285D01*
X64192857Y-55392857D01*
X64049999Y-55321428D01*
X63978571Y-55250000D01*
X63907142Y-55107142D01*
X63907142Y-54964285D01*
X63978571Y-54821428D01*
X64049999Y-54750000D01*
X64192857Y-54678571D01*
X64549999Y-54678571D01*
X64764285Y-54750000D01*
X65407142Y-54678571D02*
X65407142Y-55892857D01*
X65478571Y-56035714D01*
X65549999Y-56107142D01*
X65692857Y-56178571D01*
X65978571Y-56178571D01*
X66121428Y-56107142D01*
X66192857Y-56035714D01*
X66264285Y-55892857D01*
X66264285Y-54678571D01*
X66978571Y-56178571D02*
X66978571Y-54678571D01*
X67550000Y-54678571D01*
X67692857Y-54750000D01*
X67764285Y-54821428D01*
X67835714Y-54964285D01*
X67835714Y-55178571D01*
X67764285Y-55321428D01*
X67692857Y-55392857D01*
X67550000Y-55464285D01*
X66978571Y-55464285D01*
X68478571Y-56178571D02*
X68478571Y-54678571D01*
X69050000Y-54678571D01*
X69192857Y-54750000D01*
X69264285Y-54821428D01*
X69335714Y-54964285D01*
X69335714Y-55178571D01*
X69264285Y-55321428D01*
X69192857Y-55392857D01*
X69050000Y-55464285D01*
X68478571Y-55464285D01*
X70692857Y-56178571D02*
X69978571Y-56178571D01*
X69978571Y-54678571D01*
X71478571Y-55464285D02*
X71478571Y-56178571D01*
X70978571Y-54678571D02*
X71478571Y-55464285D01*
X71978571Y-54678571D01*
X43942857Y-58728571D02*
X43228571Y-58728571D01*
X43228571Y-57228571D01*
X44442857Y-58728571D02*
X44442857Y-57728571D01*
X44442857Y-57228571D02*
X44371428Y-57300000D01*
X44442857Y-57371428D01*
X44514285Y-57300000D01*
X44442857Y-57228571D01*
X44442857Y-57371428D01*
X45157142Y-57728571D02*
X45157142Y-58728571D01*
X45157142Y-57871428D02*
X45228571Y-57800000D01*
X45371428Y-57728571D01*
X45585714Y-57728571D01*
X45728571Y-57800000D01*
X45799999Y-57942857D01*
X45799999Y-58728571D01*
X47085714Y-58657142D02*
X46942857Y-58728571D01*
X46657142Y-58728571D01*
X46514285Y-58657142D01*
X46442857Y-58514285D01*
X46442857Y-57942857D01*
X46514285Y-57800000D01*
X46657142Y-57728571D01*
X46942857Y-57728571D01*
X47085714Y-57800000D01*
X47157142Y-57942857D01*
X47157142Y-58085714D01*
X46442857Y-58228571D01*
X48442857Y-58728571D02*
X48442857Y-57942857D01*
X48371428Y-57800000D01*
X48228571Y-57728571D01*
X47942857Y-57728571D01*
X47799999Y-57800000D01*
X48442857Y-58657142D02*
X48299999Y-58728571D01*
X47942857Y-58728571D01*
X47799999Y-58657142D01*
X47728571Y-58514285D01*
X47728571Y-58371428D01*
X47799999Y-58228571D01*
X47942857Y-58157142D01*
X48299999Y-58157142D01*
X48442857Y-58085714D01*
X49157142Y-58728571D02*
X49157142Y-57728571D01*
X49157142Y-58014285D02*
X49228571Y-57871428D01*
X49299999Y-57800000D01*
X49442857Y-57728571D01*
X49585714Y-57728571D01*
X51228571Y-58728571D02*
X51228571Y-57728571D01*
X51228571Y-58014285D02*
X51299999Y-57871428D01*
X51371428Y-57800000D01*
X51514285Y-57728571D01*
X51657142Y-57728571D01*
X52728571Y-58657142D02*
X52585714Y-58728571D01*
X52299999Y-58728571D01*
X52157142Y-58657142D01*
X52085714Y-58514285D01*
X52085714Y-57942857D01*
X52157142Y-57800000D01*
X52299999Y-57728571D01*
X52585714Y-57728571D01*
X52728571Y-57800000D01*
X52799999Y-57942857D01*
X52799999Y-58085714D01*
X52085714Y-58228571D01*
X54085714Y-57728571D02*
X54085714Y-58942857D01*
X54014285Y-59085714D01*
X53942857Y-59157142D01*
X53799999Y-59228571D01*
X53585714Y-59228571D01*
X53442857Y-59157142D01*
X54085714Y-58657142D02*
X53942857Y-58728571D01*
X53657142Y-58728571D01*
X53514285Y-58657142D01*
X53442857Y-58585714D01*
X53371428Y-58442857D01*
X53371428Y-58014285D01*
X53442857Y-57871428D01*
X53514285Y-57800000D01*
X53657142Y-57728571D01*
X53942857Y-57728571D01*
X54085714Y-57800000D01*
X55442857Y-57728571D02*
X55442857Y-58728571D01*
X54799999Y-57728571D02*
X54799999Y-58514285D01*
X54871428Y-58657142D01*
X55014285Y-58728571D01*
X55228571Y-58728571D01*
X55371428Y-58657142D01*
X55442857Y-58585714D01*
X56371428Y-58728571D02*
X56228571Y-58657142D01*
X56157142Y-58514285D01*
X56157142Y-57228571D01*
X57585714Y-58728571D02*
X57585714Y-57942857D01*
X57514285Y-57800000D01*
X57371428Y-57728571D01*
X57085714Y-57728571D01*
X56942857Y-57800000D01*
X57585714Y-58657142D02*
X57442857Y-58728571D01*
X57085714Y-58728571D01*
X56942857Y-58657142D01*
X56871428Y-58514285D01*
X56871428Y-58371428D01*
X56942857Y-58228571D01*
X57085714Y-58157142D01*
X57442857Y-58157142D01*
X57585714Y-58085714D01*
X58085714Y-57728571D02*
X58657142Y-57728571D01*
X58299999Y-57228571D02*
X58299999Y-58514285D01*
X58371428Y-58657142D01*
X58514285Y-58728571D01*
X58657142Y-58728571D01*
X59157142Y-58728571D02*
X59157142Y-57728571D01*
X59157142Y-57228571D02*
X59085714Y-57300000D01*
X59157142Y-57371428D01*
X59228571Y-57300000D01*
X59157142Y-57228571D01*
X59157142Y-57371428D01*
X60085714Y-58728571D02*
X59942857Y-58657142D01*
X59871428Y-58585714D01*
X59799999Y-58442857D01*
X59799999Y-58014285D01*
X59871428Y-57871428D01*
X59942857Y-57800000D01*
X60085714Y-57728571D01*
X60299999Y-57728571D01*
X60442857Y-57800000D01*
X60514285Y-57871428D01*
X60585714Y-58014285D01*
X60585714Y-58442857D01*
X60514285Y-58585714D01*
X60442857Y-58657142D01*
X60299999Y-58728571D01*
X60085714Y-58728571D01*
X61228571Y-57728571D02*
X61228571Y-58728571D01*
X61228571Y-57871428D02*
X61299999Y-57800000D01*
X61442857Y-57728571D01*
X61657142Y-57728571D01*
X61799999Y-57800000D01*
X61871428Y-57942857D01*
X61871428Y-58728571D01*
X63728571Y-58728571D02*
X63728571Y-57228571D01*
X63728571Y-57800000D02*
X63871428Y-57728571D01*
X64157142Y-57728571D01*
X64299999Y-57800000D01*
X64371428Y-57871428D01*
X64442857Y-58014285D01*
X64442857Y-58442857D01*
X64371428Y-58585714D01*
X64299999Y-58657142D01*
X64157142Y-58728571D01*
X63871428Y-58728571D01*
X63728571Y-58657142D01*
X65299999Y-58728571D02*
X65157142Y-58657142D01*
X65085714Y-58585714D01*
X65014285Y-58442857D01*
X65014285Y-58014285D01*
X65085714Y-57871428D01*
X65157142Y-57800000D01*
X65299999Y-57728571D01*
X65514285Y-57728571D01*
X65657142Y-57800000D01*
X65728571Y-57871428D01*
X65799999Y-58014285D01*
X65799999Y-58442857D01*
X65728571Y-58585714D01*
X65657142Y-58657142D01*
X65514285Y-58728571D01*
X65299999Y-58728571D01*
X67085714Y-58728571D02*
X67085714Y-57942857D01*
X67014285Y-57800000D01*
X66871428Y-57728571D01*
X66585714Y-57728571D01*
X66442857Y-57800000D01*
X67085714Y-58657142D02*
X66942857Y-58728571D01*
X66585714Y-58728571D01*
X66442857Y-58657142D01*
X66371428Y-58514285D01*
X66371428Y-58371428D01*
X66442857Y-58228571D01*
X66585714Y-58157142D01*
X66942857Y-58157142D01*
X67085714Y-58085714D01*
X67800000Y-58728571D02*
X67800000Y-57728571D01*
X67800000Y-58014285D02*
X67871428Y-57871428D01*
X67942857Y-57800000D01*
X68085714Y-57728571D01*
X68228571Y-57728571D01*
X69371428Y-58728571D02*
X69371428Y-57228571D01*
X69371428Y-58657142D02*
X69228571Y-58728571D01*
X68942857Y-58728571D01*
X68800000Y-58657142D01*
X68728571Y-58585714D01*
X68657142Y-58442857D01*
X68657142Y-58014285D01*
X68728571Y-57871428D01*
X68800000Y-57800000D01*
X68942857Y-57728571D01*
X69228571Y-57728571D01*
X69371428Y-57800000D01*
X40692857Y-59778571D02*
X41192857Y-61278571D01*
X41692857Y-59778571D01*
X42121428Y-59921428D02*
X42192857Y-59850000D01*
X42335714Y-59778571D01*
X42692857Y-59778571D01*
X42835714Y-59850000D01*
X42907142Y-59921428D01*
X42978571Y-60064285D01*
X42978571Y-60207142D01*
X42907142Y-60421428D01*
X42050000Y-61278571D01*
X42978571Y-61278571D01*
X44764285Y-60707142D02*
X45907142Y-60707142D01*
X48621428Y-61278571D02*
X48121428Y-60564285D01*
X47764285Y-61278571D02*
X47764285Y-59778571D01*
X48335714Y-59778571D01*
X48478571Y-59850000D01*
X48550000Y-59921428D01*
X48621428Y-60064285D01*
X48621428Y-60278571D01*
X48550000Y-60421428D01*
X48478571Y-60492857D01*
X48335714Y-60564285D01*
X47764285Y-60564285D01*
X49835714Y-61207142D02*
X49692857Y-61278571D01*
X49407142Y-61278571D01*
X49264285Y-61207142D01*
X49192857Y-61064285D01*
X49192857Y-60492857D01*
X49264285Y-60350000D01*
X49407142Y-60278571D01*
X49692857Y-60278571D01*
X49835714Y-60350000D01*
X49907142Y-60492857D01*
X49907142Y-60635714D01*
X49192857Y-60778571D01*
X50407142Y-60278571D02*
X50764285Y-61278571D01*
X51121428Y-60278571D01*
X52478571Y-61278571D02*
X51621428Y-61278571D01*
X52050000Y-61278571D02*
X52050000Y-59778571D01*
X51907142Y-59992857D01*
X51764285Y-60135714D01*
X51621428Y-60207142D01*
X54264285Y-60707142D02*
X55407142Y-60707142D01*
X57550000Y-59778571D02*
X57692857Y-59778571D01*
X57835714Y-59850000D01*
X57907142Y-59921428D01*
X57978571Y-60064285D01*
X58050000Y-60350000D01*
X58050000Y-60707142D01*
X57978571Y-60992857D01*
X57907142Y-61135714D01*
X57835714Y-61207142D01*
X57692857Y-61278571D01*
X57550000Y-61278571D01*
X57407142Y-61207142D01*
X57335714Y-61135714D01*
X57264285Y-60992857D01*
X57192857Y-60707142D01*
X57192857Y-60350000D01*
X57264285Y-60064285D01*
X57335714Y-59921428D01*
X57407142Y-59850000D01*
X57550000Y-59778571D01*
X58550000Y-59778571D02*
X59478571Y-59778571D01*
X58978571Y-60350000D01*
X59192857Y-60350000D01*
X59335714Y-60421428D01*
X59407142Y-60492857D01*
X59478571Y-60635714D01*
X59478571Y-60992857D01*
X59407142Y-61135714D01*
X59335714Y-61207142D01*
X59192857Y-61278571D01*
X58764285Y-61278571D01*
X58621428Y-61207142D01*
X58550000Y-61135714D01*
X60121428Y-60707142D02*
X61264285Y-60707142D01*
X62264285Y-59778571D02*
X62407142Y-59778571D01*
X62550000Y-59850000D01*
X62621428Y-59921428D01*
X62692857Y-60064285D01*
X62764285Y-60350000D01*
X62764285Y-60707142D01*
X62692857Y-60992857D01*
X62621428Y-61135714D01*
X62550000Y-61207142D01*
X62407142Y-61278571D01*
X62264285Y-61278571D01*
X62121428Y-61207142D01*
X62050000Y-61135714D01*
X61978571Y-60992857D01*
X61907142Y-60707142D01*
X61907142Y-60350000D01*
X61978571Y-60064285D01*
X62050000Y-59921428D01*
X62121428Y-59850000D01*
X62264285Y-59778571D01*
X63478571Y-61278571D02*
X63764285Y-61278571D01*
X63907142Y-61207142D01*
X63978571Y-61135714D01*
X64121428Y-60921428D01*
X64192857Y-60635714D01*
X64192857Y-60064285D01*
X64121428Y-59921428D01*
X64050000Y-59850000D01*
X63907142Y-59778571D01*
X63621428Y-59778571D01*
X63478571Y-59850000D01*
X63407142Y-59921428D01*
X63335714Y-60064285D01*
X63335714Y-60421428D01*
X63407142Y-60564285D01*
X63478571Y-60635714D01*
X63621428Y-60707142D01*
X63907142Y-60707142D01*
X64050000Y-60635714D01*
X64121428Y-60564285D01*
X64192857Y-60421428D01*
X64835714Y-60707142D02*
X65978571Y-60707142D01*
X66621428Y-59921428D02*
X66692857Y-59850000D01*
X66835714Y-59778571D01*
X67192857Y-59778571D01*
X67335714Y-59850000D01*
X67407142Y-59921428D01*
X67478571Y-60064285D01*
X67478571Y-60207142D01*
X67407142Y-60421428D01*
X66550000Y-61278571D01*
X67478571Y-61278571D01*
X68407142Y-59778571D02*
X68550000Y-59778571D01*
X68692857Y-59850000D01*
X68764285Y-59921428D01*
X68835714Y-60064285D01*
X68907142Y-60350000D01*
X68907142Y-60707142D01*
X68835714Y-60992857D01*
X68764285Y-61135714D01*
X68692857Y-61207142D01*
X68550000Y-61278571D01*
X68407142Y-61278571D01*
X68264285Y-61207142D01*
X68192857Y-61135714D01*
X68121428Y-60992857D01*
X68050000Y-60707142D01*
X68050000Y-60350000D01*
X68121428Y-60064285D01*
X68192857Y-59921428D01*
X68264285Y-59850000D01*
X68407142Y-59778571D01*
X69478571Y-59921428D02*
X69550000Y-59850000D01*
X69692857Y-59778571D01*
X70050000Y-59778571D01*
X70192857Y-59850000D01*
X70264285Y-59921428D01*
X70335714Y-60064285D01*
X70335714Y-60207142D01*
X70264285Y-60421428D01*
X69407142Y-61278571D01*
X70335714Y-61278571D01*
X71764285Y-61278571D02*
X70907142Y-61278571D01*
X71335714Y-61278571D02*
X71335714Y-59778571D01*
X71192857Y-59992857D01*
X71050000Y-60135714D01*
X70907142Y-60207142D01*
D11*
%TO.C,R24*%
X86744775Y-110171380D02*
G75*
G02*
X86853272Y-108400000I-1344775J971380D01*
G01*
%TO.C,R23*%
X85871380Y-81755225D02*
G75*
G02*
X84100000Y-81646728I-971380J-1344775D01*
G01*
%TO.C,R22*%
X81171380Y-81755225D02*
G75*
G02*
X79400000Y-81646728I-971380J-1344775D01*
G01*
%TO.C,R21*%
X68946380Y-115280225D02*
G75*
G02*
X67175000Y-115171728I-971380J-1344775D01*
G01*
%TO.C,R8*%
X77921380Y-98380225D02*
G75*
G02*
X76150000Y-98271728I-971380J-1344775D01*
G01*
%TO.C,L8*%
X68236252Y-119485000D02*
X67713748Y-119485000D01*
X68236252Y-118065000D02*
X67713748Y-118065000D01*
%TO.C,L4*%
X77610000Y-103378748D02*
X77610000Y-103901252D01*
X76190000Y-103378748D02*
X76190000Y-103901252D01*
%TO.C,C18*%
X90590000Y-109511252D02*
X90590000Y-108088748D01*
X92410000Y-109511252D02*
X92410000Y-108088748D01*
%TO.C,C7*%
X78110000Y-107488748D02*
X78110000Y-108911252D01*
X76290000Y-107488748D02*
X76290000Y-108911252D01*
%TO.C,RV5*%
X93600000Y-93550000D02*
X93600000Y-93150000D01*
X92500000Y-94950000D02*
X89600000Y-94950000D01*
X89600000Y-94950000D02*
X89600000Y-94350000D01*
X92500000Y-91750000D02*
X89600000Y-91750000D01*
X89600000Y-91750000D02*
X89600000Y-92350000D01*
X93400000Y-95150000D02*
X94100000Y-95150000D01*
X94100000Y-95150000D02*
X94100000Y-94450000D01*
%TO.C,R9*%
X110515100Y-56221900D02*
G75*
G03*
X110515100Y-56221900I-1370000J0D01*
G01*
X110515100Y-56221900D02*
X110585100Y-56221900D01*
%TO.C,R7*%
X94421500Y-66559000D02*
G75*
G03*
X94421500Y-66559000I-1370000J0D01*
G01*
X94421500Y-66559000D02*
X94491500Y-66559000D01*
%TO.C,R14*%
X112070000Y-86250000D02*
G75*
G03*
X112070000Y-86250000I-1370000J0D01*
G01*
X109330000Y-86250000D02*
X106720000Y-86250000D01*
%TO.C,U6*%
X112450468Y-75000648D02*
X112450468Y-76950648D01*
X112450468Y-75000648D02*
X112450468Y-73050648D01*
X117570468Y-75000648D02*
X117570468Y-76950648D01*
X117570468Y-75000648D02*
X117570468Y-71550648D01*
%TO.C,U5*%
X120730000Y-103890000D02*
X110490000Y-103890000D01*
X120730000Y-119780000D02*
X110490000Y-119780000D01*
X120730000Y-119780000D02*
X120730000Y-103890000D01*
X110490000Y-119780000D02*
X110490000Y-103890000D01*
X118150000Y-103890000D02*
X118150000Y-101350000D01*
X115610000Y-103890000D02*
X115610000Y-101350000D01*
X113070000Y-103890000D02*
X113070000Y-101350000D01*
%TO.C,U4*%
X92400000Y-99990000D02*
X90450000Y-99990000D01*
X92400000Y-99990000D02*
X94350000Y-99990000D01*
X92400000Y-105110000D02*
X90450000Y-105110000D01*
X92400000Y-105110000D02*
X95850000Y-105110000D01*
%TO.C,U3*%
X92400000Y-113490000D02*
X90450000Y-113490000D01*
X92400000Y-113490000D02*
X94350000Y-113490000D01*
X92400000Y-118610000D02*
X90450000Y-118610000D01*
X92400000Y-118610000D02*
X95850000Y-118610000D01*
%TO.C,U2*%
X106633200Y-58698400D02*
X106633200Y-56748400D01*
X106633200Y-58698400D02*
X106633200Y-60648400D01*
X97763200Y-58698400D02*
X97763200Y-56748400D01*
X97763200Y-58698400D02*
X97763200Y-62148400D01*
%TO.C,U1*%
X91263500Y-64019000D02*
X91263500Y-62069000D01*
X91263500Y-64019000D02*
X91263500Y-65969000D01*
X82393500Y-64019000D02*
X82393500Y-62069000D01*
X82393500Y-64019000D02*
X82393500Y-67469000D01*
%TO.C,RV9*%
X79770500Y-68913000D02*
X80170500Y-68913000D01*
X78370500Y-67813000D02*
X78370500Y-64913000D01*
X78370500Y-64913000D02*
X78970500Y-64913000D01*
X81570500Y-67813000D02*
X81570500Y-64913000D01*
X81570500Y-64913000D02*
X80970500Y-64913000D01*
X78170500Y-68713000D02*
X78170500Y-69413000D01*
X78170500Y-69413000D02*
X78870500Y-69413000D01*
%TO.C,RV8*%
X102140000Y-67410000D02*
X102140000Y-67010000D01*
X101040000Y-68810000D02*
X98140000Y-68810000D01*
X98140000Y-68810000D02*
X98140000Y-68210000D01*
X101040000Y-65610000D02*
X98140000Y-65610000D01*
X98140000Y-65610000D02*
X98140000Y-66210000D01*
X101940000Y-69010000D02*
X102640000Y-69010000D01*
X102640000Y-69010000D02*
X102640000Y-68310000D01*
%TO.C,RV7*%
X98500000Y-108850000D02*
X98500000Y-108450000D01*
X97400000Y-110250000D02*
X94500000Y-110250000D01*
X94500000Y-110250000D02*
X94500000Y-109650000D01*
X97400000Y-107050000D02*
X94500000Y-107050000D01*
X94500000Y-107050000D02*
X94500000Y-107650000D01*
X98300000Y-110450000D02*
X99000000Y-110450000D01*
X99000000Y-110450000D02*
X99000000Y-109750000D01*
%TO.C,RV6*%
X119000000Y-81250000D02*
X118600000Y-81250000D01*
X120400000Y-82350000D02*
X120400000Y-85250000D01*
X120400000Y-85250000D02*
X119800000Y-85250000D01*
X117200000Y-82350000D02*
X117200000Y-85250000D01*
X117200000Y-85250000D02*
X117800000Y-85250000D01*
X120600000Y-81450000D02*
X120600000Y-80750000D01*
X120600000Y-80750000D02*
X119900000Y-80750000D01*
%TO.C,RV4*%
X85358500Y-74755000D02*
X85758500Y-74755000D01*
X83958500Y-73655000D02*
X83958500Y-70755000D01*
X83958500Y-70755000D02*
X84558500Y-70755000D01*
X87158500Y-73655000D02*
X87158500Y-70755000D01*
X87158500Y-70755000D02*
X86558500Y-70755000D01*
X83758500Y-74555000D02*
X83758500Y-75255000D01*
X83758500Y-75255000D02*
X84458500Y-75255000D01*
%TO.C,RV3*%
X78759500Y-71820000D02*
X78759500Y-72220000D01*
X79859500Y-70420000D02*
X82759500Y-70420000D01*
X82759500Y-70420000D02*
X82759500Y-71020000D01*
X79859500Y-73620000D02*
X82759500Y-73620000D01*
X82759500Y-73620000D02*
X82759500Y-73020000D01*
X78959500Y-70220000D02*
X78259500Y-70220000D01*
X78259500Y-70220000D02*
X78259500Y-70920000D01*
%TO.C,RV2*%
X108398200Y-60898400D02*
X108398200Y-61298400D01*
X109498200Y-59498400D02*
X112398200Y-59498400D01*
X112398200Y-59498400D02*
X112398200Y-60098400D01*
X109498200Y-62698400D02*
X112398200Y-62698400D01*
X112398200Y-62698400D02*
X112398200Y-62098400D01*
X108598200Y-59298400D02*
X107898200Y-59298400D01*
X107898200Y-59298400D02*
X107898200Y-59998400D01*
%TO.C,RV1*%
X107590000Y-67410000D02*
X107590000Y-67010000D01*
X106490000Y-68810000D02*
X103590000Y-68810000D01*
X103590000Y-68810000D02*
X103590000Y-68210000D01*
X106490000Y-65610000D02*
X103590000Y-65610000D01*
X103590000Y-65610000D02*
X103590000Y-66210000D01*
X107390000Y-69010000D02*
X108090000Y-69010000D01*
X108090000Y-69010000D02*
X108090000Y-68310000D01*
%TO.C,R20*%
X115222500Y-82395276D02*
X115222500Y-82904724D01*
X114177500Y-82395276D02*
X114177500Y-82904724D01*
%TO.C,R19*%
X111822500Y-82395276D02*
X111822500Y-82904724D01*
X110777500Y-82395276D02*
X110777500Y-82904724D01*
%TO.C,R18*%
X105345276Y-91527500D02*
X105854724Y-91527500D01*
X105345276Y-92572500D02*
X105854724Y-92572500D01*
%TO.C,R17*%
X105345276Y-88327500D02*
X105854724Y-88327500D01*
X105345276Y-89372500D02*
X105854724Y-89372500D01*
%TO.C,R16*%
X112477500Y-82904724D02*
X112477500Y-82395276D01*
X113522500Y-82904724D02*
X113522500Y-82395276D01*
%TO.C,R15*%
X105854724Y-90972500D02*
X105345276Y-90972500D01*
X105854724Y-89927500D02*
X105345276Y-89927500D01*
%TO.C,R13*%
X114280000Y-95550000D02*
X117020000Y-95550000D01*
X117020000Y-95550000D02*
X117020000Y-89010000D01*
X117020000Y-89010000D02*
X114280000Y-89010000D01*
X114280000Y-89010000D02*
X114280000Y-95550000D01*
X115650000Y-96320000D02*
X115650000Y-95550000D01*
X115650000Y-88240000D02*
X115650000Y-89010000D01*
%TO.C,R12*%
X117280000Y-95550000D02*
X120020000Y-95550000D01*
X120020000Y-95550000D02*
X120020000Y-89010000D01*
X120020000Y-89010000D02*
X117280000Y-89010000D01*
X117280000Y-89010000D02*
X117280000Y-95550000D01*
X118650000Y-96320000D02*
X118650000Y-95550000D01*
X118650000Y-88240000D02*
X118650000Y-89010000D01*
%TO.C,R11*%
X84390000Y-105077064D02*
X84390000Y-100722936D01*
X87810000Y-105077064D02*
X87810000Y-100722936D01*
%TO.C,R10*%
X87910000Y-113522936D02*
X87910000Y-117877064D01*
X84490000Y-113522936D02*
X84490000Y-117877064D01*
%TO.C,R6*%
X66480000Y-82950000D02*
X70320000Y-82950000D01*
X70320000Y-82950000D02*
X70320000Y-72810000D01*
X70320000Y-72810000D02*
X66480000Y-72810000D01*
X66480000Y-72810000D02*
X66480000Y-82950000D01*
X68400000Y-84060000D02*
X68400000Y-82950000D01*
X68400000Y-71700000D02*
X68400000Y-72810000D01*
%TO.C,R4*%
X40852564Y-69755000D02*
X36498436Y-69755000D01*
X40852564Y-66335000D02*
X36498436Y-66335000D01*
%TO.C,R3*%
X31752564Y-71855000D02*
X27398436Y-71855000D01*
X31752564Y-68435000D02*
X27398436Y-68435000D01*
%TO.C,R2*%
X40852564Y-73955000D02*
X36498436Y-73955000D01*
X40852564Y-70535000D02*
X36498436Y-70535000D01*
%TO.C,R1*%
X71230000Y-75690000D02*
X73970000Y-75690000D01*
X73970000Y-75690000D02*
X73970000Y-69150000D01*
X73970000Y-69150000D02*
X71230000Y-69150000D01*
X71230000Y-69150000D02*
X71230000Y-75690000D01*
X72600000Y-76460000D02*
X72600000Y-75690000D01*
X72600000Y-68380000D02*
X72600000Y-69150000D01*
%TO.C,Q4*%
X65585500Y-102665000D02*
X65585500Y-92425000D01*
X49695500Y-102665000D02*
X49695500Y-92425000D01*
X49695500Y-102665000D02*
X65585500Y-102665000D01*
X49695500Y-92425000D02*
X65585500Y-92425000D01*
X65585500Y-100085000D02*
X68125500Y-100085000D01*
X65585500Y-97545000D02*
X68125500Y-97545000D01*
X65585500Y-95005000D02*
X68125500Y-95005000D01*
%TO.C,Q3*%
X51675000Y-72080000D02*
X52935000Y-72080000D01*
X58495000Y-72080000D02*
X57235000Y-72080000D01*
X51675000Y-68320000D02*
X51675000Y-72080000D01*
X58495000Y-66070000D02*
X58495000Y-72080000D01*
%TO.C,Q2*%
X29832500Y-92365000D02*
X29832500Y-102605000D01*
X45722500Y-92365000D02*
X45722500Y-102605000D01*
X45722500Y-92365000D02*
X29832500Y-92365000D01*
X45722500Y-102605000D02*
X29832500Y-102605000D01*
X29832500Y-94945000D02*
X27292500Y-94945000D01*
X29832500Y-97485000D02*
X27292500Y-97485000D01*
X29832500Y-100025000D02*
X27292500Y-100025000D01*
%TO.C,Q1*%
X59175000Y-72080000D02*
X60435000Y-72080000D01*
X65995000Y-72080000D02*
X64735000Y-72080000D01*
X59175000Y-68320000D02*
X59175000Y-72080000D01*
X65995000Y-66070000D02*
X65995000Y-72080000D01*
%TO.C,J9*%
X110030000Y-80480000D02*
X107370000Y-80480000D01*
X110030000Y-80480000D02*
X110030000Y-70260000D01*
X110030000Y-70260000D02*
X107370000Y-70260000D01*
X107370000Y-80480000D02*
X107370000Y-70260000D01*
X107370000Y-83080000D02*
X107370000Y-81750000D01*
X108700000Y-83080000D02*
X107370000Y-83080000D01*
%TO.C,J8*%
X100510000Y-87420000D02*
X100510000Y-90080000D01*
X100510000Y-87420000D02*
X90290000Y-87420000D01*
X90290000Y-87420000D02*
X90290000Y-90080000D01*
X100510000Y-90080000D02*
X90290000Y-90080000D01*
X103110000Y-90080000D02*
X101780000Y-90080000D01*
X103110000Y-88750000D02*
X103110000Y-90080000D01*
%TO.C,J7*%
X96170000Y-72980000D02*
X96170000Y-70320000D01*
X96170000Y-72980000D02*
X106390000Y-72980000D01*
X106390000Y-72980000D02*
X106390000Y-70320000D01*
X96170000Y-70320000D02*
X106390000Y-70320000D01*
X93570000Y-70320000D02*
X94900000Y-70320000D01*
X93570000Y-71650000D02*
X93570000Y-70320000D01*
%TO.C,J6*%
X89870000Y-73020000D02*
X92530000Y-73020000D01*
X89870000Y-73020000D02*
X89870000Y-80700000D01*
X89870000Y-80700000D02*
X92530000Y-80700000D01*
X92530000Y-73020000D02*
X92530000Y-80700000D01*
X92530000Y-70420000D02*
X92530000Y-71750000D01*
X91200000Y-70420000D02*
X92530000Y-70420000D01*
%TO.C,J5*%
X92130000Y-82420000D02*
X92130000Y-85080000D01*
X92130000Y-82420000D02*
X89530000Y-82420000D01*
X89530000Y-82420000D02*
X89530000Y-85080000D01*
X92130000Y-85080000D02*
X89530000Y-85080000D01*
X94730000Y-85080000D02*
X93400000Y-85080000D01*
X94730000Y-83750000D02*
X94730000Y-85080000D01*
%TO.C,J4*%
X118140467Y-66270648D02*
X118140467Y-68930648D01*
X118140467Y-66270648D02*
X110460467Y-66270648D01*
X110460467Y-66270648D02*
X110460467Y-68930648D01*
X118140467Y-68930648D02*
X110460467Y-68930648D01*
X120740467Y-68930648D02*
X119410467Y-68930648D01*
X120740467Y-67600648D02*
X120740467Y-68930648D01*
%TO.C,J3*%
X109230000Y-109980000D02*
X106570000Y-109980000D01*
X109230000Y-109980000D02*
X109230000Y-107380000D01*
X109230000Y-107380000D02*
X106570000Y-107380000D01*
X106570000Y-109980000D02*
X106570000Y-107380000D01*
X106570000Y-112580000D02*
X106570000Y-111250000D01*
X107900000Y-112580000D02*
X106570000Y-112580000D01*
D12*
%TO.C,IC1*%
X100850000Y-78950000D02*
X100850000Y-78950000D01*
X100850000Y-79050000D02*
X100850000Y-79050000D01*
X100850000Y-78950000D02*
X100850000Y-78950000D01*
X100850000Y-79050000D02*
G75*
G02*
X100850000Y-78950000I0J50000D01*
G01*
X100850000Y-78950000D02*
G75*
G02*
X100850000Y-79050000I0J-50000D01*
G01*
X100850000Y-79050000D02*
G75*
G02*
X100850000Y-78950000I0J50000D01*
G01*
D11*
%TO.C,HS1*%
X44742500Y-97539000D02*
G75*
G03*
X44742500Y-97539000I-2000000J0D01*
G01*
X54722500Y-97539000D02*
G75*
G03*
X54722500Y-97539000I-2000000J0D01*
G01*
%TO.C,D8*%
X96990000Y-57210000D02*
X96990000Y-55210000D01*
X96990000Y-55210000D02*
X93140000Y-55210000D01*
X96990000Y-57210000D02*
X93140000Y-57210000D01*
%TO.C,D7*%
X102000000Y-86385000D02*
X104460000Y-86385000D01*
X104460000Y-86385000D02*
X104460000Y-84915000D01*
X104460000Y-84915000D02*
X102000000Y-84915000D01*
%TO.C,D6*%
X100300000Y-97750000D02*
X100300000Y-95750000D01*
X100300000Y-95750000D02*
X96450000Y-95750000D01*
X100300000Y-97750000D02*
X96450000Y-97750000D01*
%TO.C,D5*%
X97200000Y-117550000D02*
X99200000Y-117550000D01*
X99200000Y-117550000D02*
X99200000Y-113700000D01*
X97200000Y-117550000D02*
X97200000Y-113700000D01*
%TO.C,D4*%
X91790000Y-60410000D02*
X91790000Y-62410000D01*
X91790000Y-62410000D02*
X95640000Y-62410000D01*
X91790000Y-60410000D02*
X95640000Y-60410000D01*
%TO.C,D3*%
X89840000Y-57960000D02*
X89840000Y-59960000D01*
X89840000Y-59960000D02*
X93690000Y-59960000D01*
X89840000Y-57960000D02*
X93690000Y-57960000D01*
%TO.C,D2*%
X116072000Y-58381500D02*
X114072000Y-58381500D01*
X114072000Y-58381500D02*
X114072000Y-62231500D01*
X116072000Y-58381500D02*
X116072000Y-62231500D01*
%TO.C,D1*%
X116072000Y-53682500D02*
X114072000Y-53682500D01*
X114072000Y-53682500D02*
X114072000Y-57532500D01*
X116072000Y-53682500D02*
X116072000Y-57532500D01*
%TO.C,C27*%
X99308733Y-53146500D02*
X99601267Y-53146500D01*
X99308733Y-54166500D02*
X99601267Y-54166500D01*
%TO.C,C26*%
X118000467Y-71846915D02*
X118000467Y-71554381D01*
X119020467Y-71846915D02*
X119020467Y-71554381D01*
%TO.C,C25*%
X118275000Y-78516267D02*
X118275000Y-78223733D01*
X119295000Y-78516267D02*
X119295000Y-78223733D01*
%TO.C,C24*%
X102890000Y-77996267D02*
X102890000Y-77703733D01*
X103910000Y-77996267D02*
X103910000Y-77703733D01*
%TO.C,C23*%
X100646267Y-77460000D02*
X100353733Y-77460000D01*
X100646267Y-76440000D02*
X100353733Y-76440000D01*
%TO.C,C22*%
X100961252Y-75685000D02*
X100438748Y-75685000D01*
X100961252Y-74215000D02*
X100438748Y-74215000D01*
%TO.C,C21*%
X112265000Y-96611252D02*
X112265000Y-96088748D01*
X113735000Y-96611252D02*
X113735000Y-96088748D01*
%TO.C,C20*%
X102648752Y-112760000D02*
X101226248Y-112760000D01*
X102648752Y-110940000D02*
X101226248Y-110940000D01*
%TO.C,C19*%
X92511252Y-97660000D02*
X91088748Y-97660000D01*
X92511252Y-95840000D02*
X91088748Y-95840000D01*
%TO.C,C17*%
X109883767Y-100760000D02*
X109591233Y-100760000D01*
X109883767Y-99740000D02*
X109591233Y-99740000D01*
%TO.C,C16*%
X97490000Y-101196267D02*
X97490000Y-100903733D01*
X98510000Y-101196267D02*
X98510000Y-100903733D01*
%TO.C,C15*%
X94253733Y-111740000D02*
X94546267Y-111740000D01*
X94253733Y-112760000D02*
X94546267Y-112760000D01*
%TO.C,C14*%
X86711252Y-77650000D02*
X85288748Y-77650000D01*
X86711252Y-75830000D02*
X85288748Y-75830000D01*
%TO.C,C13*%
X79011252Y-77150000D02*
X77588748Y-77150000D01*
X79011252Y-75330000D02*
X77588748Y-75330000D01*
%TO.C,C12*%
X87538733Y-58760000D02*
X87831267Y-58760000D01*
X87538733Y-59780000D02*
X87831267Y-59780000D01*
%TO.C,C11*%
X102914433Y-53188400D02*
X103206967Y-53188400D01*
X102914433Y-54208400D02*
X103206967Y-54208400D01*
%TO.C,C10*%
X84138733Y-58760000D02*
X84431267Y-58760000D01*
X84138733Y-59780000D02*
X84431267Y-59780000D01*
%TO.C,C9*%
X111526133Y-53184600D02*
X111818667Y-53184600D01*
X111526133Y-54204600D02*
X111818667Y-54204600D01*
%TO.C,C8*%
X81369500Y-62322233D02*
X81369500Y-62614767D01*
X80349500Y-62322233D02*
X80349500Y-62614767D01*
%TO.C,C6*%
X93586267Y-63870000D02*
X93293733Y-63870000D01*
X93586267Y-62850000D02*
X93293733Y-62850000D01*
%TO.C,C5*%
X99101933Y-63838400D02*
X99394467Y-63838400D01*
X99101933Y-64858400D02*
X99394467Y-64858400D01*
%TO.C,C4*%
X68510000Y-109723748D02*
X68510000Y-111146252D01*
X66690000Y-109723748D02*
X66690000Y-111146252D01*
%TO.C,C3*%
X87544733Y-68589000D02*
X87837267Y-68589000D01*
X87544733Y-69609000D02*
X87837267Y-69609000D01*
%TO.C,C2*%
X102901933Y-63188400D02*
X103194467Y-63188400D01*
X102901933Y-64208400D02*
X103194467Y-64208400D01*
%TO.C,C1*%
X68510000Y-104688748D02*
X68510000Y-106111252D01*
X66690000Y-104688748D02*
X66690000Y-106111252D01*
%TO.C,R24*%
D13*
X86027142Y-106932380D02*
X85693809Y-106456190D01*
X85455714Y-106932380D02*
X85455714Y-105932380D01*
X85836666Y-105932380D01*
X85931904Y-105980000D01*
X85979523Y-106027619D01*
X86027142Y-106122857D01*
X86027142Y-106265714D01*
X85979523Y-106360952D01*
X85931904Y-106408571D01*
X85836666Y-106456190D01*
X85455714Y-106456190D01*
X86408095Y-106027619D02*
X86455714Y-105980000D01*
X86550952Y-105932380D01*
X86789047Y-105932380D01*
X86884285Y-105980000D01*
X86931904Y-106027619D01*
X86979523Y-106122857D01*
X86979523Y-106218095D01*
X86931904Y-106360952D01*
X86360476Y-106932380D01*
X86979523Y-106932380D01*
X87836666Y-106265714D02*
X87836666Y-106932380D01*
X87598571Y-105884761D02*
X87360476Y-106599047D01*
X87979523Y-106599047D01*
%TO.C,R23*%
X82657142Y-79252380D02*
X82323809Y-78776190D01*
X82085714Y-79252380D02*
X82085714Y-78252380D01*
X82466666Y-78252380D01*
X82561904Y-78300000D01*
X82609523Y-78347619D01*
X82657142Y-78442857D01*
X82657142Y-78585714D01*
X82609523Y-78680952D01*
X82561904Y-78728571D01*
X82466666Y-78776190D01*
X82085714Y-78776190D01*
X83038095Y-78347619D02*
X83085714Y-78300000D01*
X83180952Y-78252380D01*
X83419047Y-78252380D01*
X83514285Y-78300000D01*
X83561904Y-78347619D01*
X83609523Y-78442857D01*
X83609523Y-78538095D01*
X83561904Y-78680952D01*
X82990476Y-79252380D01*
X83609523Y-79252380D01*
X83942857Y-78252380D02*
X84561904Y-78252380D01*
X84228571Y-78633333D01*
X84371428Y-78633333D01*
X84466666Y-78680952D01*
X84514285Y-78728571D01*
X84561904Y-78823809D01*
X84561904Y-79061904D01*
X84514285Y-79157142D01*
X84466666Y-79204761D01*
X84371428Y-79252380D01*
X84085714Y-79252380D01*
X83990476Y-79204761D01*
X83942857Y-79157142D01*
%TO.C,R22*%
X79457142Y-79252380D02*
X79123809Y-78776190D01*
X78885714Y-79252380D02*
X78885714Y-78252380D01*
X79266666Y-78252380D01*
X79361904Y-78300000D01*
X79409523Y-78347619D01*
X79457142Y-78442857D01*
X79457142Y-78585714D01*
X79409523Y-78680952D01*
X79361904Y-78728571D01*
X79266666Y-78776190D01*
X78885714Y-78776190D01*
X79838095Y-78347619D02*
X79885714Y-78300000D01*
X79980952Y-78252380D01*
X80219047Y-78252380D01*
X80314285Y-78300000D01*
X80361904Y-78347619D01*
X80409523Y-78442857D01*
X80409523Y-78538095D01*
X80361904Y-78680952D01*
X79790476Y-79252380D01*
X80409523Y-79252380D01*
X80790476Y-78347619D02*
X80838095Y-78300000D01*
X80933333Y-78252380D01*
X81171428Y-78252380D01*
X81266666Y-78300000D01*
X81314285Y-78347619D01*
X81361904Y-78442857D01*
X81361904Y-78538095D01*
X81314285Y-78680952D01*
X80742857Y-79252380D01*
X81361904Y-79252380D01*
%TO.C,R21*%
X69952380Y-114992857D02*
X69476190Y-115326190D01*
X69952380Y-115564285D02*
X68952380Y-115564285D01*
X68952380Y-115183333D01*
X69000000Y-115088095D01*
X69047619Y-115040476D01*
X69142857Y-114992857D01*
X69285714Y-114992857D01*
X69380952Y-115040476D01*
X69428571Y-115088095D01*
X69476190Y-115183333D01*
X69476190Y-115564285D01*
X69047619Y-114611904D02*
X69000000Y-114564285D01*
X68952380Y-114469047D01*
X68952380Y-114230952D01*
X69000000Y-114135714D01*
X69047619Y-114088095D01*
X69142857Y-114040476D01*
X69238095Y-114040476D01*
X69380952Y-114088095D01*
X69952380Y-114659523D01*
X69952380Y-114040476D01*
X69952380Y-113088095D02*
X69952380Y-113659523D01*
X69952380Y-113373809D02*
X68952380Y-113373809D01*
X69095238Y-113469047D01*
X69190476Y-113564285D01*
X69238095Y-113659523D01*
%TO.C,R8*%
X74682380Y-98621666D02*
X74206190Y-98955000D01*
X74682380Y-99193095D02*
X73682380Y-99193095D01*
X73682380Y-98812142D01*
X73730000Y-98716904D01*
X73777619Y-98669285D01*
X73872857Y-98621666D01*
X74015714Y-98621666D01*
X74110952Y-98669285D01*
X74158571Y-98716904D01*
X74206190Y-98812142D01*
X74206190Y-99193095D01*
X74110952Y-98050238D02*
X74063333Y-98145476D01*
X74015714Y-98193095D01*
X73920476Y-98240714D01*
X73872857Y-98240714D01*
X73777619Y-98193095D01*
X73730000Y-98145476D01*
X73682380Y-98050238D01*
X73682380Y-97859761D01*
X73730000Y-97764523D01*
X73777619Y-97716904D01*
X73872857Y-97669285D01*
X73920476Y-97669285D01*
X74015714Y-97716904D01*
X74063333Y-97764523D01*
X74110952Y-97859761D01*
X74110952Y-98050238D01*
X74158571Y-98145476D01*
X74206190Y-98193095D01*
X74301428Y-98240714D01*
X74491904Y-98240714D01*
X74587142Y-98193095D01*
X74634761Y-98145476D01*
X74682380Y-98050238D01*
X74682380Y-97859761D01*
X74634761Y-97764523D01*
X74587142Y-97716904D01*
X74491904Y-97669285D01*
X74301428Y-97669285D01*
X74206190Y-97716904D01*
X74158571Y-97764523D01*
X74110952Y-97859761D01*
%TO.C,L12*%
X81552380Y-103442857D02*
X81552380Y-103919047D01*
X80552380Y-103919047D01*
X81552380Y-102585714D02*
X81552380Y-103157142D01*
X81552380Y-102871428D02*
X80552380Y-102871428D01*
X80695238Y-102966666D01*
X80790476Y-103061904D01*
X80838095Y-103157142D01*
X80647619Y-102204761D02*
X80600000Y-102157142D01*
X80552380Y-102061904D01*
X80552380Y-101823809D01*
X80600000Y-101728571D01*
X80647619Y-101680952D01*
X80742857Y-101633333D01*
X80838095Y-101633333D01*
X80980952Y-101680952D01*
X81552380Y-102252380D01*
X81552380Y-101633333D01*
%TO.C,L11*%
X78857142Y-92452380D02*
X78380952Y-92452380D01*
X78380952Y-91452380D01*
X79714285Y-92452380D02*
X79142857Y-92452380D01*
X79428571Y-92452380D02*
X79428571Y-91452380D01*
X79333333Y-91595238D01*
X79238095Y-91690476D01*
X79142857Y-91738095D01*
X80666666Y-92452380D02*
X80095238Y-92452380D01*
X80380952Y-92452380D02*
X80380952Y-91452380D01*
X80285714Y-91595238D01*
X80190476Y-91690476D01*
X80095238Y-91738095D01*
%TO.C,L10*%
X73757142Y-91052380D02*
X73280952Y-91052380D01*
X73280952Y-90052380D01*
X74614285Y-91052380D02*
X74042857Y-91052380D01*
X74328571Y-91052380D02*
X74328571Y-90052380D01*
X74233333Y-90195238D01*
X74138095Y-90290476D01*
X74042857Y-90338095D01*
X75233333Y-90052380D02*
X75328571Y-90052380D01*
X75423809Y-90100000D01*
X75471428Y-90147619D01*
X75519047Y-90242857D01*
X75566666Y-90433333D01*
X75566666Y-90671428D01*
X75519047Y-90861904D01*
X75471428Y-90957142D01*
X75423809Y-91004761D01*
X75328571Y-91052380D01*
X75233333Y-91052380D01*
X75138095Y-91004761D01*
X75090476Y-90957142D01*
X75042857Y-90861904D01*
X74995238Y-90671428D01*
X74995238Y-90433333D01*
X75042857Y-90242857D01*
X75090476Y-90147619D01*
X75138095Y-90100000D01*
X75233333Y-90052380D01*
%TO.C,L9*%
X89952380Y-88566666D02*
X89952380Y-89042857D01*
X88952380Y-89042857D01*
X89952380Y-88185714D02*
X89952380Y-87995238D01*
X89904761Y-87900000D01*
X89857142Y-87852380D01*
X89714285Y-87757142D01*
X89523809Y-87709523D01*
X89142857Y-87709523D01*
X89047619Y-87757142D01*
X89000000Y-87804761D01*
X88952380Y-87900000D01*
X88952380Y-88090476D01*
X89000000Y-88185714D01*
X89047619Y-88233333D01*
X89142857Y-88280952D01*
X89380952Y-88280952D01*
X89476190Y-88233333D01*
X89523809Y-88185714D01*
X89571428Y-88090476D01*
X89571428Y-87900000D01*
X89523809Y-87804761D01*
X89476190Y-87757142D01*
X89380952Y-87709523D01*
%TO.C,L8*%
X70458333Y-120152380D02*
X69982142Y-120152380D01*
X69982142Y-119152380D01*
X70934523Y-119580952D02*
X70839285Y-119533333D01*
X70791666Y-119485714D01*
X70744047Y-119390476D01*
X70744047Y-119342857D01*
X70791666Y-119247619D01*
X70839285Y-119200000D01*
X70934523Y-119152380D01*
X71125000Y-119152380D01*
X71220238Y-119200000D01*
X71267857Y-119247619D01*
X71315476Y-119342857D01*
X71315476Y-119390476D01*
X71267857Y-119485714D01*
X71220238Y-119533333D01*
X71125000Y-119580952D01*
X70934523Y-119580952D01*
X70839285Y-119628571D01*
X70791666Y-119676190D01*
X70744047Y-119771428D01*
X70744047Y-119961904D01*
X70791666Y-120057142D01*
X70839285Y-120104761D01*
X70934523Y-120152380D01*
X71125000Y-120152380D01*
X71220238Y-120104761D01*
X71267857Y-120057142D01*
X71315476Y-119961904D01*
X71315476Y-119771428D01*
X71267857Y-119676190D01*
X71220238Y-119628571D01*
X71125000Y-119580952D01*
%TO.C,L6*%
X85052380Y-90616666D02*
X85052380Y-91092857D01*
X84052380Y-91092857D01*
X84052380Y-89854761D02*
X84052380Y-90045238D01*
X84100000Y-90140476D01*
X84147619Y-90188095D01*
X84290476Y-90283333D01*
X84480952Y-90330952D01*
X84861904Y-90330952D01*
X84957142Y-90283333D01*
X85004761Y-90235714D01*
X85052380Y-90140476D01*
X85052380Y-89950000D01*
X85004761Y-89854761D01*
X84957142Y-89807142D01*
X84861904Y-89759523D01*
X84623809Y-89759523D01*
X84528571Y-89807142D01*
X84480952Y-89854761D01*
X84433333Y-89950000D01*
X84433333Y-90140476D01*
X84480952Y-90235714D01*
X84528571Y-90283333D01*
X84623809Y-90330952D01*
%TO.C,L4*%
X79452380Y-102206666D02*
X79452380Y-102682857D01*
X78452380Y-102682857D01*
X78785714Y-101444761D02*
X79452380Y-101444761D01*
X78404761Y-101682857D02*
X79119047Y-101920952D01*
X79119047Y-101301904D01*
%TO.C,L3*%
X74533333Y-78552380D02*
X74057142Y-78552380D01*
X74057142Y-77552380D01*
X74771428Y-77552380D02*
X75390476Y-77552380D01*
X75057142Y-77933333D01*
X75200000Y-77933333D01*
X75295238Y-77980952D01*
X75342857Y-78028571D01*
X75390476Y-78123809D01*
X75390476Y-78361904D01*
X75342857Y-78457142D01*
X75295238Y-78504761D01*
X75200000Y-78552380D01*
X74914285Y-78552380D01*
X74819047Y-78504761D01*
X74771428Y-78457142D01*
%TO.C,C18*%
X90007142Y-109442857D02*
X90054761Y-109490476D01*
X90102380Y-109633333D01*
X90102380Y-109728571D01*
X90054761Y-109871428D01*
X89959523Y-109966666D01*
X89864285Y-110014285D01*
X89673809Y-110061904D01*
X89530952Y-110061904D01*
X89340476Y-110014285D01*
X89245238Y-109966666D01*
X89150000Y-109871428D01*
X89102380Y-109728571D01*
X89102380Y-109633333D01*
X89150000Y-109490476D01*
X89197619Y-109442857D01*
X90102380Y-108490476D02*
X90102380Y-109061904D01*
X90102380Y-108776190D02*
X89102380Y-108776190D01*
X89245238Y-108871428D01*
X89340476Y-108966666D01*
X89388095Y-109061904D01*
X89530952Y-107919047D02*
X89483333Y-108014285D01*
X89435714Y-108061904D01*
X89340476Y-108109523D01*
X89292857Y-108109523D01*
X89197619Y-108061904D01*
X89150000Y-108014285D01*
X89102380Y-107919047D01*
X89102380Y-107728571D01*
X89150000Y-107633333D01*
X89197619Y-107585714D01*
X89292857Y-107538095D01*
X89340476Y-107538095D01*
X89435714Y-107585714D01*
X89483333Y-107633333D01*
X89530952Y-107728571D01*
X89530952Y-107919047D01*
X89578571Y-108014285D01*
X89626190Y-108061904D01*
X89721428Y-108109523D01*
X89911904Y-108109523D01*
X90007142Y-108061904D01*
X90054761Y-108014285D01*
X90102380Y-107919047D01*
X90102380Y-107728571D01*
X90054761Y-107633333D01*
X90007142Y-107585714D01*
X89911904Y-107538095D01*
X89721428Y-107538095D01*
X89626190Y-107585714D01*
X89578571Y-107633333D01*
X89530952Y-107728571D01*
%TO.C,C7*%
X77333333Y-111757142D02*
X77285714Y-111804761D01*
X77142857Y-111852380D01*
X77047619Y-111852380D01*
X76904761Y-111804761D01*
X76809523Y-111709523D01*
X76761904Y-111614285D01*
X76714285Y-111423809D01*
X76714285Y-111280952D01*
X76761904Y-111090476D01*
X76809523Y-110995238D01*
X76904761Y-110900000D01*
X77047619Y-110852380D01*
X77142857Y-110852380D01*
X77285714Y-110900000D01*
X77333333Y-110947619D01*
X77666666Y-110852380D02*
X78333333Y-110852380D01*
X77904761Y-111852380D01*
%TO.C,RV5*%
X95104761Y-93852380D02*
X94771428Y-93376190D01*
X94533333Y-93852380D02*
X94533333Y-92852380D01*
X94914285Y-92852380D01*
X95009523Y-92900000D01*
X95057142Y-92947619D01*
X95104761Y-93042857D01*
X95104761Y-93185714D01*
X95057142Y-93280952D01*
X95009523Y-93328571D01*
X94914285Y-93376190D01*
X94533333Y-93376190D01*
X95390476Y-92852380D02*
X95723809Y-93852380D01*
X96057142Y-92852380D01*
X96866666Y-92852380D02*
X96390476Y-92852380D01*
X96342857Y-93328571D01*
X96390476Y-93280952D01*
X96485714Y-93233333D01*
X96723809Y-93233333D01*
X96819047Y-93280952D01*
X96866666Y-93328571D01*
X96914285Y-93423809D01*
X96914285Y-93661904D01*
X96866666Y-93757142D01*
X96819047Y-93804761D01*
X96723809Y-93852380D01*
X96485714Y-93852380D01*
X96390476Y-93804761D01*
X96342857Y-93757142D01*
%TO.C,R9*%
X110333333Y-58952380D02*
X110000000Y-58476190D01*
X109761904Y-58952380D02*
X109761904Y-57952380D01*
X110142857Y-57952380D01*
X110238095Y-58000000D01*
X110285714Y-58047619D01*
X110333333Y-58142857D01*
X110333333Y-58285714D01*
X110285714Y-58380952D01*
X110238095Y-58428571D01*
X110142857Y-58476190D01*
X109761904Y-58476190D01*
X110809523Y-58952380D02*
X111000000Y-58952380D01*
X111095238Y-58904761D01*
X111142857Y-58857142D01*
X111238095Y-58714285D01*
X111285714Y-58523809D01*
X111285714Y-58142857D01*
X111238095Y-58047619D01*
X111190476Y-58000000D01*
X111095238Y-57952380D01*
X110904761Y-57952380D01*
X110809523Y-58000000D01*
X110761904Y-58047619D01*
X110714285Y-58142857D01*
X110714285Y-58380952D01*
X110761904Y-58476190D01*
X110809523Y-58523809D01*
X110904761Y-58571428D01*
X111095238Y-58571428D01*
X111190476Y-58523809D01*
X111238095Y-58476190D01*
X111285714Y-58380952D01*
%TO.C,R7*%
X94418333Y-69222380D02*
X94085000Y-68746190D01*
X93846904Y-69222380D02*
X93846904Y-68222380D01*
X94227857Y-68222380D01*
X94323095Y-68270000D01*
X94370714Y-68317619D01*
X94418333Y-68412857D01*
X94418333Y-68555714D01*
X94370714Y-68650952D01*
X94323095Y-68698571D01*
X94227857Y-68746190D01*
X93846904Y-68746190D01*
X94751666Y-68222380D02*
X95418333Y-68222380D01*
X94989761Y-69222380D01*
%TO.C,R14*%
X107157142Y-84402380D02*
X106823809Y-83926190D01*
X106585714Y-84402380D02*
X106585714Y-83402380D01*
X106966666Y-83402380D01*
X107061904Y-83450000D01*
X107109523Y-83497619D01*
X107157142Y-83592857D01*
X107157142Y-83735714D01*
X107109523Y-83830952D01*
X107061904Y-83878571D01*
X106966666Y-83926190D01*
X106585714Y-83926190D01*
X108109523Y-84402380D02*
X107538095Y-84402380D01*
X107823809Y-84402380D02*
X107823809Y-83402380D01*
X107728571Y-83545238D01*
X107633333Y-83640476D01*
X107538095Y-83688095D01*
X108966666Y-83735714D02*
X108966666Y-84402380D01*
X108728571Y-83354761D02*
X108490476Y-84069047D01*
X109109523Y-84069047D01*
%TO.C,U6*%
X117862848Y-75762552D02*
X118672372Y-75762552D01*
X118767610Y-75714933D01*
X118815229Y-75667314D01*
X118862848Y-75572076D01*
X118862848Y-75381600D01*
X118815229Y-75286362D01*
X118767610Y-75238743D01*
X118672372Y-75191124D01*
X117862848Y-75191124D01*
X117862848Y-74286362D02*
X117862848Y-74476838D01*
X117910468Y-74572076D01*
X117958087Y-74619695D01*
X118100944Y-74714933D01*
X118291420Y-74762552D01*
X118672372Y-74762552D01*
X118767610Y-74714933D01*
X118815229Y-74667314D01*
X118862848Y-74572076D01*
X118862848Y-74381600D01*
X118815229Y-74286362D01*
X118767610Y-74238743D01*
X118672372Y-74191124D01*
X118434277Y-74191124D01*
X118339039Y-74238743D01*
X118291420Y-74286362D01*
X118243801Y-74381600D01*
X118243801Y-74572076D01*
X118291420Y-74667314D01*
X118339039Y-74714933D01*
X118434277Y-74762552D01*
%TO.C,U5*%
X119338095Y-98402380D02*
X119338095Y-99211904D01*
X119385714Y-99307142D01*
X119433333Y-99354761D01*
X119528571Y-99402380D01*
X119719047Y-99402380D01*
X119814285Y-99354761D01*
X119861904Y-99307142D01*
X119909523Y-99211904D01*
X119909523Y-98402380D01*
X120861904Y-98402380D02*
X120385714Y-98402380D01*
X120338095Y-98878571D01*
X120385714Y-98830952D01*
X120480952Y-98783333D01*
X120719047Y-98783333D01*
X120814285Y-98830952D01*
X120861904Y-98878571D01*
X120909523Y-98973809D01*
X120909523Y-99211904D01*
X120861904Y-99307142D01*
X120814285Y-99354761D01*
X120719047Y-99402380D01*
X120480952Y-99402380D01*
X120385714Y-99354761D01*
X120338095Y-99307142D01*
%TO.C,U4*%
X91638095Y-105402380D02*
X91638095Y-106211904D01*
X91685714Y-106307142D01*
X91733333Y-106354761D01*
X91828571Y-106402380D01*
X92019047Y-106402380D01*
X92114285Y-106354761D01*
X92161904Y-106307142D01*
X92209523Y-106211904D01*
X92209523Y-105402380D01*
X93114285Y-105735714D02*
X93114285Y-106402380D01*
X92876190Y-105354761D02*
X92638095Y-106069047D01*
X93257142Y-106069047D01*
%TO.C,U3*%
X91638095Y-118902380D02*
X91638095Y-119711904D01*
X91685714Y-119807142D01*
X91733333Y-119854761D01*
X91828571Y-119902380D01*
X92019047Y-119902380D01*
X92114285Y-119854761D01*
X92161904Y-119807142D01*
X92209523Y-119711904D01*
X92209523Y-118902380D01*
X92590476Y-118902380D02*
X93209523Y-118902380D01*
X92876190Y-119283333D01*
X93019047Y-119283333D01*
X93114285Y-119330952D01*
X93161904Y-119378571D01*
X93209523Y-119473809D01*
X93209523Y-119711904D01*
X93161904Y-119807142D01*
X93114285Y-119854761D01*
X93019047Y-119902380D01*
X92733333Y-119902380D01*
X92638095Y-119854761D01*
X92590476Y-119807142D01*
%TO.C,U2*%
X95828095Y-58162380D02*
X95828095Y-58971904D01*
X95875714Y-59067142D01*
X95923333Y-59114761D01*
X96018571Y-59162380D01*
X96209047Y-59162380D01*
X96304285Y-59114761D01*
X96351904Y-59067142D01*
X96399523Y-58971904D01*
X96399523Y-58162380D01*
X96828095Y-58257619D02*
X96875714Y-58210000D01*
X96970952Y-58162380D01*
X97209047Y-58162380D01*
X97304285Y-58210000D01*
X97351904Y-58257619D01*
X97399523Y-58352857D01*
X97399523Y-58448095D01*
X97351904Y-58590952D01*
X96780476Y-59162380D01*
X97399523Y-59162380D01*
%TO.C,U1*%
X82323095Y-68022380D02*
X82323095Y-68831904D01*
X82370714Y-68927142D01*
X82418333Y-68974761D01*
X82513571Y-69022380D01*
X82704047Y-69022380D01*
X82799285Y-68974761D01*
X82846904Y-68927142D01*
X82894523Y-68831904D01*
X82894523Y-68022380D01*
X83894523Y-69022380D02*
X83323095Y-69022380D01*
X83608809Y-69022380D02*
X83608809Y-68022380D01*
X83513571Y-68165238D01*
X83418333Y-68260476D01*
X83323095Y-68308095D01*
%TO.C,RV9*%
X77922880Y-67408238D02*
X77446690Y-67741571D01*
X77922880Y-67979666D02*
X76922880Y-67979666D01*
X76922880Y-67598714D01*
X76970500Y-67503476D01*
X77018119Y-67455857D01*
X77113357Y-67408238D01*
X77256214Y-67408238D01*
X77351452Y-67455857D01*
X77399071Y-67503476D01*
X77446690Y-67598714D01*
X77446690Y-67979666D01*
X76922880Y-67122523D02*
X77922880Y-66789190D01*
X76922880Y-66455857D01*
X77922880Y-66074904D02*
X77922880Y-65884428D01*
X77875261Y-65789190D01*
X77827642Y-65741571D01*
X77684785Y-65646333D01*
X77494309Y-65598714D01*
X77113357Y-65598714D01*
X77018119Y-65646333D01*
X76970500Y-65693952D01*
X76922880Y-65789190D01*
X76922880Y-65979666D01*
X76970500Y-66074904D01*
X77018119Y-66122523D01*
X77113357Y-66170142D01*
X77351452Y-66170142D01*
X77446690Y-66122523D01*
X77494309Y-66074904D01*
X77541928Y-65979666D01*
X77541928Y-65789190D01*
X77494309Y-65693952D01*
X77446690Y-65646333D01*
X77351452Y-65598714D01*
%TO.C,RV8*%
X96394761Y-69912380D02*
X96061428Y-69436190D01*
X95823333Y-69912380D02*
X95823333Y-68912380D01*
X96204285Y-68912380D01*
X96299523Y-68960000D01*
X96347142Y-69007619D01*
X96394761Y-69102857D01*
X96394761Y-69245714D01*
X96347142Y-69340952D01*
X96299523Y-69388571D01*
X96204285Y-69436190D01*
X95823333Y-69436190D01*
X96680476Y-68912380D02*
X97013809Y-69912380D01*
X97347142Y-68912380D01*
X97823333Y-69340952D02*
X97728095Y-69293333D01*
X97680476Y-69245714D01*
X97632857Y-69150476D01*
X97632857Y-69102857D01*
X97680476Y-69007619D01*
X97728095Y-68960000D01*
X97823333Y-68912380D01*
X98013809Y-68912380D01*
X98109047Y-68960000D01*
X98156666Y-69007619D01*
X98204285Y-69102857D01*
X98204285Y-69150476D01*
X98156666Y-69245714D01*
X98109047Y-69293333D01*
X98013809Y-69340952D01*
X97823333Y-69340952D01*
X97728095Y-69388571D01*
X97680476Y-69436190D01*
X97632857Y-69531428D01*
X97632857Y-69721904D01*
X97680476Y-69817142D01*
X97728095Y-69864761D01*
X97823333Y-69912380D01*
X98013809Y-69912380D01*
X98109047Y-69864761D01*
X98156666Y-69817142D01*
X98204285Y-69721904D01*
X98204285Y-69531428D01*
X98156666Y-69436190D01*
X98109047Y-69388571D01*
X98013809Y-69340952D01*
%TO.C,RV7*%
X96704761Y-106452380D02*
X96371428Y-105976190D01*
X96133333Y-106452380D02*
X96133333Y-105452380D01*
X96514285Y-105452380D01*
X96609523Y-105500000D01*
X96657142Y-105547619D01*
X96704761Y-105642857D01*
X96704761Y-105785714D01*
X96657142Y-105880952D01*
X96609523Y-105928571D01*
X96514285Y-105976190D01*
X96133333Y-105976190D01*
X96990476Y-105452380D02*
X97323809Y-106452380D01*
X97657142Y-105452380D01*
X97895238Y-105452380D02*
X98561904Y-105452380D01*
X98133333Y-106452380D01*
%TO.C,RV6*%
X114704761Y-85652380D02*
X114371428Y-85176190D01*
X114133333Y-85652380D02*
X114133333Y-84652380D01*
X114514285Y-84652380D01*
X114609523Y-84700000D01*
X114657142Y-84747619D01*
X114704761Y-84842857D01*
X114704761Y-84985714D01*
X114657142Y-85080952D01*
X114609523Y-85128571D01*
X114514285Y-85176190D01*
X114133333Y-85176190D01*
X114990476Y-84652380D02*
X115323809Y-85652380D01*
X115657142Y-84652380D01*
X116419047Y-84652380D02*
X116228571Y-84652380D01*
X116133333Y-84700000D01*
X116085714Y-84747619D01*
X115990476Y-84890476D01*
X115942857Y-85080952D01*
X115942857Y-85461904D01*
X115990476Y-85557142D01*
X116038095Y-85604761D01*
X116133333Y-85652380D01*
X116323809Y-85652380D01*
X116419047Y-85604761D01*
X116466666Y-85557142D01*
X116514285Y-85461904D01*
X116514285Y-85223809D01*
X116466666Y-85128571D01*
X116419047Y-85080952D01*
X116323809Y-85033333D01*
X116133333Y-85033333D01*
X116038095Y-85080952D01*
X115990476Y-85128571D01*
X115942857Y-85223809D01*
%TO.C,RV4*%
X88550880Y-73250238D02*
X88074690Y-73583571D01*
X88550880Y-73821666D02*
X87550880Y-73821666D01*
X87550880Y-73440714D01*
X87598500Y-73345476D01*
X87646119Y-73297857D01*
X87741357Y-73250238D01*
X87884214Y-73250238D01*
X87979452Y-73297857D01*
X88027071Y-73345476D01*
X88074690Y-73440714D01*
X88074690Y-73821666D01*
X87550880Y-72964523D02*
X88550880Y-72631190D01*
X87550880Y-72297857D01*
X87884214Y-71535952D02*
X88550880Y-71535952D01*
X87503261Y-71774047D02*
X88217547Y-72012142D01*
X88217547Y-71393095D01*
%TO.C,RV3*%
X78009880Y-72615238D02*
X77533690Y-72948571D01*
X78009880Y-73186666D02*
X77009880Y-73186666D01*
X77009880Y-72805714D01*
X77057500Y-72710476D01*
X77105119Y-72662857D01*
X77200357Y-72615238D01*
X77343214Y-72615238D01*
X77438452Y-72662857D01*
X77486071Y-72710476D01*
X77533690Y-72805714D01*
X77533690Y-73186666D01*
X77009880Y-72329523D02*
X78009880Y-71996190D01*
X77009880Y-71662857D01*
X77009880Y-71424761D02*
X77009880Y-70805714D01*
X77390833Y-71139047D01*
X77390833Y-70996190D01*
X77438452Y-70900952D01*
X77486071Y-70853333D01*
X77581309Y-70805714D01*
X77819404Y-70805714D01*
X77914642Y-70853333D01*
X77962261Y-70900952D01*
X78009880Y-70996190D01*
X78009880Y-71281904D01*
X77962261Y-71377142D01*
X77914642Y-71424761D01*
%TO.C,RV2*%
X110154761Y-64202380D02*
X109821428Y-63726190D01*
X109583333Y-64202380D02*
X109583333Y-63202380D01*
X109964285Y-63202380D01*
X110059523Y-63250000D01*
X110107142Y-63297619D01*
X110154761Y-63392857D01*
X110154761Y-63535714D01*
X110107142Y-63630952D01*
X110059523Y-63678571D01*
X109964285Y-63726190D01*
X109583333Y-63726190D01*
X110440476Y-63202380D02*
X110773809Y-64202380D01*
X111107142Y-63202380D01*
X111392857Y-63297619D02*
X111440476Y-63250000D01*
X111535714Y-63202380D01*
X111773809Y-63202380D01*
X111869047Y-63250000D01*
X111916666Y-63297619D01*
X111964285Y-63392857D01*
X111964285Y-63488095D01*
X111916666Y-63630952D01*
X111345238Y-64202380D01*
X111964285Y-64202380D01*
%TO.C,RV1*%
X109442380Y-67805238D02*
X108966190Y-68138571D01*
X109442380Y-68376666D02*
X108442380Y-68376666D01*
X108442380Y-67995714D01*
X108490000Y-67900476D01*
X108537619Y-67852857D01*
X108632857Y-67805238D01*
X108775714Y-67805238D01*
X108870952Y-67852857D01*
X108918571Y-67900476D01*
X108966190Y-67995714D01*
X108966190Y-68376666D01*
X108442380Y-67519523D02*
X109442380Y-67186190D01*
X108442380Y-66852857D01*
X109442380Y-65995714D02*
X109442380Y-66567142D01*
X109442380Y-66281428D02*
X108442380Y-66281428D01*
X108585238Y-66376666D01*
X108680476Y-66471904D01*
X108728095Y-66567142D01*
%TO.C,R20*%
X116652380Y-82442857D02*
X116176190Y-82776190D01*
X116652380Y-83014285D02*
X115652380Y-83014285D01*
X115652380Y-82633333D01*
X115700000Y-82538095D01*
X115747619Y-82490476D01*
X115842857Y-82442857D01*
X115985714Y-82442857D01*
X116080952Y-82490476D01*
X116128571Y-82538095D01*
X116176190Y-82633333D01*
X116176190Y-83014285D01*
X115747619Y-82061904D02*
X115700000Y-82014285D01*
X115652380Y-81919047D01*
X115652380Y-81680952D01*
X115700000Y-81585714D01*
X115747619Y-81538095D01*
X115842857Y-81490476D01*
X115938095Y-81490476D01*
X116080952Y-81538095D01*
X116652380Y-82109523D01*
X116652380Y-81490476D01*
X115652380Y-80871428D02*
X115652380Y-80776190D01*
X115700000Y-80680952D01*
X115747619Y-80633333D01*
X115842857Y-80585714D01*
X116033333Y-80538095D01*
X116271428Y-80538095D01*
X116461904Y-80585714D01*
X116557142Y-80633333D01*
X116604761Y-80680952D01*
X116652380Y-80776190D01*
X116652380Y-80871428D01*
X116604761Y-80966666D01*
X116557142Y-81014285D01*
X116461904Y-81061904D01*
X116271428Y-81109523D01*
X116033333Y-81109523D01*
X115842857Y-81061904D01*
X115747619Y-81014285D01*
X115700000Y-80966666D01*
X115652380Y-80871428D01*
%TO.C,R19*%
X111737380Y-80292857D02*
X111261190Y-80626190D01*
X111737380Y-80864285D02*
X110737380Y-80864285D01*
X110737380Y-80483333D01*
X110785000Y-80388095D01*
X110832619Y-80340476D01*
X110927857Y-80292857D01*
X111070714Y-80292857D01*
X111165952Y-80340476D01*
X111213571Y-80388095D01*
X111261190Y-80483333D01*
X111261190Y-80864285D01*
X111737380Y-79340476D02*
X111737380Y-79911904D01*
X111737380Y-79626190D02*
X110737380Y-79626190D01*
X110880238Y-79721428D01*
X110975476Y-79816666D01*
X111023095Y-79911904D01*
X111737380Y-78864285D02*
X111737380Y-78673809D01*
X111689761Y-78578571D01*
X111642142Y-78530952D01*
X111499285Y-78435714D01*
X111308809Y-78388095D01*
X110927857Y-78388095D01*
X110832619Y-78435714D01*
X110785000Y-78483333D01*
X110737380Y-78578571D01*
X110737380Y-78769047D01*
X110785000Y-78864285D01*
X110832619Y-78911904D01*
X110927857Y-78959523D01*
X111165952Y-78959523D01*
X111261190Y-78911904D01*
X111308809Y-78864285D01*
X111356428Y-78769047D01*
X111356428Y-78578571D01*
X111308809Y-78483333D01*
X111261190Y-78435714D01*
X111165952Y-78388095D01*
%TO.C,R18*%
X108007142Y-92502380D02*
X107673809Y-92026190D01*
X107435714Y-92502380D02*
X107435714Y-91502380D01*
X107816666Y-91502380D01*
X107911904Y-91550000D01*
X107959523Y-91597619D01*
X108007142Y-91692857D01*
X108007142Y-91835714D01*
X107959523Y-91930952D01*
X107911904Y-91978571D01*
X107816666Y-92026190D01*
X107435714Y-92026190D01*
X108959523Y-92502380D02*
X108388095Y-92502380D01*
X108673809Y-92502380D02*
X108673809Y-91502380D01*
X108578571Y-91645238D01*
X108483333Y-91740476D01*
X108388095Y-91788095D01*
X109530952Y-91930952D02*
X109435714Y-91883333D01*
X109388095Y-91835714D01*
X109340476Y-91740476D01*
X109340476Y-91692857D01*
X109388095Y-91597619D01*
X109435714Y-91550000D01*
X109530952Y-91502380D01*
X109721428Y-91502380D01*
X109816666Y-91550000D01*
X109864285Y-91597619D01*
X109911904Y-91692857D01*
X109911904Y-91740476D01*
X109864285Y-91835714D01*
X109816666Y-91883333D01*
X109721428Y-91930952D01*
X109530952Y-91930952D01*
X109435714Y-91978571D01*
X109388095Y-92026190D01*
X109340476Y-92121428D01*
X109340476Y-92311904D01*
X109388095Y-92407142D01*
X109435714Y-92454761D01*
X109530952Y-92502380D01*
X109721428Y-92502380D01*
X109816666Y-92454761D01*
X109864285Y-92407142D01*
X109911904Y-92311904D01*
X109911904Y-92121428D01*
X109864285Y-92026190D01*
X109816666Y-91978571D01*
X109721428Y-91930952D01*
%TO.C,R17*%
X107957142Y-89302380D02*
X107623809Y-88826190D01*
X107385714Y-89302380D02*
X107385714Y-88302380D01*
X107766666Y-88302380D01*
X107861904Y-88350000D01*
X107909523Y-88397619D01*
X107957142Y-88492857D01*
X107957142Y-88635714D01*
X107909523Y-88730952D01*
X107861904Y-88778571D01*
X107766666Y-88826190D01*
X107385714Y-88826190D01*
X108909523Y-89302380D02*
X108338095Y-89302380D01*
X108623809Y-89302380D02*
X108623809Y-88302380D01*
X108528571Y-88445238D01*
X108433333Y-88540476D01*
X108338095Y-88588095D01*
X109242857Y-88302380D02*
X109909523Y-88302380D01*
X109480952Y-89302380D01*
%TO.C,R16*%
X112857142Y-80852380D02*
X112523809Y-80376190D01*
X112285714Y-80852380D02*
X112285714Y-79852380D01*
X112666666Y-79852380D01*
X112761904Y-79900000D01*
X112809523Y-79947619D01*
X112857142Y-80042857D01*
X112857142Y-80185714D01*
X112809523Y-80280952D01*
X112761904Y-80328571D01*
X112666666Y-80376190D01*
X112285714Y-80376190D01*
X113809523Y-80852380D02*
X113238095Y-80852380D01*
X113523809Y-80852380D02*
X113523809Y-79852380D01*
X113428571Y-79995238D01*
X113333333Y-80090476D01*
X113238095Y-80138095D01*
X114666666Y-79852380D02*
X114476190Y-79852380D01*
X114380952Y-79900000D01*
X114333333Y-79947619D01*
X114238095Y-80090476D01*
X114190476Y-80280952D01*
X114190476Y-80661904D01*
X114238095Y-80757142D01*
X114285714Y-80804761D01*
X114380952Y-80852380D01*
X114571428Y-80852380D01*
X114666666Y-80804761D01*
X114714285Y-80757142D01*
X114761904Y-80661904D01*
X114761904Y-80423809D01*
X114714285Y-80328571D01*
X114666666Y-80280952D01*
X114571428Y-80233333D01*
X114380952Y-80233333D01*
X114285714Y-80280952D01*
X114238095Y-80328571D01*
X114190476Y-80423809D01*
%TO.C,R15*%
X107957142Y-90902380D02*
X107623809Y-90426190D01*
X107385714Y-90902380D02*
X107385714Y-89902380D01*
X107766666Y-89902380D01*
X107861904Y-89950000D01*
X107909523Y-89997619D01*
X107957142Y-90092857D01*
X107957142Y-90235714D01*
X107909523Y-90330952D01*
X107861904Y-90378571D01*
X107766666Y-90426190D01*
X107385714Y-90426190D01*
X108909523Y-90902380D02*
X108338095Y-90902380D01*
X108623809Y-90902380D02*
X108623809Y-89902380D01*
X108528571Y-90045238D01*
X108433333Y-90140476D01*
X108338095Y-90188095D01*
X109814285Y-89902380D02*
X109338095Y-89902380D01*
X109290476Y-90378571D01*
X109338095Y-90330952D01*
X109433333Y-90283333D01*
X109671428Y-90283333D01*
X109766666Y-90330952D01*
X109814285Y-90378571D01*
X109861904Y-90473809D01*
X109861904Y-90711904D01*
X109814285Y-90807142D01*
X109766666Y-90854761D01*
X109671428Y-90902380D01*
X109433333Y-90902380D01*
X109338095Y-90854761D01*
X109290476Y-90807142D01*
%TO.C,R13*%
X113852380Y-88342857D02*
X113376190Y-88676190D01*
X113852380Y-88914285D02*
X112852380Y-88914285D01*
X112852380Y-88533333D01*
X112900000Y-88438095D01*
X112947619Y-88390476D01*
X113042857Y-88342857D01*
X113185714Y-88342857D01*
X113280952Y-88390476D01*
X113328571Y-88438095D01*
X113376190Y-88533333D01*
X113376190Y-88914285D01*
X113852380Y-87390476D02*
X113852380Y-87961904D01*
X113852380Y-87676190D02*
X112852380Y-87676190D01*
X112995238Y-87771428D01*
X113090476Y-87866666D01*
X113138095Y-87961904D01*
X112852380Y-87057142D02*
X112852380Y-86438095D01*
X113233333Y-86771428D01*
X113233333Y-86628571D01*
X113280952Y-86533333D01*
X113328571Y-86485714D01*
X113423809Y-86438095D01*
X113661904Y-86438095D01*
X113757142Y-86485714D01*
X113804761Y-86533333D01*
X113852380Y-86628571D01*
X113852380Y-86914285D01*
X113804761Y-87009523D01*
X113757142Y-87057142D01*
%TO.C,R12*%
X120752380Y-88192857D02*
X120276190Y-88526190D01*
X120752380Y-88764285D02*
X119752380Y-88764285D01*
X119752380Y-88383333D01*
X119800000Y-88288095D01*
X119847619Y-88240476D01*
X119942857Y-88192857D01*
X120085714Y-88192857D01*
X120180952Y-88240476D01*
X120228571Y-88288095D01*
X120276190Y-88383333D01*
X120276190Y-88764285D01*
X120752380Y-87240476D02*
X120752380Y-87811904D01*
X120752380Y-87526190D02*
X119752380Y-87526190D01*
X119895238Y-87621428D01*
X119990476Y-87716666D01*
X120038095Y-87811904D01*
X119847619Y-86859523D02*
X119800000Y-86811904D01*
X119752380Y-86716666D01*
X119752380Y-86478571D01*
X119800000Y-86383333D01*
X119847619Y-86335714D01*
X119942857Y-86288095D01*
X120038095Y-86288095D01*
X120180952Y-86335714D01*
X120752380Y-86907142D01*
X120752380Y-86288095D01*
%TO.C,R11*%
X83652380Y-102242857D02*
X83176190Y-102576190D01*
X83652380Y-102814285D02*
X82652380Y-102814285D01*
X82652380Y-102433333D01*
X82700000Y-102338095D01*
X82747619Y-102290476D01*
X82842857Y-102242857D01*
X82985714Y-102242857D01*
X83080952Y-102290476D01*
X83128571Y-102338095D01*
X83176190Y-102433333D01*
X83176190Y-102814285D01*
X83652380Y-101290476D02*
X83652380Y-101861904D01*
X83652380Y-101576190D02*
X82652380Y-101576190D01*
X82795238Y-101671428D01*
X82890476Y-101766666D01*
X82938095Y-101861904D01*
X83652380Y-100338095D02*
X83652380Y-100909523D01*
X83652380Y-100623809D02*
X82652380Y-100623809D01*
X82795238Y-100719047D01*
X82890476Y-100814285D01*
X82938095Y-100909523D01*
%TO.C,R10*%
X89272380Y-113507857D02*
X88796190Y-113841190D01*
X89272380Y-114079285D02*
X88272380Y-114079285D01*
X88272380Y-113698333D01*
X88320000Y-113603095D01*
X88367619Y-113555476D01*
X88462857Y-113507857D01*
X88605714Y-113507857D01*
X88700952Y-113555476D01*
X88748571Y-113603095D01*
X88796190Y-113698333D01*
X88796190Y-114079285D01*
X89272380Y-112555476D02*
X89272380Y-113126904D01*
X89272380Y-112841190D02*
X88272380Y-112841190D01*
X88415238Y-112936428D01*
X88510476Y-113031666D01*
X88558095Y-113126904D01*
X88272380Y-111936428D02*
X88272380Y-111841190D01*
X88320000Y-111745952D01*
X88367619Y-111698333D01*
X88462857Y-111650714D01*
X88653333Y-111603095D01*
X88891428Y-111603095D01*
X89081904Y-111650714D01*
X89177142Y-111698333D01*
X89224761Y-111745952D01*
X89272380Y-111841190D01*
X89272380Y-111936428D01*
X89224761Y-112031666D01*
X89177142Y-112079285D01*
X89081904Y-112126904D01*
X88891428Y-112174523D01*
X88653333Y-112174523D01*
X88462857Y-112126904D01*
X88367619Y-112079285D01*
X88320000Y-112031666D01*
X88272380Y-111936428D01*
%TO.C,R6*%
X68052380Y-88466666D02*
X67576190Y-88800000D01*
X68052380Y-89038095D02*
X67052380Y-89038095D01*
X67052380Y-88657142D01*
X67100000Y-88561904D01*
X67147619Y-88514285D01*
X67242857Y-88466666D01*
X67385714Y-88466666D01*
X67480952Y-88514285D01*
X67528571Y-88561904D01*
X67576190Y-88657142D01*
X67576190Y-89038095D01*
X67052380Y-87609523D02*
X67052380Y-87800000D01*
X67100000Y-87895238D01*
X67147619Y-87942857D01*
X67290476Y-88038095D01*
X67480952Y-88085714D01*
X67861904Y-88085714D01*
X67957142Y-88038095D01*
X68004761Y-87990476D01*
X68052380Y-87895238D01*
X68052380Y-87704761D01*
X68004761Y-87609523D01*
X67957142Y-87561904D01*
X67861904Y-87514285D01*
X67623809Y-87514285D01*
X67528571Y-87561904D01*
X67480952Y-87609523D01*
X67433333Y-87704761D01*
X67433333Y-87895238D01*
X67480952Y-87990476D01*
X67528571Y-88038095D01*
X67623809Y-88085714D01*
%TO.C,R4*%
X38508833Y-71117380D02*
X38175500Y-70641190D01*
X37937404Y-71117380D02*
X37937404Y-70117380D01*
X38318357Y-70117380D01*
X38413595Y-70165000D01*
X38461214Y-70212619D01*
X38508833Y-70307857D01*
X38508833Y-70450714D01*
X38461214Y-70545952D01*
X38413595Y-70593571D01*
X38318357Y-70641190D01*
X37937404Y-70641190D01*
X39365976Y-70450714D02*
X39365976Y-71117380D01*
X39127880Y-70069761D02*
X38889785Y-70784047D01*
X39508833Y-70784047D01*
%TO.C,R3*%
X29408833Y-73217380D02*
X29075500Y-72741190D01*
X28837404Y-73217380D02*
X28837404Y-72217380D01*
X29218357Y-72217380D01*
X29313595Y-72265000D01*
X29361214Y-72312619D01*
X29408833Y-72407857D01*
X29408833Y-72550714D01*
X29361214Y-72645952D01*
X29313595Y-72693571D01*
X29218357Y-72741190D01*
X28837404Y-72741190D01*
X29742166Y-72217380D02*
X30361214Y-72217380D01*
X30027880Y-72598333D01*
X30170738Y-72598333D01*
X30265976Y-72645952D01*
X30313595Y-72693571D01*
X30361214Y-72788809D01*
X30361214Y-73026904D01*
X30313595Y-73122142D01*
X30265976Y-73169761D01*
X30170738Y-73217380D01*
X29885023Y-73217380D01*
X29789785Y-73169761D01*
X29742166Y-73122142D01*
%TO.C,R2*%
X38508833Y-75317380D02*
X38175500Y-74841190D01*
X37937404Y-75317380D02*
X37937404Y-74317380D01*
X38318357Y-74317380D01*
X38413595Y-74365000D01*
X38461214Y-74412619D01*
X38508833Y-74507857D01*
X38508833Y-74650714D01*
X38461214Y-74745952D01*
X38413595Y-74793571D01*
X38318357Y-74841190D01*
X37937404Y-74841190D01*
X38889785Y-74412619D02*
X38937404Y-74365000D01*
X39032642Y-74317380D01*
X39270738Y-74317380D01*
X39365976Y-74365000D01*
X39413595Y-74412619D01*
X39461214Y-74507857D01*
X39461214Y-74603095D01*
X39413595Y-74745952D01*
X38842166Y-75317380D01*
X39461214Y-75317380D01*
%TO.C,R1*%
X75052380Y-72066666D02*
X74576190Y-72400000D01*
X75052380Y-72638095D02*
X74052380Y-72638095D01*
X74052380Y-72257142D01*
X74100000Y-72161904D01*
X74147619Y-72114285D01*
X74242857Y-72066666D01*
X74385714Y-72066666D01*
X74480952Y-72114285D01*
X74528571Y-72161904D01*
X74576190Y-72257142D01*
X74576190Y-72638095D01*
X75052380Y-71114285D02*
X75052380Y-71685714D01*
X75052380Y-71400000D02*
X74052380Y-71400000D01*
X74195238Y-71495238D01*
X74290476Y-71590476D01*
X74338095Y-71685714D01*
%TO.C,Q4*%
X49243119Y-97640238D02*
X49195500Y-97735476D01*
X49100261Y-97830714D01*
X48957404Y-97973571D01*
X48909785Y-98068809D01*
X48909785Y-98164047D01*
X49147880Y-98116428D02*
X49100261Y-98211666D01*
X49005023Y-98306904D01*
X48814547Y-98354523D01*
X48481214Y-98354523D01*
X48290738Y-98306904D01*
X48195500Y-98211666D01*
X48147880Y-98116428D01*
X48147880Y-97925952D01*
X48195500Y-97830714D01*
X48290738Y-97735476D01*
X48481214Y-97687857D01*
X48814547Y-97687857D01*
X49005023Y-97735476D01*
X49100261Y-97830714D01*
X49147880Y-97925952D01*
X49147880Y-98116428D01*
X48481214Y-96830714D02*
X49147880Y-96830714D01*
X48100261Y-97068809D02*
X48814547Y-97306904D01*
X48814547Y-96687857D01*
%TO.C,Q3*%
X54989761Y-65467619D02*
X54894523Y-65420000D01*
X54799285Y-65324761D01*
X54656428Y-65181904D01*
X54561190Y-65134285D01*
X54465952Y-65134285D01*
X54513571Y-65372380D02*
X54418333Y-65324761D01*
X54323095Y-65229523D01*
X54275476Y-65039047D01*
X54275476Y-64705714D01*
X54323095Y-64515238D01*
X54418333Y-64420000D01*
X54513571Y-64372380D01*
X54704047Y-64372380D01*
X54799285Y-64420000D01*
X54894523Y-64515238D01*
X54942142Y-64705714D01*
X54942142Y-65039047D01*
X54894523Y-65229523D01*
X54799285Y-65324761D01*
X54704047Y-65372380D01*
X54513571Y-65372380D01*
X55275476Y-64372380D02*
X55894523Y-64372380D01*
X55561190Y-64753333D01*
X55704047Y-64753333D01*
X55799285Y-64800952D01*
X55846904Y-64848571D01*
X55894523Y-64943809D01*
X55894523Y-65181904D01*
X55846904Y-65277142D01*
X55799285Y-65324761D01*
X55704047Y-65372380D01*
X55418333Y-65372380D01*
X55323095Y-65324761D01*
X55275476Y-65277142D01*
%TO.C,Q2*%
X47270119Y-97580238D02*
X47222500Y-97675476D01*
X47127261Y-97770714D01*
X46984404Y-97913571D01*
X46936785Y-98008809D01*
X46936785Y-98104047D01*
X47174880Y-98056428D02*
X47127261Y-98151666D01*
X47032023Y-98246904D01*
X46841547Y-98294523D01*
X46508214Y-98294523D01*
X46317738Y-98246904D01*
X46222500Y-98151666D01*
X46174880Y-98056428D01*
X46174880Y-97865952D01*
X46222500Y-97770714D01*
X46317738Y-97675476D01*
X46508214Y-97627857D01*
X46841547Y-97627857D01*
X47032023Y-97675476D01*
X47127261Y-97770714D01*
X47174880Y-97865952D01*
X47174880Y-98056428D01*
X46270119Y-97246904D02*
X46222500Y-97199285D01*
X46174880Y-97104047D01*
X46174880Y-96865952D01*
X46222500Y-96770714D01*
X46270119Y-96723095D01*
X46365357Y-96675476D01*
X46460595Y-96675476D01*
X46603452Y-96723095D01*
X47174880Y-97294523D01*
X47174880Y-96675476D01*
%TO.C,Q1*%
X62439761Y-65517619D02*
X62344523Y-65470000D01*
X62249285Y-65374761D01*
X62106428Y-65231904D01*
X62011190Y-65184285D01*
X61915952Y-65184285D01*
X61963571Y-65422380D02*
X61868333Y-65374761D01*
X61773095Y-65279523D01*
X61725476Y-65089047D01*
X61725476Y-64755714D01*
X61773095Y-64565238D01*
X61868333Y-64470000D01*
X61963571Y-64422380D01*
X62154047Y-64422380D01*
X62249285Y-64470000D01*
X62344523Y-64565238D01*
X62392142Y-64755714D01*
X62392142Y-65089047D01*
X62344523Y-65279523D01*
X62249285Y-65374761D01*
X62154047Y-65422380D01*
X61963571Y-65422380D01*
X63344523Y-65422380D02*
X62773095Y-65422380D01*
X63058809Y-65422380D02*
X63058809Y-64422380D01*
X62963571Y-64565238D01*
X62868333Y-64660476D01*
X62773095Y-64708095D01*
%TO.C,L7*%
X109233333Y-117702380D02*
X108757142Y-117702380D01*
X108757142Y-116702380D01*
X109471428Y-116702380D02*
X110138095Y-116702380D01*
X109709523Y-117702380D01*
%TO.C,L5*%
X103783333Y-99102380D02*
X103307142Y-99102380D01*
X103307142Y-98102380D01*
X104592857Y-98102380D02*
X104116666Y-98102380D01*
X104069047Y-98578571D01*
X104116666Y-98530952D01*
X104211904Y-98483333D01*
X104450000Y-98483333D01*
X104545238Y-98530952D01*
X104592857Y-98578571D01*
X104640476Y-98673809D01*
X104640476Y-98911904D01*
X104592857Y-99007142D01*
X104545238Y-99054761D01*
X104450000Y-99102380D01*
X104211904Y-99102380D01*
X104116666Y-99054761D01*
X104069047Y-99007142D01*
%TO.C,L2*%
X78502380Y-115501666D02*
X78502380Y-115977857D01*
X77502380Y-115977857D01*
X77597619Y-115215952D02*
X77550000Y-115168333D01*
X77502380Y-115073095D01*
X77502380Y-114835000D01*
X77550000Y-114739761D01*
X77597619Y-114692142D01*
X77692857Y-114644523D01*
X77788095Y-114644523D01*
X77930952Y-114692142D01*
X78502380Y-115263571D01*
X78502380Y-114644523D01*
%TO.C,L1*%
X75852380Y-102806666D02*
X75852380Y-103282857D01*
X74852380Y-103282857D01*
X75852380Y-101949523D02*
X75852380Y-102520952D01*
X75852380Y-102235238D02*
X74852380Y-102235238D01*
X74995238Y-102330476D01*
X75090476Y-102425714D01*
X75138095Y-102520952D01*
%TO.C,J9*%
X105916666Y-81202380D02*
X105916666Y-81916666D01*
X105869047Y-82059523D01*
X105773809Y-82154761D01*
X105630952Y-82202380D01*
X105535714Y-82202380D01*
X106440476Y-82202380D02*
X106630952Y-82202380D01*
X106726190Y-82154761D01*
X106773809Y-82107142D01*
X106869047Y-81964285D01*
X106916666Y-81773809D01*
X106916666Y-81392857D01*
X106869047Y-81297619D01*
X106821428Y-81250000D01*
X106726190Y-81202380D01*
X106535714Y-81202380D01*
X106440476Y-81250000D01*
X106392857Y-81297619D01*
X106345238Y-81392857D01*
X106345238Y-81630952D01*
X106392857Y-81726190D01*
X106440476Y-81773809D01*
X106535714Y-81821428D01*
X106726190Y-81821428D01*
X106821428Y-81773809D01*
X106869047Y-81726190D01*
X106916666Y-81630952D01*
%TO.C,J8*%
X101232380Y-91533333D02*
X101946666Y-91533333D01*
X102089523Y-91580952D01*
X102184761Y-91676190D01*
X102232380Y-91819047D01*
X102232380Y-91914285D01*
X101660952Y-90914285D02*
X101613333Y-91009523D01*
X101565714Y-91057142D01*
X101470476Y-91104761D01*
X101422857Y-91104761D01*
X101327619Y-91057142D01*
X101280000Y-91009523D01*
X101232380Y-90914285D01*
X101232380Y-90723809D01*
X101280000Y-90628571D01*
X101327619Y-90580952D01*
X101422857Y-90533333D01*
X101470476Y-90533333D01*
X101565714Y-90580952D01*
X101613333Y-90628571D01*
X101660952Y-90723809D01*
X101660952Y-90914285D01*
X101708571Y-91009523D01*
X101756190Y-91057142D01*
X101851428Y-91104761D01*
X102041904Y-91104761D01*
X102137142Y-91057142D01*
X102184761Y-91009523D01*
X102232380Y-90914285D01*
X102232380Y-90723809D01*
X102184761Y-90628571D01*
X102137142Y-90580952D01*
X102041904Y-90533333D01*
X101851428Y-90533333D01*
X101756190Y-90580952D01*
X101708571Y-90628571D01*
X101660952Y-90723809D01*
%TO.C,J7*%
X111006666Y-71112380D02*
X111006666Y-71826666D01*
X110959047Y-71969523D01*
X110863809Y-72064761D01*
X110720952Y-72112380D01*
X110625714Y-72112380D01*
X111387619Y-71112380D02*
X112054285Y-71112380D01*
X111625714Y-72112380D01*
%TO.C,J6*%
X88666666Y-75202380D02*
X88666666Y-75916666D01*
X88619047Y-76059523D01*
X88523809Y-76154761D01*
X88380952Y-76202380D01*
X88285714Y-76202380D01*
X89571428Y-75202380D02*
X89380952Y-75202380D01*
X89285714Y-75250000D01*
X89238095Y-75297619D01*
X89142857Y-75440476D01*
X89095238Y-75630952D01*
X89095238Y-76011904D01*
X89142857Y-76107142D01*
X89190476Y-76154761D01*
X89285714Y-76202380D01*
X89476190Y-76202380D01*
X89571428Y-76154761D01*
X89619047Y-76107142D01*
X89666666Y-76011904D01*
X89666666Y-75773809D01*
X89619047Y-75678571D01*
X89571428Y-75630952D01*
X89476190Y-75583333D01*
X89285714Y-75583333D01*
X89190476Y-75630952D01*
X89142857Y-75678571D01*
X89095238Y-75773809D01*
%TO.C,J5*%
X95622380Y-84083333D02*
X96336666Y-84083333D01*
X96479523Y-84130952D01*
X96574761Y-84226190D01*
X96622380Y-84369047D01*
X96622380Y-84464285D01*
X95622380Y-83130952D02*
X95622380Y-83607142D01*
X96098571Y-83654761D01*
X96050952Y-83607142D01*
X96003333Y-83511904D01*
X96003333Y-83273809D01*
X96050952Y-83178571D01*
X96098571Y-83130952D01*
X96193809Y-83083333D01*
X96431904Y-83083333D01*
X96527142Y-83130952D01*
X96574761Y-83178571D01*
X96622380Y-83273809D01*
X96622380Y-83511904D01*
X96574761Y-83607142D01*
X96527142Y-83654761D01*
%TO.C,J4*%
X118266666Y-64452380D02*
X118266666Y-65166666D01*
X118219047Y-65309523D01*
X118123809Y-65404761D01*
X117980952Y-65452380D01*
X117885714Y-65452380D01*
X119171428Y-64785714D02*
X119171428Y-65452380D01*
X118933333Y-64404761D02*
X118695238Y-65119047D01*
X119314285Y-65119047D01*
%TO.C,J3*%
X107466666Y-112902380D02*
X107466666Y-113616666D01*
X107419047Y-113759523D01*
X107323809Y-113854761D01*
X107180952Y-113902380D01*
X107085714Y-113902380D01*
X107847619Y-112902380D02*
X108466666Y-112902380D01*
X108133333Y-113283333D01*
X108276190Y-113283333D01*
X108371428Y-113330952D01*
X108419047Y-113378571D01*
X108466666Y-113473809D01*
X108466666Y-113711904D01*
X108419047Y-113807142D01*
X108371428Y-113854761D01*
X108276190Y-113902380D01*
X107990476Y-113902380D01*
X107895238Y-113854761D01*
X107847619Y-113807142D01*
%TO.C,J2*%
X81309166Y-114337380D02*
X81309166Y-115051666D01*
X81261547Y-115194523D01*
X81166309Y-115289761D01*
X81023452Y-115337380D01*
X80928214Y-115337380D01*
X81737738Y-114432619D02*
X81785357Y-114385000D01*
X81880595Y-114337380D01*
X82118690Y-114337380D01*
X82213928Y-114385000D01*
X82261547Y-114432619D01*
X82309166Y-114527857D01*
X82309166Y-114623095D01*
X82261547Y-114765952D01*
X81690119Y-115337380D01*
X82309166Y-115337380D01*
%TO.C,J1*%
X21744880Y-64968333D02*
X22459166Y-64968333D01*
X22602023Y-65015952D01*
X22697261Y-65111190D01*
X22744880Y-65254047D01*
X22744880Y-65349285D01*
X22744880Y-63968333D02*
X22744880Y-64539761D01*
X22744880Y-64254047D02*
X21744880Y-64254047D01*
X21887738Y-64349285D01*
X21982976Y-64444523D01*
X22030595Y-64539761D01*
%TO.C,IC1*%
D14*
X103874523Y-82689761D02*
X102604523Y-82689761D01*
X103753571Y-81359285D02*
X103814047Y-81419761D01*
X103874523Y-81601190D01*
X103874523Y-81722142D01*
X103814047Y-81903571D01*
X103693095Y-82024523D01*
X103572142Y-82085000D01*
X103330238Y-82145476D01*
X103148809Y-82145476D01*
X102906904Y-82085000D01*
X102785952Y-82024523D01*
X102665000Y-81903571D01*
X102604523Y-81722142D01*
X102604523Y-81601190D01*
X102665000Y-81419761D01*
X102725476Y-81359285D01*
X103874523Y-80149761D02*
X103874523Y-80875476D01*
X103874523Y-80512619D02*
X102604523Y-80512619D01*
X102785952Y-80633571D01*
X102906904Y-80754523D01*
X102967380Y-80875476D01*
%TO.C,HS1*%
D13*
X48384880Y-74177095D02*
X47384880Y-74177095D01*
X47861071Y-74177095D02*
X47861071Y-73605666D01*
X48384880Y-73605666D02*
X47384880Y-73605666D01*
X48337261Y-73177095D02*
X48384880Y-73034238D01*
X48384880Y-72796142D01*
X48337261Y-72700904D01*
X48289642Y-72653285D01*
X48194404Y-72605666D01*
X48099166Y-72605666D01*
X48003928Y-72653285D01*
X47956309Y-72700904D01*
X47908690Y-72796142D01*
X47861071Y-72986619D01*
X47813452Y-73081857D01*
X47765833Y-73129476D01*
X47670595Y-73177095D01*
X47575357Y-73177095D01*
X47480119Y-73129476D01*
X47432500Y-73081857D01*
X47384880Y-72986619D01*
X47384880Y-72748523D01*
X47432500Y-72605666D01*
X48384880Y-71653285D02*
X48384880Y-72224714D01*
X48384880Y-71939000D02*
X47384880Y-71939000D01*
X47527738Y-72034238D01*
X47622976Y-72129476D01*
X47670595Y-72224714D01*
%TO.C,D8*%
X92561904Y-54952380D02*
X92561904Y-53952380D01*
X92800000Y-53952380D01*
X92942857Y-54000000D01*
X93038095Y-54095238D01*
X93085714Y-54190476D01*
X93133333Y-54380952D01*
X93133333Y-54523809D01*
X93085714Y-54714285D01*
X93038095Y-54809523D01*
X92942857Y-54904761D01*
X92800000Y-54952380D01*
X92561904Y-54952380D01*
X93704761Y-54380952D02*
X93609523Y-54333333D01*
X93561904Y-54285714D01*
X93514285Y-54190476D01*
X93514285Y-54142857D01*
X93561904Y-54047619D01*
X93609523Y-54000000D01*
X93704761Y-53952380D01*
X93895238Y-53952380D01*
X93990476Y-54000000D01*
X94038095Y-54047619D01*
X94085714Y-54142857D01*
X94085714Y-54190476D01*
X94038095Y-54285714D01*
X93990476Y-54333333D01*
X93895238Y-54380952D01*
X93704761Y-54380952D01*
X93609523Y-54428571D01*
X93561904Y-54476190D01*
X93514285Y-54571428D01*
X93514285Y-54761904D01*
X93561904Y-54857142D01*
X93609523Y-54904761D01*
X93704761Y-54952380D01*
X93895238Y-54952380D01*
X93990476Y-54904761D01*
X94038095Y-54857142D01*
X94085714Y-54761904D01*
X94085714Y-54571428D01*
X94038095Y-54476190D01*
X93990476Y-54428571D01*
X93895238Y-54380952D01*
%TO.C,D7*%
X102061904Y-84402380D02*
X102061904Y-83402380D01*
X102300000Y-83402380D01*
X102442857Y-83450000D01*
X102538095Y-83545238D01*
X102585714Y-83640476D01*
X102633333Y-83830952D01*
X102633333Y-83973809D01*
X102585714Y-84164285D01*
X102538095Y-84259523D01*
X102442857Y-84354761D01*
X102300000Y-84402380D01*
X102061904Y-84402380D01*
X102966666Y-83402380D02*
X103633333Y-83402380D01*
X103204761Y-84402380D01*
%TO.C,D6*%
X100561904Y-97202380D02*
X100561904Y-96202380D01*
X100800000Y-96202380D01*
X100942857Y-96250000D01*
X101038095Y-96345238D01*
X101085714Y-96440476D01*
X101133333Y-96630952D01*
X101133333Y-96773809D01*
X101085714Y-96964285D01*
X101038095Y-97059523D01*
X100942857Y-97154761D01*
X100800000Y-97202380D01*
X100561904Y-97202380D01*
X101990476Y-96202380D02*
X101800000Y-96202380D01*
X101704761Y-96250000D01*
X101657142Y-96297619D01*
X101561904Y-96440476D01*
X101514285Y-96630952D01*
X101514285Y-97011904D01*
X101561904Y-97107142D01*
X101609523Y-97154761D01*
X101704761Y-97202380D01*
X101895238Y-97202380D01*
X101990476Y-97154761D01*
X102038095Y-97107142D01*
X102085714Y-97011904D01*
X102085714Y-96773809D01*
X102038095Y-96678571D01*
X101990476Y-96630952D01*
X101895238Y-96583333D01*
X101704761Y-96583333D01*
X101609523Y-96630952D01*
X101561904Y-96678571D01*
X101514285Y-96773809D01*
%TO.C,D5*%
X98652380Y-119488095D02*
X97652380Y-119488095D01*
X97652380Y-119250000D01*
X97700000Y-119107142D01*
X97795238Y-119011904D01*
X97890476Y-118964285D01*
X98080952Y-118916666D01*
X98223809Y-118916666D01*
X98414285Y-118964285D01*
X98509523Y-119011904D01*
X98604761Y-119107142D01*
X98652380Y-119250000D01*
X98652380Y-119488095D01*
X97652380Y-118011904D02*
X97652380Y-118488095D01*
X98128571Y-118535714D01*
X98080952Y-118488095D01*
X98033333Y-118392857D01*
X98033333Y-118154761D01*
X98080952Y-118059523D01*
X98128571Y-118011904D01*
X98223809Y-117964285D01*
X98461904Y-117964285D01*
X98557142Y-118011904D01*
X98604761Y-118059523D01*
X98652380Y-118154761D01*
X98652380Y-118392857D01*
X98604761Y-118488095D01*
X98557142Y-118535714D01*
%TO.C,D4*%
X94451904Y-60112380D02*
X94451904Y-59112380D01*
X94690000Y-59112380D01*
X94832857Y-59160000D01*
X94928095Y-59255238D01*
X94975714Y-59350476D01*
X95023333Y-59540952D01*
X95023333Y-59683809D01*
X94975714Y-59874285D01*
X94928095Y-59969523D01*
X94832857Y-60064761D01*
X94690000Y-60112380D01*
X94451904Y-60112380D01*
X95880476Y-59445714D02*
X95880476Y-60112380D01*
X95642380Y-59064761D02*
X95404285Y-59779047D01*
X96023333Y-59779047D01*
%TO.C,D3*%
X91174904Y-57507380D02*
X91174904Y-56507380D01*
X91413000Y-56507380D01*
X91555857Y-56555000D01*
X91651095Y-56650238D01*
X91698714Y-56745476D01*
X91746333Y-56935952D01*
X91746333Y-57078809D01*
X91698714Y-57269285D01*
X91651095Y-57364523D01*
X91555857Y-57459761D01*
X91413000Y-57507380D01*
X91174904Y-57507380D01*
X92079666Y-56507380D02*
X92698714Y-56507380D01*
X92365380Y-56888333D01*
X92508238Y-56888333D01*
X92603476Y-56935952D01*
X92651095Y-56983571D01*
X92698714Y-57078809D01*
X92698714Y-57316904D01*
X92651095Y-57412142D01*
X92603476Y-57459761D01*
X92508238Y-57507380D01*
X92222523Y-57507380D01*
X92127285Y-57459761D01*
X92079666Y-57412142D01*
%TO.C,D2*%
X115452380Y-64488095D02*
X114452380Y-64488095D01*
X114452380Y-64250000D01*
X114500000Y-64107142D01*
X114595238Y-64011904D01*
X114690476Y-63964285D01*
X114880952Y-63916666D01*
X115023809Y-63916666D01*
X115214285Y-63964285D01*
X115309523Y-64011904D01*
X115404761Y-64107142D01*
X115452380Y-64250000D01*
X115452380Y-64488095D01*
X114547619Y-63535714D02*
X114500000Y-63488095D01*
X114452380Y-63392857D01*
X114452380Y-63154761D01*
X114500000Y-63059523D01*
X114547619Y-63011904D01*
X114642857Y-62964285D01*
X114738095Y-62964285D01*
X114880952Y-63011904D01*
X115452380Y-63583333D01*
X115452380Y-62964285D01*
%TO.C,D1*%
X113702380Y-56738095D02*
X112702380Y-56738095D01*
X112702380Y-56500000D01*
X112750000Y-56357142D01*
X112845238Y-56261904D01*
X112940476Y-56214285D01*
X113130952Y-56166666D01*
X113273809Y-56166666D01*
X113464285Y-56214285D01*
X113559523Y-56261904D01*
X113654761Y-56357142D01*
X113702380Y-56500000D01*
X113702380Y-56738095D01*
X113702380Y-55214285D02*
X113702380Y-55785714D01*
X113702380Y-55500000D02*
X112702380Y-55500000D01*
X112845238Y-55595238D01*
X112940476Y-55690476D01*
X112988095Y-55785714D01*
%TO.C,C27*%
X95447142Y-54067142D02*
X95399523Y-54114761D01*
X95256666Y-54162380D01*
X95161428Y-54162380D01*
X95018571Y-54114761D01*
X94923333Y-54019523D01*
X94875714Y-53924285D01*
X94828095Y-53733809D01*
X94828095Y-53590952D01*
X94875714Y-53400476D01*
X94923333Y-53305238D01*
X95018571Y-53210000D01*
X95161428Y-53162380D01*
X95256666Y-53162380D01*
X95399523Y-53210000D01*
X95447142Y-53257619D01*
X95828095Y-53257619D02*
X95875714Y-53210000D01*
X95970952Y-53162380D01*
X96209047Y-53162380D01*
X96304285Y-53210000D01*
X96351904Y-53257619D01*
X96399523Y-53352857D01*
X96399523Y-53448095D01*
X96351904Y-53590952D01*
X95780476Y-54162380D01*
X96399523Y-54162380D01*
X96732857Y-53162380D02*
X97399523Y-53162380D01*
X96970952Y-54162380D01*
%TO.C,C26*%
X118867609Y-69343505D02*
X118915228Y-69391124D01*
X118962847Y-69533981D01*
X118962847Y-69629219D01*
X118915228Y-69772076D01*
X118819990Y-69867314D01*
X118724752Y-69914933D01*
X118534276Y-69962552D01*
X118391419Y-69962552D01*
X118200943Y-69914933D01*
X118105705Y-69867314D01*
X118010467Y-69772076D01*
X117962847Y-69629219D01*
X117962847Y-69533981D01*
X118010467Y-69391124D01*
X118058086Y-69343505D01*
X118058086Y-68962552D02*
X118010467Y-68914933D01*
X117962847Y-68819695D01*
X117962847Y-68581600D01*
X118010467Y-68486362D01*
X118058086Y-68438743D01*
X118153324Y-68391124D01*
X118248562Y-68391124D01*
X118391419Y-68438743D01*
X118962847Y-69010171D01*
X118962847Y-68391124D01*
X117962847Y-67533981D02*
X117962847Y-67724457D01*
X118010467Y-67819695D01*
X118058086Y-67867314D01*
X118200943Y-67962552D01*
X118391419Y-68010171D01*
X118772371Y-68010171D01*
X118867609Y-67962552D01*
X118915228Y-67914933D01*
X118962847Y-67819695D01*
X118962847Y-67629219D01*
X118915228Y-67533981D01*
X118867609Y-67486362D01*
X118772371Y-67438743D01*
X118534276Y-67438743D01*
X118439038Y-67486362D01*
X118391419Y-67533981D01*
X118343800Y-67629219D01*
X118343800Y-67819695D01*
X118391419Y-67914933D01*
X118439038Y-67962552D01*
X118534276Y-68010171D01*
%TO.C,C25*%
X120542142Y-79012857D02*
X120589761Y-79060476D01*
X120637380Y-79203333D01*
X120637380Y-79298571D01*
X120589761Y-79441428D01*
X120494523Y-79536666D01*
X120399285Y-79584285D01*
X120208809Y-79631904D01*
X120065952Y-79631904D01*
X119875476Y-79584285D01*
X119780238Y-79536666D01*
X119685000Y-79441428D01*
X119637380Y-79298571D01*
X119637380Y-79203333D01*
X119685000Y-79060476D01*
X119732619Y-79012857D01*
X119732619Y-78631904D02*
X119685000Y-78584285D01*
X119637380Y-78489047D01*
X119637380Y-78250952D01*
X119685000Y-78155714D01*
X119732619Y-78108095D01*
X119827857Y-78060476D01*
X119923095Y-78060476D01*
X120065952Y-78108095D01*
X120637380Y-78679523D01*
X120637380Y-78060476D01*
X119637380Y-77155714D02*
X119637380Y-77631904D01*
X120113571Y-77679523D01*
X120065952Y-77631904D01*
X120018333Y-77536666D01*
X120018333Y-77298571D01*
X120065952Y-77203333D01*
X120113571Y-77155714D01*
X120208809Y-77108095D01*
X120446904Y-77108095D01*
X120542142Y-77155714D01*
X120589761Y-77203333D01*
X120637380Y-77298571D01*
X120637380Y-77536666D01*
X120589761Y-77631904D01*
X120542142Y-77679523D01*
%TO.C,C24*%
X105057142Y-78492857D02*
X105104761Y-78540476D01*
X105152380Y-78683333D01*
X105152380Y-78778571D01*
X105104761Y-78921428D01*
X105009523Y-79016666D01*
X104914285Y-79064285D01*
X104723809Y-79111904D01*
X104580952Y-79111904D01*
X104390476Y-79064285D01*
X104295238Y-79016666D01*
X104200000Y-78921428D01*
X104152380Y-78778571D01*
X104152380Y-78683333D01*
X104200000Y-78540476D01*
X104247619Y-78492857D01*
X104247619Y-78111904D02*
X104200000Y-78064285D01*
X104152380Y-77969047D01*
X104152380Y-77730952D01*
X104200000Y-77635714D01*
X104247619Y-77588095D01*
X104342857Y-77540476D01*
X104438095Y-77540476D01*
X104580952Y-77588095D01*
X105152380Y-78159523D01*
X105152380Y-77540476D01*
X104485714Y-76683333D02*
X105152380Y-76683333D01*
X104104761Y-76921428D02*
X104819047Y-77159523D01*
X104819047Y-76540476D01*
%TO.C,C23*%
X96757142Y-77307142D02*
X96709523Y-77354761D01*
X96566666Y-77402380D01*
X96471428Y-77402380D01*
X96328571Y-77354761D01*
X96233333Y-77259523D01*
X96185714Y-77164285D01*
X96138095Y-76973809D01*
X96138095Y-76830952D01*
X96185714Y-76640476D01*
X96233333Y-76545238D01*
X96328571Y-76450000D01*
X96471428Y-76402380D01*
X96566666Y-76402380D01*
X96709523Y-76450000D01*
X96757142Y-76497619D01*
X97138095Y-76497619D02*
X97185714Y-76450000D01*
X97280952Y-76402380D01*
X97519047Y-76402380D01*
X97614285Y-76450000D01*
X97661904Y-76497619D01*
X97709523Y-76592857D01*
X97709523Y-76688095D01*
X97661904Y-76830952D01*
X97090476Y-77402380D01*
X97709523Y-77402380D01*
X98042857Y-76402380D02*
X98661904Y-76402380D01*
X98328571Y-76783333D01*
X98471428Y-76783333D01*
X98566666Y-76830952D01*
X98614285Y-76878571D01*
X98661904Y-76973809D01*
X98661904Y-77211904D01*
X98614285Y-77307142D01*
X98566666Y-77354761D01*
X98471428Y-77402380D01*
X98185714Y-77402380D01*
X98090476Y-77354761D01*
X98042857Y-77307142D01*
%TO.C,C22*%
X96757142Y-75307142D02*
X96709523Y-75354761D01*
X96566666Y-75402380D01*
X96471428Y-75402380D01*
X96328571Y-75354761D01*
X96233333Y-75259523D01*
X96185714Y-75164285D01*
X96138095Y-74973809D01*
X96138095Y-74830952D01*
X96185714Y-74640476D01*
X96233333Y-74545238D01*
X96328571Y-74450000D01*
X96471428Y-74402380D01*
X96566666Y-74402380D01*
X96709523Y-74450000D01*
X96757142Y-74497619D01*
X97138095Y-74497619D02*
X97185714Y-74450000D01*
X97280952Y-74402380D01*
X97519047Y-74402380D01*
X97614285Y-74450000D01*
X97661904Y-74497619D01*
X97709523Y-74592857D01*
X97709523Y-74688095D01*
X97661904Y-74830952D01*
X97090476Y-75402380D01*
X97709523Y-75402380D01*
X98090476Y-74497619D02*
X98138095Y-74450000D01*
X98233333Y-74402380D01*
X98471428Y-74402380D01*
X98566666Y-74450000D01*
X98614285Y-74497619D01*
X98661904Y-74592857D01*
X98661904Y-74688095D01*
X98614285Y-74830952D01*
X98042857Y-75402380D01*
X98661904Y-75402380D01*
%TO.C,C21*%
X113357142Y-93492857D02*
X113404761Y-93540476D01*
X113452380Y-93683333D01*
X113452380Y-93778571D01*
X113404761Y-93921428D01*
X113309523Y-94016666D01*
X113214285Y-94064285D01*
X113023809Y-94111904D01*
X112880952Y-94111904D01*
X112690476Y-94064285D01*
X112595238Y-94016666D01*
X112500000Y-93921428D01*
X112452380Y-93778571D01*
X112452380Y-93683333D01*
X112500000Y-93540476D01*
X112547619Y-93492857D01*
X112547619Y-93111904D02*
X112500000Y-93064285D01*
X112452380Y-92969047D01*
X112452380Y-92730952D01*
X112500000Y-92635714D01*
X112547619Y-92588095D01*
X112642857Y-92540476D01*
X112738095Y-92540476D01*
X112880952Y-92588095D01*
X113452380Y-93159523D01*
X113452380Y-92540476D01*
X113452380Y-91588095D02*
X113452380Y-92159523D01*
X113452380Y-91873809D02*
X112452380Y-91873809D01*
X112595238Y-91969047D01*
X112690476Y-92064285D01*
X112738095Y-92159523D01*
%TO.C,C20*%
X101307142Y-110257142D02*
X101259523Y-110304761D01*
X101116666Y-110352380D01*
X101021428Y-110352380D01*
X100878571Y-110304761D01*
X100783333Y-110209523D01*
X100735714Y-110114285D01*
X100688095Y-109923809D01*
X100688095Y-109780952D01*
X100735714Y-109590476D01*
X100783333Y-109495238D01*
X100878571Y-109400000D01*
X101021428Y-109352380D01*
X101116666Y-109352380D01*
X101259523Y-109400000D01*
X101307142Y-109447619D01*
X101688095Y-109447619D02*
X101735714Y-109400000D01*
X101830952Y-109352380D01*
X102069047Y-109352380D01*
X102164285Y-109400000D01*
X102211904Y-109447619D01*
X102259523Y-109542857D01*
X102259523Y-109638095D01*
X102211904Y-109780952D01*
X101640476Y-110352380D01*
X102259523Y-110352380D01*
X102878571Y-109352380D02*
X102973809Y-109352380D01*
X103069047Y-109400000D01*
X103116666Y-109447619D01*
X103164285Y-109542857D01*
X103211904Y-109733333D01*
X103211904Y-109971428D01*
X103164285Y-110161904D01*
X103116666Y-110257142D01*
X103069047Y-110304761D01*
X102973809Y-110352380D01*
X102878571Y-110352380D01*
X102783333Y-110304761D01*
X102735714Y-110257142D01*
X102688095Y-110161904D01*
X102640476Y-109971428D01*
X102640476Y-109733333D01*
X102688095Y-109542857D01*
X102735714Y-109447619D01*
X102783333Y-109400000D01*
X102878571Y-109352380D01*
%TO.C,C19*%
X91157142Y-98957142D02*
X91109523Y-99004761D01*
X90966666Y-99052380D01*
X90871428Y-99052380D01*
X90728571Y-99004761D01*
X90633333Y-98909523D01*
X90585714Y-98814285D01*
X90538095Y-98623809D01*
X90538095Y-98480952D01*
X90585714Y-98290476D01*
X90633333Y-98195238D01*
X90728571Y-98100000D01*
X90871428Y-98052380D01*
X90966666Y-98052380D01*
X91109523Y-98100000D01*
X91157142Y-98147619D01*
X92109523Y-99052380D02*
X91538095Y-99052380D01*
X91823809Y-99052380D02*
X91823809Y-98052380D01*
X91728571Y-98195238D01*
X91633333Y-98290476D01*
X91538095Y-98338095D01*
X92585714Y-99052380D02*
X92776190Y-99052380D01*
X92871428Y-99004761D01*
X92919047Y-98957142D01*
X93014285Y-98814285D01*
X93061904Y-98623809D01*
X93061904Y-98242857D01*
X93014285Y-98147619D01*
X92966666Y-98100000D01*
X92871428Y-98052380D01*
X92680952Y-98052380D01*
X92585714Y-98100000D01*
X92538095Y-98147619D01*
X92490476Y-98242857D01*
X92490476Y-98480952D01*
X92538095Y-98576190D01*
X92585714Y-98623809D01*
X92680952Y-98671428D01*
X92871428Y-98671428D01*
X92966666Y-98623809D01*
X93014285Y-98576190D01*
X93061904Y-98480952D01*
%TO.C,C17*%
X109094642Y-102037142D02*
X109047023Y-102084761D01*
X108904166Y-102132380D01*
X108808928Y-102132380D01*
X108666071Y-102084761D01*
X108570833Y-101989523D01*
X108523214Y-101894285D01*
X108475595Y-101703809D01*
X108475595Y-101560952D01*
X108523214Y-101370476D01*
X108570833Y-101275238D01*
X108666071Y-101180000D01*
X108808928Y-101132380D01*
X108904166Y-101132380D01*
X109047023Y-101180000D01*
X109094642Y-101227619D01*
X110047023Y-102132380D02*
X109475595Y-102132380D01*
X109761309Y-102132380D02*
X109761309Y-101132380D01*
X109666071Y-101275238D01*
X109570833Y-101370476D01*
X109475595Y-101418095D01*
X110380357Y-101132380D02*
X111047023Y-101132380D01*
X110618452Y-102132380D01*
%TO.C,C16*%
X97357142Y-98907142D02*
X97309523Y-98954761D01*
X97166666Y-99002380D01*
X97071428Y-99002380D01*
X96928571Y-98954761D01*
X96833333Y-98859523D01*
X96785714Y-98764285D01*
X96738095Y-98573809D01*
X96738095Y-98430952D01*
X96785714Y-98240476D01*
X96833333Y-98145238D01*
X96928571Y-98050000D01*
X97071428Y-98002380D01*
X97166666Y-98002380D01*
X97309523Y-98050000D01*
X97357142Y-98097619D01*
X98309523Y-99002380D02*
X97738095Y-99002380D01*
X98023809Y-99002380D02*
X98023809Y-98002380D01*
X97928571Y-98145238D01*
X97833333Y-98240476D01*
X97738095Y-98288095D01*
X99166666Y-98002380D02*
X98976190Y-98002380D01*
X98880952Y-98050000D01*
X98833333Y-98097619D01*
X98738095Y-98240476D01*
X98690476Y-98430952D01*
X98690476Y-98811904D01*
X98738095Y-98907142D01*
X98785714Y-98954761D01*
X98880952Y-99002380D01*
X99071428Y-99002380D01*
X99166666Y-98954761D01*
X99214285Y-98907142D01*
X99261904Y-98811904D01*
X99261904Y-98573809D01*
X99214285Y-98478571D01*
X99166666Y-98430952D01*
X99071428Y-98383333D01*
X98880952Y-98383333D01*
X98785714Y-98430952D01*
X98738095Y-98478571D01*
X98690476Y-98573809D01*
%TO.C,C15*%
X96757142Y-112657142D02*
X96709523Y-112704761D01*
X96566666Y-112752380D01*
X96471428Y-112752380D01*
X96328571Y-112704761D01*
X96233333Y-112609523D01*
X96185714Y-112514285D01*
X96138095Y-112323809D01*
X96138095Y-112180952D01*
X96185714Y-111990476D01*
X96233333Y-111895238D01*
X96328571Y-111800000D01*
X96471428Y-111752380D01*
X96566666Y-111752380D01*
X96709523Y-111800000D01*
X96757142Y-111847619D01*
X97709523Y-112752380D02*
X97138095Y-112752380D01*
X97423809Y-112752380D02*
X97423809Y-111752380D01*
X97328571Y-111895238D01*
X97233333Y-111990476D01*
X97138095Y-112038095D01*
X98614285Y-111752380D02*
X98138095Y-111752380D01*
X98090476Y-112228571D01*
X98138095Y-112180952D01*
X98233333Y-112133333D01*
X98471428Y-112133333D01*
X98566666Y-112180952D01*
X98614285Y-112228571D01*
X98661904Y-112323809D01*
X98661904Y-112561904D01*
X98614285Y-112657142D01*
X98566666Y-112704761D01*
X98471428Y-112752380D01*
X98233333Y-112752380D01*
X98138095Y-112704761D01*
X98090476Y-112657142D01*
%TO.C,C14*%
X85357142Y-78947142D02*
X85309523Y-78994761D01*
X85166666Y-79042380D01*
X85071428Y-79042380D01*
X84928571Y-78994761D01*
X84833333Y-78899523D01*
X84785714Y-78804285D01*
X84738095Y-78613809D01*
X84738095Y-78470952D01*
X84785714Y-78280476D01*
X84833333Y-78185238D01*
X84928571Y-78090000D01*
X85071428Y-78042380D01*
X85166666Y-78042380D01*
X85309523Y-78090000D01*
X85357142Y-78137619D01*
X86309523Y-79042380D02*
X85738095Y-79042380D01*
X86023809Y-79042380D02*
X86023809Y-78042380D01*
X85928571Y-78185238D01*
X85833333Y-78280476D01*
X85738095Y-78328095D01*
X87166666Y-78375714D02*
X87166666Y-79042380D01*
X86928571Y-77994761D02*
X86690476Y-78709047D01*
X87309523Y-78709047D01*
%TO.C,C13*%
X81657142Y-76557142D02*
X81609523Y-76604761D01*
X81466666Y-76652380D01*
X81371428Y-76652380D01*
X81228571Y-76604761D01*
X81133333Y-76509523D01*
X81085714Y-76414285D01*
X81038095Y-76223809D01*
X81038095Y-76080952D01*
X81085714Y-75890476D01*
X81133333Y-75795238D01*
X81228571Y-75700000D01*
X81371428Y-75652380D01*
X81466666Y-75652380D01*
X81609523Y-75700000D01*
X81657142Y-75747619D01*
X82609523Y-76652380D02*
X82038095Y-76652380D01*
X82323809Y-76652380D02*
X82323809Y-75652380D01*
X82228571Y-75795238D01*
X82133333Y-75890476D01*
X82038095Y-75938095D01*
X82942857Y-75652380D02*
X83561904Y-75652380D01*
X83228571Y-76033333D01*
X83371428Y-76033333D01*
X83466666Y-76080952D01*
X83514285Y-76128571D01*
X83561904Y-76223809D01*
X83561904Y-76461904D01*
X83514285Y-76557142D01*
X83466666Y-76604761D01*
X83371428Y-76652380D01*
X83085714Y-76652380D01*
X82990476Y-76604761D01*
X82942857Y-76557142D01*
%TO.C,C12*%
X87347142Y-57967142D02*
X87299523Y-58014761D01*
X87156666Y-58062380D01*
X87061428Y-58062380D01*
X86918571Y-58014761D01*
X86823333Y-57919523D01*
X86775714Y-57824285D01*
X86728095Y-57633809D01*
X86728095Y-57490952D01*
X86775714Y-57300476D01*
X86823333Y-57205238D01*
X86918571Y-57110000D01*
X87061428Y-57062380D01*
X87156666Y-57062380D01*
X87299523Y-57110000D01*
X87347142Y-57157619D01*
X88299523Y-58062380D02*
X87728095Y-58062380D01*
X88013809Y-58062380D02*
X88013809Y-57062380D01*
X87918571Y-57205238D01*
X87823333Y-57300476D01*
X87728095Y-57348095D01*
X88680476Y-57157619D02*
X88728095Y-57110000D01*
X88823333Y-57062380D01*
X89061428Y-57062380D01*
X89156666Y-57110000D01*
X89204285Y-57157619D01*
X89251904Y-57252857D01*
X89251904Y-57348095D01*
X89204285Y-57490952D01*
X88632857Y-58062380D01*
X89251904Y-58062380D01*
%TO.C,C11*%
X105607142Y-54067142D02*
X105559523Y-54114761D01*
X105416666Y-54162380D01*
X105321428Y-54162380D01*
X105178571Y-54114761D01*
X105083333Y-54019523D01*
X105035714Y-53924285D01*
X104988095Y-53733809D01*
X104988095Y-53590952D01*
X105035714Y-53400476D01*
X105083333Y-53305238D01*
X105178571Y-53210000D01*
X105321428Y-53162380D01*
X105416666Y-53162380D01*
X105559523Y-53210000D01*
X105607142Y-53257619D01*
X106559523Y-54162380D02*
X105988095Y-54162380D01*
X106273809Y-54162380D02*
X106273809Y-53162380D01*
X106178571Y-53305238D01*
X106083333Y-53400476D01*
X105988095Y-53448095D01*
X107511904Y-54162380D02*
X106940476Y-54162380D01*
X107226190Y-54162380D02*
X107226190Y-53162380D01*
X107130952Y-53305238D01*
X107035714Y-53400476D01*
X106940476Y-53448095D01*
%TO.C,C10*%
X80467142Y-59627142D02*
X80419523Y-59674761D01*
X80276666Y-59722380D01*
X80181428Y-59722380D01*
X80038571Y-59674761D01*
X79943333Y-59579523D01*
X79895714Y-59484285D01*
X79848095Y-59293809D01*
X79848095Y-59150952D01*
X79895714Y-58960476D01*
X79943333Y-58865238D01*
X80038571Y-58770000D01*
X80181428Y-58722380D01*
X80276666Y-58722380D01*
X80419523Y-58770000D01*
X80467142Y-58817619D01*
X81419523Y-59722380D02*
X80848095Y-59722380D01*
X81133809Y-59722380D02*
X81133809Y-58722380D01*
X81038571Y-58865238D01*
X80943333Y-58960476D01*
X80848095Y-59008095D01*
X82038571Y-58722380D02*
X82133809Y-58722380D01*
X82229047Y-58770000D01*
X82276666Y-58817619D01*
X82324285Y-58912857D01*
X82371904Y-59103333D01*
X82371904Y-59341428D01*
X82324285Y-59531904D01*
X82276666Y-59627142D01*
X82229047Y-59674761D01*
X82133809Y-59722380D01*
X82038571Y-59722380D01*
X81943333Y-59674761D01*
X81895714Y-59627142D01*
X81848095Y-59531904D01*
X81800476Y-59341428D01*
X81800476Y-59103333D01*
X81848095Y-58912857D01*
X81895714Y-58817619D01*
X81943333Y-58770000D01*
X82038571Y-58722380D01*
%TO.C,C9*%
X108833333Y-54107142D02*
X108785714Y-54154761D01*
X108642857Y-54202380D01*
X108547619Y-54202380D01*
X108404761Y-54154761D01*
X108309523Y-54059523D01*
X108261904Y-53964285D01*
X108214285Y-53773809D01*
X108214285Y-53630952D01*
X108261904Y-53440476D01*
X108309523Y-53345238D01*
X108404761Y-53250000D01*
X108547619Y-53202380D01*
X108642857Y-53202380D01*
X108785714Y-53250000D01*
X108833333Y-53297619D01*
X109309523Y-54202380D02*
X109500000Y-54202380D01*
X109595238Y-54154761D01*
X109642857Y-54107142D01*
X109738095Y-53964285D01*
X109785714Y-53773809D01*
X109785714Y-53392857D01*
X109738095Y-53297619D01*
X109690476Y-53250000D01*
X109595238Y-53202380D01*
X109404761Y-53202380D01*
X109309523Y-53250000D01*
X109261904Y-53297619D01*
X109214285Y-53392857D01*
X109214285Y-53630952D01*
X109261904Y-53726190D01*
X109309523Y-53773809D01*
X109404761Y-53821428D01*
X109595238Y-53821428D01*
X109690476Y-53773809D01*
X109738095Y-53726190D01*
X109785714Y-53630952D01*
%TO.C,C8*%
X79842142Y-62636666D02*
X79889761Y-62684285D01*
X79937380Y-62827142D01*
X79937380Y-62922380D01*
X79889761Y-63065238D01*
X79794523Y-63160476D01*
X79699285Y-63208095D01*
X79508809Y-63255714D01*
X79365952Y-63255714D01*
X79175476Y-63208095D01*
X79080238Y-63160476D01*
X78985000Y-63065238D01*
X78937380Y-62922380D01*
X78937380Y-62827142D01*
X78985000Y-62684285D01*
X79032619Y-62636666D01*
X79365952Y-62065238D02*
X79318333Y-62160476D01*
X79270714Y-62208095D01*
X79175476Y-62255714D01*
X79127857Y-62255714D01*
X79032619Y-62208095D01*
X78985000Y-62160476D01*
X78937380Y-62065238D01*
X78937380Y-61874761D01*
X78985000Y-61779523D01*
X79032619Y-61731904D01*
X79127857Y-61684285D01*
X79175476Y-61684285D01*
X79270714Y-61731904D01*
X79318333Y-61779523D01*
X79365952Y-61874761D01*
X79365952Y-62065238D01*
X79413571Y-62160476D01*
X79461190Y-62208095D01*
X79556428Y-62255714D01*
X79746904Y-62255714D01*
X79842142Y-62208095D01*
X79889761Y-62160476D01*
X79937380Y-62065238D01*
X79937380Y-61874761D01*
X79889761Y-61779523D01*
X79842142Y-61731904D01*
X79746904Y-61684285D01*
X79556428Y-61684285D01*
X79461190Y-61731904D01*
X79413571Y-61779523D01*
X79365952Y-61874761D01*
%TO.C,C6*%
X95833333Y-63607142D02*
X95785714Y-63654761D01*
X95642857Y-63702380D01*
X95547619Y-63702380D01*
X95404761Y-63654761D01*
X95309523Y-63559523D01*
X95261904Y-63464285D01*
X95214285Y-63273809D01*
X95214285Y-63130952D01*
X95261904Y-62940476D01*
X95309523Y-62845238D01*
X95404761Y-62750000D01*
X95547619Y-62702380D01*
X95642857Y-62702380D01*
X95785714Y-62750000D01*
X95833333Y-62797619D01*
X96690476Y-62702380D02*
X96500000Y-62702380D01*
X96404761Y-62750000D01*
X96357142Y-62797619D01*
X96261904Y-62940476D01*
X96214285Y-63130952D01*
X96214285Y-63511904D01*
X96261904Y-63607142D01*
X96309523Y-63654761D01*
X96404761Y-63702380D01*
X96595238Y-63702380D01*
X96690476Y-63654761D01*
X96738095Y-63607142D01*
X96785714Y-63511904D01*
X96785714Y-63273809D01*
X96738095Y-63178571D01*
X96690476Y-63130952D01*
X96595238Y-63083333D01*
X96404761Y-63083333D01*
X96309523Y-63130952D01*
X96261904Y-63178571D01*
X96214285Y-63273809D01*
%TO.C,C5*%
X96333333Y-65357142D02*
X96285714Y-65404761D01*
X96142857Y-65452380D01*
X96047619Y-65452380D01*
X95904761Y-65404761D01*
X95809523Y-65309523D01*
X95761904Y-65214285D01*
X95714285Y-65023809D01*
X95714285Y-64880952D01*
X95761904Y-64690476D01*
X95809523Y-64595238D01*
X95904761Y-64500000D01*
X96047619Y-64452380D01*
X96142857Y-64452380D01*
X96285714Y-64500000D01*
X96333333Y-64547619D01*
X97238095Y-64452380D02*
X96761904Y-64452380D01*
X96714285Y-64928571D01*
X96761904Y-64880952D01*
X96857142Y-64833333D01*
X97095238Y-64833333D01*
X97190476Y-64880952D01*
X97238095Y-64928571D01*
X97285714Y-65023809D01*
X97285714Y-65261904D01*
X97238095Y-65357142D01*
X97190476Y-65404761D01*
X97095238Y-65452380D01*
X96857142Y-65452380D01*
X96761904Y-65404761D01*
X96714285Y-65357142D01*
%TO.C,C4*%
X69657142Y-112066666D02*
X69704761Y-112114285D01*
X69752380Y-112257142D01*
X69752380Y-112352380D01*
X69704761Y-112495238D01*
X69609523Y-112590476D01*
X69514285Y-112638095D01*
X69323809Y-112685714D01*
X69180952Y-112685714D01*
X68990476Y-112638095D01*
X68895238Y-112590476D01*
X68800000Y-112495238D01*
X68752380Y-112352380D01*
X68752380Y-112257142D01*
X68800000Y-112114285D01*
X68847619Y-112066666D01*
X69085714Y-111209523D02*
X69752380Y-111209523D01*
X68704761Y-111447619D02*
X69419047Y-111685714D01*
X69419047Y-111066666D01*
%TO.C,C3*%
X90153233Y-69379942D02*
X90105614Y-69427561D01*
X89962757Y-69475180D01*
X89867519Y-69475180D01*
X89724661Y-69427561D01*
X89629423Y-69332323D01*
X89581804Y-69237085D01*
X89534185Y-69046609D01*
X89534185Y-68903752D01*
X89581804Y-68713276D01*
X89629423Y-68618038D01*
X89724661Y-68522800D01*
X89867519Y-68475180D01*
X89962757Y-68475180D01*
X90105614Y-68522800D01*
X90153233Y-68570419D01*
X90486566Y-68475180D02*
X91105614Y-68475180D01*
X90772280Y-68856133D01*
X90915138Y-68856133D01*
X91010376Y-68903752D01*
X91057995Y-68951371D01*
X91105614Y-69046609D01*
X91105614Y-69284704D01*
X91057995Y-69379942D01*
X91010376Y-69427561D01*
X90915138Y-69475180D01*
X90629423Y-69475180D01*
X90534185Y-69427561D01*
X90486566Y-69379942D01*
%TO.C,C2*%
X105481533Y-64055542D02*
X105433914Y-64103161D01*
X105291057Y-64150780D01*
X105195819Y-64150780D01*
X105052961Y-64103161D01*
X104957723Y-64007923D01*
X104910104Y-63912685D01*
X104862485Y-63722209D01*
X104862485Y-63579352D01*
X104910104Y-63388876D01*
X104957723Y-63293638D01*
X105052961Y-63198400D01*
X105195819Y-63150780D01*
X105291057Y-63150780D01*
X105433914Y-63198400D01*
X105481533Y-63246019D01*
X105862485Y-63246019D02*
X105910104Y-63198400D01*
X106005342Y-63150780D01*
X106243438Y-63150780D01*
X106338676Y-63198400D01*
X106386295Y-63246019D01*
X106433914Y-63341257D01*
X106433914Y-63436495D01*
X106386295Y-63579352D01*
X105814866Y-64150780D01*
X106433914Y-64150780D01*
%TO.C,C1*%
X69657142Y-102766666D02*
X69704761Y-102814285D01*
X69752380Y-102957142D01*
X69752380Y-103052380D01*
X69704761Y-103195238D01*
X69609523Y-103290476D01*
X69514285Y-103338095D01*
X69323809Y-103385714D01*
X69180952Y-103385714D01*
X68990476Y-103338095D01*
X68895238Y-103290476D01*
X68800000Y-103195238D01*
X68752380Y-103052380D01*
X68752380Y-102957142D01*
X68800000Y-102814285D01*
X68847619Y-102766666D01*
X69752380Y-101814285D02*
X69752380Y-102385714D01*
X69752380Y-102100000D02*
X68752380Y-102100000D01*
X68895238Y-102195238D01*
X68990476Y-102290476D01*
X69038095Y-102385714D01*
%TD*%
M02*
