%TF.GenerationSoftware,KiCad,Pcbnew,5.1.9-73d0e3b20d~88~ubuntu20.04.1*%
%TF.CreationDate,2021-03-11T22:20:10-06:00*%
%TF.ProjectId,brd,6272642e-6b69-4636-9164-5f7063625858,rev?*%
%TF.SameCoordinates,Original*%
%TF.FileFunction,Soldermask,Top*%
%TF.FilePolarity,Negative*%
%FSLAX46Y46*%
G04 Gerber Fmt 4.6, Leading zero omitted, Abs format (unit mm)*
G04 Created by KiCad (PCBNEW 5.1.9-73d0e3b20d~88~ubuntu20.04.1) date 2021-03-11 22:20:10*
%MOMM*%
%LPD*%
G01*
G04 APERTURE LIST*
%ADD10O,1.600000X1.600000*%
%ADD11C,1.600000*%
%ADD12R,4.000000X2.100000*%
%ADD13R,2.100000X4.000000*%
%ADD14R,5.800000X2.500000*%
%ADD15R,2.500000X5.800000*%
%ADD16R,1.500000X1.600000*%
%ADD17R,1.200000X1.200000*%
%ADD18O,1.905000X2.000000*%
%ADD19R,1.905000X2.000000*%
%ADD20O,3.500000X3.500000*%
%ADD21R,1.600000X1.500000*%
%ADD22O,2.400000X2.400000*%
%ADD23C,2.400000*%
%ADD24O,2.000000X1.905000*%
%ADD25R,2.000000X1.905000*%
%ADD26R,1.500000X2.000000*%
%ADD27R,3.800000X2.000000*%
%ADD28R,1.950000X3.000000*%
%ADD29R,2.950000X2.500000*%
%ADD30R,3.500000X1.850000*%
%ADD31O,1.700000X1.700000*%
%ADD32R,1.700000X1.700000*%
%ADD33C,3.100000*%
%ADD34R,1.800000X1.800000*%
%ADD35R,0.800000X0.200000*%
%ADD36R,0.300000X0.300000*%
%ADD37R,0.200000X0.800000*%
%ADD38R,1.100000X1.100000*%
G04 APERTURE END LIST*
D10*
%TO.C,R24*%
X87940000Y-109200000D03*
D11*
X85400000Y-109200000D03*
%TD*%
D10*
%TO.C,R23*%
X84900000Y-80560000D03*
D11*
X84900000Y-83100000D03*
%TD*%
D10*
%TO.C,R22*%
X80200000Y-80560000D03*
D11*
X80200000Y-83100000D03*
%TD*%
D10*
%TO.C,R21*%
X67975000Y-114085000D03*
D11*
X67975000Y-116625000D03*
%TD*%
D10*
%TO.C,R8*%
X76950000Y-97185000D03*
D11*
X76950000Y-99725000D03*
%TD*%
D12*
%TO.C,L12*%
X81400000Y-108050000D03*
X81400000Y-104950000D03*
%TD*%
%TO.C,L11*%
X79800000Y-87050000D03*
X79800000Y-90150000D03*
%TD*%
D13*
%TO.C,L10*%
X75950000Y-87600000D03*
X72850000Y-87600000D03*
%TD*%
D14*
%TO.C,L9*%
X85500000Y-86550000D03*
X85500000Y-90250000D03*
%TD*%
%TO.C,L8*%
G36*
G01*
X67525000Y-118324999D02*
X67525000Y-119225001D01*
G75*
G02*
X67275001Y-119475000I-249999J0D01*
G01*
X66624999Y-119475000D01*
G75*
G02*
X66375000Y-119225001I0J249999D01*
G01*
X66375000Y-118324999D01*
G75*
G02*
X66624999Y-118075000I249999J0D01*
G01*
X67275001Y-118075000D01*
G75*
G02*
X67525000Y-118324999I0J-249999D01*
G01*
G37*
G36*
G01*
X69575000Y-118324999D02*
X69575000Y-119225001D01*
G75*
G02*
X69325001Y-119475000I-249999J0D01*
G01*
X68674999Y-119475000D01*
G75*
G02*
X68425000Y-119225001I0J249999D01*
G01*
X68425000Y-118324999D01*
G75*
G02*
X68674999Y-118075000I249999J0D01*
G01*
X69325001Y-118075000D01*
G75*
G02*
X69575000Y-118324999I0J-249999D01*
G01*
G37*
%TD*%
%TO.C,L6*%
X84600000Y-97150000D03*
X84600000Y-93450000D03*
%TD*%
%TO.C,L4*%
G36*
G01*
X76449999Y-104090000D02*
X77350001Y-104090000D01*
G75*
G02*
X77600000Y-104339999I0J-249999D01*
G01*
X77600000Y-104990001D01*
G75*
G02*
X77350001Y-105240000I-249999J0D01*
G01*
X76449999Y-105240000D01*
G75*
G02*
X76200000Y-104990001I0J249999D01*
G01*
X76200000Y-104339999D01*
G75*
G02*
X76449999Y-104090000I249999J0D01*
G01*
G37*
G36*
G01*
X76449999Y-102040000D02*
X77350001Y-102040000D01*
G75*
G02*
X77600000Y-102289999I0J-249999D01*
G01*
X77600000Y-102940001D01*
G75*
G02*
X77350001Y-103190000I-249999J0D01*
G01*
X76449999Y-103190000D01*
G75*
G02*
X76200000Y-102940001I0J249999D01*
G01*
X76200000Y-102289999D01*
G75*
G02*
X76449999Y-102040000I249999J0D01*
G01*
G37*
%TD*%
D15*
%TO.C,L3*%
X76550000Y-82000000D03*
X72850000Y-82000000D03*
%TD*%
%TO.C,C18*%
G36*
G01*
X92150002Y-107900000D02*
X90849998Y-107900000D01*
G75*
G02*
X90600000Y-107650002I0J249998D01*
G01*
X90600000Y-106824998D01*
G75*
G02*
X90849998Y-106575000I249998J0D01*
G01*
X92150002Y-106575000D01*
G75*
G02*
X92400000Y-106824998I0J-249998D01*
G01*
X92400000Y-107650002D01*
G75*
G02*
X92150002Y-107900000I-249998J0D01*
G01*
G37*
G36*
G01*
X92150002Y-111025000D02*
X90849998Y-111025000D01*
G75*
G02*
X90600000Y-110775002I0J249998D01*
G01*
X90600000Y-109949998D01*
G75*
G02*
X90849998Y-109700000I249998J0D01*
G01*
X92150002Y-109700000D01*
G75*
G02*
X92400000Y-109949998I0J-249998D01*
G01*
X92400000Y-110775002D01*
G75*
G02*
X92150002Y-111025000I-249998J0D01*
G01*
G37*
%TD*%
%TO.C,C7*%
G36*
G01*
X76549998Y-109100000D02*
X77850002Y-109100000D01*
G75*
G02*
X78100000Y-109349998I0J-249998D01*
G01*
X78100000Y-110175002D01*
G75*
G02*
X77850002Y-110425000I-249998J0D01*
G01*
X76549998Y-110425000D01*
G75*
G02*
X76300000Y-110175002I0J249998D01*
G01*
X76300000Y-109349998D01*
G75*
G02*
X76549998Y-109100000I249998J0D01*
G01*
G37*
G36*
G01*
X76549998Y-105975000D02*
X77850002Y-105975000D01*
G75*
G02*
X78100000Y-106224998I0J-249998D01*
G01*
X78100000Y-107050002D01*
G75*
G02*
X77850002Y-107300000I-249998J0D01*
G01*
X76549998Y-107300000D01*
G75*
G02*
X76300000Y-107050002I0J249998D01*
G01*
X76300000Y-106224998D01*
G75*
G02*
X76549998Y-105975000I249998J0D01*
G01*
G37*
%TD*%
D16*
%TO.C,RV5*%
X90050000Y-93350000D03*
D17*
X93300000Y-92350000D03*
X93300000Y-94350000D03*
%TD*%
D10*
%TO.C,R9*%
X111685100Y-56221900D03*
D11*
X109145100Y-56221900D03*
%TD*%
D10*
%TO.C,R7*%
X95591500Y-66559000D03*
D11*
X93051500Y-66559000D03*
%TD*%
D10*
%TO.C,R14*%
X105620000Y-86250000D03*
D11*
X110700000Y-86250000D03*
%TD*%
%TO.C,U6*%
G36*
G01*
X116765468Y-76500648D02*
X117065468Y-76500648D01*
G75*
G02*
X117215468Y-76650648I0J-150000D01*
G01*
X117215468Y-78300648D01*
G75*
G02*
X117065468Y-78450648I-150000J0D01*
G01*
X116765468Y-78450648D01*
G75*
G02*
X116615468Y-78300648I0J150000D01*
G01*
X116615468Y-76650648D01*
G75*
G02*
X116765468Y-76500648I150000J0D01*
G01*
G37*
G36*
G01*
X115495468Y-76500648D02*
X115795468Y-76500648D01*
G75*
G02*
X115945468Y-76650648I0J-150000D01*
G01*
X115945468Y-78300648D01*
G75*
G02*
X115795468Y-78450648I-150000J0D01*
G01*
X115495468Y-78450648D01*
G75*
G02*
X115345468Y-78300648I0J150000D01*
G01*
X115345468Y-76650648D01*
G75*
G02*
X115495468Y-76500648I150000J0D01*
G01*
G37*
G36*
G01*
X114225468Y-76500648D02*
X114525468Y-76500648D01*
G75*
G02*
X114675468Y-76650648I0J-150000D01*
G01*
X114675468Y-78300648D01*
G75*
G02*
X114525468Y-78450648I-150000J0D01*
G01*
X114225468Y-78450648D01*
G75*
G02*
X114075468Y-78300648I0J150000D01*
G01*
X114075468Y-76650648D01*
G75*
G02*
X114225468Y-76500648I150000J0D01*
G01*
G37*
G36*
G01*
X112955468Y-76500648D02*
X113255468Y-76500648D01*
G75*
G02*
X113405468Y-76650648I0J-150000D01*
G01*
X113405468Y-78300648D01*
G75*
G02*
X113255468Y-78450648I-150000J0D01*
G01*
X112955468Y-78450648D01*
G75*
G02*
X112805468Y-78300648I0J150000D01*
G01*
X112805468Y-76650648D01*
G75*
G02*
X112955468Y-76500648I150000J0D01*
G01*
G37*
G36*
G01*
X112955468Y-71550648D02*
X113255468Y-71550648D01*
G75*
G02*
X113405468Y-71700648I0J-150000D01*
G01*
X113405468Y-73350648D01*
G75*
G02*
X113255468Y-73500648I-150000J0D01*
G01*
X112955468Y-73500648D01*
G75*
G02*
X112805468Y-73350648I0J150000D01*
G01*
X112805468Y-71700648D01*
G75*
G02*
X112955468Y-71550648I150000J0D01*
G01*
G37*
G36*
G01*
X114225468Y-71550648D02*
X114525468Y-71550648D01*
G75*
G02*
X114675468Y-71700648I0J-150000D01*
G01*
X114675468Y-73350648D01*
G75*
G02*
X114525468Y-73500648I-150000J0D01*
G01*
X114225468Y-73500648D01*
G75*
G02*
X114075468Y-73350648I0J150000D01*
G01*
X114075468Y-71700648D01*
G75*
G02*
X114225468Y-71550648I150000J0D01*
G01*
G37*
G36*
G01*
X115495468Y-71550648D02*
X115795468Y-71550648D01*
G75*
G02*
X115945468Y-71700648I0J-150000D01*
G01*
X115945468Y-73350648D01*
G75*
G02*
X115795468Y-73500648I-150000J0D01*
G01*
X115495468Y-73500648D01*
G75*
G02*
X115345468Y-73350648I0J150000D01*
G01*
X115345468Y-71700648D01*
G75*
G02*
X115495468Y-71550648I150000J0D01*
G01*
G37*
G36*
G01*
X116765468Y-71550648D02*
X117065468Y-71550648D01*
G75*
G02*
X117215468Y-71700648I0J-150000D01*
G01*
X117215468Y-73350648D01*
G75*
G02*
X117065468Y-73500648I-150000J0D01*
G01*
X116765468Y-73500648D01*
G75*
G02*
X116615468Y-73350648I0J150000D01*
G01*
X116615468Y-71700648D01*
G75*
G02*
X116765468Y-71550648I150000J0D01*
G01*
G37*
%TD*%
D18*
%TO.C,U5*%
X113070000Y-100200000D03*
X115610000Y-100200000D03*
D19*
X118150000Y-100200000D03*
D20*
X115610000Y-116860000D03*
%TD*%
%TO.C,U4*%
G36*
G01*
X90900000Y-104305000D02*
X90900000Y-104605000D01*
G75*
G02*
X90750000Y-104755000I-150000J0D01*
G01*
X89100000Y-104755000D01*
G75*
G02*
X88950000Y-104605000I0J150000D01*
G01*
X88950000Y-104305000D01*
G75*
G02*
X89100000Y-104155000I150000J0D01*
G01*
X90750000Y-104155000D01*
G75*
G02*
X90900000Y-104305000I0J-150000D01*
G01*
G37*
G36*
G01*
X90900000Y-103035000D02*
X90900000Y-103335000D01*
G75*
G02*
X90750000Y-103485000I-150000J0D01*
G01*
X89100000Y-103485000D01*
G75*
G02*
X88950000Y-103335000I0J150000D01*
G01*
X88950000Y-103035000D01*
G75*
G02*
X89100000Y-102885000I150000J0D01*
G01*
X90750000Y-102885000D01*
G75*
G02*
X90900000Y-103035000I0J-150000D01*
G01*
G37*
G36*
G01*
X90900000Y-101765000D02*
X90900000Y-102065000D01*
G75*
G02*
X90750000Y-102215000I-150000J0D01*
G01*
X89100000Y-102215000D01*
G75*
G02*
X88950000Y-102065000I0J150000D01*
G01*
X88950000Y-101765000D01*
G75*
G02*
X89100000Y-101615000I150000J0D01*
G01*
X90750000Y-101615000D01*
G75*
G02*
X90900000Y-101765000I0J-150000D01*
G01*
G37*
G36*
G01*
X90900000Y-100495000D02*
X90900000Y-100795000D01*
G75*
G02*
X90750000Y-100945000I-150000J0D01*
G01*
X89100000Y-100945000D01*
G75*
G02*
X88950000Y-100795000I0J150000D01*
G01*
X88950000Y-100495000D01*
G75*
G02*
X89100000Y-100345000I150000J0D01*
G01*
X90750000Y-100345000D01*
G75*
G02*
X90900000Y-100495000I0J-150000D01*
G01*
G37*
G36*
G01*
X95850000Y-100495000D02*
X95850000Y-100795000D01*
G75*
G02*
X95700000Y-100945000I-150000J0D01*
G01*
X94050000Y-100945000D01*
G75*
G02*
X93900000Y-100795000I0J150000D01*
G01*
X93900000Y-100495000D01*
G75*
G02*
X94050000Y-100345000I150000J0D01*
G01*
X95700000Y-100345000D01*
G75*
G02*
X95850000Y-100495000I0J-150000D01*
G01*
G37*
G36*
G01*
X95850000Y-101765000D02*
X95850000Y-102065000D01*
G75*
G02*
X95700000Y-102215000I-150000J0D01*
G01*
X94050000Y-102215000D01*
G75*
G02*
X93900000Y-102065000I0J150000D01*
G01*
X93900000Y-101765000D01*
G75*
G02*
X94050000Y-101615000I150000J0D01*
G01*
X95700000Y-101615000D01*
G75*
G02*
X95850000Y-101765000I0J-150000D01*
G01*
G37*
G36*
G01*
X95850000Y-103035000D02*
X95850000Y-103335000D01*
G75*
G02*
X95700000Y-103485000I-150000J0D01*
G01*
X94050000Y-103485000D01*
G75*
G02*
X93900000Y-103335000I0J150000D01*
G01*
X93900000Y-103035000D01*
G75*
G02*
X94050000Y-102885000I150000J0D01*
G01*
X95700000Y-102885000D01*
G75*
G02*
X95850000Y-103035000I0J-150000D01*
G01*
G37*
G36*
G01*
X95850000Y-104305000D02*
X95850000Y-104605000D01*
G75*
G02*
X95700000Y-104755000I-150000J0D01*
G01*
X94050000Y-104755000D01*
G75*
G02*
X93900000Y-104605000I0J150000D01*
G01*
X93900000Y-104305000D01*
G75*
G02*
X94050000Y-104155000I150000J0D01*
G01*
X95700000Y-104155000D01*
G75*
G02*
X95850000Y-104305000I0J-150000D01*
G01*
G37*
%TD*%
%TO.C,U3*%
G36*
G01*
X90900000Y-117805000D02*
X90900000Y-118105000D01*
G75*
G02*
X90750000Y-118255000I-150000J0D01*
G01*
X89100000Y-118255000D01*
G75*
G02*
X88950000Y-118105000I0J150000D01*
G01*
X88950000Y-117805000D01*
G75*
G02*
X89100000Y-117655000I150000J0D01*
G01*
X90750000Y-117655000D01*
G75*
G02*
X90900000Y-117805000I0J-150000D01*
G01*
G37*
G36*
G01*
X90900000Y-116535000D02*
X90900000Y-116835000D01*
G75*
G02*
X90750000Y-116985000I-150000J0D01*
G01*
X89100000Y-116985000D01*
G75*
G02*
X88950000Y-116835000I0J150000D01*
G01*
X88950000Y-116535000D01*
G75*
G02*
X89100000Y-116385000I150000J0D01*
G01*
X90750000Y-116385000D01*
G75*
G02*
X90900000Y-116535000I0J-150000D01*
G01*
G37*
G36*
G01*
X90900000Y-115265000D02*
X90900000Y-115565000D01*
G75*
G02*
X90750000Y-115715000I-150000J0D01*
G01*
X89100000Y-115715000D01*
G75*
G02*
X88950000Y-115565000I0J150000D01*
G01*
X88950000Y-115265000D01*
G75*
G02*
X89100000Y-115115000I150000J0D01*
G01*
X90750000Y-115115000D01*
G75*
G02*
X90900000Y-115265000I0J-150000D01*
G01*
G37*
G36*
G01*
X90900000Y-113995000D02*
X90900000Y-114295000D01*
G75*
G02*
X90750000Y-114445000I-150000J0D01*
G01*
X89100000Y-114445000D01*
G75*
G02*
X88950000Y-114295000I0J150000D01*
G01*
X88950000Y-113995000D01*
G75*
G02*
X89100000Y-113845000I150000J0D01*
G01*
X90750000Y-113845000D01*
G75*
G02*
X90900000Y-113995000I0J-150000D01*
G01*
G37*
G36*
G01*
X95850000Y-113995000D02*
X95850000Y-114295000D01*
G75*
G02*
X95700000Y-114445000I-150000J0D01*
G01*
X94050000Y-114445000D01*
G75*
G02*
X93900000Y-114295000I0J150000D01*
G01*
X93900000Y-113995000D01*
G75*
G02*
X94050000Y-113845000I150000J0D01*
G01*
X95700000Y-113845000D01*
G75*
G02*
X95850000Y-113995000I0J-150000D01*
G01*
G37*
G36*
G01*
X95850000Y-115265000D02*
X95850000Y-115565000D01*
G75*
G02*
X95700000Y-115715000I-150000J0D01*
G01*
X94050000Y-115715000D01*
G75*
G02*
X93900000Y-115565000I0J150000D01*
G01*
X93900000Y-115265000D01*
G75*
G02*
X94050000Y-115115000I150000J0D01*
G01*
X95700000Y-115115000D01*
G75*
G02*
X95850000Y-115265000I0J-150000D01*
G01*
G37*
G36*
G01*
X95850000Y-116535000D02*
X95850000Y-116835000D01*
G75*
G02*
X95700000Y-116985000I-150000J0D01*
G01*
X94050000Y-116985000D01*
G75*
G02*
X93900000Y-116835000I0J150000D01*
G01*
X93900000Y-116535000D01*
G75*
G02*
X94050000Y-116385000I150000J0D01*
G01*
X95700000Y-116385000D01*
G75*
G02*
X95850000Y-116535000I0J-150000D01*
G01*
G37*
G36*
G01*
X95850000Y-117805000D02*
X95850000Y-118105000D01*
G75*
G02*
X95700000Y-118255000I-150000J0D01*
G01*
X94050000Y-118255000D01*
G75*
G02*
X93900000Y-118105000I0J150000D01*
G01*
X93900000Y-117805000D01*
G75*
G02*
X94050000Y-117655000I150000J0D01*
G01*
X95700000Y-117655000D01*
G75*
G02*
X95850000Y-117805000I0J-150000D01*
G01*
G37*
%TD*%
%TO.C,U2*%
G36*
G01*
X98538200Y-57198400D02*
X98238200Y-57198400D01*
G75*
G02*
X98088200Y-57048400I0J150000D01*
G01*
X98088200Y-55398400D01*
G75*
G02*
X98238200Y-55248400I150000J0D01*
G01*
X98538200Y-55248400D01*
G75*
G02*
X98688200Y-55398400I0J-150000D01*
G01*
X98688200Y-57048400D01*
G75*
G02*
X98538200Y-57198400I-150000J0D01*
G01*
G37*
G36*
G01*
X99808200Y-57198400D02*
X99508200Y-57198400D01*
G75*
G02*
X99358200Y-57048400I0J150000D01*
G01*
X99358200Y-55398400D01*
G75*
G02*
X99508200Y-55248400I150000J0D01*
G01*
X99808200Y-55248400D01*
G75*
G02*
X99958200Y-55398400I0J-150000D01*
G01*
X99958200Y-57048400D01*
G75*
G02*
X99808200Y-57198400I-150000J0D01*
G01*
G37*
G36*
G01*
X101078200Y-57198400D02*
X100778200Y-57198400D01*
G75*
G02*
X100628200Y-57048400I0J150000D01*
G01*
X100628200Y-55398400D01*
G75*
G02*
X100778200Y-55248400I150000J0D01*
G01*
X101078200Y-55248400D01*
G75*
G02*
X101228200Y-55398400I0J-150000D01*
G01*
X101228200Y-57048400D01*
G75*
G02*
X101078200Y-57198400I-150000J0D01*
G01*
G37*
G36*
G01*
X102348200Y-57198400D02*
X102048200Y-57198400D01*
G75*
G02*
X101898200Y-57048400I0J150000D01*
G01*
X101898200Y-55398400D01*
G75*
G02*
X102048200Y-55248400I150000J0D01*
G01*
X102348200Y-55248400D01*
G75*
G02*
X102498200Y-55398400I0J-150000D01*
G01*
X102498200Y-57048400D01*
G75*
G02*
X102348200Y-57198400I-150000J0D01*
G01*
G37*
G36*
G01*
X103618200Y-57198400D02*
X103318200Y-57198400D01*
G75*
G02*
X103168200Y-57048400I0J150000D01*
G01*
X103168200Y-55398400D01*
G75*
G02*
X103318200Y-55248400I150000J0D01*
G01*
X103618200Y-55248400D01*
G75*
G02*
X103768200Y-55398400I0J-150000D01*
G01*
X103768200Y-57048400D01*
G75*
G02*
X103618200Y-57198400I-150000J0D01*
G01*
G37*
G36*
G01*
X104888200Y-57198400D02*
X104588200Y-57198400D01*
G75*
G02*
X104438200Y-57048400I0J150000D01*
G01*
X104438200Y-55398400D01*
G75*
G02*
X104588200Y-55248400I150000J0D01*
G01*
X104888200Y-55248400D01*
G75*
G02*
X105038200Y-55398400I0J-150000D01*
G01*
X105038200Y-57048400D01*
G75*
G02*
X104888200Y-57198400I-150000J0D01*
G01*
G37*
G36*
G01*
X106158200Y-57198400D02*
X105858200Y-57198400D01*
G75*
G02*
X105708200Y-57048400I0J150000D01*
G01*
X105708200Y-55398400D01*
G75*
G02*
X105858200Y-55248400I150000J0D01*
G01*
X106158200Y-55248400D01*
G75*
G02*
X106308200Y-55398400I0J-150000D01*
G01*
X106308200Y-57048400D01*
G75*
G02*
X106158200Y-57198400I-150000J0D01*
G01*
G37*
G36*
G01*
X106158200Y-62148400D02*
X105858200Y-62148400D01*
G75*
G02*
X105708200Y-61998400I0J150000D01*
G01*
X105708200Y-60348400D01*
G75*
G02*
X105858200Y-60198400I150000J0D01*
G01*
X106158200Y-60198400D01*
G75*
G02*
X106308200Y-60348400I0J-150000D01*
G01*
X106308200Y-61998400D01*
G75*
G02*
X106158200Y-62148400I-150000J0D01*
G01*
G37*
G36*
G01*
X104888200Y-62148400D02*
X104588200Y-62148400D01*
G75*
G02*
X104438200Y-61998400I0J150000D01*
G01*
X104438200Y-60348400D01*
G75*
G02*
X104588200Y-60198400I150000J0D01*
G01*
X104888200Y-60198400D01*
G75*
G02*
X105038200Y-60348400I0J-150000D01*
G01*
X105038200Y-61998400D01*
G75*
G02*
X104888200Y-62148400I-150000J0D01*
G01*
G37*
G36*
G01*
X103618200Y-62148400D02*
X103318200Y-62148400D01*
G75*
G02*
X103168200Y-61998400I0J150000D01*
G01*
X103168200Y-60348400D01*
G75*
G02*
X103318200Y-60198400I150000J0D01*
G01*
X103618200Y-60198400D01*
G75*
G02*
X103768200Y-60348400I0J-150000D01*
G01*
X103768200Y-61998400D01*
G75*
G02*
X103618200Y-62148400I-150000J0D01*
G01*
G37*
G36*
G01*
X102348200Y-62148400D02*
X102048200Y-62148400D01*
G75*
G02*
X101898200Y-61998400I0J150000D01*
G01*
X101898200Y-60348400D01*
G75*
G02*
X102048200Y-60198400I150000J0D01*
G01*
X102348200Y-60198400D01*
G75*
G02*
X102498200Y-60348400I0J-150000D01*
G01*
X102498200Y-61998400D01*
G75*
G02*
X102348200Y-62148400I-150000J0D01*
G01*
G37*
G36*
G01*
X101078200Y-62148400D02*
X100778200Y-62148400D01*
G75*
G02*
X100628200Y-61998400I0J150000D01*
G01*
X100628200Y-60348400D01*
G75*
G02*
X100778200Y-60198400I150000J0D01*
G01*
X101078200Y-60198400D01*
G75*
G02*
X101228200Y-60348400I0J-150000D01*
G01*
X101228200Y-61998400D01*
G75*
G02*
X101078200Y-62148400I-150000J0D01*
G01*
G37*
G36*
G01*
X99808200Y-62148400D02*
X99508200Y-62148400D01*
G75*
G02*
X99358200Y-61998400I0J150000D01*
G01*
X99358200Y-60348400D01*
G75*
G02*
X99508200Y-60198400I150000J0D01*
G01*
X99808200Y-60198400D01*
G75*
G02*
X99958200Y-60348400I0J-150000D01*
G01*
X99958200Y-61998400D01*
G75*
G02*
X99808200Y-62148400I-150000J0D01*
G01*
G37*
G36*
G01*
X98538200Y-62148400D02*
X98238200Y-62148400D01*
G75*
G02*
X98088200Y-61998400I0J150000D01*
G01*
X98088200Y-60348400D01*
G75*
G02*
X98238200Y-60198400I150000J0D01*
G01*
X98538200Y-60198400D01*
G75*
G02*
X98688200Y-60348400I0J-150000D01*
G01*
X98688200Y-61998400D01*
G75*
G02*
X98538200Y-62148400I-150000J0D01*
G01*
G37*
%TD*%
%TO.C,U1*%
G36*
G01*
X83168500Y-62519000D02*
X82868500Y-62519000D01*
G75*
G02*
X82718500Y-62369000I0J150000D01*
G01*
X82718500Y-60719000D01*
G75*
G02*
X82868500Y-60569000I150000J0D01*
G01*
X83168500Y-60569000D01*
G75*
G02*
X83318500Y-60719000I0J-150000D01*
G01*
X83318500Y-62369000D01*
G75*
G02*
X83168500Y-62519000I-150000J0D01*
G01*
G37*
G36*
G01*
X84438500Y-62519000D02*
X84138500Y-62519000D01*
G75*
G02*
X83988500Y-62369000I0J150000D01*
G01*
X83988500Y-60719000D01*
G75*
G02*
X84138500Y-60569000I150000J0D01*
G01*
X84438500Y-60569000D01*
G75*
G02*
X84588500Y-60719000I0J-150000D01*
G01*
X84588500Y-62369000D01*
G75*
G02*
X84438500Y-62519000I-150000J0D01*
G01*
G37*
G36*
G01*
X85708500Y-62519000D02*
X85408500Y-62519000D01*
G75*
G02*
X85258500Y-62369000I0J150000D01*
G01*
X85258500Y-60719000D01*
G75*
G02*
X85408500Y-60569000I150000J0D01*
G01*
X85708500Y-60569000D01*
G75*
G02*
X85858500Y-60719000I0J-150000D01*
G01*
X85858500Y-62369000D01*
G75*
G02*
X85708500Y-62519000I-150000J0D01*
G01*
G37*
G36*
G01*
X86978500Y-62519000D02*
X86678500Y-62519000D01*
G75*
G02*
X86528500Y-62369000I0J150000D01*
G01*
X86528500Y-60719000D01*
G75*
G02*
X86678500Y-60569000I150000J0D01*
G01*
X86978500Y-60569000D01*
G75*
G02*
X87128500Y-60719000I0J-150000D01*
G01*
X87128500Y-62369000D01*
G75*
G02*
X86978500Y-62519000I-150000J0D01*
G01*
G37*
G36*
G01*
X88248500Y-62519000D02*
X87948500Y-62519000D01*
G75*
G02*
X87798500Y-62369000I0J150000D01*
G01*
X87798500Y-60719000D01*
G75*
G02*
X87948500Y-60569000I150000J0D01*
G01*
X88248500Y-60569000D01*
G75*
G02*
X88398500Y-60719000I0J-150000D01*
G01*
X88398500Y-62369000D01*
G75*
G02*
X88248500Y-62519000I-150000J0D01*
G01*
G37*
G36*
G01*
X89518500Y-62519000D02*
X89218500Y-62519000D01*
G75*
G02*
X89068500Y-62369000I0J150000D01*
G01*
X89068500Y-60719000D01*
G75*
G02*
X89218500Y-60569000I150000J0D01*
G01*
X89518500Y-60569000D01*
G75*
G02*
X89668500Y-60719000I0J-150000D01*
G01*
X89668500Y-62369000D01*
G75*
G02*
X89518500Y-62519000I-150000J0D01*
G01*
G37*
G36*
G01*
X90788500Y-62519000D02*
X90488500Y-62519000D01*
G75*
G02*
X90338500Y-62369000I0J150000D01*
G01*
X90338500Y-60719000D01*
G75*
G02*
X90488500Y-60569000I150000J0D01*
G01*
X90788500Y-60569000D01*
G75*
G02*
X90938500Y-60719000I0J-150000D01*
G01*
X90938500Y-62369000D01*
G75*
G02*
X90788500Y-62519000I-150000J0D01*
G01*
G37*
G36*
G01*
X90788500Y-67469000D02*
X90488500Y-67469000D01*
G75*
G02*
X90338500Y-67319000I0J150000D01*
G01*
X90338500Y-65669000D01*
G75*
G02*
X90488500Y-65519000I150000J0D01*
G01*
X90788500Y-65519000D01*
G75*
G02*
X90938500Y-65669000I0J-150000D01*
G01*
X90938500Y-67319000D01*
G75*
G02*
X90788500Y-67469000I-150000J0D01*
G01*
G37*
G36*
G01*
X89518500Y-67469000D02*
X89218500Y-67469000D01*
G75*
G02*
X89068500Y-67319000I0J150000D01*
G01*
X89068500Y-65669000D01*
G75*
G02*
X89218500Y-65519000I150000J0D01*
G01*
X89518500Y-65519000D01*
G75*
G02*
X89668500Y-65669000I0J-150000D01*
G01*
X89668500Y-67319000D01*
G75*
G02*
X89518500Y-67469000I-150000J0D01*
G01*
G37*
G36*
G01*
X88248500Y-67469000D02*
X87948500Y-67469000D01*
G75*
G02*
X87798500Y-67319000I0J150000D01*
G01*
X87798500Y-65669000D01*
G75*
G02*
X87948500Y-65519000I150000J0D01*
G01*
X88248500Y-65519000D01*
G75*
G02*
X88398500Y-65669000I0J-150000D01*
G01*
X88398500Y-67319000D01*
G75*
G02*
X88248500Y-67469000I-150000J0D01*
G01*
G37*
G36*
G01*
X86978500Y-67469000D02*
X86678500Y-67469000D01*
G75*
G02*
X86528500Y-67319000I0J150000D01*
G01*
X86528500Y-65669000D01*
G75*
G02*
X86678500Y-65519000I150000J0D01*
G01*
X86978500Y-65519000D01*
G75*
G02*
X87128500Y-65669000I0J-150000D01*
G01*
X87128500Y-67319000D01*
G75*
G02*
X86978500Y-67469000I-150000J0D01*
G01*
G37*
G36*
G01*
X85708500Y-67469000D02*
X85408500Y-67469000D01*
G75*
G02*
X85258500Y-67319000I0J150000D01*
G01*
X85258500Y-65669000D01*
G75*
G02*
X85408500Y-65519000I150000J0D01*
G01*
X85708500Y-65519000D01*
G75*
G02*
X85858500Y-65669000I0J-150000D01*
G01*
X85858500Y-67319000D01*
G75*
G02*
X85708500Y-67469000I-150000J0D01*
G01*
G37*
G36*
G01*
X84438500Y-67469000D02*
X84138500Y-67469000D01*
G75*
G02*
X83988500Y-67319000I0J150000D01*
G01*
X83988500Y-65669000D01*
G75*
G02*
X84138500Y-65519000I150000J0D01*
G01*
X84438500Y-65519000D01*
G75*
G02*
X84588500Y-65669000I0J-150000D01*
G01*
X84588500Y-67319000D01*
G75*
G02*
X84438500Y-67469000I-150000J0D01*
G01*
G37*
G36*
G01*
X83168500Y-67469000D02*
X82868500Y-67469000D01*
G75*
G02*
X82718500Y-67319000I0J150000D01*
G01*
X82718500Y-65669000D01*
G75*
G02*
X82868500Y-65519000I150000J0D01*
G01*
X83168500Y-65519000D01*
G75*
G02*
X83318500Y-65669000I0J-150000D01*
G01*
X83318500Y-67319000D01*
G75*
G02*
X83168500Y-67469000I-150000J0D01*
G01*
G37*
%TD*%
D21*
%TO.C,RV9*%
X79970500Y-65363000D03*
D17*
X80970500Y-68613000D03*
X78970500Y-68613000D03*
%TD*%
D16*
%TO.C,RV8*%
X98590000Y-67210000D03*
D17*
X101840000Y-66210000D03*
X101840000Y-68210000D03*
%TD*%
D16*
%TO.C,RV7*%
X94950000Y-108650000D03*
D17*
X98200000Y-107650000D03*
X98200000Y-109650000D03*
%TD*%
D21*
%TO.C,RV6*%
X118800000Y-84800000D03*
D17*
X117800000Y-81550000D03*
X119800000Y-81550000D03*
%TD*%
D21*
%TO.C,RV4*%
X85558500Y-71205000D03*
D17*
X86558500Y-74455000D03*
X84558500Y-74455000D03*
%TD*%
D16*
%TO.C,RV3*%
X82309500Y-72020000D03*
D17*
X79059500Y-73020000D03*
X79059500Y-71020000D03*
%TD*%
D16*
%TO.C,RV2*%
X111948200Y-61098400D03*
D17*
X108698200Y-62098400D03*
X108698200Y-60098400D03*
%TD*%
D16*
%TO.C,RV1*%
X104040000Y-67210000D03*
D17*
X107290000Y-66210000D03*
X107290000Y-68210000D03*
%TD*%
%TO.C,R20*%
G36*
G01*
X114462500Y-83075000D02*
X114937500Y-83075000D01*
G75*
G02*
X115175000Y-83312500I0J-237500D01*
G01*
X115175000Y-83812500D01*
G75*
G02*
X114937500Y-84050000I-237500J0D01*
G01*
X114462500Y-84050000D01*
G75*
G02*
X114225000Y-83812500I0J237500D01*
G01*
X114225000Y-83312500D01*
G75*
G02*
X114462500Y-83075000I237500J0D01*
G01*
G37*
G36*
G01*
X114462500Y-81250000D02*
X114937500Y-81250000D01*
G75*
G02*
X115175000Y-81487500I0J-237500D01*
G01*
X115175000Y-81987500D01*
G75*
G02*
X114937500Y-82225000I-237500J0D01*
G01*
X114462500Y-82225000D01*
G75*
G02*
X114225000Y-81987500I0J237500D01*
G01*
X114225000Y-81487500D01*
G75*
G02*
X114462500Y-81250000I237500J0D01*
G01*
G37*
%TD*%
%TO.C,R19*%
G36*
G01*
X111062500Y-83075000D02*
X111537500Y-83075000D01*
G75*
G02*
X111775000Y-83312500I0J-237500D01*
G01*
X111775000Y-83812500D01*
G75*
G02*
X111537500Y-84050000I-237500J0D01*
G01*
X111062500Y-84050000D01*
G75*
G02*
X110825000Y-83812500I0J237500D01*
G01*
X110825000Y-83312500D01*
G75*
G02*
X111062500Y-83075000I237500J0D01*
G01*
G37*
G36*
G01*
X111062500Y-81250000D02*
X111537500Y-81250000D01*
G75*
G02*
X111775000Y-81487500I0J-237500D01*
G01*
X111775000Y-81987500D01*
G75*
G02*
X111537500Y-82225000I-237500J0D01*
G01*
X111062500Y-82225000D01*
G75*
G02*
X110825000Y-81987500I0J237500D01*
G01*
X110825000Y-81487500D01*
G75*
G02*
X111062500Y-81250000I237500J0D01*
G01*
G37*
%TD*%
%TO.C,R18*%
G36*
G01*
X106025000Y-92287500D02*
X106025000Y-91812500D01*
G75*
G02*
X106262500Y-91575000I237500J0D01*
G01*
X106762500Y-91575000D01*
G75*
G02*
X107000000Y-91812500I0J-237500D01*
G01*
X107000000Y-92287500D01*
G75*
G02*
X106762500Y-92525000I-237500J0D01*
G01*
X106262500Y-92525000D01*
G75*
G02*
X106025000Y-92287500I0J237500D01*
G01*
G37*
G36*
G01*
X104200000Y-92287500D02*
X104200000Y-91812500D01*
G75*
G02*
X104437500Y-91575000I237500J0D01*
G01*
X104937500Y-91575000D01*
G75*
G02*
X105175000Y-91812500I0J-237500D01*
G01*
X105175000Y-92287500D01*
G75*
G02*
X104937500Y-92525000I-237500J0D01*
G01*
X104437500Y-92525000D01*
G75*
G02*
X104200000Y-92287500I0J237500D01*
G01*
G37*
%TD*%
%TO.C,R17*%
G36*
G01*
X106025000Y-89087500D02*
X106025000Y-88612500D01*
G75*
G02*
X106262500Y-88375000I237500J0D01*
G01*
X106762500Y-88375000D01*
G75*
G02*
X107000000Y-88612500I0J-237500D01*
G01*
X107000000Y-89087500D01*
G75*
G02*
X106762500Y-89325000I-237500J0D01*
G01*
X106262500Y-89325000D01*
G75*
G02*
X106025000Y-89087500I0J237500D01*
G01*
G37*
G36*
G01*
X104200000Y-89087500D02*
X104200000Y-88612500D01*
G75*
G02*
X104437500Y-88375000I237500J0D01*
G01*
X104937500Y-88375000D01*
G75*
G02*
X105175000Y-88612500I0J-237500D01*
G01*
X105175000Y-89087500D01*
G75*
G02*
X104937500Y-89325000I-237500J0D01*
G01*
X104437500Y-89325000D01*
G75*
G02*
X104200000Y-89087500I0J237500D01*
G01*
G37*
%TD*%
%TO.C,R16*%
G36*
G01*
X113237500Y-82225000D02*
X112762500Y-82225000D01*
G75*
G02*
X112525000Y-81987500I0J237500D01*
G01*
X112525000Y-81487500D01*
G75*
G02*
X112762500Y-81250000I237500J0D01*
G01*
X113237500Y-81250000D01*
G75*
G02*
X113475000Y-81487500I0J-237500D01*
G01*
X113475000Y-81987500D01*
G75*
G02*
X113237500Y-82225000I-237500J0D01*
G01*
G37*
G36*
G01*
X113237500Y-84050000D02*
X112762500Y-84050000D01*
G75*
G02*
X112525000Y-83812500I0J237500D01*
G01*
X112525000Y-83312500D01*
G75*
G02*
X112762500Y-83075000I237500J0D01*
G01*
X113237500Y-83075000D01*
G75*
G02*
X113475000Y-83312500I0J-237500D01*
G01*
X113475000Y-83812500D01*
G75*
G02*
X113237500Y-84050000I-237500J0D01*
G01*
G37*
%TD*%
%TO.C,R15*%
G36*
G01*
X105175000Y-90212500D02*
X105175000Y-90687500D01*
G75*
G02*
X104937500Y-90925000I-237500J0D01*
G01*
X104437500Y-90925000D01*
G75*
G02*
X104200000Y-90687500I0J237500D01*
G01*
X104200000Y-90212500D01*
G75*
G02*
X104437500Y-89975000I237500J0D01*
G01*
X104937500Y-89975000D01*
G75*
G02*
X105175000Y-90212500I0J-237500D01*
G01*
G37*
G36*
G01*
X107000000Y-90212500D02*
X107000000Y-90687500D01*
G75*
G02*
X106762500Y-90925000I-237500J0D01*
G01*
X106262500Y-90925000D01*
G75*
G02*
X106025000Y-90687500I0J237500D01*
G01*
X106025000Y-90212500D01*
G75*
G02*
X106262500Y-89975000I237500J0D01*
G01*
X106762500Y-89975000D01*
G75*
G02*
X107000000Y-90212500I0J-237500D01*
G01*
G37*
%TD*%
D10*
%TO.C,R13*%
X115650000Y-87200000D03*
D11*
X115650000Y-97360000D03*
%TD*%
D10*
%TO.C,R12*%
X118650000Y-87200000D03*
D11*
X118650000Y-97360000D03*
%TD*%
%TO.C,R11*%
G36*
G01*
X87525001Y-100550000D02*
X84674999Y-100550000D01*
G75*
G02*
X84425000Y-100300001I0J249999D01*
G01*
X84425000Y-99399999D01*
G75*
G02*
X84674999Y-99150000I249999J0D01*
G01*
X87525001Y-99150000D01*
G75*
G02*
X87775000Y-99399999I0J-249999D01*
G01*
X87775000Y-100300001D01*
G75*
G02*
X87525001Y-100550000I-249999J0D01*
G01*
G37*
G36*
G01*
X87525001Y-106650000D02*
X84674999Y-106650000D01*
G75*
G02*
X84425000Y-106400001I0J249999D01*
G01*
X84425000Y-105499999D01*
G75*
G02*
X84674999Y-105250000I249999J0D01*
G01*
X87525001Y-105250000D01*
G75*
G02*
X87775000Y-105499999I0J-249999D01*
G01*
X87775000Y-106400001D01*
G75*
G02*
X87525001Y-106650000I-249999J0D01*
G01*
G37*
%TD*%
%TO.C,R10*%
G36*
G01*
X84774999Y-118050000D02*
X87625001Y-118050000D01*
G75*
G02*
X87875000Y-118299999I0J-249999D01*
G01*
X87875000Y-119200001D01*
G75*
G02*
X87625001Y-119450000I-249999J0D01*
G01*
X84774999Y-119450000D01*
G75*
G02*
X84525000Y-119200001I0J249999D01*
G01*
X84525000Y-118299999D01*
G75*
G02*
X84774999Y-118050000I249999J0D01*
G01*
G37*
G36*
G01*
X84774999Y-111950000D02*
X87625001Y-111950000D01*
G75*
G02*
X87875000Y-112199999I0J-249999D01*
G01*
X87875000Y-113100001D01*
G75*
G02*
X87625001Y-113350000I-249999J0D01*
G01*
X84774999Y-113350000D01*
G75*
G02*
X84525000Y-113100001I0J249999D01*
G01*
X84525000Y-112199999D01*
G75*
G02*
X84774999Y-111950000I249999J0D01*
G01*
G37*
%TD*%
D22*
%TO.C,R6*%
X68400000Y-70260000D03*
D23*
X68400000Y-85500000D03*
%TD*%
%TO.C,R4*%
G36*
G01*
X36325500Y-66619999D02*
X36325500Y-69470001D01*
G75*
G02*
X36075501Y-69720000I-249999J0D01*
G01*
X35175499Y-69720000D01*
G75*
G02*
X34925500Y-69470001I0J249999D01*
G01*
X34925500Y-66619999D01*
G75*
G02*
X35175499Y-66370000I249999J0D01*
G01*
X36075501Y-66370000D01*
G75*
G02*
X36325500Y-66619999I0J-249999D01*
G01*
G37*
G36*
G01*
X42425500Y-66619999D02*
X42425500Y-69470001D01*
G75*
G02*
X42175501Y-69720000I-249999J0D01*
G01*
X41275499Y-69720000D01*
G75*
G02*
X41025500Y-69470001I0J249999D01*
G01*
X41025500Y-66619999D01*
G75*
G02*
X41275499Y-66370000I249999J0D01*
G01*
X42175501Y-66370000D01*
G75*
G02*
X42425500Y-66619999I0J-249999D01*
G01*
G37*
%TD*%
%TO.C,R3*%
G36*
G01*
X27225500Y-68719999D02*
X27225500Y-71570001D01*
G75*
G02*
X26975501Y-71820000I-249999J0D01*
G01*
X26075499Y-71820000D01*
G75*
G02*
X25825500Y-71570001I0J249999D01*
G01*
X25825500Y-68719999D01*
G75*
G02*
X26075499Y-68470000I249999J0D01*
G01*
X26975501Y-68470000D01*
G75*
G02*
X27225500Y-68719999I0J-249999D01*
G01*
G37*
G36*
G01*
X33325500Y-68719999D02*
X33325500Y-71570001D01*
G75*
G02*
X33075501Y-71820000I-249999J0D01*
G01*
X32175499Y-71820000D01*
G75*
G02*
X31925500Y-71570001I0J249999D01*
G01*
X31925500Y-68719999D01*
G75*
G02*
X32175499Y-68470000I249999J0D01*
G01*
X33075501Y-68470000D01*
G75*
G02*
X33325500Y-68719999I0J-249999D01*
G01*
G37*
%TD*%
%TO.C,R2*%
G36*
G01*
X36325500Y-70819999D02*
X36325500Y-73670001D01*
G75*
G02*
X36075501Y-73920000I-249999J0D01*
G01*
X35175499Y-73920000D01*
G75*
G02*
X34925500Y-73670001I0J249999D01*
G01*
X34925500Y-70819999D01*
G75*
G02*
X35175499Y-70570000I249999J0D01*
G01*
X36075501Y-70570000D01*
G75*
G02*
X36325500Y-70819999I0J-249999D01*
G01*
G37*
G36*
G01*
X42425500Y-70819999D02*
X42425500Y-73670001D01*
G75*
G02*
X42175501Y-73920000I-249999J0D01*
G01*
X41275499Y-73920000D01*
G75*
G02*
X41025500Y-73670001I0J249999D01*
G01*
X41025500Y-70819999D01*
G75*
G02*
X41275499Y-70570000I249999J0D01*
G01*
X42175501Y-70570000D01*
G75*
G02*
X42425500Y-70819999I0J-249999D01*
G01*
G37*
%TD*%
D10*
%TO.C,R1*%
X72600000Y-67340000D03*
D11*
X72600000Y-77500000D03*
%TD*%
D24*
%TO.C,Q4*%
X69275500Y-95005000D03*
X69275500Y-97545000D03*
D25*
X69275500Y-100085000D03*
D20*
X52615500Y-97545000D03*
%TD*%
D26*
%TO.C,Q3*%
X57385000Y-67020000D03*
X52785000Y-67020000D03*
X55085000Y-67020000D03*
D27*
X55085000Y-73320000D03*
%TD*%
D24*
%TO.C,Q2*%
X26142500Y-100025000D03*
X26142500Y-97485000D03*
D25*
X26142500Y-94945000D03*
D20*
X42802500Y-97485000D03*
%TD*%
D26*
%TO.C,Q1*%
X64885000Y-67020000D03*
X60285000Y-67020000D03*
X62585000Y-67020000D03*
D27*
X62585000Y-73320000D03*
%TD*%
D28*
%TO.C,L7*%
X106775000Y-116750000D03*
X101225000Y-116750000D03*
%TD*%
D29*
%TO.C,L5*%
X100675000Y-103150000D03*
X107125000Y-103150000D03*
%TD*%
D30*
%TO.C,L2*%
X73700000Y-112560000D03*
X73700000Y-118110000D03*
%TD*%
%TO.C,L1*%
X72300000Y-104525000D03*
X72300000Y-110075000D03*
%TD*%
D31*
%TO.C,J9*%
X108700000Y-71590000D03*
X108700000Y-74130000D03*
X108700000Y-76670000D03*
X108700000Y-79210000D03*
D32*
X108700000Y-81750000D03*
%TD*%
D31*
%TO.C,J8*%
X91620000Y-88750000D03*
X94160000Y-88750000D03*
X96700000Y-88750000D03*
X99240000Y-88750000D03*
D32*
X101780000Y-88750000D03*
%TD*%
D31*
%TO.C,J7*%
X105060000Y-71650000D03*
X102520000Y-71650000D03*
X99980000Y-71650000D03*
X97440000Y-71650000D03*
D32*
X94900000Y-71650000D03*
%TD*%
D31*
%TO.C,J6*%
X91200000Y-79370000D03*
X91200000Y-76830000D03*
X91200000Y-74290000D03*
D32*
X91200000Y-71750000D03*
%TD*%
D31*
%TO.C,J5*%
X90860000Y-83750000D03*
D32*
X93400000Y-83750000D03*
%TD*%
D31*
%TO.C,J4*%
X111790467Y-67600648D03*
X114330467Y-67600648D03*
X116870467Y-67600648D03*
D32*
X119410467Y-67600648D03*
%TD*%
D31*
%TO.C,J3*%
X107900000Y-108710000D03*
D32*
X107900000Y-111250000D03*
%TD*%
D33*
%TO.C,J2*%
X81642500Y-117885000D03*
G36*
G01*
X80342499Y-110335000D02*
X82942501Y-110335000D01*
G75*
G02*
X83192500Y-110584999I0J-249999D01*
G01*
X83192500Y-113185001D01*
G75*
G02*
X82942501Y-113435000I-249999J0D01*
G01*
X80342499Y-113435000D01*
G75*
G02*
X80092500Y-113185001I0J249999D01*
G01*
X80092500Y-110584999D01*
G75*
G02*
X80342499Y-110335000I249999J0D01*
G01*
G37*
%TD*%
%TO.C,J1*%
X31392500Y-64635000D03*
G36*
G01*
X23842500Y-65935001D02*
X23842500Y-63334999D01*
G75*
G02*
X24092499Y-63085000I249999J0D01*
G01*
X26692501Y-63085000D01*
G75*
G02*
X26942500Y-63334999I0J-249999D01*
G01*
X26942500Y-65935001D01*
G75*
G02*
X26692501Y-66185000I-249999J0D01*
G01*
X24092499Y-66185000D01*
G75*
G02*
X23842500Y-65935001I0J249999D01*
G01*
G37*
%TD*%
D34*
%TO.C,IC1*%
X99600000Y-81450000D03*
D35*
X101100000Y-80650000D03*
X101100000Y-81050000D03*
X101100000Y-81450000D03*
X101100000Y-81850000D03*
X101100000Y-82250000D03*
D36*
X100850000Y-82700000D03*
D37*
X100400000Y-82950000D03*
X100000000Y-82950000D03*
X99600000Y-82950000D03*
X99200000Y-82950000D03*
X98800000Y-82950000D03*
D36*
X98350000Y-82700000D03*
D35*
X98100000Y-82250000D03*
X98100000Y-81850000D03*
X98100000Y-81450000D03*
X98100000Y-81050000D03*
X98100000Y-80650000D03*
D36*
X98350000Y-80200000D03*
D37*
X98800000Y-79950000D03*
X99200000Y-79950000D03*
X99600000Y-79950000D03*
X100000000Y-79950000D03*
X100400000Y-79950000D03*
D36*
X100850000Y-80200000D03*
%TD*%
D38*
%TO.C,D8*%
X93390000Y-56210000D03*
X96190000Y-56210000D03*
%TD*%
%TO.C,D7*%
G36*
G01*
X102450000Y-85412500D02*
X102450000Y-85887500D01*
G75*
G02*
X102212500Y-86125000I-237500J0D01*
G01*
X101637500Y-86125000D01*
G75*
G02*
X101400000Y-85887500I0J237500D01*
G01*
X101400000Y-85412500D01*
G75*
G02*
X101637500Y-85175000I237500J0D01*
G01*
X102212500Y-85175000D01*
G75*
G02*
X102450000Y-85412500I0J-237500D01*
G01*
G37*
G36*
G01*
X104200000Y-85412500D02*
X104200000Y-85887500D01*
G75*
G02*
X103962500Y-86125000I-237500J0D01*
G01*
X103387500Y-86125000D01*
G75*
G02*
X103150000Y-85887500I0J237500D01*
G01*
X103150000Y-85412500D01*
G75*
G02*
X103387500Y-85175000I237500J0D01*
G01*
X103962500Y-85175000D01*
G75*
G02*
X104200000Y-85412500I0J-237500D01*
G01*
G37*
%TD*%
%TO.C,D6*%
X96700000Y-96750000D03*
X99500000Y-96750000D03*
%TD*%
%TO.C,D5*%
X98200000Y-113950000D03*
X98200000Y-116750000D03*
%TD*%
%TO.C,D4*%
X95390000Y-61410000D03*
X92590000Y-61410000D03*
%TD*%
%TO.C,D3*%
X93440000Y-58960000D03*
X90640000Y-58960000D03*
%TD*%
%TO.C,D2*%
X115072000Y-61981500D03*
X115072000Y-59181500D03*
%TD*%
%TO.C,D1*%
X115072000Y-57282500D03*
X115072000Y-54482500D03*
%TD*%
%TO.C,C27*%
G36*
G01*
X99780000Y-53894000D02*
X99780000Y-53419000D01*
G75*
G02*
X100017500Y-53181500I237500J0D01*
G01*
X100617500Y-53181500D01*
G75*
G02*
X100855000Y-53419000I0J-237500D01*
G01*
X100855000Y-53894000D01*
G75*
G02*
X100617500Y-54131500I-237500J0D01*
G01*
X100017500Y-54131500D01*
G75*
G02*
X99780000Y-53894000I0J237500D01*
G01*
G37*
G36*
G01*
X98055000Y-53894000D02*
X98055000Y-53419000D01*
G75*
G02*
X98292500Y-53181500I237500J0D01*
G01*
X98892500Y-53181500D01*
G75*
G02*
X99130000Y-53419000I0J-237500D01*
G01*
X99130000Y-53894000D01*
G75*
G02*
X98892500Y-54131500I-237500J0D01*
G01*
X98292500Y-54131500D01*
G75*
G02*
X98055000Y-53894000I0J237500D01*
G01*
G37*
%TD*%
%TO.C,C26*%
G36*
G01*
X118747967Y-71375648D02*
X118272967Y-71375648D01*
G75*
G02*
X118035467Y-71138148I0J237500D01*
G01*
X118035467Y-70538148D01*
G75*
G02*
X118272967Y-70300648I237500J0D01*
G01*
X118747967Y-70300648D01*
G75*
G02*
X118985467Y-70538148I0J-237500D01*
G01*
X118985467Y-71138148D01*
G75*
G02*
X118747967Y-71375648I-237500J0D01*
G01*
G37*
G36*
G01*
X118747967Y-73100648D02*
X118272967Y-73100648D01*
G75*
G02*
X118035467Y-72863148I0J237500D01*
G01*
X118035467Y-72263148D01*
G75*
G02*
X118272967Y-72025648I237500J0D01*
G01*
X118747967Y-72025648D01*
G75*
G02*
X118985467Y-72263148I0J-237500D01*
G01*
X118985467Y-72863148D01*
G75*
G02*
X118747967Y-73100648I-237500J0D01*
G01*
G37*
%TD*%
%TO.C,C25*%
G36*
G01*
X119022500Y-78045000D02*
X118547500Y-78045000D01*
G75*
G02*
X118310000Y-77807500I0J237500D01*
G01*
X118310000Y-77207500D01*
G75*
G02*
X118547500Y-76970000I237500J0D01*
G01*
X119022500Y-76970000D01*
G75*
G02*
X119260000Y-77207500I0J-237500D01*
G01*
X119260000Y-77807500D01*
G75*
G02*
X119022500Y-78045000I-237500J0D01*
G01*
G37*
G36*
G01*
X119022500Y-79770000D02*
X118547500Y-79770000D01*
G75*
G02*
X118310000Y-79532500I0J237500D01*
G01*
X118310000Y-78932500D01*
G75*
G02*
X118547500Y-78695000I237500J0D01*
G01*
X119022500Y-78695000D01*
G75*
G02*
X119260000Y-78932500I0J-237500D01*
G01*
X119260000Y-79532500D01*
G75*
G02*
X119022500Y-79770000I-237500J0D01*
G01*
G37*
%TD*%
%TO.C,C24*%
G36*
G01*
X103637500Y-77525000D02*
X103162500Y-77525000D01*
G75*
G02*
X102925000Y-77287500I0J237500D01*
G01*
X102925000Y-76687500D01*
G75*
G02*
X103162500Y-76450000I237500J0D01*
G01*
X103637500Y-76450000D01*
G75*
G02*
X103875000Y-76687500I0J-237500D01*
G01*
X103875000Y-77287500D01*
G75*
G02*
X103637500Y-77525000I-237500J0D01*
G01*
G37*
G36*
G01*
X103637500Y-79250000D02*
X103162500Y-79250000D01*
G75*
G02*
X102925000Y-79012500I0J237500D01*
G01*
X102925000Y-78412500D01*
G75*
G02*
X103162500Y-78175000I237500J0D01*
G01*
X103637500Y-78175000D01*
G75*
G02*
X103875000Y-78412500I0J-237500D01*
G01*
X103875000Y-79012500D01*
G75*
G02*
X103637500Y-79250000I-237500J0D01*
G01*
G37*
%TD*%
%TO.C,C23*%
G36*
G01*
X100175000Y-76712500D02*
X100175000Y-77187500D01*
G75*
G02*
X99937500Y-77425000I-237500J0D01*
G01*
X99337500Y-77425000D01*
G75*
G02*
X99100000Y-77187500I0J237500D01*
G01*
X99100000Y-76712500D01*
G75*
G02*
X99337500Y-76475000I237500J0D01*
G01*
X99937500Y-76475000D01*
G75*
G02*
X100175000Y-76712500I0J-237500D01*
G01*
G37*
G36*
G01*
X101900000Y-76712500D02*
X101900000Y-77187500D01*
G75*
G02*
X101662500Y-77425000I-237500J0D01*
G01*
X101062500Y-77425000D01*
G75*
G02*
X100825000Y-77187500I0J237500D01*
G01*
X100825000Y-76712500D01*
G75*
G02*
X101062500Y-76475000I237500J0D01*
G01*
X101662500Y-76475000D01*
G75*
G02*
X101900000Y-76712500I0J-237500D01*
G01*
G37*
%TD*%
%TO.C,C22*%
G36*
G01*
X100250000Y-74475000D02*
X100250000Y-75425000D01*
G75*
G02*
X100000000Y-75675000I-250000J0D01*
G01*
X99325000Y-75675000D01*
G75*
G02*
X99075000Y-75425000I0J250000D01*
G01*
X99075000Y-74475000D01*
G75*
G02*
X99325000Y-74225000I250000J0D01*
G01*
X100000000Y-74225000D01*
G75*
G02*
X100250000Y-74475000I0J-250000D01*
G01*
G37*
G36*
G01*
X102325000Y-74475000D02*
X102325000Y-75425000D01*
G75*
G02*
X102075000Y-75675000I-250000J0D01*
G01*
X101400000Y-75675000D01*
G75*
G02*
X101150000Y-75425000I0J250000D01*
G01*
X101150000Y-74475000D01*
G75*
G02*
X101400000Y-74225000I250000J0D01*
G01*
X102075000Y-74225000D01*
G75*
G02*
X102325000Y-74475000I0J-250000D01*
G01*
G37*
%TD*%
%TO.C,C21*%
G36*
G01*
X113475000Y-95900000D02*
X112525000Y-95900000D01*
G75*
G02*
X112275000Y-95650000I0J250000D01*
G01*
X112275000Y-94975000D01*
G75*
G02*
X112525000Y-94725000I250000J0D01*
G01*
X113475000Y-94725000D01*
G75*
G02*
X113725000Y-94975000I0J-250000D01*
G01*
X113725000Y-95650000D01*
G75*
G02*
X113475000Y-95900000I-250000J0D01*
G01*
G37*
G36*
G01*
X113475000Y-97975000D02*
X112525000Y-97975000D01*
G75*
G02*
X112275000Y-97725000I0J250000D01*
G01*
X112275000Y-97050000D01*
G75*
G02*
X112525000Y-96800000I250000J0D01*
G01*
X113475000Y-96800000D01*
G75*
G02*
X113725000Y-97050000I0J-250000D01*
G01*
X113725000Y-97725000D01*
G75*
G02*
X113475000Y-97975000I-250000J0D01*
G01*
G37*
%TD*%
%TO.C,C20*%
G36*
G01*
X101037500Y-111199998D02*
X101037500Y-112500002D01*
G75*
G02*
X100787502Y-112750000I-249998J0D01*
G01*
X99962498Y-112750000D01*
G75*
G02*
X99712500Y-112500002I0J249998D01*
G01*
X99712500Y-111199998D01*
G75*
G02*
X99962498Y-110950000I249998J0D01*
G01*
X100787502Y-110950000D01*
G75*
G02*
X101037500Y-111199998I0J-249998D01*
G01*
G37*
G36*
G01*
X104162500Y-111199998D02*
X104162500Y-112500002D01*
G75*
G02*
X103912502Y-112750000I-249998J0D01*
G01*
X103087498Y-112750000D01*
G75*
G02*
X102837500Y-112500002I0J249998D01*
G01*
X102837500Y-111199998D01*
G75*
G02*
X103087498Y-110950000I249998J0D01*
G01*
X103912502Y-110950000D01*
G75*
G02*
X104162500Y-111199998I0J-249998D01*
G01*
G37*
%TD*%
%TO.C,C19*%
G36*
G01*
X90900000Y-96099998D02*
X90900000Y-97400002D01*
G75*
G02*
X90650002Y-97650000I-249998J0D01*
G01*
X89824998Y-97650000D01*
G75*
G02*
X89575000Y-97400002I0J249998D01*
G01*
X89575000Y-96099998D01*
G75*
G02*
X89824998Y-95850000I249998J0D01*
G01*
X90650002Y-95850000D01*
G75*
G02*
X90900000Y-96099998I0J-249998D01*
G01*
G37*
G36*
G01*
X94025000Y-96099998D02*
X94025000Y-97400002D01*
G75*
G02*
X93775002Y-97650000I-249998J0D01*
G01*
X92949998Y-97650000D01*
G75*
G02*
X92700000Y-97400002I0J249998D01*
G01*
X92700000Y-96099998D01*
G75*
G02*
X92949998Y-95850000I249998J0D01*
G01*
X93775002Y-95850000D01*
G75*
G02*
X94025000Y-96099998I0J-249998D01*
G01*
G37*
%TD*%
%TO.C,C17*%
G36*
G01*
X109412500Y-100012500D02*
X109412500Y-100487500D01*
G75*
G02*
X109175000Y-100725000I-237500J0D01*
G01*
X108575000Y-100725000D01*
G75*
G02*
X108337500Y-100487500I0J237500D01*
G01*
X108337500Y-100012500D01*
G75*
G02*
X108575000Y-99775000I237500J0D01*
G01*
X109175000Y-99775000D01*
G75*
G02*
X109412500Y-100012500I0J-237500D01*
G01*
G37*
G36*
G01*
X111137500Y-100012500D02*
X111137500Y-100487500D01*
G75*
G02*
X110900000Y-100725000I-237500J0D01*
G01*
X110300000Y-100725000D01*
G75*
G02*
X110062500Y-100487500I0J237500D01*
G01*
X110062500Y-100012500D01*
G75*
G02*
X110300000Y-99775000I237500J0D01*
G01*
X110900000Y-99775000D01*
G75*
G02*
X111137500Y-100012500I0J-237500D01*
G01*
G37*
%TD*%
%TO.C,C16*%
G36*
G01*
X98237500Y-100725000D02*
X97762500Y-100725000D01*
G75*
G02*
X97525000Y-100487500I0J237500D01*
G01*
X97525000Y-99887500D01*
G75*
G02*
X97762500Y-99650000I237500J0D01*
G01*
X98237500Y-99650000D01*
G75*
G02*
X98475000Y-99887500I0J-237500D01*
G01*
X98475000Y-100487500D01*
G75*
G02*
X98237500Y-100725000I-237500J0D01*
G01*
G37*
G36*
G01*
X98237500Y-102450000D02*
X97762500Y-102450000D01*
G75*
G02*
X97525000Y-102212500I0J237500D01*
G01*
X97525000Y-101612500D01*
G75*
G02*
X97762500Y-101375000I237500J0D01*
G01*
X98237500Y-101375000D01*
G75*
G02*
X98475000Y-101612500I0J-237500D01*
G01*
X98475000Y-102212500D01*
G75*
G02*
X98237500Y-102450000I-237500J0D01*
G01*
G37*
%TD*%
%TO.C,C15*%
G36*
G01*
X94725000Y-112487500D02*
X94725000Y-112012500D01*
G75*
G02*
X94962500Y-111775000I237500J0D01*
G01*
X95562500Y-111775000D01*
G75*
G02*
X95800000Y-112012500I0J-237500D01*
G01*
X95800000Y-112487500D01*
G75*
G02*
X95562500Y-112725000I-237500J0D01*
G01*
X94962500Y-112725000D01*
G75*
G02*
X94725000Y-112487500I0J237500D01*
G01*
G37*
G36*
G01*
X93000000Y-112487500D02*
X93000000Y-112012500D01*
G75*
G02*
X93237500Y-111775000I237500J0D01*
G01*
X93837500Y-111775000D01*
G75*
G02*
X94075000Y-112012500I0J-237500D01*
G01*
X94075000Y-112487500D01*
G75*
G02*
X93837500Y-112725000I-237500J0D01*
G01*
X93237500Y-112725000D01*
G75*
G02*
X93000000Y-112487500I0J237500D01*
G01*
G37*
%TD*%
%TO.C,C14*%
G36*
G01*
X85100000Y-76089998D02*
X85100000Y-77390002D01*
G75*
G02*
X84850002Y-77640000I-249998J0D01*
G01*
X84024998Y-77640000D01*
G75*
G02*
X83775000Y-77390002I0J249998D01*
G01*
X83775000Y-76089998D01*
G75*
G02*
X84024998Y-75840000I249998J0D01*
G01*
X84850002Y-75840000D01*
G75*
G02*
X85100000Y-76089998I0J-249998D01*
G01*
G37*
G36*
G01*
X88225000Y-76089998D02*
X88225000Y-77390002D01*
G75*
G02*
X87975002Y-77640000I-249998J0D01*
G01*
X87149998Y-77640000D01*
G75*
G02*
X86900000Y-77390002I0J249998D01*
G01*
X86900000Y-76089998D01*
G75*
G02*
X87149998Y-75840000I249998J0D01*
G01*
X87975002Y-75840000D01*
G75*
G02*
X88225000Y-76089998I0J-249998D01*
G01*
G37*
%TD*%
%TO.C,C13*%
G36*
G01*
X77400000Y-75589998D02*
X77400000Y-76890002D01*
G75*
G02*
X77150002Y-77140000I-249998J0D01*
G01*
X76324998Y-77140000D01*
G75*
G02*
X76075000Y-76890002I0J249998D01*
G01*
X76075000Y-75589998D01*
G75*
G02*
X76324998Y-75340000I249998J0D01*
G01*
X77150002Y-75340000D01*
G75*
G02*
X77400000Y-75589998I0J-249998D01*
G01*
G37*
G36*
G01*
X80525000Y-75589998D02*
X80525000Y-76890002D01*
G75*
G02*
X80275002Y-77140000I-249998J0D01*
G01*
X79449998Y-77140000D01*
G75*
G02*
X79200000Y-76890002I0J249998D01*
G01*
X79200000Y-75589998D01*
G75*
G02*
X79449998Y-75340000I249998J0D01*
G01*
X80275002Y-75340000D01*
G75*
G02*
X80525000Y-75589998I0J-249998D01*
G01*
G37*
%TD*%
%TO.C,C12*%
G36*
G01*
X88010000Y-59507500D02*
X88010000Y-59032500D01*
G75*
G02*
X88247500Y-58795000I237500J0D01*
G01*
X88847500Y-58795000D01*
G75*
G02*
X89085000Y-59032500I0J-237500D01*
G01*
X89085000Y-59507500D01*
G75*
G02*
X88847500Y-59745000I-237500J0D01*
G01*
X88247500Y-59745000D01*
G75*
G02*
X88010000Y-59507500I0J237500D01*
G01*
G37*
G36*
G01*
X86285000Y-59507500D02*
X86285000Y-59032500D01*
G75*
G02*
X86522500Y-58795000I237500J0D01*
G01*
X87122500Y-58795000D01*
G75*
G02*
X87360000Y-59032500I0J-237500D01*
G01*
X87360000Y-59507500D01*
G75*
G02*
X87122500Y-59745000I-237500J0D01*
G01*
X86522500Y-59745000D01*
G75*
G02*
X86285000Y-59507500I0J237500D01*
G01*
G37*
%TD*%
%TO.C,C11*%
G36*
G01*
X103385700Y-53935900D02*
X103385700Y-53460900D01*
G75*
G02*
X103623200Y-53223400I237500J0D01*
G01*
X104223200Y-53223400D01*
G75*
G02*
X104460700Y-53460900I0J-237500D01*
G01*
X104460700Y-53935900D01*
G75*
G02*
X104223200Y-54173400I-237500J0D01*
G01*
X103623200Y-54173400D01*
G75*
G02*
X103385700Y-53935900I0J237500D01*
G01*
G37*
G36*
G01*
X101660700Y-53935900D02*
X101660700Y-53460900D01*
G75*
G02*
X101898200Y-53223400I237500J0D01*
G01*
X102498200Y-53223400D01*
G75*
G02*
X102735700Y-53460900I0J-237500D01*
G01*
X102735700Y-53935900D01*
G75*
G02*
X102498200Y-54173400I-237500J0D01*
G01*
X101898200Y-54173400D01*
G75*
G02*
X101660700Y-53935900I0J237500D01*
G01*
G37*
%TD*%
%TO.C,C10*%
G36*
G01*
X84610000Y-59507500D02*
X84610000Y-59032500D01*
G75*
G02*
X84847500Y-58795000I237500J0D01*
G01*
X85447500Y-58795000D01*
G75*
G02*
X85685000Y-59032500I0J-237500D01*
G01*
X85685000Y-59507500D01*
G75*
G02*
X85447500Y-59745000I-237500J0D01*
G01*
X84847500Y-59745000D01*
G75*
G02*
X84610000Y-59507500I0J237500D01*
G01*
G37*
G36*
G01*
X82885000Y-59507500D02*
X82885000Y-59032500D01*
G75*
G02*
X83122500Y-58795000I237500J0D01*
G01*
X83722500Y-58795000D01*
G75*
G02*
X83960000Y-59032500I0J-237500D01*
G01*
X83960000Y-59507500D01*
G75*
G02*
X83722500Y-59745000I-237500J0D01*
G01*
X83122500Y-59745000D01*
G75*
G02*
X82885000Y-59507500I0J237500D01*
G01*
G37*
%TD*%
%TO.C,C9*%
G36*
G01*
X111997400Y-53932100D02*
X111997400Y-53457100D01*
G75*
G02*
X112234900Y-53219600I237500J0D01*
G01*
X112834900Y-53219600D01*
G75*
G02*
X113072400Y-53457100I0J-237500D01*
G01*
X113072400Y-53932100D01*
G75*
G02*
X112834900Y-54169600I-237500J0D01*
G01*
X112234900Y-54169600D01*
G75*
G02*
X111997400Y-53932100I0J237500D01*
G01*
G37*
G36*
G01*
X110272400Y-53932100D02*
X110272400Y-53457100D01*
G75*
G02*
X110509900Y-53219600I237500J0D01*
G01*
X111109900Y-53219600D01*
G75*
G02*
X111347400Y-53457100I0J-237500D01*
G01*
X111347400Y-53932100D01*
G75*
G02*
X111109900Y-54169600I-237500J0D01*
G01*
X110509900Y-54169600D01*
G75*
G02*
X110272400Y-53932100I0J237500D01*
G01*
G37*
%TD*%
%TO.C,C8*%
G36*
G01*
X80622000Y-62793500D02*
X81097000Y-62793500D01*
G75*
G02*
X81334500Y-63031000I0J-237500D01*
G01*
X81334500Y-63631000D01*
G75*
G02*
X81097000Y-63868500I-237500J0D01*
G01*
X80622000Y-63868500D01*
G75*
G02*
X80384500Y-63631000I0J237500D01*
G01*
X80384500Y-63031000D01*
G75*
G02*
X80622000Y-62793500I237500J0D01*
G01*
G37*
G36*
G01*
X80622000Y-61068500D02*
X81097000Y-61068500D01*
G75*
G02*
X81334500Y-61306000I0J-237500D01*
G01*
X81334500Y-61906000D01*
G75*
G02*
X81097000Y-62143500I-237500J0D01*
G01*
X80622000Y-62143500D01*
G75*
G02*
X80384500Y-61906000I0J237500D01*
G01*
X80384500Y-61306000D01*
G75*
G02*
X80622000Y-61068500I237500J0D01*
G01*
G37*
%TD*%
%TO.C,C6*%
G36*
G01*
X93115000Y-63122500D02*
X93115000Y-63597500D01*
G75*
G02*
X92877500Y-63835000I-237500J0D01*
G01*
X92277500Y-63835000D01*
G75*
G02*
X92040000Y-63597500I0J237500D01*
G01*
X92040000Y-63122500D01*
G75*
G02*
X92277500Y-62885000I237500J0D01*
G01*
X92877500Y-62885000D01*
G75*
G02*
X93115000Y-63122500I0J-237500D01*
G01*
G37*
G36*
G01*
X94840000Y-63122500D02*
X94840000Y-63597500D01*
G75*
G02*
X94602500Y-63835000I-237500J0D01*
G01*
X94002500Y-63835000D01*
G75*
G02*
X93765000Y-63597500I0J237500D01*
G01*
X93765000Y-63122500D01*
G75*
G02*
X94002500Y-62885000I237500J0D01*
G01*
X94602500Y-62885000D01*
G75*
G02*
X94840000Y-63122500I0J-237500D01*
G01*
G37*
%TD*%
%TO.C,C5*%
G36*
G01*
X99573200Y-64585900D02*
X99573200Y-64110900D01*
G75*
G02*
X99810700Y-63873400I237500J0D01*
G01*
X100410700Y-63873400D01*
G75*
G02*
X100648200Y-64110900I0J-237500D01*
G01*
X100648200Y-64585900D01*
G75*
G02*
X100410700Y-64823400I-237500J0D01*
G01*
X99810700Y-64823400D01*
G75*
G02*
X99573200Y-64585900I0J237500D01*
G01*
G37*
G36*
G01*
X97848200Y-64585900D02*
X97848200Y-64110900D01*
G75*
G02*
X98085700Y-63873400I237500J0D01*
G01*
X98685700Y-63873400D01*
G75*
G02*
X98923200Y-64110900I0J-237500D01*
G01*
X98923200Y-64585900D01*
G75*
G02*
X98685700Y-64823400I-237500J0D01*
G01*
X98085700Y-64823400D01*
G75*
G02*
X97848200Y-64585900I0J237500D01*
G01*
G37*
%TD*%
%TO.C,C4*%
G36*
G01*
X66949998Y-111335000D02*
X68250002Y-111335000D01*
G75*
G02*
X68500000Y-111584998I0J-249998D01*
G01*
X68500000Y-112410002D01*
G75*
G02*
X68250002Y-112660000I-249998J0D01*
G01*
X66949998Y-112660000D01*
G75*
G02*
X66700000Y-112410002I0J249998D01*
G01*
X66700000Y-111584998D01*
G75*
G02*
X66949998Y-111335000I249998J0D01*
G01*
G37*
G36*
G01*
X66949998Y-108210000D02*
X68250002Y-108210000D01*
G75*
G02*
X68500000Y-108459998I0J-249998D01*
G01*
X68500000Y-109285002D01*
G75*
G02*
X68250002Y-109535000I-249998J0D01*
G01*
X66949998Y-109535000D01*
G75*
G02*
X66700000Y-109285002I0J249998D01*
G01*
X66700000Y-108459998D01*
G75*
G02*
X66949998Y-108210000I249998J0D01*
G01*
G37*
%TD*%
%TO.C,C3*%
G36*
G01*
X88016000Y-69336500D02*
X88016000Y-68861500D01*
G75*
G02*
X88253500Y-68624000I237500J0D01*
G01*
X88853500Y-68624000D01*
G75*
G02*
X89091000Y-68861500I0J-237500D01*
G01*
X89091000Y-69336500D01*
G75*
G02*
X88853500Y-69574000I-237500J0D01*
G01*
X88253500Y-69574000D01*
G75*
G02*
X88016000Y-69336500I0J237500D01*
G01*
G37*
G36*
G01*
X86291000Y-69336500D02*
X86291000Y-68861500D01*
G75*
G02*
X86528500Y-68624000I237500J0D01*
G01*
X87128500Y-68624000D01*
G75*
G02*
X87366000Y-68861500I0J-237500D01*
G01*
X87366000Y-69336500D01*
G75*
G02*
X87128500Y-69574000I-237500J0D01*
G01*
X86528500Y-69574000D01*
G75*
G02*
X86291000Y-69336500I0J237500D01*
G01*
G37*
%TD*%
%TO.C,C2*%
G36*
G01*
X103373200Y-63935900D02*
X103373200Y-63460900D01*
G75*
G02*
X103610700Y-63223400I237500J0D01*
G01*
X104210700Y-63223400D01*
G75*
G02*
X104448200Y-63460900I0J-237500D01*
G01*
X104448200Y-63935900D01*
G75*
G02*
X104210700Y-64173400I-237500J0D01*
G01*
X103610700Y-64173400D01*
G75*
G02*
X103373200Y-63935900I0J237500D01*
G01*
G37*
G36*
G01*
X101648200Y-63935900D02*
X101648200Y-63460900D01*
G75*
G02*
X101885700Y-63223400I237500J0D01*
G01*
X102485700Y-63223400D01*
G75*
G02*
X102723200Y-63460900I0J-237500D01*
G01*
X102723200Y-63935900D01*
G75*
G02*
X102485700Y-64173400I-237500J0D01*
G01*
X101885700Y-64173400D01*
G75*
G02*
X101648200Y-63935900I0J237500D01*
G01*
G37*
%TD*%
%TO.C,C1*%
G36*
G01*
X66949998Y-106300000D02*
X68250002Y-106300000D01*
G75*
G02*
X68500000Y-106549998I0J-249998D01*
G01*
X68500000Y-107375002D01*
G75*
G02*
X68250002Y-107625000I-249998J0D01*
G01*
X66949998Y-107625000D01*
G75*
G02*
X66700000Y-107375002I0J249998D01*
G01*
X66700000Y-106549998D01*
G75*
G02*
X66949998Y-106300000I249998J0D01*
G01*
G37*
G36*
G01*
X66949998Y-103175000D02*
X68250002Y-103175000D01*
G75*
G02*
X68500000Y-103424998I0J-249998D01*
G01*
X68500000Y-104250002D01*
G75*
G02*
X68250002Y-104500000I-249998J0D01*
G01*
X66949998Y-104500000D01*
G75*
G02*
X66700000Y-104250002I0J249998D01*
G01*
X66700000Y-103424998D01*
G75*
G02*
X66949998Y-103175000I249998J0D01*
G01*
G37*
%TD*%
M02*
