M48
; DRILL file {KiCad 5.1.9-73d0e3b20d~88~ubuntu20.04.1} date Thu Mar 11 22:20:25 2021
; FORMAT={-:-/ absolute / inch / decimal}
; #@! TF.CreationDate,2021-03-11T22:20:25-06:00
; #@! TF.GenerationSoftware,Kicad,Pcbnew,5.1.9-73d0e3b20d~88~ubuntu20.04.1
; #@! TF.FileFunction,Plated,1,2,PTH
FMAT,2
INCH
T1C0.0079
T2C0.0157
T3C0.0295
T4C0.0315
T5C0.0394
T6C0.0433
T7C0.0472
T8C0.0591
T9C0.0827
%
G90
G05
T1
X3.3701Y-2.4941
X3.4331Y-3.185
X3.4685Y-2.5059
X3.4996Y-3.152
X3.4996Y-3.2287
X3.626Y-3.3445
X3.6969Y-2.8957
X3.6969Y-2.9902
X3.7047Y-3.1555
X3.7319Y-3.0537
X3.7441Y-3.2421
X3.7756Y-3.2894
X3.7795Y-3.1713
X3.7927Y-2.9184
X3.7929Y-2.9886
X3.8071Y-3.2894
X3.8386Y-3.2894
X3.8858Y-3.3287
X3.9016Y-2.8957
X3.9173Y-3.3248
X3.9567Y-3.6713
X3.974Y-2.4807
X3.9779Y-3.0989
X3.9882Y-3.3248
X3.9961Y-3.2815
X4.0157Y-3.25
X4.0472Y-3.2067
X4.0606Y-2.4787
X4.063Y-3.2264
X4.0748Y-3.75
X4.1197Y-3.0083
X4.1197Y-3.2189
X4.1217Y-2.5358
X4.1535Y-3.6713
X4.1929Y-3.8287
X4.2323Y-3.75
X4.311Y-3.5138
X4.311Y-3.5925
X4.311Y-3.8287
X4.3504Y-3.8681
X4.3898Y-3.5138
X4.3898Y-3.5925
X4.4685Y-3.5138
X4.4685Y-3.5925
X4.4994Y-3.1327
X4.5079Y-3.3563
X4.5472Y-3.5925
X4.5472Y-3.6713
X4.5472Y-3.75
X4.5506Y-3.1524
X4.626Y-3.3563
T2
X0.9406Y-2.525
X2.9528Y-4.0354
X2.9542Y-4.3214
X2.9758Y-2.4417
X3.0118Y-2.3307
X3.0272Y-2.1264
X3.0285Y-3.5709
X3.0348Y-2.4201
X3.0467Y-2.7941
X3.0724Y-2.3114
X3.0742Y-2.3807
X3.086Y-2.9358
X3.1335Y-2.4886
X3.1339Y-2.3819
X3.2165Y-3.0016
X3.224Y-2.1264
X3.224Y-2.3823
X3.3228Y-2.5134
X3.3736Y-2.2681
X3.4248Y-2.2839
X3.4406Y-2.1264
X3.4484Y-3.3193
X3.4504Y-3.2484
X3.4685Y-2.7756
X3.5665Y-2.2583
X3.5787Y-2.5079
X3.6063Y-4.1693
X3.6178Y-4.0112
X3.6374Y-2.6854
X3.7161Y-2.1067
X3.7323Y-2.2126
X3.7496Y-2.6854
X3.7516Y-2.7268
X3.7874Y-2.5197
X3.8638Y-2.9508
X4.0193Y-2.2917
X4.0736Y-2.2925
X4.1063Y-3.3248
X4.1063Y-3.435
X4.1102Y-2.9587
X4.1417Y-2.8957
X4.1457Y-3.7264
X4.1535Y-3.2343
X4.1591Y-2.6441
X4.161Y-2.5024
X4.1661Y-2.3379
X4.2224Y-2.4448
X4.228Y-2.1067
X4.2362Y-2.563
X4.2362Y-2.9744
X4.2756Y-3.439
X4.3421Y-2.4492
X4.3898Y-3.0217
X4.4642Y-2.1756
X4.4799Y-2.5161
X4.6067Y-2.7638
X4.7402Y-3.1161
T3
X0.9882Y-3.0039
X1.0784Y-4.1982
X1.1654Y-2.8661
X1.4016Y-2.5118
X1.5197Y-2.7677
X1.6772Y-2.5315
X1.8661Y-2.5276
X1.9528Y-2.7283
X2.0315Y-2.5315
X2.1687Y-2.5461
X2.3107Y-2.8872
X2.464Y-2.5461
X2.6811Y-2.5315
X2.6811Y-3.2205
X2.689Y-3.0984
X2.752Y-4.4134
X2.7992Y-4.2283
X2.8583Y-2.7677
X2.8583Y-2.8858
X2.8622Y-2.5157
X3.0394Y-4.6614
X3.0984Y-3.7047
X3.1693Y-3.6811
X3.1969Y-4.0591
X3.2402Y-3.0748
X3.3701Y-4.5591
X3.5669Y-3.4213
X3.6102Y-3.7402
X3.6181Y-3.9016
X3.7992Y-3.6969
X4.0906Y-4.6417
X4.0945Y-3.937
X4.0945Y-4.2441
T4
X2.6762Y-4.4915
X2.6762Y-4.5915
X2.8583Y-2.6512
X2.8583Y-3.0512
X3.0295Y-3.8262
X3.0295Y-3.9262
X3.1575Y-3.1717
X3.1575Y-3.2717
X3.3425Y-3.1717
X3.3425Y-3.2717
X3.3622Y-4.2992
X3.4622Y-4.2992
X3.6634Y-2.6204
X3.7634Y-2.6204
X4.1583Y-3.3957
X4.2971Y-2.2135
X4.3583Y-3.3957
X4.3971Y-2.2135
X4.5531Y-3.4331
X4.5531Y-3.8331
X4.6713Y-3.4331
X4.6713Y-3.8331
T5
X3.5772Y-3.2972
X3.5906Y-2.8248
X3.5906Y-2.9248
X3.5906Y-3.0248
X3.5906Y-3.1248
X3.6071Y-3.4941
X3.6772Y-3.2972
X3.7071Y-3.4941
X3.7362Y-2.8209
X3.8071Y-3.4941
X3.8362Y-2.8209
X3.9071Y-3.4941
X3.9362Y-2.8209
X4.0071Y-3.4941
X4.0362Y-2.8209
X4.1362Y-2.8209
X4.248Y-4.2799
X4.248Y-4.3799
X4.2795Y-2.8185
X4.2795Y-2.9185
X4.2795Y-3.0185
X4.2795Y-3.1185
X4.2795Y-3.2185
X4.4012Y-2.6614
X4.5012Y-2.6614
X4.6012Y-2.6614
X4.7012Y-2.6614
T6
X1.0292Y-3.738
X1.0292Y-3.838
X1.0292Y-3.938
X2.7274Y-3.7404
X2.7274Y-3.8404
X2.7274Y-3.9404
X4.4516Y-3.9449
X4.5516Y-3.9449
X4.6516Y-3.9449
T7
X2.6929Y-2.7661
X2.6929Y-3.3661
T8
X1.0079Y-3.3189
X1.0079Y-3.5551
X1.0079Y-4.3425
X1.0079Y-4.5787
X1.7477Y-2.8439
X1.7517Y-2.6825
T9
X0.9997Y-2.5447
X1.2359Y-2.5447
X3.2143Y-4.4049
X3.2143Y-4.6411
T0
M30
